<?xml version="1.0" encoding="utf-8" standalone="no"?>
<!DOCTYPE svg PUBLIC "-//W3C//DTD SVG 1.1//EN"
  "http://www.w3.org/Graphics/SVG/1.1/DTD/svg11.dtd">
<svg xmlns:xlink="http://www.w3.org/1999/xlink" width="1269.560313pt" height="328.198437pt" viewBox="0 0 1269.560313 328.198437" xmlns="http://www.w3.org/2000/svg" version="1.1">
 <metadata>
  <rdf:RDF xmlns:dc="http://purl.org/dc/elements/1.1/" xmlns:cc="http://creativecommons.org/ns#" xmlns:rdf="http://www.w3.org/1999/02/22-rdf-syntax-ns#">
   <cc:Work>
    <dc:type rdf:resource="http://purl.org/dc/dcmitype/StillImage"/>
    <dc:date>2022-09-22T16:37:21.383848</dc:date>
    <dc:format>image/svg+xml</dc:format>
    <dc:creator>
     <cc:Agent>
      <dc:title>Matplotlib v3.5.1, https://matplotlib.org/</dc:title>
     </cc:Agent>
    </dc:creator>
   </cc:Work>
  </rdf:RDF>
 </metadata>
 <defs>
  <style type="text/css">*{stroke-linejoin: round; stroke-linecap: butt}</style>
 </defs>
 <g id="figure_1">
  <g id="patch_1">
   <path d="M 0 328.198437 
L 1269.560313 328.198437 
L 1269.560313 0 
L 0 0 
z
" style="fill: #ffffff; stroke: #ffffff; stroke-linejoin: miter"/>
  </g>
  <g id="axes_1">
   <g id="patch_2">
    <path d="M 52.674219 284.4 
L 1168.674219 284.4 
L 1168.674219 7.2 
L 52.674219 7.2 
z
" style="fill: #ebebeb"/>
   </g>
   <g id="matplotlib.axis_1">
    <g id="xtick_1">
     <g id="line2d_1">
      <path d="M 103.401491 284.4 
L 103.401491 7.2 
" clip-path="url(#pb4baad7319)" style="fill: none; stroke: #ffffff"/>
     </g>
     <g id="line2d_2">
      <path d="M 103.401491 284.4 
" style="fill: none; stroke: #000000; stroke-width: 1.5"/>
      <defs>
       <path id="m7c3fe6392e" d="M 0 0 
L 0 2.75 
" style="stroke: #333333"/>
      </defs>
      <g>
       <use xlink:href="#m7c3fe6392e" x="103.401491" y="284.4" style="stroke: #333333"/>
      </g>
     </g>
     <g id="text_1">
      <!-- 0 -->
      <g style="fill: #4d4d4d" transform="translate(99.651491 299.765625)scale(0.15 -0.15)">
       <defs>
        <path id="TimesNewRomanPSMT-30" d="M 231 2094 
Q 231 2819 450 3342 
Q 669 3866 1031 4122 
Q 1313 4325 1613 4325 
Q 2100 4325 2488 3828 
Q 2972 3213 2972 2159 
Q 2972 1422 2759 906 
Q 2547 391 2217 158 
Q 1888 -75 1581 -75 
Q 975 -75 572 641 
Q 231 1244 231 2094 
z
M 844 2016 
Q 844 1141 1059 588 
Q 1238 122 1591 122 
Q 1759 122 1940 273 
Q 2122 425 2216 781 
Q 2359 1319 2359 2297 
Q 2359 3022 2209 3506 
Q 2097 3866 1919 4016 
Q 1791 4119 1609 4119 
Q 1397 4119 1231 3928 
Q 1006 3669 925 3112 
Q 844 2556 844 2016 
z
" transform="scale(0.015625)"/>
       </defs>
       <use xlink:href="#TimesNewRomanPSMT-30"/>
      </g>
     </g>
    </g>
    <g id="xtick_2">
     <g id="line2d_3">
      <path d="M 347.576089 284.4 
L 347.576089 7.2 
" clip-path="url(#pb4baad7319)" style="fill: none; stroke: #ffffff"/>
     </g>
     <g id="line2d_4">
      <path d="M 347.576089 284.4 
" style="fill: none; stroke: #000000; stroke-width: 1.5"/>
      <g>
       <use xlink:href="#m7c3fe6392e" x="347.576089" y="284.4" style="stroke: #333333"/>
      </g>
     </g>
     <g id="text_2">
      <!-- 200 -->
      <g style="fill: #4d4d4d" transform="translate(336.326089 299.765625)scale(0.15 -0.15)">
       <defs>
        <path id="TimesNewRomanPSMT-32" d="M 2934 816 
L 2638 0 
L 138 0 
L 138 116 
Q 1241 1122 1691 1759 
Q 2141 2397 2141 2925 
Q 2141 3328 1894 3587 
Q 1647 3847 1303 3847 
Q 991 3847 742 3664 
Q 494 3481 375 3128 
L 259 3128 
Q 338 3706 661 4015 
Q 984 4325 1469 4325 
Q 1984 4325 2329 3994 
Q 2675 3663 2675 3213 
Q 2675 2891 2525 2569 
Q 2294 2063 1775 1497 
Q 997 647 803 472 
L 1909 472 
Q 2247 472 2383 497 
Q 2519 522 2628 598 
Q 2738 675 2819 816 
L 2934 816 
z
" transform="scale(0.015625)"/>
       </defs>
       <use xlink:href="#TimesNewRomanPSMT-32"/>
       <use xlink:href="#TimesNewRomanPSMT-30" x="50"/>
       <use xlink:href="#TimesNewRomanPSMT-30" x="100"/>
      </g>
     </g>
    </g>
    <g id="xtick_3">
     <g id="line2d_5">
      <path d="M 591.750687 284.4 
L 591.750687 7.2 
" clip-path="url(#pb4baad7319)" style="fill: none; stroke: #ffffff"/>
     </g>
     <g id="line2d_6">
      <path d="M 591.750687 284.4 
" style="fill: none; stroke: #000000; stroke-width: 1.5"/>
      <g>
       <use xlink:href="#m7c3fe6392e" x="591.750687" y="284.4" style="stroke: #333333"/>
      </g>
     </g>
     <g id="text_3">
      <!-- 400 -->
      <g style="fill: #4d4d4d" transform="translate(580.500687 299.765625)scale(0.15 -0.15)">
       <defs>
        <path id="TimesNewRomanPSMT-34" d="M 2978 1563 
L 2978 1119 
L 2409 1119 
L 2409 0 
L 1894 0 
L 1894 1119 
L 100 1119 
L 100 1519 
L 2066 4325 
L 2409 4325 
L 2409 1563 
L 2978 1563 
z
M 1894 1563 
L 1894 3666 
L 406 1563 
L 1894 1563 
z
" transform="scale(0.015625)"/>
       </defs>
       <use xlink:href="#TimesNewRomanPSMT-34"/>
       <use xlink:href="#TimesNewRomanPSMT-30" x="50"/>
       <use xlink:href="#TimesNewRomanPSMT-30" x="100"/>
      </g>
     </g>
    </g>
    <g id="xtick_4">
     <g id="line2d_7">
      <path d="M 835.925285 284.4 
L 835.925285 7.2 
" clip-path="url(#pb4baad7319)" style="fill: none; stroke: #ffffff"/>
     </g>
     <g id="line2d_8">
      <path d="M 835.925285 284.4 
" style="fill: none; stroke: #000000; stroke-width: 1.5"/>
      <g>
       <use xlink:href="#m7c3fe6392e" x="835.925285" y="284.4" style="stroke: #333333"/>
      </g>
     </g>
     <g id="text_4">
      <!-- 600 -->
      <g style="fill: #4d4d4d" transform="translate(824.675285 299.765625)scale(0.15 -0.15)">
       <defs>
        <path id="TimesNewRomanPSMT-36" d="M 2869 4325 
L 2869 4209 
Q 2456 4169 2195 4045 
Q 1934 3922 1679 3669 
Q 1425 3416 1258 3105 
Q 1091 2794 978 2366 
Q 1428 2675 1881 2675 
Q 2316 2675 2634 2325 
Q 2953 1975 2953 1425 
Q 2953 894 2631 456 
Q 2244 -75 1606 -75 
Q 1172 -75 869 213 
Q 275 772 275 1663 
Q 275 2231 503 2743 
Q 731 3256 1154 3653 
Q 1578 4050 1965 4187 
Q 2353 4325 2688 4325 
L 2869 4325 
z
M 925 2138 
Q 869 1716 869 1456 
Q 869 1156 980 804 
Q 1091 453 1309 247 
Q 1469 100 1697 100 
Q 1969 100 2183 356 
Q 2397 613 2397 1088 
Q 2397 1622 2184 2012 
Q 1972 2403 1581 2403 
Q 1463 2403 1327 2353 
Q 1191 2303 925 2138 
z
" transform="scale(0.015625)"/>
       </defs>
       <use xlink:href="#TimesNewRomanPSMT-36"/>
       <use xlink:href="#TimesNewRomanPSMT-30" x="50"/>
       <use xlink:href="#TimesNewRomanPSMT-30" x="100"/>
      </g>
     </g>
    </g>
    <g id="xtick_5">
     <g id="line2d_9">
      <path d="M 1080.099883 284.4 
L 1080.099883 7.2 
" clip-path="url(#pb4baad7319)" style="fill: none; stroke: #ffffff"/>
     </g>
     <g id="line2d_10">
      <path d="M 1080.099883 284.4 
" style="fill: none; stroke: #000000; stroke-width: 1.5"/>
      <g>
       <use xlink:href="#m7c3fe6392e" x="1080.099883" y="284.4" style="stroke: #333333"/>
      </g>
     </g>
     <g id="text_5">
      <!-- 800 -->
      <g style="fill: #4d4d4d" transform="translate(1068.849883 299.765625)scale(0.15 -0.15)">
       <defs>
        <path id="TimesNewRomanPSMT-38" d="M 1228 2134 
Q 725 2547 579 2797 
Q 434 3047 434 3316 
Q 434 3728 753 4026 
Q 1072 4325 1600 4325 
Q 2113 4325 2425 4047 
Q 2738 3769 2738 3413 
Q 2738 3175 2569 2928 
Q 2400 2681 1866 2347 
Q 2416 1922 2594 1678 
Q 2831 1359 2831 1006 
Q 2831 559 2490 242 
Q 2150 -75 1597 -75 
Q 994 -75 656 303 
Q 388 606 388 966 
Q 388 1247 577 1523 
Q 766 1800 1228 2134 
z
M 1719 2469 
Q 2094 2806 2194 3001 
Q 2294 3197 2294 3444 
Q 2294 3772 2109 3958 
Q 1925 4144 1606 4144 
Q 1288 4144 1088 3959 
Q 888 3775 888 3528 
Q 888 3366 970 3203 
Q 1053 3041 1206 2894 
L 1719 2469 
z
M 1375 2016 
Q 1116 1797 991 1539 
Q 866 1281 866 981 
Q 866 578 1086 336 
Q 1306 94 1647 94 
Q 1984 94 2187 284 
Q 2391 475 2391 747 
Q 2391 972 2272 1150 
Q 2050 1481 1375 2016 
z
" transform="scale(0.015625)"/>
       </defs>
       <use xlink:href="#TimesNewRomanPSMT-38"/>
       <use xlink:href="#TimesNewRomanPSMT-30" x="50"/>
       <use xlink:href="#TimesNewRomanPSMT-30" x="100"/>
      </g>
     </g>
    </g>
    <g id="xtick_6">
     <g id="line2d_11">
      <path d="M 225.48879 284.4 
L 225.48879 7.2 
" clip-path="url(#pb4baad7319)" style="fill: none; stroke: #ffffff; stroke-width: 0.5"/>
     </g>
    </g>
    <g id="xtick_7">
     <g id="line2d_12">
      <path d="M 469.663388 284.4 
L 469.663388 7.2 
" clip-path="url(#pb4baad7319)" style="fill: none; stroke: #ffffff; stroke-width: 0.5"/>
     </g>
    </g>
    <g id="xtick_8">
     <g id="line2d_13">
      <path d="M 713.837986 284.4 
L 713.837986 7.2 
" clip-path="url(#pb4baad7319)" style="fill: none; stroke: #ffffff; stroke-width: 0.5"/>
     </g>
    </g>
    <g id="xtick_9">
     <g id="line2d_14">
      <path d="M 958.012584 284.4 
L 958.012584 7.2 
" clip-path="url(#pb4baad7319)" style="fill: none; stroke: #ffffff; stroke-width: 0.5"/>
     </g>
    </g>
    <g id="text_6">
     <!-- TimeIndex -->
     <g transform="translate(560.032812 317.789844)scale(0.15 -0.15)">
      <defs>
       <path id="TimesNewRomanPSMT-54" d="M 3703 4238 
L 3750 3244 
L 3631 3244 
Q 3597 3506 3538 3619 
Q 3441 3800 3280 3886 
Q 3119 3972 2856 3972 
L 2259 3972 
L 2259 734 
Q 2259 344 2344 247 
Q 2463 116 2709 116 
L 2856 116 
L 2856 0 
L 1059 0 
L 1059 116 
L 1209 116 
Q 1478 116 1591 278 
Q 1659 378 1659 734 
L 1659 3972 
L 1150 3972 
Q 853 3972 728 3928 
Q 566 3869 450 3700 
Q 334 3531 313 3244 
L 194 3244 
L 244 4238 
L 3703 4238 
z
" transform="scale(0.015625)"/>
       <path id="TimesNewRomanPSMT-69" d="M 928 4444 
Q 1059 4444 1151 4351 
Q 1244 4259 1244 4128 
Q 1244 3997 1151 3903 
Q 1059 3809 928 3809 
Q 797 3809 703 3903 
Q 609 3997 609 4128 
Q 609 4259 701 4351 
Q 794 4444 928 4444 
z
M 1188 2947 
L 1188 647 
Q 1188 378 1227 289 
Q 1266 200 1342 156 
Q 1419 113 1622 113 
L 1622 0 
L 231 0 
L 231 113 
Q 441 113 512 153 
Q 584 194 626 287 
Q 669 381 669 647 
L 669 1750 
Q 669 2216 641 2353 
Q 619 2453 572 2492 
Q 525 2531 444 2531 
Q 356 2531 231 2484 
L 188 2597 
L 1050 2947 
L 1188 2947 
z
" transform="scale(0.015625)"/>
       <path id="TimesNewRomanPSMT-6d" d="M 1050 2338 
Q 1363 2650 1419 2697 
Q 1559 2816 1721 2881 
Q 1884 2947 2044 2947 
Q 2313 2947 2506 2790 
Q 2700 2634 2766 2338 
Q 3088 2713 3309 2830 
Q 3531 2947 3766 2947 
Q 3994 2947 4170 2830 
Q 4347 2713 4450 2447 
Q 4519 2266 4519 1878 
L 4519 647 
Q 4519 378 4559 278 
Q 4591 209 4675 161 
Q 4759 113 4950 113 
L 4950 0 
L 3538 0 
L 3538 113 
L 3597 113 
Q 3781 113 3884 184 
Q 3956 234 3988 344 
Q 4000 397 4000 647 
L 4000 1878 
Q 4000 2228 3916 2372 
Q 3794 2572 3525 2572 
Q 3359 2572 3192 2489 
Q 3025 2406 2788 2181 
L 2781 2147 
L 2788 2013 
L 2788 647 
Q 2788 353 2820 281 
Q 2853 209 2943 161 
Q 3034 113 3253 113 
L 3253 0 
L 1806 0 
L 1806 113 
Q 2044 113 2133 169 
Q 2222 225 2256 338 
Q 2272 391 2272 647 
L 2272 1878 
Q 2272 2228 2169 2381 
Q 2031 2581 1784 2581 
Q 1616 2581 1450 2491 
Q 1191 2353 1050 2181 
L 1050 647 
Q 1050 366 1089 281 
Q 1128 197 1204 155 
Q 1281 113 1516 113 
L 1516 0 
L 100 0 
L 100 113 
Q 297 113 375 155 
Q 453 197 493 289 
Q 534 381 534 647 
L 534 1741 
Q 534 2213 506 2350 
Q 484 2453 437 2492 
Q 391 2531 309 2531 
Q 222 2531 100 2484 
L 53 2597 
L 916 2947 
L 1050 2947 
L 1050 2338 
z
" transform="scale(0.015625)"/>
       <path id="TimesNewRomanPSMT-65" d="M 681 1784 
Q 678 1147 991 784 
Q 1303 422 1725 422 
Q 2006 422 2214 576 
Q 2422 731 2563 1106 
L 2659 1044 
Q 2594 616 2278 264 
Q 1963 -88 1488 -88 
Q 972 -88 605 314 
Q 238 716 238 1394 
Q 238 2128 614 2539 
Q 991 2950 1559 2950 
Q 2041 2950 2350 2633 
Q 2659 2316 2659 1784 
L 681 1784 
z
M 681 1966 
L 2006 1966 
Q 1991 2241 1941 2353 
Q 1863 2528 1708 2628 
Q 1553 2728 1384 2728 
Q 1125 2728 920 2526 
Q 716 2325 681 1966 
z
" transform="scale(0.015625)"/>
       <path id="TimesNewRomanPSMT-49" d="M 1975 116 
L 1975 0 
L 159 0 
L 159 116 
L 309 116 
Q 572 116 691 269 
Q 766 369 766 750 
L 766 3488 
Q 766 3809 725 3913 
Q 694 3991 597 4047 
Q 459 4122 309 4122 
L 159 4122 
L 159 4238 
L 1975 4238 
L 1975 4122 
L 1822 4122 
Q 1563 4122 1444 3969 
Q 1366 3869 1366 3488 
L 1366 750 
Q 1366 428 1406 325 
Q 1438 247 1538 191 
Q 1672 116 1822 116 
L 1975 116 
z
" transform="scale(0.015625)"/>
       <path id="TimesNewRomanPSMT-6e" d="M 1034 2341 
Q 1538 2947 1994 2947 
Q 2228 2947 2397 2830 
Q 2566 2713 2666 2444 
Q 2734 2256 2734 1869 
L 2734 647 
Q 2734 375 2778 278 
Q 2813 200 2889 156 
Q 2966 113 3172 113 
L 3172 0 
L 1756 0 
L 1756 113 
L 1816 113 
Q 2016 113 2095 173 
Q 2175 234 2206 353 
Q 2219 400 2219 647 
L 2219 1819 
Q 2219 2209 2117 2386 
Q 2016 2563 1775 2563 
Q 1403 2563 1034 2156 
L 1034 647 
Q 1034 356 1069 288 
Q 1113 197 1189 155 
Q 1266 113 1500 113 
L 1500 0 
L 84 0 
L 84 113 
L 147 113 
Q 366 113 442 223 
Q 519 334 519 647 
L 519 1709 
Q 519 2225 495 2337 
Q 472 2450 423 2490 
Q 375 2531 294 2531 
Q 206 2531 84 2484 
L 38 2597 
L 900 2947 
L 1034 2947 
L 1034 2341 
z
" transform="scale(0.015625)"/>
       <path id="TimesNewRomanPSMT-64" d="M 2222 322 
Q 2013 103 1813 7 
Q 1613 -88 1381 -88 
Q 913 -88 563 304 
Q 213 697 213 1313 
Q 213 1928 600 2439 
Q 988 2950 1597 2950 
Q 1975 2950 2222 2709 
L 2222 3238 
Q 2222 3728 2198 3840 
Q 2175 3953 2125 3993 
Q 2075 4034 2000 4034 
Q 1919 4034 1784 3984 
L 1744 4094 
L 2597 4444 
L 2738 4444 
L 2738 1134 
Q 2738 631 2761 520 
Q 2784 409 2836 365 
Q 2888 322 2956 322 
Q 3041 322 3181 375 
L 3216 266 
L 2366 -88 
L 2222 -88 
L 2222 322 
z
M 2222 541 
L 2222 2016 
Q 2203 2228 2109 2403 
Q 2016 2578 1861 2667 
Q 1706 2756 1559 2756 
Q 1284 2756 1069 2509 
Q 784 2184 784 1559 
Q 784 928 1059 592 
Q 1334 256 1672 256 
Q 1956 256 2222 541 
z
" transform="scale(0.015625)"/>
       <path id="TimesNewRomanPSMT-78" d="M 84 2863 
L 1431 2863 
L 1431 2747 
Q 1303 2747 1251 2703 
Q 1200 2659 1200 2588 
Q 1200 2513 1309 2356 
Q 1344 2306 1413 2200 
L 1616 1875 
L 1850 2200 
Q 2075 2509 2075 2591 
Q 2075 2656 2022 2701 
Q 1969 2747 1850 2747 
L 1850 2863 
L 2819 2863 
L 2819 2747 
Q 2666 2738 2553 2663 
Q 2400 2556 2134 2200 
L 1744 1678 
L 2456 653 
Q 2719 275 2831 198 
Q 2944 122 3122 113 
L 3122 0 
L 1772 0 
L 1772 113 
Q 1913 113 1991 175 
Q 2050 219 2050 291 
Q 2050 363 1850 653 
L 1431 1266 
L 972 653 
Q 759 369 759 316 
Q 759 241 829 180 
Q 900 119 1041 113 
L 1041 0 
L 106 0 
L 106 113 
Q 219 128 303 191 
Q 422 281 703 653 
L 1303 1450 
L 759 2238 
Q 528 2575 401 2661 
Q 275 2747 84 2747 
L 84 2863 
z
" transform="scale(0.015625)"/>
      </defs>
      <use xlink:href="#TimesNewRomanPSMT-54"/>
      <use xlink:href="#TimesNewRomanPSMT-69" x="57.583984"/>
      <use xlink:href="#TimesNewRomanPSMT-6d" x="85.367188"/>
      <use xlink:href="#TimesNewRomanPSMT-65" x="163.150391"/>
      <use xlink:href="#TimesNewRomanPSMT-49" x="207.535156"/>
      <use xlink:href="#TimesNewRomanPSMT-6e" x="240.835938"/>
      <use xlink:href="#TimesNewRomanPSMT-64" x="290.835938"/>
      <use xlink:href="#TimesNewRomanPSMT-65" x="340.835938"/>
      <use xlink:href="#TimesNewRomanPSMT-78" x="385.220703"/>
     </g>
    </g>
   </g>
   <g id="matplotlib.axis_2">
    <g id="ytick_1">
     <g id="line2d_15">
      <path d="M 52.674219 278.610811 
L 1168.674219 278.610811 
" clip-path="url(#pb4baad7319)" style="fill: none; stroke: #ffffff"/>
     </g>
     <g id="line2d_16">
      <path d="M 52.674219 278.610811 
" style="fill: none; stroke: #000000; stroke-width: 1.5"/>
      <defs>
       <path id="ma9ed416dc3" d="M 0 0 
L -2.75 0 
" style="stroke: #333333"/>
      </defs>
      <g>
       <use xlink:href="#ma9ed416dc3" x="52.674219" y="278.610811" style="stroke: #333333"/>
      </g>
     </g>
     <g id="text_7">
      <!-- 0 -->
      <g style="fill: #4d4d4d" transform="translate(40.224219 282.214326)scale(0.15 -0.15)">
       <use xlink:href="#TimesNewRomanPSMT-30"/>
      </g>
     </g>
    </g>
    <g id="ytick_2">
     <g id="line2d_17">
      <path d="M 52.674219 221.854054 
L 1168.674219 221.854054 
" clip-path="url(#pb4baad7319)" style="fill: none; stroke: #ffffff"/>
     </g>
     <g id="line2d_18">
      <path d="M 52.674219 221.854054 
" style="fill: none; stroke: #000000; stroke-width: 1.5"/>
      <g>
       <use xlink:href="#ma9ed416dc3" x="52.674219" y="221.854054" style="stroke: #333333"/>
      </g>
     </g>
     <g id="text_8">
      <!-- 50 -->
      <g style="fill: #4d4d4d" transform="translate(32.724219 225.45757)scale(0.15 -0.15)">
       <defs>
        <path id="TimesNewRomanPSMT-35" d="M 2778 4238 
L 2534 3706 
L 1259 3706 
L 981 3138 
Q 1809 3016 2294 2522 
Q 2709 2097 2709 1522 
Q 2709 1188 2573 903 
Q 2438 619 2231 419 
Q 2025 219 1772 97 
Q 1413 -75 1034 -75 
Q 653 -75 479 54 
Q 306 184 306 341 
Q 306 428 378 495 
Q 450 563 559 563 
Q 641 563 702 538 
Q 763 513 909 409 
Q 1144 247 1384 247 
Q 1750 247 2026 523 
Q 2303 800 2303 1197 
Q 2303 1581 2056 1914 
Q 1809 2247 1375 2428 
Q 1034 2569 447 2591 
L 1259 4238 
L 2778 4238 
z
" transform="scale(0.015625)"/>
       </defs>
       <use xlink:href="#TimesNewRomanPSMT-35"/>
       <use xlink:href="#TimesNewRomanPSMT-30" x="50"/>
      </g>
     </g>
    </g>
    <g id="ytick_3">
     <g id="line2d_19">
      <path d="M 52.674219 165.097297 
L 1168.674219 165.097297 
" clip-path="url(#pb4baad7319)" style="fill: none; stroke: #ffffff"/>
     </g>
     <g id="line2d_20">
      <path d="M 52.674219 165.097297 
" style="fill: none; stroke: #000000; stroke-width: 1.5"/>
      <g>
       <use xlink:href="#ma9ed416dc3" x="52.674219" y="165.097297" style="stroke: #333333"/>
      </g>
     </g>
     <g id="text_9">
      <!-- 100 -->
      <g style="fill: #4d4d4d" transform="translate(25.224219 168.700813)scale(0.15 -0.15)">
       <defs>
        <path id="TimesNewRomanPSMT-31" d="M 750 3822 
L 1781 4325 
L 1884 4325 
L 1884 747 
Q 1884 391 1914 303 
Q 1944 216 2037 169 
Q 2131 122 2419 116 
L 2419 0 
L 825 0 
L 825 116 
Q 1125 122 1212 167 
Q 1300 213 1334 289 
Q 1369 366 1369 747 
L 1369 3034 
Q 1369 3497 1338 3628 
Q 1316 3728 1258 3775 
Q 1200 3822 1119 3822 
Q 1003 3822 797 3725 
L 750 3822 
z
" transform="scale(0.015625)"/>
       </defs>
       <use xlink:href="#TimesNewRomanPSMT-31"/>
       <use xlink:href="#TimesNewRomanPSMT-30" x="50"/>
       <use xlink:href="#TimesNewRomanPSMT-30" x="100"/>
      </g>
     </g>
    </g>
    <g id="ytick_4">
     <g id="line2d_21">
      <path d="M 52.674219 108.340541 
L 1168.674219 108.340541 
" clip-path="url(#pb4baad7319)" style="fill: none; stroke: #ffffff"/>
     </g>
     <g id="line2d_22">
      <path d="M 52.674219 108.340541 
" style="fill: none; stroke: #000000; stroke-width: 1.5"/>
      <g>
       <use xlink:href="#ma9ed416dc3" x="52.674219" y="108.340541" style="stroke: #333333"/>
      </g>
     </g>
     <g id="text_10">
      <!-- 150 -->
      <g style="fill: #4d4d4d" transform="translate(25.224219 111.944056)scale(0.15 -0.15)">
       <use xlink:href="#TimesNewRomanPSMT-31"/>
       <use xlink:href="#TimesNewRomanPSMT-35" x="50"/>
       <use xlink:href="#TimesNewRomanPSMT-30" x="100"/>
      </g>
     </g>
    </g>
    <g id="ytick_5">
     <g id="line2d_23">
      <path d="M 52.674219 51.583784 
L 1168.674219 51.583784 
" clip-path="url(#pb4baad7319)" style="fill: none; stroke: #ffffff"/>
     </g>
     <g id="line2d_24">
      <path d="M 52.674219 51.583784 
" style="fill: none; stroke: #000000; stroke-width: 1.5"/>
      <g>
       <use xlink:href="#ma9ed416dc3" x="52.674219" y="51.583784" style="stroke: #333333"/>
      </g>
     </g>
     <g id="text_11">
      <!-- 200 -->
      <g style="fill: #4d4d4d" transform="translate(25.224219 55.187299)scale(0.15 -0.15)">
       <use xlink:href="#TimesNewRomanPSMT-32"/>
       <use xlink:href="#TimesNewRomanPSMT-30" x="50"/>
       <use xlink:href="#TimesNewRomanPSMT-30" x="100"/>
      </g>
     </g>
    </g>
    <g id="ytick_6">
     <g id="line2d_25">
      <path d="M 52.674219 250.232432 
L 1168.674219 250.232432 
" clip-path="url(#pb4baad7319)" style="fill: none; stroke: #ffffff; stroke-width: 0.5"/>
     </g>
    </g>
    <g id="ytick_7">
     <g id="line2d_26">
      <path d="M 52.674219 193.475676 
L 1168.674219 193.475676 
" clip-path="url(#pb4baad7319)" style="fill: none; stroke: #ffffff; stroke-width: 0.5"/>
     </g>
    </g>
    <g id="ytick_8">
     <g id="line2d_27">
      <path d="M 52.674219 136.718919 
L 1168.674219 136.718919 
" clip-path="url(#pb4baad7319)" style="fill: none; stroke: #ffffff; stroke-width: 0.5"/>
     </g>
    </g>
    <g id="ytick_9">
     <g id="line2d_28">
      <path d="M 52.674219 79.962162 
L 1168.674219 79.962162 
" clip-path="url(#pb4baad7319)" style="fill: none; stroke: #ffffff; stroke-width: 0.5"/>
     </g>
    </g>
    <g id="ytick_10">
     <g id="line2d_29">
      <path d="M 52.674219 23.205405 
L 1168.674219 23.205405 
" clip-path="url(#pb4baad7319)" style="fill: none; stroke: #ffffff; stroke-width: 0.5"/>
     </g>
    </g>
    <g id="text_12">
     <!-- PM2.5 -->
     <g transform="translate(17.615625 164.214844)rotate(-90)scale(0.15 -0.15)">
      <defs>
       <path id="TimesNewRomanPSMT-50" d="M 1313 1984 
L 1313 750 
Q 1313 350 1400 253 
Q 1519 116 1759 116 
L 1922 116 
L 1922 0 
L 106 0 
L 106 116 
L 266 116 
Q 534 116 650 291 
Q 713 388 713 750 
L 713 3488 
Q 713 3888 628 3984 
Q 506 4122 266 4122 
L 106 4122 
L 106 4238 
L 1659 4238 
Q 2228 4238 2556 4120 
Q 2884 4003 3109 3725 
Q 3334 3447 3334 3066 
Q 3334 2547 2992 2222 
Q 2650 1897 2025 1897 
Q 1872 1897 1694 1919 
Q 1516 1941 1313 1984 
z
M 1313 2163 
Q 1478 2131 1606 2115 
Q 1734 2100 1825 2100 
Q 2150 2100 2386 2351 
Q 2622 2603 2622 3003 
Q 2622 3278 2509 3514 
Q 2397 3750 2190 3867 
Q 1984 3984 1722 3984 
Q 1563 3984 1313 3925 
L 1313 2163 
z
" transform="scale(0.015625)"/>
       <path id="TimesNewRomanPSMT-4d" d="M 2619 0 
L 981 3566 
L 981 734 
Q 981 344 1066 247 
Q 1181 116 1431 116 
L 1581 116 
L 1581 0 
L 106 0 
L 106 116 
L 256 116 
Q 525 116 638 278 
Q 706 378 706 734 
L 706 3503 
Q 706 3784 644 3909 
Q 600 4000 483 4061 
Q 366 4122 106 4122 
L 106 4238 
L 1306 4238 
L 2844 922 
L 4356 4238 
L 5556 4238 
L 5556 4122 
L 5409 4122 
Q 5138 4122 5025 3959 
Q 4956 3859 4956 3503 
L 4956 734 
Q 4956 344 5044 247 
Q 5159 116 5409 116 
L 5556 116 
L 5556 0 
L 3756 0 
L 3756 116 
L 3906 116 
Q 4178 116 4288 278 
Q 4356 378 4356 734 
L 4356 3566 
L 2722 0 
L 2619 0 
z
" transform="scale(0.015625)"/>
       <path id="TimesNewRomanPSMT-2e" d="M 800 606 
Q 947 606 1047 504 
Q 1147 403 1147 259 
Q 1147 116 1045 14 
Q 944 -88 800 -88 
Q 656 -88 554 14 
Q 453 116 453 259 
Q 453 406 554 506 
Q 656 606 800 606 
z
" transform="scale(0.015625)"/>
      </defs>
      <use xlink:href="#TimesNewRomanPSMT-50"/>
      <use xlink:href="#TimesNewRomanPSMT-4d" x="55.615234"/>
      <use xlink:href="#TimesNewRomanPSMT-32" x="144.53125"/>
      <use xlink:href="#TimesNewRomanPSMT-2e" x="194.53125"/>
      <use xlink:href="#TimesNewRomanPSMT-35" x="219.53125"/>
     </g>
    </g>
   </g>
   <g id="line2d_30">
    <path d="M 103.401491 185.52973 
L 104.622364 186.664865 
L 105.843237 185.52973 
L 107.06411 158.286486 
L 108.284983 125.367568 
L 109.505856 103.8 
L 110.726729 96.989189 
L 111.947602 112.881081 
L 113.168475 157.151351 
L 114.389348 175.313514 
L 116.831094 179.854054 
L 118.051967 186.664865 
L 119.27284 207.097297 
L 120.493713 216.178378 
L 121.714586 229.8 
L 122.935459 229.8 
L 124.156332 224.124324 
L 125.377205 222.989189 
L 126.598078 225.259459 
L 127.818951 217.313514 
L 129.039824 193.475676 
L 130.260697 193.475676 
L 131.48157 220.718919 
L 132.702443 225.259459 
L 133.923316 211.637838 
L 135.144189 191.205405 
L 136.365062 168.502703 
L 137.585935 179.854054 
L 138.806808 159.421622 
L 140.027681 109.475676 
L 141.248554 124.232432 
L 144.911173 188.935135 
L 146.132046 212.772973 
L 147.352919 209.367568 
L 148.573792 201.421622 
L 149.794665 261.583784 
L 151.015538 264.989189 
L 152.236411 212.772973 
L 153.457284 213.908108 
L 154.678157 220.718919 
L 155.89903 212.772973 
L 157.119903 203.691892 
L 158.340776 196.881081 
L 159.561649 179.854054 
L 160.782522 193.475676 
L 162.003395 187.8 
L 163.224268 199.151351 
L 164.445141 179.854054 
L 165.666014 173.043243 
L 166.886887 191.205405 
L 168.10776 196.881081 
L 169.328633 190.07027 
L 170.549506 194.610811 
L 171.770379 182.124324 
L 174.212125 140.124324 
L 175.432998 144.664865 
L 176.653871 216.178378 
L 177.874744 203.691892 
L 179.095617 156.016216 
L 180.31649 126.502703 
L 181.537363 132.178378 
L 182.758236 156.016216 
L 183.979109 175.313514 
L 185.199982 191.205405 
L 186.420855 204.827027 
L 187.641728 213.908108 
L 188.862601 210.502703 
L 190.083474 170.772973 
L 191.304347 146.935135 
L 192.52522 173.043243 
L 194.966966 114.016216 
L 196.187839 141.259459 
L 197.408712 161.691892 
L 198.629585 168.502703 
L 199.850458 167.367568 
L 201.071331 165.097297 
L 202.292204 168.502703 
L 203.513077 161.691892 
L 204.73395 171.908108 
L 205.954823 185.52973 
L 207.175696 183.259459 
L 208.396569 191.205405 
L 209.617442 196.881081 
L 210.838315 182.124324 
L 212.059188 174.178378 
L 213.280061 159.421622 
L 214.500934 159.421622 
L 215.721807 156.016216 
L 216.94268 160.556757 
L 218.163553 157.151351 
L 219.384426 163.962162 
L 220.605299 168.502703 
L 221.826171 168.502703 
L 223.047044 166.232432 
L 224.267917 176.448649 
L 225.48879 171.908108 
L 226.709663 183.259459 
L 227.930536 170.772973 
L 229.151409 160.556757 
L 230.372282 156.016216 
L 231.593155 153.745946 
L 232.814028 160.556757 
L 234.034901 161.691892 
L 235.255774 160.556757 
L 236.476647 173.043243 
L 237.69752 177.583784 
L 238.918393 184.394595 
L 240.139266 174.178378 
L 241.360139 186.664865 
L 242.581012 192.340541 
L 243.801885 177.583784 
L 245.022758 182.124324 
L 246.243631 173.043243 
L 247.464504 138.989189 
L 248.685377 148.07027 
L 249.90625 144.664865 
L 251.127123 148.07027 
L 252.347996 157.151351 
L 253.568869 159.421622 
L 254.789742 168.502703 
L 256.010615 173.043243 
L 258.452361 168.502703 
L 259.673234 154.881081 
L 260.894107 138.989189 
L 262.11498 156.016216 
L 263.335853 188.935135 
L 264.556726 196.881081 
L 265.777599 195.745946 
L 266.998472 182.124324 
L 268.219345 210.502703 
L 269.440218 226.394595 
L 270.661091 227.52973 
L 271.881964 230.935135 
L 273.102837 225.259459 
L 274.32371 221.854054 
L 275.544583 221.854054 
L 276.765456 224.124324 
L 277.986329 218.448649 
L 280.428075 213.908108 
L 281.648948 195.745946 
L 282.869821 204.827027 
L 284.090694 201.421622 
L 285.311567 210.502703 
L 286.53244 201.421622 
L 287.753313 209.367568 
L 288.974186 218.448649 
L 290.195059 221.854054 
L 291.415932 210.502703 
L 292.636805 216.178378 
L 293.857678 224.124324 
L 295.078551 235.475676 
L 297.520297 237.745946 
L 298.74117 229.8 
L 299.962043 234.340541 
L 301.182916 234.340541 
L 302.403789 232.07027 
L 303.624662 219.583784 
L 304.845535 222.989189 
L 306.066408 235.475676 
L 307.287281 233.205405 
L 308.508154 235.475676 
L 309.729027 243.421622 
L 310.9499 235.475676 
L 312.170773 237.745946 
L 313.391646 237.745946 
L 314.612519 228.664865 
L 315.833392 222.989189 
L 317.054265 210.502703 
L 318.275138 201.421622 
L 319.496011 186.664865 
L 320.716884 193.475676 
L 321.937757 198.016216 
L 323.15863 213.908108 
L 324.379503 213.908108 
L 325.600376 224.124324 
L 326.821249 235.475676 
L 328.042122 233.205405 
L 329.262995 238.881081 
L 330.483868 238.881081 
L 331.704741 229.8 
L 334.146487 198.016216 
L 335.36736 193.475676 
L 336.588233 194.610811 
L 337.809106 202.556757 
L 339.029979 156.016216 
L 340.250852 187.8 
L 341.471724 203.691892 
L 342.692597 203.691892 
L 343.91347 211.637838 
L 345.134343 195.745946 
L 346.355216 192.340541 
L 347.576089 201.421622 
L 348.796962 220.718919 
L 351.238708 232.07027 
L 352.459581 238.881081 
L 354.901327 250.232432 
L 356.1222 250.232432 
L 357.343073 255.908108 
L 358.563946 253.637838 
L 359.784819 254.772973 
L 361.005692 250.232432 
L 362.226565 244.556757 
L 363.447438 245.691892 
L 364.668311 249.097297 
L 365.889184 240.016216 
L 367.110057 236.610811 
L 368.33093 222.989189 
L 369.551803 216.178378 
L 371.993549 190.07027 
L 374.435295 208.232432 
L 375.656168 209.367568 
L 376.877041 191.205405 
L 378.097914 188.935135 
L 379.318787 194.610811 
L 380.53966 180.989189 
L 381.760533 177.583784 
L 382.981406 166.232432 
L 384.202279 166.232432 
L 385.423152 169.637838 
L 386.644025 167.367568 
L 387.864898 160.556757 
L 389.085771 141.259459 
L 390.306644 126.502703 
L 391.527517 126.502703 
L 392.74839 134.448649 
L 393.969263 152.610811 
L 395.190136 128.772973 
L 396.411009 129.908108 
L 397.631882 124.232432 
L 398.852755 92.448649 
L 400.073628 68.610811 
L 401.294501 65.205405 
L 402.515374 70.881081 
L 403.736247 77.691892 
L 404.95712 72.016216 
L 406.177993 58.394595 
L 407.398866 72.016216 
L 408.619739 114.016216 
L 409.840612 187.8 
L 411.061485 237.745946 
L 412.282358 251.367568 
L 413.503231 236.610811 
L 414.724104 235.475676 
L 415.944977 245.691892 
L 417.16585 246.827027 
L 418.386723 251.367568 
L 419.607596 252.502703 
L 420.828469 251.367568 
L 422.049342 258.178378 
L 423.270215 254.772973 
L 424.491088 257.043243 
L 425.711961 257.043243 
L 426.932834 262.718919 
L 428.153707 257.043243 
L 429.37458 263.854054 
L 431.816326 259.313514 
L 433.037199 261.583784 
L 434.258072 264.989189 
L 435.478945 255.908108 
L 436.699818 259.313514 
L 437.920691 254.772973 
L 439.141564 261.583784 
L 440.362437 257.043243 
L 441.58331 251.367568 
L 442.804183 254.772973 
L 444.025056 252.502703 
L 446.466802 243.421622 
L 447.687675 242.286486 
L 448.908548 242.286486 
L 450.129421 241.151351 
L 451.350294 242.286486 
L 452.571167 244.556757 
L 453.79204 240.016216 
L 455.012913 234.340541 
L 456.233786 233.205405 
L 457.454659 217.313514 
L 458.675532 195.745946 
L 459.896405 216.178378 
L 461.117277 224.124324 
L 463.559023 212.772973 
L 464.779896 215.043243 
L 466.000769 208.232432 
L 467.221642 218.448649 
L 468.442515 221.854054 
L 469.663388 232.07027 
L 470.884261 246.827027 
L 472.105134 245.691892 
L 473.326007 245.691892 
L 474.54688 241.151351 
L 475.767753 230.935135 
L 476.988626 225.259459 
L 479.430372 222.989189 
L 480.651245 225.259459 
L 481.872118 208.232432 
L 483.092991 177.583784 
L 484.313864 163.962162 
L 485.534737 146.935135 
L 486.75561 152.610811 
L 487.976483 144.664865 
L 489.197356 153.745946 
L 490.418229 158.286486 
L 491.639102 138.989189 
L 492.859975 145.8 
L 494.080848 165.097297 
L 495.301721 176.448649 
L 496.522594 177.583784 
L 497.743467 182.124324 
L 498.96434 204.827027 
L 500.185213 207.097297 
L 501.406086 217.313514 
L 502.626959 219.583784 
L 503.847832 222.989189 
L 507.510451 219.583784 
L 508.731324 219.583784 
L 513.614816 215.043243 
L 514.835689 215.043243 
L 522.160927 208.232432 
L 523.3818 208.232432 
L 525.823546 205.962162 
L 527.044419 205.962162 
L 528.265292 190.07027 
L 529.486165 176.448649 
L 530.707038 177.583784 
L 531.927911 173.043243 
L 533.148784 180.989189 
L 534.369657 179.854054 
L 535.59053 174.178378 
L 538.032276 180.989189 
L 540.474022 152.610811 
L 541.694895 133.313514 
L 542.915768 111.745946 
L 544.136641 109.475676 
L 545.357514 106.07027 
L 546.578387 127.637838 
L 547.79926 136.718919 
L 549.020133 118.556757 
L 550.241006 118.556757 
L 551.461879 119.691892 
L 552.682752 104.935135 
L 553.903625 78.827027 
L 555.124498 75.421622 
L 556.345371 83.367568 
L 557.566244 61.8 
L 558.787117 68.610811 
L 560.00799 90.178378 
L 561.228863 173.043243 
L 562.449736 159.421622 
L 588.088068 87.908108 
L 589.308941 90.178378 
L 590.529814 84.502703 
L 591.750687 90.178378 
L 592.97156 107.205405 
L 594.192433 111.745946 
L 595.413306 125.367568 
L 596.634179 142.394595 
L 597.855052 154.881081 
L 599.075925 165.097297 
L 600.296798 160.556757 
L 601.517671 176.448649 
L 602.738544 186.664865 
L 603.959417 200.286486 
L 605.18029 244.556757 
L 606.401163 260.448649 
L 607.622036 258.178378 
L 608.842909 253.637838 
L 611.284655 260.448649 
L 612.505528 267.259459 
L 613.726401 259.313514 
L 614.947274 262.718919 
L 616.168147 268.394595 
L 617.38902 271.8 
L 618.609893 268.394595 
L 621.051639 263.854054 
L 622.272512 259.313514 
L 623.493385 263.854054 
L 624.714258 267.259459 
L 625.935131 261.583784 
L 627.156004 264.989189 
L 628.376877 261.583784 
L 629.59775 260.448649 
L 630.818623 262.718919 
L 632.039496 262.718919 
L 633.260369 257.043243 
L 634.481242 263.854054 
L 635.702115 251.367568 
L 636.922988 253.637838 
L 638.143861 257.043243 
L 639.364734 261.583784 
L 640.585607 259.313514 
L 641.80648 259.313514 
L 643.027353 253.637838 
L 644.248226 249.097297 
L 645.469099 242.286486 
L 646.689972 245.691892 
L 647.910845 250.232432 
L 649.131718 218.448649 
L 650.352591 266.124324 
L 651.573464 216.178378 
L 652.794337 210.502703 
L 654.01521 210.502703 
L 655.236083 192.340541 
L 656.456956 185.52973 
L 657.677829 193.475676 
L 658.898702 176.448649 
L 660.119575 170.772973 
L 661.340448 168.502703 
L 662.561321 158.286486 
L 663.782194 146.935135 
L 665.003067 146.935135 
L 666.22394 138.989189 
L 667.444813 125.367568 
L 668.665686 114.016216 
L 669.886559 103.8 
L 671.107432 79.962162 
L 672.328305 48.178378 
L 673.549178 58.394595 
L 674.770051 57.259459 
L 675.990924 52.718919 
L 677.211797 75.421622 
L 678.43267 95.854054 
L 679.653543 127.637838 
L 680.874416 149.205405 
L 682.095289 173.043243 
L 683.316162 190.07027 
L 684.537035 193.475676 
L 685.757908 174.178378 
L 686.978781 79.962162 
L 688.199654 50.448649 
L 689.420527 73.151351 
L 690.6414 125.367568 
L 691.862273 131.043243 
L 693.083146 125.367568 
L 694.304019 114.016216 
L 695.524892 124.232432 
L 696.745765 135.583784 
L 697.966638 118.556757 
L 700.408384 98.124324 
L 701.629256 79.962162 
L 702.850129 205.962162 
L 704.071002 247.962162 
L 705.291875 145.8 
L 706.512748 140.124324 
L 707.733621 141.259459 
L 708.954494 159.421622 
L 710.175367 183.259459 
L 711.39624 178.718919 
L 712.617113 163.962162 
L 713.837986 143.52973 
L 715.058859 68.610811 
L 716.279732 157.151351 
L 717.500605 193.475676 
L 718.721478 184.394595 
L 719.942351 170.772973 
L 721.163224 177.583784 
L 722.384097 186.664865 
L 723.60497 202.556757 
L 724.825843 221.854054 
L 726.046716 234.340541 
L 727.267589 238.881081 
L 728.488462 245.691892 
L 729.709335 235.475676 
L 730.930208 236.610811 
L 732.151081 250.232432 
L 733.371954 244.556757 
L 734.592827 245.691892 
L 735.8137 253.637838 
L 737.034573 250.232432 
L 738.255446 253.637838 
L 739.476319 250.232432 
L 740.697192 243.421622 
L 741.918065 251.367568 
L 743.138938 242.286486 
L 750.464176 221.854054 
L 751.685049 217.313514 
L 757.789414 200.286486 
L 759.010287 200.286486 
L 760.23116 187.8 
L 761.452033 19.8 
L 762.672906 207.097297 
L 763.893779 203.691892 
L 765.114652 198.016216 
L 766.335525 213.908108 
L 767.556398 211.637838 
L 768.777271 218.448649 
L 769.998144 217.313514 
L 771.219017 201.421622 
L 772.43989 193.475676 
L 773.660763 156.016216 
L 774.881636 157.151351 
L 776.102509 171.908108 
L 777.323382 151.475676 
L 778.544255 112.881081 
L 779.765128 132.178378 
L 780.986001 138.989189 
L 782.206874 126.502703 
L 783.427747 127.637838 
L 784.64862 123.097297 
L 785.869493 99.259459 
L 787.090366 104.935135 
L 788.311239 115.151351 
L 790.752985 180.989189 
L 791.973858 184.394595 
L 793.194731 182.124324 
L 794.415604 170.772973 
L 795.636477 183.259459 
L 798.078223 218.448649 
L 799.299096 227.52973 
L 800.519969 226.394595 
L 801.740842 226.394595 
L 802.961715 224.124324 
L 804.182588 232.07027 
L 805.403461 225.259459 
L 806.624334 216.178378 
L 807.845207 218.448649 
L 809.06608 211.637838 
L 810.286953 208.232432 
L 811.507826 205.962162 
L 812.728699 204.827027 
L 813.949572 209.367568 
L 815.170445 212.772973 
L 816.391318 220.718919 
L 817.612191 211.637838 
L 818.833064 199.151351 
L 820.053937 201.421622 
L 821.274809 219.583784 
L 822.495682 225.259459 
L 823.716555 229.8 
L 824.937428 232.07027 
L 826.158301 238.881081 
L 827.379174 238.881081 
L 828.600047 234.340541 
L 829.82092 235.475676 
L 831.041793 230.935135 
L 832.262666 227.52973 
L 833.483539 222.989189 
L 839.587904 177.583784 
L 840.808777 167.367568 
L 846.913142 121.962162 
L 848.134015 121.962162 
L 849.354888 133.313514 
L 850.575761 132.178378 
L 851.796634 157.151351 
L 853.017507 185.52973 
L 854.23838 201.421622 
L 855.459253 205.962162 
L 856.680126 208.232432 
L 857.900999 221.854054 
L 859.121872 218.448649 
L 860.342745 213.908108 
L 865.226237 209.367568 
L 866.44711 220.718919 
L 867.667983 219.583784 
L 868.888856 220.718919 
L 870.109729 211.637838 
L 871.330602 205.962162 
L 872.551475 184.394595 
L 873.772348 190.07027 
L 874.993221 196.881081 
L 876.214094 186.664865 
L 877.434967 178.718919 
L 878.65584 168.502703 
L 879.876713 174.178378 
L 881.097586 177.583784 
L 882.318459 204.827027 
L 883.539332 227.52973 
L 884.760205 230.935135 
L 885.981078 232.07027 
L 887.201951 246.827027 
L 888.422824 236.610811 
L 889.643697 227.52973 
L 890.86457 226.394595 
L 892.085443 217.313514 
L 893.306316 222.989189 
L 894.527189 224.124324 
L 895.748062 218.448649 
L 896.968935 213.908108 
L 898.189808 212.772973 
L 900.631554 203.691892 
L 901.852427 203.691892 
L 903.0733 198.016216 
L 905.515046 162.827027 
L 906.735919 108.340541 
L 907.956792 187.8 
L 909.177665 200.286486 
L 910.398538 218.448649 
L 911.619411 224.124324 
L 912.840284 230.935135 
L 914.061157 238.881081 
L 915.28203 242.286486 
L 917.723776 251.367568 
L 918.944649 244.556757 
L 920.165522 229.8 
L 921.386395 235.475676 
L 922.607268 230.935135 
L 923.828141 211.637838 
L 925.049014 211.637838 
L 926.269887 207.097297 
L 927.49076 204.827027 
L 928.711633 194.610811 
L 929.932506 192.340541 
L 931.153379 188.935135 
L 932.374252 198.016216 
L 933.595125 170.772973 
L 934.815998 178.718919 
L 936.036871 182.124324 
L 937.257744 171.908108 
L 938.478617 170.772973 
L 939.69949 173.043243 
L 940.920362 191.205405 
L 942.141235 207.097297 
L 943.362108 225.259459 
L 944.582981 226.394595 
L 945.803854 216.178378 
L 947.024727 210.502703 
L 948.2456 182.124324 
L 949.466473 184.394595 
L 950.687346 201.421622 
L 951.908219 216.178378 
L 953.129092 215.043243 
L 954.349965 219.583784 
L 955.570838 217.313514 
L 956.791711 218.448649 
L 958.012584 224.124324 
L 959.233457 220.718919 
L 960.45433 221.854054 
L 961.675203 216.178378 
L 962.896076 207.097297 
L 964.116949 213.908108 
L 965.337822 224.124324 
L 966.558695 220.718919 
L 967.779568 213.908108 
L 969.000441 219.583784 
L 970.221314 229.8 
L 971.442187 232.07027 
L 972.66306 230.935135 
L 973.883933 233.205405 
L 975.104806 238.881081 
L 977.546552 236.610811 
L 979.988298 211.637838 
L 981.209171 194.610811 
L 982.430044 207.097297 
L 983.650917 188.935135 
L 984.87179 188.935135 
L 986.092663 182.124324 
L 987.313536 154.881081 
L 988.534409 136.718919 
L 989.755282 131.043243 
L 990.976155 89.043243 
L 992.197028 74.286486 
L 993.417901 120.827027 
L 994.638774 153.745946 
L 995.859647 157.151351 
L 997.08052 157.151351 
L 998.301393 166.232432 
L 999.522266 173.043243 
L 1000.743139 183.259459 
L 1001.964012 194.610811 
L 1003.184885 198.016216 
L 1004.405758 204.827027 
L 1005.626631 200.286486 
L 1006.847504 188.935135 
L 1008.068377 207.097297 
L 1009.28925 216.178378 
L 1010.510123 212.772973 
L 1011.730996 208.232432 
L 1012.951869 207.097297 
L 1014.172742 207.097297 
L 1015.393615 218.448649 
L 1016.614488 211.637838 
L 1017.835361 210.502703 
L 1019.056234 200.286486 
L 1020.277107 193.475676 
L 1021.49798 196.881081 
L 1022.718853 202.556757 
L 1023.939726 195.745946 
L 1025.160599 183.259459 
L 1026.381472 193.475676 
L 1027.602345 198.016216 
L 1028.823218 199.151351 
L 1030.044091 203.691892 
L 1031.264964 211.637838 
L 1032.485837 218.448649 
L 1033.70671 226.394595 
L 1034.927583 225.259459 
L 1036.148456 218.448649 
L 1037.369329 222.989189 
L 1038.590202 205.962162 
L 1039.811075 203.691892 
L 1041.031948 202.556757 
L 1042.252821 185.52973 
L 1043.473694 178.718919 
L 1044.694567 179.854054 
L 1045.91544 176.448649 
L 1047.136313 176.448649 
L 1048.357186 173.043243 
L 1049.578059 167.367568 
L 1050.798932 163.962162 
L 1052.019805 163.962162 
L 1053.240678 160.556757 
L 1054.461551 158.286486 
L 1055.682424 159.421622 
L 1056.903297 162.827027 
L 1058.12417 167.367568 
L 1059.345043 170.772973 
L 1060.565916 200.286486 
L 1061.786788 200.286486 
L 1064.228534 184.394595 
L 1065.449407 187.8 
L 1066.67028 219.583784 
L 1069.112026 219.583784 
L 1070.332899 204.827027 
L 1071.553772 208.232432 
L 1072.774645 209.367568 
L 1073.995518 203.691892 
L 1075.216391 210.502703 
L 1076.437264 200.286486 
L 1077.658137 198.016216 
L 1078.87901 191.205405 
L 1080.099883 199.151351 
L 1081.320756 203.691892 
L 1082.541629 209.367568 
L 1083.762502 208.232432 
L 1084.983375 221.854054 
L 1086.204248 222.989189 
L 1087.425121 228.664865 
L 1088.645994 228.664865 
L 1089.866867 233.205405 
L 1091.08774 204.827027 
L 1092.308613 204.827027 
L 1093.529486 198.016216 
L 1094.750359 199.151351 
L 1095.971232 205.962162 
L 1097.192105 209.367568 
L 1098.412978 208.232432 
L 1099.633851 210.502703 
L 1100.854724 201.421622 
L 1102.075597 198.016216 
L 1103.29647 198.016216 
L 1104.517343 196.881081 
L 1106.959089 183.259459 
L 1108.179962 173.043243 
L 1109.400835 159.421622 
L 1110.621708 141.259459 
L 1111.842581 128.772973 
L 1113.063454 142.394595 
L 1114.284327 171.908108 
L 1115.5052 159.421622 
L 1116.726073 163.962162 
L 1117.946946 169.637838 
L 1117.946946 169.637838 
" clip-path="url(#pb4baad7319)" style="fill: none; stroke: #db5f57; stroke-width: 1.417963"/>
   </g>
   <g id="line2d_31">
    <path d="M 103.401491 198.871751 
L 104.622364 202.701411 
L 105.843237 182.12914 
L 107.06411 172.245015 
L 108.284983 154.27772 
L 109.505856 132.095949 
L 110.726729 112.821394 
L 111.947602 106.041223 
L 113.168475 115.316522 
L 114.389348 149.347921 
L 115.610221 168.077694 
L 118.051967 191.962324 
L 119.27284 198.39872 
L 120.493713 216.563173 
L 121.714586 231.731688 
L 122.935459 236.936762 
L 124.156332 236.913812 
L 125.377205 232.97125 
L 126.598078 227.309886 
L 129.039824 219.477651 
L 130.260697 204.268934 
L 131.48157 212.103793 
L 132.702443 238.875577 
L 133.923316 242.289154 
L 135.144189 219.017671 
L 136.365062 192.964652 
L 137.585935 173.641443 
L 138.806808 169.604322 
L 140.027681 156.692143 
L 141.248554 129.591501 
L 142.469427 136.046093 
L 143.6903 145.835664 
L 144.911173 166.043826 
L 146.132046 196.365207 
L 147.352919 221.259683 
L 148.573792 221.53549 
L 149.794665 212.994151 
L 151.015538 231.897188 
L 152.236411 230.155695 
L 153.457284 218.08945 
L 154.678157 217.173271 
L 155.89903 223.000699 
L 157.119903 218.608554 
L 159.561649 198.23464 
L 160.782522 184.261164 
L 162.003395 186.25056 
L 163.224268 183.656322 
L 164.445141 189.063092 
L 165.666014 175.156691 
L 166.886887 167.364917 
L 168.10776 180.034528 
L 169.328633 185.197015 
L 170.549506 179.312476 
L 171.770379 181.822648 
L 172.991252 166.884482 
L 174.212125 149.987889 
L 175.432998 128.137768 
L 176.653871 140.55588 
L 177.874744 224.890254 
L 179.095617 221.416765 
L 180.31649 159.424012 
L 181.537363 121.559766 
L 182.758236 130.050381 
L 183.979109 140.480145 
L 185.199982 159.236653 
L 186.420855 180.731516 
L 187.641728 199.284756 
L 188.862601 190.017563 
L 191.304347 136.68135 
L 192.52522 129.62739 
L 193.746093 149.814612 
L 194.966966 143.196582 
L 196.187839 128.835033 
L 197.408712 151.426156 
L 198.629585 165.524237 
L 199.850458 167.899879 
L 201.071331 163.577563 
L 202.292204 156.482535 
L 203.513077 155.747043 
L 204.73395 157.269297 
L 205.954823 178.819501 
L 207.175696 194.582604 
L 208.396569 192.087536 
L 209.617442 188.594271 
L 210.838315 189.110707 
L 212.059188 175.102945 
L 213.280061 180.389422 
L 214.500934 152.980263 
L 215.721807 146.105807 
L 218.163553 154.121452 
L 219.384426 151.229097 
L 220.605299 152.401402 
L 221.826171 164.539083 
L 223.047044 172.463776 
L 224.267917 170.810758 
L 225.48879 174.990169 
L 226.709663 171.106822 
L 227.930536 174.144265 
L 229.151409 154.812803 
L 230.372282 146.635494 
L 231.593155 142.643867 
L 232.814028 149.852337 
L 234.034901 158.365625 
L 235.255774 162.923564 
L 236.476647 153.637085 
L 237.69752 166.247372 
L 238.918393 181.347504 
L 240.139266 186.737543 
L 241.360139 182.406237 
L 242.581012 184.131795 
L 243.801885 173.857277 
L 245.022758 160.17214 
L 246.243631 166.262614 
L 248.685377 138.538156 
L 249.90625 142.269157 
L 251.127123 143.284883 
L 252.347996 150.000239 
L 253.568869 149.813296 
L 254.789742 153.20397 
L 256.010615 162.038888 
L 257.231488 167.478862 
L 258.452361 160.369926 
L 259.673234 155.681059 
L 260.894107 139.583379 
L 262.11498 133.362098 
L 263.335853 163.965375 
L 264.556726 210.284106 
L 265.777599 206.503623 
L 266.998472 192.036682 
L 268.219345 184.714362 
L 269.440218 210.979384 
L 270.661091 233.931393 
L 271.881964 236.373936 
L 273.102837 238.068273 
L 274.32371 231.273254 
L 275.544583 229.262103 
L 276.765456 231.129396 
L 277.986329 231.239596 
L 279.207202 226.756993 
L 280.428075 221.246761 
L 281.648948 214.885139 
L 282.869821 203.042951 
L 284.090694 205.993249 
L 285.311567 200.350954 
L 286.53244 205.541267 
L 287.753313 198.014692 
L 290.195059 209.020541 
L 291.415932 220.242415 
L 293.857678 234.455377 
L 295.078551 236.308671 
L 296.299424 233.571537 
L 297.520297 241.022376 
L 298.74117 243.847172 
L 301.182916 239.629499 
L 302.403789 239.728544 
L 303.624662 239.3058 
L 304.845535 238.403746 
L 306.066408 239.88922 
L 307.287281 243.557993 
L 308.508154 243.524628 
L 309.729027 243.992077 
L 310.9499 240.49569 
L 312.170773 239.405962 
L 313.391646 240.932611 
L 314.612519 238.96209 
L 315.833392 235.144043 
L 317.054265 223.393664 
L 318.275138 208.888856 
L 319.496011 196.382147 
L 320.716884 190.53807 
L 321.937757 201.414494 
L 324.379503 225.685425 
L 325.600376 225.947519 
L 328.042122 240.154886 
L 329.262995 240.296389 
L 330.483868 239.997882 
L 331.704741 241.414571 
L 332.925614 235.342236 
L 334.146487 223.750849 
L 335.36736 203.306045 
L 336.588233 190.1911 
L 337.809106 184.653419 
L 339.029979 186.232512 
L 340.250852 164.478651 
L 342.692597 196.08539 
L 343.91347 199.626625 
L 345.134343 208.636674 
L 346.355216 197.954407 
L 347.576089 196.749244 
L 348.796962 200.4358 
L 350.017835 222.935516 
L 351.238708 233.492892 
L 352.459581 240.814925 
L 353.680454 243.609136 
L 354.901327 247.985584 
L 356.1222 254.185928 
L 357.343073 252.441829 
L 358.563946 253.328177 
L 359.784819 250.981193 
L 361.005692 254.123998 
L 364.668311 248.963576 
L 365.889184 252.394976 
L 367.110057 252.782442 
L 368.33093 245.824075 
L 369.551803 231.165038 
L 370.772676 203.970869 
L 371.993549 190.105925 
L 373.214422 171.429647 
L 374.435295 171.119068 
L 375.656168 179.132591 
L 376.877041 182.160282 
L 378.097914 170.808905 
L 379.318787 170.843815 
L 380.53966 178.707158 
L 381.760533 164.742109 
L 384.202279 140.412655 
L 385.423152 142.167528 
L 386.644025 149.610097 
L 387.864898 150.351539 
L 389.085771 148.920141 
L 391.527517 137.961218 
L 392.74839 126.985243 
L 393.969263 128.66257 
L 395.190136 157.5494 
L 396.411009 149.930696 
L 398.852755 127.322011 
L 400.073628 102.597833 
L 401.294501 81.828252 
L 402.515374 74.0097 
L 403.736247 77.457472 
L 404.95712 81.779823 
L 406.177993 75.218657 
L 407.398866 64.858591 
L 408.619739 76.258112 
L 409.840612 116.975611 
L 411.061485 211.049442 
L 412.282358 244.088035 
L 413.503231 257.416524 
L 414.724104 254.670577 
L 415.944977 250.84477 
L 417.16585 251.507797 
L 418.386723 245.113148 
L 419.607596 249.979913 
L 422.049342 252.435065 
L 423.270215 254.251098 
L 424.491088 253.777067 
L 425.711961 257.32287 
L 426.932834 257.556917 
L 428.153707 257.515031 
L 429.37458 258.164271 
L 430.595453 258.290513 
L 431.816326 259.332869 
L 433.037199 259.166278 
L 434.258072 257.794454 
L 435.478945 257.983632 
L 436.699818 256.641916 
L 437.920691 258.450804 
L 439.141564 258.701146 
L 440.362437 259.380199 
L 441.58331 258.611719 
L 442.804183 258.964759 
L 444.025056 259.50496 
L 445.245929 254.814244 
L 446.466802 247.550525 
L 447.687675 241.640023 
L 450.129421 235.330034 
L 451.350294 240.10085 
L 453.79204 242.079494 
L 455.012913 240.516757 
L 456.233786 233.627457 
L 457.454659 231.962067 
L 458.675532 225.021021 
L 459.896405 207.754864 
L 461.117277 208.502342 
L 462.33815 210.286106 
L 463.559023 202.895118 
L 464.779896 192.784169 
L 466.000769 196.51401 
L 467.221642 200.865633 
L 468.442515 214.671517 
L 469.663388 234.100496 
L 470.884261 243.003047 
L 472.105134 250.581931 
L 473.326007 252.122845 
L 474.54688 248.303676 
L 475.767753 245.46893 
L 476.988626 237.474144 
L 478.209499 230.870104 
L 479.430372 227.451427 
L 480.651245 225.94063 
L 481.872118 227.025171 
L 483.092991 210.873437 
L 484.313864 171.465839 
L 485.534737 156.915945 
L 486.75561 146.875829 
L 487.976483 148.799562 
L 489.197356 145.391533 
L 490.418229 146.106249 
L 491.639102 148.902543 
L 492.859975 135.886707 
L 494.080848 138.242334 
L 495.301721 148.753896 
L 496.522594 164.405557 
L 497.743467 176.500334 
L 498.96434 184.061706 
L 500.185213 193.656254 
L 501.406086 221.226279 
L 502.626959 212.723037 
L 503.847832 227.108172 
L 505.068705 230.262383 
L 506.289578 225.073659 
L 507.510451 222.302385 
L 508.731324 218.054306 
L 509.952197 219.419604 
L 511.17307 218.575047 
L 512.393943 219.409762 
L 513.614816 218.769248 
L 514.835689 219.221268 
L 516.056562 217.360635 
L 517.277435 217.100191 
L 518.498308 215.551388 
L 519.719181 211.73813 
L 520.940054 211.058293 
L 522.160927 205.363452 
L 523.3818 204.430043 
L 524.602673 202.42938 
L 525.823546 204.861218 
L 527.044419 210.042689 
L 528.265292 212.708921 
L 529.486165 197.926391 
L 530.707038 160.639013 
L 531.927911 177.36109 
L 533.148784 178.881362 
L 534.369657 182.438307 
L 535.59053 161.289331 
L 536.811403 160.138607 
L 538.032276 161.451964 
L 539.253149 163.195622 
L 540.474022 156.211248 
L 541.694895 144.775475 
L 542.915768 126.103389 
L 544.136641 112.486063 
L 545.357514 110.42437 
L 546.578387 104.251622 
L 547.79926 114.106423 
L 549.020133 124.979374 
L 550.241006 107.527052 
L 551.461879 104.328561 
L 552.682752 100.098894 
L 553.903625 83.01211 
L 555.124498 71.130535 
L 556.345371 68.808787 
L 557.566244 103.484052 
L 558.787117 91.937547 
L 560.00799 55.61783 
L 561.228863 70.020169 
L 562.449736 183.634429 
L 563.670609 185.448028 
L 564.891482 162.57294 
L 566.112355 144.429787 
L 567.333228 137.285447 
L 568.554101 137.896057 
L 569.774974 139.778446 
L 572.21672 123.987465 
L 573.437593 123.633982 
L 574.658466 125.416603 
L 577.100212 117.49714 
L 578.321085 115.046214 
L 579.541958 110.379786 
L 580.76283 104.791234 
L 581.983703 106.237347 
L 583.204576 100.468606 
L 584.425449 100.949327 
L 585.646322 100.415085 
L 586.867195 103.359896 
L 588.088068 100.612975 
L 589.308941 92.945599 
L 590.529814 96.687842 
L 591.750687 71.219564 
L 592.97156 82.703471 
L 594.192433 116.207902 
L 595.413306 128.528438 
L 596.634179 135.500575 
L 597.855052 130.19035 
L 602.738544 185.795916 
L 603.959417 178.630462 
L 605.18029 211.729149 
L 606.401163 248.147516 
L 607.622036 261.381979 
L 608.842909 261.265592 
L 610.063782 255.871929 
L 611.284655 254.776623 
L 612.505528 255.111503 
L 613.726401 259.446494 
L 614.947274 259.147165 
L 616.168147 263.096088 
L 617.38902 262.607321 
L 618.609893 261.419877 
L 619.830766 261.86309 
L 621.051639 258.929893 
L 622.272512 258.98493 
L 623.493385 256.35724 
L 624.714258 259.516323 
L 625.935131 259.463001 
L 627.156004 258.294337 
L 628.376877 261.043003 
L 629.59775 258.282624 
L 630.818623 259.24365 
L 632.039496 262.006307 
L 633.260369 262.071095 
L 634.481242 260.913062 
L 635.702115 261.928788 
L 636.922988 257.83085 
L 638.143861 255.440824 
L 639.364734 253.801753 
L 640.585607 254.400325 
L 641.80648 253.207044 
L 643.027353 253.337179 
L 644.248226 253.13279 
L 645.469099 250.316269 
L 646.689972 245.351629 
L 647.910845 244.929565 
L 649.131718 239.739014 
L 650.352591 218.113405 
L 651.573464 241.159085 
L 652.794337 228.485495 
L 654.01521 221.615408 
L 655.236083 211.239598 
L 656.456956 190.368673 
L 657.677829 172.410316 
L 658.898702 169.448158 
L 660.119575 160.797299 
L 661.340448 155.977045 
L 662.561321 163.028147 
L 663.782194 148.568849 
L 665.003067 141.397558 
L 666.22394 136.127864 
L 667.444813 126.215905 
L 668.665686 119.270841 
L 669.886559 103.310376 
L 671.107432 85.390636 
L 673.549178 52.787579 
L 674.770051 70.19284 
L 675.990924 82.439814 
L 677.211797 80.576046 
L 678.43267 115.452092 
L 679.653543 142.809886 
L 680.874416 175.443965 
L 682.095289 188.483617 
L 683.316162 192.698042 
L 684.537035 194.569804 
L 685.757908 200.163994 
L 686.978781 181.795446 
L 688.199654 97.028992 
L 689.420527 64.359805 
L 690.6414 74.118994 
L 691.862273 119.832623 
L 693.083146 138.257022 
L 694.304019 129.766268 
L 695.524892 114.784497 
L 696.745765 118.570769 
L 697.966638 129.850343 
L 699.187511 119.00921 
L 700.408384 105.335176 
L 701.629256 98.587534 
L 702.850129 89.026044 
L 704.071002 182.054305 
L 705.291875 202.66612 
L 706.512748 156.894458 
L 707.733621 149.853792 
L 708.954494 145.524937 
L 710.175367 161.376125 
L 711.39624 188.105417 
L 712.617113 187.351868 
L 713.837986 165.361838 
L 715.058859 139.160033 
L 716.279732 80.147945 
L 717.500605 153.471645 
L 718.721478 212.363899 
L 719.942351 208.751484 
L 721.163224 187.079525 
L 722.384097 182.457923 
L 723.60497 190.103569 
L 724.825843 211.849359 
L 726.046716 238.805402 
L 727.267589 250.155433 
L 728.488462 253.835797 
L 729.709335 253.492936 
L 730.930208 252.421568 
L 732.151081 256.008413 
L 733.371954 260.363716 
L 734.592827 259.51091 
L 735.8137 258.859423 
L 737.034573 260.429171 
L 739.476319 257.840961 
L 740.697192 256.121691 
L 741.918065 253.68217 
L 743.138938 253.492997 
L 744.359811 249.749295 
L 745.580684 247.952744 
L 746.801557 244.0911 
L 748.02243 241.33936 
L 749.243303 239.605103 
L 750.464176 236.139335 
L 751.685049 231.534136 
L 752.905922 226.434095 
L 754.126795 218.949631 
L 755.347668 216.10131 
L 757.789414 205.580845 
L 759.010287 198.243136 
L 760.23116 200.918661 
L 761.452033 199.035077 
L 762.672906 114.744677 
L 763.893779 189.026849 
L 765.114652 187.433596 
L 766.335525 188.86451 
L 767.556398 196.205042 
L 768.777271 202.420018 
L 769.998144 203.38269 
L 771.219017 202.586254 
L 772.43989 184.197597 
L 773.660763 179.460898 
L 774.881636 151.779759 
L 776.102509 148.871132 
L 777.323382 161.323825 
L 778.544255 145.909268 
L 779.765128 123.794563 
L 780.986001 126.289969 
L 782.206874 127.776906 
L 783.427747 122.516081 
L 784.64862 118.560377 
L 785.869493 112.034441 
L 787.090366 99.706266 
L 788.311239 97.521734 
L 789.532112 110.702542 
L 790.752985 147.981155 
L 791.973858 192.098275 
L 793.194731 190.801649 
L 794.415604 188.038481 
L 795.636477 184.630391 
L 796.85735 192.612564 
L 798.078223 206.75661 
L 799.299096 226.095252 
L 800.519969 233.778719 
L 801.740842 233.240688 
L 802.961715 234.315824 
L 804.182588 234.302656 
L 805.403461 235.110237 
L 806.624334 234.594433 
L 807.845207 231.785196 
L 809.06608 225.220427 
L 810.286953 222.79679 
L 811.507826 216.74463 
L 812.728699 214.033285 
L 813.949572 211.827466 
L 815.170445 211.852858 
L 816.391318 213.795263 
L 817.612191 214.327323 
L 820.053937 197.046876 
L 821.274809 208.703445 
L 822.495682 222.681784 
L 823.716555 225.650662 
L 824.937428 232.169016 
L 826.158301 232.773321 
L 827.379174 236.423417 
L 828.600047 235.983781 
L 829.82092 238.151148 
L 831.041793 238.000345 
L 832.262666 239.080339 
L 833.483539 236.461241 
L 834.704412 230.84233 
L 835.925285 218.942079 
L 837.146158 209.089248 
L 838.367031 197.643187 
L 839.587904 187.446898 
L 840.808777 180.819844 
L 842.02965 168.19499 
L 843.250523 157.963333 
L 844.471396 148.83882 
L 845.692269 143.306534 
L 846.913142 133.476519 
L 848.134015 129.805015 
L 849.354888 127.849914 
L 850.575761 137.743599 
L 851.796634 133.370204 
L 853.017507 163.594944 
L 854.23838 200.673736 
L 855.459253 221.849473 
L 856.680126 211.51027 
L 857.900999 205.288869 
L 859.121872 222.566151 
L 860.342745 218.238868 
L 861.563618 213.405303 
L 862.784491 209.496287 
L 864.005364 208.557938 
L 865.226237 209.714629 
L 866.44711 207.979428 
L 867.667983 215.974478 
L 868.888856 218.875377 
L 870.109729 221.241435 
L 871.330602 212.84776 
L 872.551475 205.348106 
L 873.772348 187.878117 
L 874.993221 186.976466 
L 876.214094 184.228869 
L 877.434967 180.966655 
L 878.65584 167.024079 
L 879.876713 160.643378 
L 881.097586 165.991085 
L 882.318459 176.213796 
L 883.539332 197.872731 
L 884.760205 226.394469 
L 885.981078 240.427083 
L 887.201951 241.753963 
L 888.422824 248.22371 
L 889.643697 242.896035 
L 890.86457 235.504905 
L 892.085443 229.719324 
L 893.306316 223.005787 
L 894.527189 226.752005 
L 895.748062 228.88105 
L 896.968935 227.726944 
L 898.189808 226.161509 
L 899.410681 215.253167 
L 900.631554 202.821115 
L 901.852427 197.111517 
L 903.0733 195.242742 
L 904.294173 188.858361 
L 905.515046 164.045441 
L 906.735919 147.544134 
L 907.956792 129.17194 
L 909.177665 193.588226 
L 910.398538 211.277791 
L 911.619411 231.605636 
L 912.840284 240.390163 
L 914.061157 242.429487 
L 915.28203 246.434339 
L 916.502903 246.430437 
L 918.944649 250.921557 
L 920.165522 247.439009 
L 921.386395 233.606525 
L 922.607268 236.705837 
L 923.828141 235.037707 
L 925.049014 216.752571 
L 926.269887 211.627103 
L 927.49076 207.362825 
L 928.711633 204.737227 
L 929.932506 193.438782 
L 931.153379 189.686875 
L 932.374252 181.814386 
L 933.595125 192.236001 
L 934.815998 182.816368 
L 936.036871 183.835687 
L 937.257744 177.146815 
L 938.478617 168.70688 
L 939.69949 171.206971 
L 940.920362 174.158217 
L 942.141235 190.509603 
L 943.362108 202.74997 
L 944.582981 216.204689 
L 945.803854 216.85744 
L 947.024727 207.712986 
L 948.2456 200.513103 
L 949.466473 184.983484 
L 950.687346 188.008897 
L 951.908219 208.009782 
L 953.129092 220.647895 
L 954.349965 226.357545 
L 955.570838 232.650058 
L 956.791711 230.154803 
L 958.012584 225.960735 
L 959.233457 220.430883 
L 960.45433 215.584899 
L 961.675203 212.798244 
L 962.896076 206.771675 
L 964.116949 192.727002 
L 965.337822 198.633824 
L 966.558695 221.575068 
L 967.779568 227.065663 
L 969.000441 222.919291 
L 971.442187 232.107376 
L 972.66306 229.798385 
L 973.883933 230.879423 
L 975.104806 231.703455 
L 976.325679 237.192798 
L 977.546552 237.06323 
L 978.767425 238.581401 
L 979.988298 231.586747 
L 981.209171 220.902649 
L 982.430044 194.990301 
L 983.650917 193.999534 
L 984.87179 181.783304 
L 986.092663 179.938848 
L 987.313536 174.361459 
L 988.534409 150.039765 
L 989.755282 132.812025 
L 990.976155 125.012336 
L 992.197028 96.653582 
L 993.417901 75.83881 
L 995.859647 146.017896 
L 997.08052 160.979245 
L 998.301393 171.105549 
L 999.522266 185.501237 
L 1000.743139 186.500543 
L 1001.964012 177.894346 
L 1003.184885 182.201826 
L 1004.405758 194.633917 
L 1005.626631 201.821732 
L 1006.847504 194.525662 
L 1008.068377 180.633663 
L 1010.510123 211.976256 
L 1011.730996 212.592356 
L 1012.951869 213.347499 
L 1014.172742 212.745048 
L 1015.393615 214.298384 
L 1016.614488 220.175297 
L 1017.835361 217.382888 
L 1019.056234 211.540456 
L 1020.277107 195.779505 
L 1021.49798 188.673695 
L 1022.718853 187.448431 
L 1023.939726 191.942543 
L 1026.381472 182.735843 
L 1027.602345 193.690289 
L 1028.823218 201.175485 
L 1030.044091 203.210746 
L 1031.264964 198.66397 
L 1032.485837 204.8389 
L 1033.70671 217.467409 
L 1034.927583 227.384313 
L 1036.148456 226.685571 
L 1037.369329 224.031762 
L 1038.590202 223.737248 
L 1039.811075 209.47461 
L 1041.031948 199.951459 
L 1042.252821 197.825125 
L 1043.473694 187.191815 
L 1044.694567 177.541227 
L 1045.91544 173.800785 
L 1047.136313 170.628777 
L 1048.357186 169.197552 
L 1049.578059 162.447806 
L 1050.798932 158.189637 
L 1052.019805 150.854275 
L 1053.240678 158.176751 
L 1054.461551 161.604015 
L 1055.682424 163.500468 
L 1056.903297 155.689295 
L 1058.12417 162.833661 
L 1059.345043 160.420485 
L 1060.565916 158.942563 
L 1061.786788 195.130391 
L 1063.007661 199.024477 
L 1064.228534 191.489943 
L 1065.449407 171.709153 
L 1066.67028 180.865164 
L 1067.891153 211.852369 
L 1070.332899 225.556351 
L 1071.553772 221.215696 
L 1072.774645 223.923797 
L 1073.995518 216.801043 
L 1075.216391 207.280335 
L 1076.437264 205.981735 
L 1077.658137 201.576773 
L 1078.87901 195.160183 
L 1080.099883 196.871676 
L 1081.320756 204.129519 
L 1082.541629 214.238117 
L 1083.762502 221.547745 
L 1084.983375 222.372461 
L 1086.204248 228.732797 
L 1087.425121 228.44574 
L 1088.645994 231.959551 
L 1089.866867 230.207359 
L 1091.08774 231.892745 
L 1092.308613 215.100099 
L 1093.529486 205.941576 
L 1094.750359 194.16267 
L 1097.192105 202.425231 
L 1098.412978 211.564562 
L 1099.633851 210.148913 
L 1100.854724 211.767129 
L 1102.075597 201.909955 
L 1103.29647 200.170099 
L 1104.517343 197.515117 
L 1105.738216 191.188821 
L 1106.959089 183.090859 
L 1108.179962 172.57236 
L 1109.400835 164.152881 
L 1110.621708 153.166661 
L 1113.063454 138.234176 
L 1114.284327 147.390144 
L 1115.5052 167.655101 
L 1116.726073 164.836706 
L 1117.946946 172.361618 
L 1117.946946 172.361618 
" clip-path="url(#pb4baad7319)" style="fill: none; stroke: #57d3db; stroke-width: 1.417963"/>
   </g>
   <g id="patch_3">
    <path d="M 1175.874219 182.852109 
L 1262.360312 182.852109 
L 1262.360312 105.147891 
L 1175.874219 105.147891 
z
" style="fill: #ffffff"/>
   </g>
   <g id="text_13">
    <!-- variable -->
    <g transform="translate(1188.874219 132.167031)scale(0.15 -0.15)">
     <defs>
      <path id="TimesNewRomanPSMT-76" d="M 53 2863 
L 1400 2863 
L 1400 2747 
L 1313 2747 
Q 1191 2747 1127 2687 
Q 1063 2628 1063 2528 
Q 1063 2419 1128 2269 
L 1794 688 
L 2463 2328 
Q 2534 2503 2534 2594 
Q 2534 2638 2509 2666 
Q 2475 2713 2422 2730 
Q 2369 2747 2206 2747 
L 2206 2863 
L 3141 2863 
L 3141 2747 
Q 2978 2734 2916 2681 
Q 2806 2588 2719 2369 
L 1703 -88 
L 1575 -88 
L 553 2328 
Q 484 2497 421 2570 
Q 359 2644 263 2694 
Q 209 2722 53 2747 
L 53 2863 
z
" transform="scale(0.015625)"/>
      <path id="TimesNewRomanPSMT-61" d="M 1822 413 
Q 1381 72 1269 19 
Q 1100 -59 909 -59 
Q 613 -59 420 144 
Q 228 347 228 678 
Q 228 888 322 1041 
Q 450 1253 767 1440 
Q 1084 1628 1822 1897 
L 1822 2009 
Q 1822 2438 1686 2597 
Q 1550 2756 1291 2756 
Q 1094 2756 978 2650 
Q 859 2544 859 2406 
L 866 2225 
Q 866 2081 792 2003 
Q 719 1925 600 1925 
Q 484 1925 411 2006 
Q 338 2088 338 2228 
Q 338 2497 613 2722 
Q 888 2947 1384 2947 
Q 1766 2947 2009 2819 
Q 2194 2722 2281 2516 
Q 2338 2381 2338 1966 
L 2338 994 
Q 2338 584 2353 492 
Q 2369 400 2405 369 
Q 2441 338 2488 338 
Q 2538 338 2575 359 
Q 2641 400 2828 588 
L 2828 413 
Q 2478 -56 2159 -56 
Q 2006 -56 1915 50 
Q 1825 156 1822 413 
z
M 1822 616 
L 1822 1706 
Q 1350 1519 1213 1441 
Q 966 1303 859 1153 
Q 753 1003 753 825 
Q 753 600 887 451 
Q 1022 303 1197 303 
Q 1434 303 1822 616 
z
" transform="scale(0.015625)"/>
      <path id="TimesNewRomanPSMT-72" d="M 1038 2947 
L 1038 2303 
Q 1397 2947 1775 2947 
Q 1947 2947 2059 2842 
Q 2172 2738 2172 2600 
Q 2172 2478 2090 2393 
Q 2009 2309 1897 2309 
Q 1788 2309 1652 2417 
Q 1516 2525 1450 2525 
Q 1394 2525 1328 2463 
Q 1188 2334 1038 2041 
L 1038 669 
Q 1038 431 1097 309 
Q 1138 225 1241 169 
Q 1344 113 1538 113 
L 1538 0 
L 72 0 
L 72 113 
Q 291 113 397 181 
Q 475 231 506 341 
Q 522 394 522 644 
L 522 1753 
Q 522 2253 501 2348 
Q 481 2444 426 2487 
Q 372 2531 291 2531 
Q 194 2531 72 2484 
L 41 2597 
L 906 2947 
L 1038 2947 
z
" transform="scale(0.015625)"/>
      <path id="TimesNewRomanPSMT-62" d="M 984 2369 
Q 1400 2947 1881 2947 
Q 2322 2947 2650 2570 
Q 2978 2194 2978 1541 
Q 2978 778 2472 313 
Q 2038 -88 1503 -88 
Q 1253 -88 995 3 
Q 738 94 469 275 
L 469 3241 
Q 469 3728 445 3840 
Q 422 3953 372 3993 
Q 322 4034 247 4034 
Q 159 4034 28 3984 
L -16 4094 
L 844 4444 
L 984 4444 
L 984 2369 
z
M 984 2169 
L 984 456 
Q 1144 300 1314 220 
Q 1484 141 1663 141 
Q 1947 141 2192 453 
Q 2438 766 2438 1363 
Q 2438 1913 2192 2208 
Q 1947 2503 1634 2503 
Q 1469 2503 1303 2419 
Q 1178 2356 984 2169 
z
" transform="scale(0.015625)"/>
      <path id="TimesNewRomanPSMT-6c" d="M 1184 4444 
L 1184 647 
Q 1184 378 1223 290 
Q 1263 203 1344 158 
Q 1425 113 1647 113 
L 1647 0 
L 244 0 
L 244 113 
Q 441 113 512 153 
Q 584 194 625 287 
Q 666 381 666 647 
L 666 3247 
Q 666 3731 644 3842 
Q 622 3953 573 3993 
Q 525 4034 450 4034 
Q 369 4034 244 3984 
L 191 4094 
L 1044 4444 
L 1184 4444 
z
" transform="scale(0.015625)"/>
     </defs>
     <use xlink:href="#TimesNewRomanPSMT-76"/>
     <use xlink:href="#TimesNewRomanPSMT-61" x="50"/>
     <use xlink:href="#TimesNewRomanPSMT-72" x="94.384766"/>
     <use xlink:href="#TimesNewRomanPSMT-69" x="127.685547"/>
     <use xlink:href="#TimesNewRomanPSMT-61" x="155.46875"/>
     <use xlink:href="#TimesNewRomanPSMT-62" x="199.853516"/>
     <use xlink:href="#TimesNewRomanPSMT-6c" x="249.853516"/>
     <use xlink:href="#TimesNewRomanPSMT-65" x="277.636719"/>
    </g>
   </g>
   <g id="patch_4">
    <path d="M 1188.874219 152.012109 
L 1204.714219 152.012109 
L 1204.714219 136.172109 
L 1188.874219 136.172109 
z
" clip-path="url(#p317966d1cd)" style="fill: #f2f2f2"/>
   </g>
   <g id="line2d_32">
    <path d="M 1188.874219 144.092109 
L 1204.714219 144.092109 
" clip-path="url(#p317966d1cd)" style="fill: none; stroke: #db5f57; stroke-width: 1.417963"/>
   </g>
   <g id="line2d_33">
    <path d="M 1188.874219 144.092109 
L 1204.714219 144.092109 
" clip-path="url(#p317966d1cd)" style="fill: none; stroke: #db5f57; stroke-width: 1.417963"/>
   </g>
   <g id="text_14">
    <!-- true -->
    <g transform="translate(1207.714219 147.695625)scale(0.15 -0.15)">
     <defs>
      <path id="TimesNewRomanPSMT-74" d="M 1031 3803 
L 1031 2863 
L 1700 2863 
L 1700 2644 
L 1031 2644 
L 1031 788 
Q 1031 509 1111 412 
Q 1191 316 1316 316 
Q 1419 316 1516 380 
Q 1613 444 1666 569 
L 1788 569 
Q 1678 263 1478 108 
Q 1278 -47 1066 -47 
Q 922 -47 784 33 
Q 647 113 581 261 
Q 516 409 516 719 
L 516 2644 
L 63 2644 
L 63 2747 
Q 234 2816 414 2980 
Q 594 3144 734 3369 
Q 806 3488 934 3803 
L 1031 3803 
z
" transform="scale(0.015625)"/>
      <path id="TimesNewRomanPSMT-75" d="M 2709 2863 
L 2709 1128 
Q 2709 631 2732 520 
Q 2756 409 2807 365 
Q 2859 322 2928 322 
Q 3025 322 3147 375 
L 3191 266 
L 2334 -88 
L 2194 -88 
L 2194 519 
Q 1825 119 1631 15 
Q 1438 -88 1222 -88 
Q 981 -88 804 51 
Q 628 191 559 409 
Q 491 628 491 1028 
L 491 2306 
Q 491 2509 447 2587 
Q 403 2666 317 2708 
Q 231 2750 6 2747 
L 6 2863 
L 1009 2863 
L 1009 947 
Q 1009 547 1148 422 
Q 1288 297 1484 297 
Q 1619 297 1789 381 
Q 1959 466 2194 703 
L 2194 2325 
Q 2194 2569 2105 2655 
Q 2016 2741 1734 2747 
L 1734 2863 
L 2709 2863 
z
" transform="scale(0.015625)"/>
     </defs>
     <use xlink:href="#TimesNewRomanPSMT-74"/>
     <use xlink:href="#TimesNewRomanPSMT-72" x="27.783203"/>
     <use xlink:href="#TimesNewRomanPSMT-75" x="61.083984"/>
     <use xlink:href="#TimesNewRomanPSMT-65" x="111.083984"/>
    </g>
   </g>
   <g id="patch_5">
    <path d="M 1188.874219 169.852109 
L 1204.714219 169.852109 
L 1204.714219 154.012109 
L 1188.874219 154.012109 
z
" clip-path="url(#pd5e5af4a5f)" style="fill: #f2f2f2"/>
   </g>
   <g id="line2d_34">
    <path d="M 1188.874219 161.932109 
L 1204.714219 161.932109 
" clip-path="url(#pd5e5af4a5f)" style="fill: none; stroke: #57d3db; stroke-width: 1.417963"/>
   </g>
   <g id="line2d_35">
    <path d="M 1188.874219 161.932109 
L 1204.714219 161.932109 
" clip-path="url(#pd5e5af4a5f)" style="fill: none; stroke: #57d3db; stroke-width: 1.417963"/>
   </g>
   <g id="text_15">
    <!-- predict -->
    <g transform="translate(1207.714219 165.535625)scale(0.15 -0.15)">
     <defs>
      <path id="TimesNewRomanPSMT-70" d="M -6 2578 
L 875 2934 
L 994 2934 
L 994 2266 
Q 1216 2644 1439 2795 
Q 1663 2947 1909 2947 
Q 2341 2947 2628 2609 
Q 2981 2197 2981 1534 
Q 2981 794 2556 309 
Q 2206 -88 1675 -88 
Q 1444 -88 1275 -22 
Q 1150 25 994 166 
L 994 -706 
Q 994 -1000 1030 -1079 
Q 1066 -1159 1155 -1206 
Q 1244 -1253 1478 -1253 
L 1478 -1369 
L -22 -1369 
L -22 -1253 
L 56 -1253 
Q 228 -1256 350 -1188 
Q 409 -1153 442 -1076 
Q 475 -1000 475 -688 
L 475 2019 
Q 475 2297 450 2372 
Q 425 2447 370 2484 
Q 316 2522 222 2522 
Q 147 2522 31 2478 
L -6 2578 
z
M 994 2081 
L 994 1013 
Q 994 666 1022 556 
Q 1066 375 1236 237 
Q 1406 100 1666 100 
Q 1978 100 2172 344 
Q 2425 663 2425 1241 
Q 2425 1897 2138 2250 
Q 1938 2494 1663 2494 
Q 1513 2494 1366 2419 
Q 1253 2363 994 2081 
z
" transform="scale(0.015625)"/>
      <path id="TimesNewRomanPSMT-63" d="M 2631 1088 
Q 2516 522 2178 217 
Q 1841 -88 1431 -88 
Q 944 -88 581 321 
Q 219 731 219 1428 
Q 219 2103 620 2525 
Q 1022 2947 1584 2947 
Q 2006 2947 2278 2723 
Q 2550 2500 2550 2259 
Q 2550 2141 2473 2067 
Q 2397 1994 2259 1994 
Q 2075 1994 1981 2113 
Q 1928 2178 1911 2362 
Q 1894 2547 1784 2644 
Q 1675 2738 1481 2738 
Q 1169 2738 978 2506 
Q 725 2200 725 1697 
Q 725 1184 976 792 
Q 1228 400 1656 400 
Q 1963 400 2206 609 
Q 2378 753 2541 1131 
L 2631 1088 
z
" transform="scale(0.015625)"/>
     </defs>
     <use xlink:href="#TimesNewRomanPSMT-70"/>
     <use xlink:href="#TimesNewRomanPSMT-72" x="50"/>
     <use xlink:href="#TimesNewRomanPSMT-65" x="83.300781"/>
     <use xlink:href="#TimesNewRomanPSMT-64" x="127.685547"/>
     <use xlink:href="#TimesNewRomanPSMT-69" x="177.685547"/>
     <use xlink:href="#TimesNewRomanPSMT-63" x="205.46875"/>
     <use xlink:href="#TimesNewRomanPSMT-74" x="249.853516"/>
    </g>
   </g>
  </g>
 </g>
 <defs>
  <clipPath id="pb4baad7319">
   <rect x="52.674219" y="7.2" width="1116" height="277.2"/>
  </clipPath>
  <clipPath id="p317966d1cd">
   <path d="M 1188.874219 152.012109 
L 1188.874219 136.172109 
L 1204.714219 136.172109 
L 1204.714219 152.012109 
"/>
  </clipPath>
  <clipPath id="pd5e5af4a5f">
   <path d="M 1188.874219 169.852109 
L 1188.874219 154.012109 
L 1204.714219 154.012109 
L 1204.714219 169.852109 
"/>
  </clipPath>
 </defs>
</svg>
