<?xml version="1.0" encoding="utf-8" standalone="no"?>
<!DOCTYPE svg PUBLIC "-//W3C//DTD SVG 1.1//EN"
  "http://www.w3.org/Graphics/SVG/1.1/DTD/svg11.dtd">
<svg xmlns:xlink="http://www.w3.org/1999/xlink" width="447.02652pt" height="682.802813pt" viewBox="0 0 447.02652 682.802813" xmlns="http://www.w3.org/2000/svg" version="1.1">
 <metadata>
  <rdf:RDF xmlns:dc="http://purl.org/dc/elements/1.1/" xmlns:cc="http://creativecommons.org/ns#" xmlns:rdf="http://www.w3.org/1999/02/22-rdf-syntax-ns#">
   <cc:Work>
    <dc:type rdf:resource="http://purl.org/dc/dcmitype/StillImage"/>
    <dc:date>2022-09-21T21:08:06.810965</dc:date>
    <dc:format>image/svg+xml</dc:format>
    <dc:creator>
     <cc:Agent>
      <dc:title>Matplotlib v3.5.1, https://matplotlib.org/</dc:title>
     </cc:Agent>
    </dc:creator>
   </cc:Work>
  </rdf:RDF>
 </metadata>
 <defs>
  <style type="text/css">*{stroke-linejoin: round; stroke-linecap: butt}</style>
 </defs>
 <g id="figure_1">
  <g id="patch_1">
   <path d="M 0 682.802813 
L 447.02652 682.802813 
L 447.02652 0 
L 0 0 
L 0 682.802813 
z
" style="fill: none"/>
  </g>
  <g id="axes_1">
   <g id="patch_2">
    <path d="M 36.7 659.52 
L 439.82652 659.52 
L 439.82652 7.2 
L 36.7 7.2 
z
" style="fill: #ffffff"/>
   </g>
   <g id="PatchCollection_1">
    <path d="M 193.906127 433.55714 
L 191.648541 430.430674 
L 191.410175 428.477375 
L 190.468322 427.953677 
L 187.551249 429.013301 
L 186.26845 427.554702 
L 185.227795 426.792388 
L 182.746691 426.70889 
L 182.380099 432.241082 
L 182.240806 438.971596 
L 185.14708 439.335285 
L 186.836693 438.858402 
L 191.413955 434.903242 
L 193.906127 433.55714 
" clip-path="url(#p9a2ca4414b)" style="fill: #ffe699; stroke: #000000; stroke-width: 0.7"/>
    <path d="M 204.196866 419.053258 
L 200.982849 419.267419 
L 201.308948 422.356852 
L 195.80792 422.255886 
L 193.480957 424.011793 
L 191.937926 421.708082 
L 191.516535 422.910595 
L 189.559403 423.821389 
L 188.778979 425.452923 
L 190.831134 427.203241 
L 190.468322 427.953677 
L 191.410175 428.477375 
L 191.648541 430.430674 
L 193.906127 433.55714 
L 196.038997 436.749985 
L 198.992783 440.151401 
L 199.985926 443.422155 
L 200.938848 444.482827 
L 204.06864 446.335858 
L 205.911855 446.723303 
L 206.153729 444.804592 
L 207.355814 442.975317 
L 209.115074 442.95156 
L 209.411748 444.250499 
L 211.071937 444.155122 
L 211.119718 443.475608 
L 214.337514 444.393389 
L 214.854197 445.918716 
L 215.352523 444.465009 
L 216.125928 444.709215 
L 216.693902 443.380581 
L 217.434103 439.335285 
L 208.297667 436.850952 
L 206.692548 430.454431 
L 207.201943 429.424154 
L 211.222298 428.578691 
L 209.411748 423.124756 
L 213.047426 421.981984 
L 212.211663 419.702029 
L 208.572745 417.66034 
L 204.196866 419.053258 
" clip-path="url(#p9a2ca4414b)" style="fill: #ffe699; stroke: #000000; stroke-width: 0.7"/>
    <path d="M 205.996349 460.820175 
L 205.783629 460.200402 
L 207.396306 459.657838 
L 206.106218 457.010701 
L 208.898844 455.895877 
L 209.551042 457.511341 
L 211.269809 456.778024 
L 210.262089 453.994285 
L 211.713336 453.571204 
L 211.046291 449.982877 
L 212.787195 447.551647 
L 205.911855 446.723303 
L 204.06864 446.335858 
L 200.938848 444.482827 
L 199.985926 443.422155 
L 198.992783 440.151401 
L 196.038997 436.749985 
L 193.906127 433.55714 
L 191.413955 434.903242 
L 186.836693 438.858402 
L 185.14708 439.335285 
L 182.240806 438.971596 
L 182.358234 443.392459 
L 183.365954 449.142655 
L 184.736487 451.222773 
L 188.87778 449.547918 
L 191.648541 453.577143 
L 190.849491 454.286354 
L 192.61226 454.959929 
L 192.616039 462.615212 
L 197.164146 462.942916 
L 201.843988 461.678914 
L 205.996349 460.820175 
" clip-path="url(#p9a2ca4414b)" style="fill: #ffe699; stroke: #000000; stroke-width: 0.7"/>
    <path d="M 184.736487 451.222773 
L 183.365954 449.142655 
L 182.358234 443.392459 
L 182.240806 438.971596 
L 182.380099 432.241082 
L 182.746691 426.70889 
L 185.227795 426.792388 
L 186.26845 427.554702 
L 186.330808 423.249829 
L 184.868493 423.642864 
L 180.188651 423.434293 
L 180.228873 425.017964 
L 177.000279 425.137098 
L 172.745337 424.273817 
L 172.800407 422.696085 
L 170.75905 423.434293 
L 168.523329 421.416362 
L 167.966424 423.011911 
L 166.489531 423.422415 
L 166.808341 424.666852 
L 164.499464 427.125682 
L 163.473387 427.614094 
L 168.83863 433.670334 
L 169.410383 434.55807 
L 169.967288 440.657631 
L 170.777406 442.778625 
L 166.613977 445.072554 
L 169.58261 446.705486 
L 176.78027 452.81413 
L 178.209652 452.575514 
L 180.122513 453.135895 
L 184.736487 451.222773 
" clip-path="url(#p9a2ca4414b)" style="fill: #ffe699; stroke: #000000; stroke-width: 0.7"/>
    <path d="M 196.870711 407.157385 
L 194.305382 409.983397 
L 193.755765 410.078774 
L 192.18358 407.77611 
L 190.739621 407.204899 
L 187.093145 409.584772 
L 185.649186 407.550071 
L 184.754844 408.145039 
L 180.214296 409.513502 
L 179.07079 410.32263 
L 180.56604 411.221197 
L 181.801058 411.036732 
L 182.446237 415.767831 
L 181.386956 416.952178 
L 181.669053 417.987695 
L 184.183361 420.41613 
L 186.330808 423.249829 
L 186.26845 427.554702 
L 187.551249 429.013301 
L 190.468322 427.953677 
L 190.831134 427.203241 
L 188.778979 425.452923 
L 189.559403 423.821389 
L 191.516535 422.910595 
L 191.937926 421.708082 
L 193.480957 424.011793 
L 195.80792 422.255886 
L 201.308948 422.356852 
L 200.982849 419.267419 
L 204.196866 419.053258 
L 204.171221 416.065141 
L 203.665336 415.225966 
L 201.788918 415.874737 
L 201.539755 414.892672 
L 198.886423 414.946474 
L 201.320016 412.256714 
L 196.870711 407.157385 
" clip-path="url(#p9a2ca4414b)" style="fill: #ffe699; stroke: #000000; stroke-width: 0.7"/>
    <path d="M 186.330808 423.249829 
L 184.183361 420.41613 
L 181.669053 417.987695 
L 181.386956 416.952178 
L 182.446237 415.767831 
L 181.801058 411.036732 
L 180.56604 411.221197 
L 179.07079 410.32263 
L 176.842628 408.103465 
L 173.947422 408.537725 
L 172.111226 407.829563 
L 170.099293 409.846796 
L 169.241664 412.113824 
L 168.908277 414.5475 
L 167.940778 419.082954 
L 168.523329 421.416362 
L 170.75905 423.434293 
L 172.800407 422.696085 
L 172.745337 424.273817 
L 177.000279 425.137098 
L 180.228873 425.017964 
L 180.188651 423.434293 
L 184.868493 423.642864 
L 186.330808 423.249829 
" clip-path="url(#p9a2ca4414b)" style="fill: #ffe699; stroke: #000000; stroke-width: 0.7"/>
    <path d="M 169.032724 408.269763 
L 171.843706 407.097993 
L 171.961134 405.521309 
L 169.483539 403.522593 
L 167.750194 404.42081 
L 168.548974 406.24694 
L 167.841707 406.497085 
L 169.032724 408.269763 
" clip-path="url(#p9a2ca4414b)" style="fill: #ffe699; stroke: #000000; stroke-width: 0.7"/>
    <path d="M 205.911855 446.723303 
L 212.787195 447.551647 
L 216.221221 447.772097 
L 218.434535 448.368113 
L 222.594185 450.734012 
L 224.987286 453.81541 
L 227.746978 455.782683 
L 230.686187 456.575392 
L 234.109145 456.384639 
L 236.487668 455.866181 
L 237.718907 456.712692 
L 238.697474 459.949907 
L 239.983782 462.8416 
L 241.4901 464.46964 
L 245.154932 466.658411 
L 247.328025 467.356093 
L 251.949558 467.451469 
L 254.9765 466.640244 
L 257.879265 464.618819 
L 259.191219 463.128079 
L 260.235653 462.948855 
L 261.203151 464.445883 
L 260.689978 468.113516 
L 262.156073 469.658407 
L 263.87484 469.938598 
L 266.037135 468.835303 
L 267.587184 469.121433 
L 269.562673 471.9726 
L 271.226371 475.838322 
L 271.992487 476.243934 
L 275.144146 472.974927 
L 276.100577 472.509573 
L 275.532603 469.336293 
L 275.928349 467.177218 
L 275.671897 465.38812 
L 274.75191 466.300312 
L 273.509603 465.280516 
L 274.370741 461.738655 
L 273.89806 461.363088 
L 275.217302 458.274353 
L 276.13729 458.471395 
L 276.950917 454.387669 
L 279.091075 454.959929 
L 284.888778 455.418994 
L 284.423385 451.633976 
L 286.032283 447.17608 
L 283.089565 447.009433 
L 283.221301 439.769895 
L 278.58546 439.674868 
L 278.398385 437.381287 
L 273.531469 437.315607 
L 269.68712 436.904754 
L 271.431533 426.566 
L 272.684907 422.148631 
L 273.700187 421.678386 
L 279.827767 424.738123 
L 283.023428 423.16668 
L 283.148144 420.826983 
L 283.86648 418.993517 
L 286.677192 418.09495 
L 286.919067 413.994106 
L 287.388239 412.589659 
L 282.268649 411.310285 
L 281.619961 411.607944 
L 278.849201 410.804754 
L 273.604895 407.740475 
L 272.50917 407.371546 
L 272.523748 403.064576 
L 271.490381 402.112906 
L 271.702832 403.83772 
L 269.423379 404.855071 
L 269.569962 406.342317 
L 266.484171 405.235878 
L 269.309731 404.254163 
L 269.797259 401.654889 
L 266.927697 403.040819 
L 265.227017 403.070515 
L 264.223075 402.362702 
L 265.381158 400.869516 
L 265.57903 397.586535 
L 261.474451 394.47055 
L 259.575897 394.601212 
L 257.157151 393.774615 
L 255.66568 392.002986 
L 254.712759 393.584561 
L 253.166219 394.042229 
L 248.867276 393.780554 
L 248.665894 394.767859 
L 246.547601 396.468567 
L 244.029783 395.659788 
L 244.590468 391.937305 
L 242.670048 390.647101 
L 240.672693 390.831566 
L 237.671396 392.995881 
L 238.151366 394.077864 
L 233.262583 393.049334 
L 227.779912 392.787659 
L 223.887782 392.216797 
L 222.059145 392.645119 
L 221.44717 391.479637 
L 214.6269 389.232173 
L 212.211663 387.78161 
L 210.236443 389.238113 
L 210.423248 390.052831 
L 212.794483 389.464152 
L 213.490683 390.629283 
L 214.260308 396.605169 
L 212.526964 397.973282 
L 207.410883 399.227851 
L 203.954992 400.911091 
L 200.520966 403.165542 
L 196.870711 407.157385 
L 201.320016 412.256714 
L 198.886423 414.946474 
L 201.539755 414.892672 
L 201.788918 415.874737 
L 203.665336 415.225966 
L 204.171221 416.065141 
L 204.196866 419.053258 
L 208.572745 417.66034 
L 212.211663 419.702029 
L 213.047426 421.981984 
L 209.411748 423.124756 
L 211.222298 428.578691 
L 207.201943 429.424154 
L 206.692548 430.454431 
L 208.297667 436.850952 
L 217.434103 439.335285 
L 216.693902 443.380581 
L 216.125928 444.709215 
L 215.352523 444.465009 
L 214.854197 445.918716 
L 214.337514 444.393389 
L 211.119718 443.475608 
L 211.071937 444.155122 
L 209.411748 444.250499 
L 209.115074 442.95156 
L 207.355814 442.975317 
L 206.153729 444.804592 
L 205.911855 446.723303 
" clip-path="url(#p9a2ca4414b)" style="fill: #ffe699; stroke: #000000; stroke-width: 0.7"/>
    <path d="M 168.523329 421.416362 
L 167.940778 419.082954 
L 168.908277 414.5475 
L 167.259156 413.851215 
L 161.941424 413.030208 
L 156.95006 413.774006 
L 153.765198 415.392613 
L 153.96685 418.767478 
L 152.061008 418.975699 
L 151.859625 417.053144 
L 151.225514 416.809288 
L 146.779988 418.695858 
L 144.218439 418.714025 
L 142.473756 419.862736 
L 141.76298 414.714147 
L 140.773345 414.862976 
L 140.989575 417.130703 
L 139.996431 417.499633 
L 140.198083 419.749542 
L 141.004422 420.356738 
L 137.339589 421.999801 
L 136.987576 418.077133 
L 136.00172 418.398548 
L 134.99022 414.97617 
L 132.087725 415.725907 
L 131.765405 414.714147 
L 126.656614 416.029505 
L 125.197807 415.767831 
L 125.003714 413.74431 
L 123.69176 412.72661 
L 122.508032 415.595245 
L 121.375595 415.083425 
L 120.089286 416.559142 
L 119.400105 418.940064 
L 117.77285 418.440123 
L 118.066285 417.559025 
L 114.460032 418.53515 
L 114.635769 420.041262 
L 117.252658 420.695972 
L 117.193809 421.970105 
L 113.096788 422.404715 
L 114.500254 427.328314 
L 113.074652 427.71541 
L 112.829268 428.763155 
L 113.895568 432.807053 
L 113.24337 433.164104 
L 112.052084 436.440098 
L 109.842278 435.808796 
L 109.424397 438.596378 
L 108.479034 438.5845 
L 107.357664 442.820549 
L 105.957707 442.575993 
L 105.279594 445.144174 
L 104.319384 444.95936 
L 103.230949 447.6051 
L 102.20838 447.372773 
L 101.845569 449.547918 
L 106.356962 451.312211 
L 106.085933 452.677179 
L 103.27495 453.851394 
L 103.875858 455.365192 
L 107.119299 453.177819 
L 108.196937 454.542787 
L 109.186301 453.231272 
L 112.693483 453.6009 
L 116.215513 455.585991 
L 117.894058 457.100138 
L 119.150942 454.673799 
L 120.06715 455.639444 
L 123.687981 456.867461 
L 123.200452 458.29252 
L 125.307947 458.709662 
L 125.828139 461.035034 
L 131.200941 461.804336 
L 138.105436 464.016514 
L 144.156081 467.195035 
L 142.840348 469.157068 
L 144.779124 470.153457 
L 143.983853 470.946515 
L 143.375387 475.516207 
L 149.268382 476.047242 
L 149.4919 474.29902 
L 150.866212 472.849505 
L 155.062574 476.709288 
L 163.172933 480.957565 
L 166.91821 483.326957 
L 170.813849 487.319499 
L 176.692267 496.901528 
L 179.213863 500.735109 
L 182.16387 505.919683 
L 186.202582 511.337983 
L 201.004715 526.404342 
L 203.727694 527.92897 
L 215.968278 532.801911 
L 218.310089 533.621171 
L 222.095858 536.186907 
L 223.330877 535.851866 
L 224.544029 534.434493 
L 222.968065 533.932106 
L 223.279586 533.041226 
L 222.216796 531.64202 
L 225.423524 529.268085 
L 224.584252 526.996166 
L 226.845347 526.392463 
L 226.203948 523.158393 
L 225.060712 523.146515 
L 224.943284 521.795521 
L 225.918341 521.759885 
L 224.554827 520.28347 
L 224.00521 517.761405 
L 222.865484 518.102036 
L 222.557472 515.209644 
L 221.384812 514.050451 
L 216.990846 514.444884 
L 206.597256 502.598621 
L 207.399815 501.242736 
L 204.376383 499.302014 
L 205.659182 494.405666 
L 200.106864 491.026609 
L 200.403808 490.674449 
L 204.130729 491.349073 
L 206.432317 487.319499 
L 206.714684 485.970601 
L 207.744271 484.99203 
L 206.340804 484.043155 
L 207.674624 482.109421 
L 210.049638 484.096608 
L 210.705615 485.469263 
L 211.024425 481.345709 
L 212.772618 478.702065 
L 212.072639 477.520863 
L 213.215874 476.655835 
L 211.731693 475.92182 
L 213.50553 475.241607 
L 212.453537 473.613217 
L 210.229155 474.812237 
L 208.781416 473.684487 
L 207.938634 469.413852 
L 205.813053 467.427712 
L 204.691684 467.988094 
L 203.192655 467.350153 
L 203.811919 466.658411 
L 205.446462 467.37391 
L 204.81991 465.53695 
L 205.03236 462.865706 
L 205.996349 460.820175 
L 201.843988 461.678914 
L 197.164146 462.942916 
L 192.616039 462.615212 
L 192.61226 454.959929 
L 190.849491 454.286354 
L 191.648541 453.577143 
L 188.87778 449.547918 
L 184.736487 451.222773 
L 180.122513 453.135895 
L 178.209652 452.575514 
L 176.78027 452.81413 
L 169.58261 446.705486 
L 166.613977 445.072554 
L 170.777406 442.778625 
L 169.967288 440.657631 
L 169.410383 434.55807 
L 168.83863 433.670334 
L 163.473387 427.614094 
L 164.499464 427.125682 
L 166.808341 424.666852 
L 166.489531 423.422415 
L 167.966424 423.011911 
L 168.523329 421.416362 
" clip-path="url(#p9a2ca4414b)" style="fill: #ffe699; stroke: #000000; stroke-width: 0.7"/>
    <path d="M 205.996349 460.820175 
L 205.03236 462.865706 
L 204.81991 465.53695 
L 205.446462 467.37391 
L 203.811919 466.658411 
L 203.192655 467.350153 
L 204.691684 467.988094 
L 205.813053 467.427712 
L 207.938634 469.413852 
L 208.781416 473.684487 
L 210.229155 474.812237 
L 212.453537 473.613217 
L 213.50553 475.241607 
L 211.731693 475.92182 
L 213.215874 476.655835 
L 212.072639 477.520863 
L 212.772618 478.702065 
L 211.024425 481.345709 
L 210.705615 485.469263 
L 210.049638 484.096608 
L 207.674624 482.109421 
L 206.340804 484.043155 
L 207.744271 484.99203 
L 206.714684 485.970601 
L 206.432317 487.319499 
L 204.130729 491.349073 
L 200.403808 490.674449 
L 200.106864 491.026609 
L 205.659182 494.405666 
L 204.376383 499.302014 
L 207.399815 501.242736 
L 206.597256 502.598621 
L 216.990846 514.444884 
L 221.384812 514.050451 
L 222.557472 515.209644 
L 222.865484 518.102036 
L 224.00521 517.761405 
L 224.554827 520.28347 
L 225.918341 521.759885 
L 224.943284 521.795521 
L 225.060712 523.146515 
L 226.203948 523.158393 
L 226.845347 526.392463 
L 224.584252 526.996166 
L 225.423524 529.268085 
L 231.818624 524.378026 
L 238.528755 519.046369 
L 243.853776 513.984771 
L 251.93471 524.00141 
L 252.777762 520.110185 
L 254.855562 516.721695 
L 259.231441 512.771776 
L 265.274798 507.628077 
L 269.705476 506.827333 
L 268.023422 494.590829 
L 271.92284 492.960693 
L 272.289162 493.754799 
L 274.671465 491.360951 
L 276.712552 490.960929 
L 280.590104 494.501043 
L 282.580171 494.507331 
L 281.957128 489.026845 
L 282.396875 488.889544 
L 282.140153 485.726046 
L 283.708829 481.13085 
L 284.196358 481.035124 
L 285.057496 478.487206 
L 284.474675 477.407319 
L 282.231936 477.574316 
L 279.611538 474.215522 
L 277.225725 472.563026 
L 276.100577 472.509573 
L 275.144146 472.974927 
L 271.992487 476.243934 
L 271.226371 475.838322 
L 269.562673 471.9726 
L 267.587184 469.121433 
L 266.037135 468.835303 
L 263.87484 469.938598 
L 262.156073 469.658407 
L 260.689978 468.113516 
L 261.203151 464.445883 
L 260.235653 462.948855 
L 259.191219 463.128079 
L 257.879265 464.618819 
L 254.9765 466.640244 
L 251.949558 467.451469 
L 247.328025 467.356093 
L 245.154932 466.658411 
L 241.4901 464.46964 
L 239.983782 462.8416 
L 238.697474 459.949907 
L 237.718907 456.712692 
L 236.487668 455.866181 
L 234.109145 456.384639 
L 230.686187 456.575392 
L 227.746978 455.782683 
L 224.987286 453.81541 
L 222.594185 450.734012 
L 218.434535 448.368113 
L 216.221221 447.772097 
L 212.787195 447.551647 
L 211.046291 449.982877 
L 211.713336 453.571204 
L 210.262089 453.994285 
L 211.269809 456.778024 
L 209.551042 457.511341 
L 208.898844 455.895877 
L 206.106218 457.010701 
L 207.396306 459.657838 
L 205.783629 460.200402 
L 205.996349 460.820175 
" clip-path="url(#p9a2ca4414b)" style="fill: #ffe699; stroke: #000000; stroke-width: 0.7"/>
    <path d="M 120.089286 416.559142 
L 117.864633 414.76201 
L 118.8432 413.851215 
L 117.758273 413.660812 
L 117.355239 411.429418 
L 118.022284 408.716251 
L 122.460251 408.341382 
L 124.289158 409.001682 
L 124.211952 407.436877 
L 124.989137 401.964077 
L 126.066504 401.630782 
L 125.241809 399.89409 
L 126.3046 398.948359 
L 125.120872 394.452732 
L 127.722914 393.554865 
L 128.430181 393.982837 
L 130.977423 390.908775 
L 131.168007 388.869533 
L 132.809839 389.606692 
L 135.411881 389.702069 
L 136.74948 387.680644 
L 136.947353 384.922409 
L 140.051501 384.851138 
L 140.69641 382.854169 
L 140.355734 380.048769 
L 138.603762 380.892834 
L 138.387533 379.383229 
L 139.146361 379.216931 
L 138.105436 376.459744 
L 138.622119 376.429698 
L 138.332733 374.065197 
L 143.895849 372.520306 
L 143.389964 373.637225 
L 146.893637 372.85884 
L 148.308172 376.400002 
L 151.177733 376.328732 
L 154.252726 375.705116 
L 153.017708 375.182117 
L 152.698628 374.094893 
L 154.512958 373.364022 
L 154.113433 371.926386 
L 157.825776 369.882601 
L 155.330094 367.061131 
L 162.205164 365.303127 
L 166.232809 366.033649 
L 168.193721 365.730749 
L 170.161652 367.732261 
L 171.810772 368.058917 
L 173.445316 367.649112 
L 173.31709 366.983921 
L 175.156795 366.229642 
L 176.402881 364.23407 
L 175.82006 361.674274 
L 177.040501 361.270758 
L 177.249442 363.105622 
L 178.469883 362.185046 
L 178.231518 360.166066 
L 176.94143 360.463026 
L 177.201661 359.334927 
L 179.059722 358.580648 
L 179.246797 359.655295 
L 180.415678 359.619659 
L 180.540395 360.629324 
L 182.354454 360.439269 
L 183.571116 358.04647 
L 185.850838 358.070226 
L 185.506113 354.501814 
L 186.686332 353.908243 
L 186.598328 352.531047 
L 187.646541 353.640979 
L 189.156368 353.611283 
L 189.163657 352.287539 
L 193.953638 350.18052 
L 196.925781 351.15385 
L 196.757332 350.423678 
L 198.241514 349.705384 
L 201.583757 350.993492 
L 202.547746 352.845475 
L 205.017782 352.999894 
L 205.40624 354.122054 
L 206.388315 353.926061 
L 206.567832 351.872145 
L 207.876276 351.569245 
L 209.305658 353.118678 
L 210.918065 352.72704 
L 212.680835 353.166192 
L 213.842697 356.77583 
L 216.129438 356.894614 
L 216.49225 358.628162 
L 215.341456 359.358684 
L 215.90214 360.558053 
L 219.347234 359.726565 
L 219.666044 360.961919 
L 221.359167 359.435894 
L 223.451814 362.517641 
L 224.195794 361.608943 
L 225.375743 363.176892 
L 225.166802 365.05368 
L 223.598396 366.425636 
L 225.009422 367.696625 
L 226.471737 366.164311 
L 228.90884 368.837302 
L 231.67933 371.183636 
L 229.997276 372.169893 
L 232.272949 374.207738 
L 233.463966 372.728178 
L 237.517255 376.762643 
L 241.075998 375.366232 
L 242.230301 374.11865 
L 243.293092 375.889231 
L 243.740128 378.71175 
L 241.929847 384.066465 
L 240.200012 384.720476 
L 240.178146 387.942318 
L 241.797842 388.52471 
L 242.670048 390.647101 
L 240.672693 390.831566 
L 237.671396 392.995881 
L 238.151366 394.077864 
L 233.262583 393.049334 
L 227.779912 392.787659 
L 223.887782 392.216797 
L 222.059145 392.645119 
L 221.44717 391.479637 
L 214.6269 389.232173 
L 212.211663 387.78161 
L 210.236443 389.238113 
L 210.423248 390.052831 
L 212.794483 389.464152 
L 213.490683 390.629283 
L 214.260308 396.605169 
L 212.526964 397.973282 
L 207.410883 399.227851 
L 203.954992 400.911091 
L 200.520966 403.165542 
L 196.870711 407.157385 
L 194.305382 409.983397 
L 193.755765 410.078774 
L 192.18358 407.77611 
L 190.739621 407.204899 
L 187.093145 409.584772 
L 185.649186 407.550071 
L 184.754844 408.145039 
L 180.214296 409.513502 
L 179.07079 410.32263 
L 176.842628 408.103465 
L 173.947422 408.537725 
L 172.111226 407.829563 
L 170.099293 409.846796 
L 169.241664 412.113824 
L 168.908277 414.5475 
L 167.259156 413.851215 
L 161.941424 413.030208 
L 156.95006 413.774006 
L 153.765198 415.392613 
L 153.96685 418.767478 
L 152.061008 418.975699 
L 151.859625 417.053144 
L 151.225514 416.809288 
L 146.779988 418.695858 
L 144.218439 418.714025 
L 142.473756 419.862736 
L 141.76298 414.714147 
L 140.773345 414.862976 
L 140.989575 417.130703 
L 139.996431 417.499633 
L 140.198083 419.749542 
L 141.004422 420.356738 
L 137.339589 421.999801 
L 136.987576 418.077133 
L 136.00172 418.398548 
L 134.99022 414.97617 
L 132.087725 415.725907 
L 131.765405 414.714147 
L 126.656614 416.029505 
L 125.197807 415.767831 
L 125.003714 413.74431 
L 123.69176 412.72661 
L 122.508032 415.595245 
L 121.375595 415.083425 
L 120.089286 416.559142 
M 169.032724 408.269763 
L 171.843706 407.097993 
L 171.961134 405.521309 
L 169.483539 403.522593 
L 167.750194 404.42081 
L 168.548974 406.24694 
L 167.841707 406.497085 
L 169.032724 408.269763 
" clip-path="url(#p9a2ca4414b)" style="fill: #ffe699; stroke: #000000; stroke-width: 0.7"/>
    <path d="M 221.359167 359.435894 
L 222.389023 355.849663 
L 220.974489 352.774205 
L 222.521029 352.299418 
L 220.428381 352.13312 
L 219.229806 350.293015 
L 219.3143 347.901264 
L 218.856196 346.601277 
L 215.660266 345.717035 
L 214.696547 342.186354 
L 216.345667 341.646585 
L 217.324234 339.605246 
L 218.46018 338.543526 
L 216.964931 334.918866 
L 218.423737 333.98152 
L 218.346802 332.730095 
L 220.314733 334.254374 
L 219.944632 336.85854 
L 221.597532 335.731489 
L 221.370235 334.402505 
L 223.568972 336.567868 
L 225.672687 334.50941 
L 224.862839 333.477387 
L 224.129657 328.388538 
L 222.894639 326.900244 
L 221.744114 323.615166 
L 221.700113 322.050012 
L 220.842484 320.247639 
L 222.180083 319.554149 
L 221.6634 318.700302 
L 220.421093 319.24566 
L 219.918987 318.084022 
L 217.61011 315.268491 
L 216.851552 313.549616 
L 216.015789 313.217719 
L 214.696547 310.444112 
L 213.08036 309.30658 
L 213.520107 307.813045 
L 214.692767 307.475558 
L 214.337514 305.69799 
L 213.527396 305.212024 
L 213.3441 302.907613 
L 211.775695 301.379142 
L 210.064216 301.444473 
L 209.107785 300.093829 
L 207.231367 300.443193 
L 206.802418 299.61974 
L 205.527177 299.750054 
L 205.732338 297.007889 
L 207.275369 296.155089 
L 206.84291 294.431672 
L 204.992137 292.021404 
L 202.716194 291.660161 
L 202.514542 290.470224 
L 204.54861 290.185841 
L 205.552822 290.748319 
L 208.330871 290.27458 
L 208.044994 288.468713 
L 202.426808 284.052392 
L 200.121441 284.182705 
L 200.040996 285.461381 
L 199.128297 283.715255 
L 196.764621 283.194352 
L 198.281736 281.241053 
L 195.298526 279.039356 
L 191.128078 275.056597 
L 187.870059 272.340634 
L 184.857425 269.489118 
L 180.767692 266.193909 
L 178.546819 264.017366 
L 173.445316 259.972071 
L 174.247875 259.179711 
L 173.760347 257.086317 
L 171.656901 257.665913 
L 170.575754 258.671036 
L 167.61468 257.328776 
L 168.142431 259.055687 
L 164.25381 257.518132 
L 164.176875 256.459556 
L 161.721415 256.19369 
L 161.087574 254.626788 
L 157.671905 253.284878 
L 155.058795 251.741734 
L 149.246516 249.412867 
L 144.874416 248.230617 
L 142.785278 247.278947 
L 138.098147 246.097046 
L 135.968787 248.011914 
L 135.030713 249.436275 
L 131.120226 250.488562 
L 127.642469 252.279755 
L 126.975424 252.131974 
L 127.187874 249.31819 
L 126.117795 247.905358 
L 124.22302 249.755594 
L 122.434606 247.143044 
L 121.785918 244.489269 
L 122.372248 241.841782 
L 119.180366 240.252521 
L 119.121517 238.219916 
L 120.737704 237.682244 
L 118.762485 234.657443 
L 118.879643 231.745138 
L 119.90599 229.063763 
L 121.064073 230.168105 
L 120.573035 227.663858 
L 117.018072 227.811639 
L 116.248446 228.809774 
L 115.599758 227.71731 
L 111.414463 227.817578 
L 111.399886 230.274661 
L 109.893569 231.662688 
L 110.245313 233.812679 
L 108.453389 234.267552 
L 109.281593 236.033941 
L 108.251737 236.459118 
L 108.643973 237.936232 
L 104.458678 239.106255 
L 102.31852 238.656972 
L 99.602829 240.045697 
L 97.081502 240.411832 
L 96.179871 241.487177 
L 93.335955 241.386909 
L 93.728191 246.522572 
L 90.418882 248.378398 
L 90.854851 249.525014 
L 88.912565 249.572178 
L 89.180085 250.364537 
L 87.113082 251.635527 
L 87.65919 252.705282 
L 86.970279 253.408903 
L 90.228298 257.222569 
L 89.062657 257.476558 
L 89.407382 259.043808 
L 86.610977 260.13767 
L 86.3251 258.984416 
L 85.123016 258.346127 
L 83.195308 259.42217 
L 84.100718 262.692575 
L 83.107304 263.402135 
L 83.616968 264.9341 
L 82.055581 264.827543 
L 81.810197 263.384666 
L 82.502617 261.953319 
L 79.816351 263.585551 
L 81.26409 263.804603 
L 80.842699 264.502285 
L 82.092294 265.892407 
L 81.062438 265.720869 
L 79.285091 266.951332 
L 79.926491 269.844073 
L 82.993925 273.033075 
L 82.136296 273.198674 
L 81.802639 274.95004 
L 79.010283 276.20461 
L 79.339891 276.613017 
L 77.573612 279.045295 
L 77.793351 280.276108 
L 76.906567 280.442056 
L 76.477888 282.892501 
L 78.574045 283.934307 
L 79.438962 287.184099 
L 80.369748 287.09536 
L 80.666692 289.309634 
L 81.52783 289.842416 
L 84.082361 289.587729 
L 85.145152 289.96085 
L 84.811494 288.391853 
L 85.790061 287.882828 
L 86.772136 290.42865 
L 86.087005 290.369607 
L 86.783204 295.621958 
L 83.627766 296.326627 
L 84.280234 299.359114 
L 82.825207 299.631619 
L 84.51482 301.118516 
L 85.445605 306.071112 
L 82.744492 306.799887 
L 82.883786 307.765881 
L 79.446251 308.453081 
L 79.61119 309.211552 
L 76.844209 309.697519 
L 75.829199 311.83668 
L 77.192444 312.014507 
L 77.591969 313.603068 
L 78.346747 313.478345 
L 79.325314 314.823749 
L 79.303448 317.171132 
L 77.782553 316.032901 
L 78.764629 318.492779 
L 79.820131 317.514907 
L 81.857708 318.919703 
L 82.638402 317.11174 
L 84.100718 316.785782 
L 87.076369 318.901885 
L 87.160594 321.368052 
L 88.626689 322.459118 
L 90.715557 321.006459 
L 92.610331 321.350234 
L 92.588195 320.395769 
L 94.834984 319.714158 
L 96.817492 321.99062 
L 98.452035 321.854367 
L 100.335742 322.785075 
L 99.01272 325.293166 
L 97.213238 324.19616 
L 97.290173 326.052335 
L 96.256807 326.390171 
L 94.028645 328.969881 
L 93.878283 330.019373 
L 91.811281 330.475993 
L 90.671555 330.090644 
L 90.151093 331.211756 
L 90.440748 333.240168 
L 89.059147 333.922128 
L 89.326667 335.891498 
L 90.576263 336.941688 
L 90.089004 337.961834 
L 90.96472 341.314339 
L 89.828773 342.583931 
L 90.001001 343.907325 
L 86.262742 344.310841 
L 84.749406 344.108908 
L 85.41996 346.518478 
L 87.105794 347.568668 
L 89.278886 346.749757 
L 88.897718 348.68454 
L 86.097803 349.569131 
L 87.732346 356.217545 
L 91.441181 355.570521 
L 92.573618 354.507753 
L 93.123505 356.003733 
L 95.44318 353.160253 
L 96.476816 352.483533 
L 96.114004 350.86283 
L 98.950362 349.711323 
L 99.991286 350.115189 
L 100.387032 351.391419 
L 99.467315 351.355783 
L 99.009211 353.415638 
L 99.390109 355.386406 
L 100.306317 356.1047 
L 101.878772 355.588338 
L 104.040797 356.461052 
L 104.106934 358.372776 
L 103.355665 358.550952 
L 103.993286 361.721788 
L 103.359175 364.786416 
L 102.010508 365.000227 
L 102.58604 367.910437 
L 98.191804 368.914511 
L 97.913216 370.48281 
L 96.736777 370.672865 
L 96.916563 372.354008 
L 97.905928 373.019548 
L 99.393888 372.841023 
L 100.031509 375.67542 
L 100.456679 380.155675 
L 99.192236 380.524255 
L 101.112656 385.386016 
L 100.306317 385.921243 
L 100.537394 390.43329 
L 102.10229 391.223902 
L 102.776624 390.563952 
L 103.040364 393.29319 
L 104.671128 393.846235 
L 104.282671 395.112682 
L 104.858203 396.367252 
L 103.568115 396.189076 
L 102.703198 397.312982 
L 102.406253 395.576639 
L 101.530538 395.778572 
L 101.284884 394.232632 
L 99.987507 394.226693 
L 100.266095 398.972116 
L 99.196016 398.550083 
L 94.911919 399.251957 
L 95.252595 402.850415 
L 96.256807 402.772856 
L 96.905495 404.254163 
L 96.912784 409.686088 
L 97.217017 411.001097 
L 96.887139 413.476347 
L 97.590897 414.000045 
L 97.616542 419.571017 
L 98.767336 420.92236 
L 105.217236 420.547142 
L 109.343952 421.934121 
L 110.626481 423.541548 
L 110.993072 426.298386 
L 111.975148 426.191131 
L 113.272525 431.282425 
L 111.828566 431.443133 
L 112.187868 432.699798 
L 113.895568 432.807053 
L 112.829268 428.763155 
L 113.074652 427.71541 
L 114.500254 427.328314 
L 113.096788 422.404715 
L 117.193809 421.970105 
L 117.252658 420.695972 
L 114.635769 420.041262 
L 114.460032 418.53515 
L 118.066285 417.559025 
L 117.77285 418.440123 
L 119.400105 418.940064 
L 120.089286 416.559142 
L 117.864633 414.76201 
L 118.8432 413.851215 
L 117.758273 413.660812 
L 117.355239 411.429418 
L 118.022284 408.716251 
L 122.460251 408.341382 
L 124.289158 409.001682 
L 124.211952 407.436877 
L 124.989137 401.964077 
L 126.066504 401.630782 
L 125.241809 399.89409 
L 126.3046 398.948359 
L 125.120872 394.452732 
L 127.722914 393.554865 
L 128.430181 393.982837 
L 130.977423 390.908775 
L 131.168007 388.869533 
L 132.809839 389.606692 
L 135.411881 389.702069 
L 136.74948 387.680644 
L 136.947353 384.922409 
L 140.051501 384.851138 
L 140.69641 382.854169 
L 140.355734 380.048769 
L 138.603762 380.892834 
L 138.387533 379.383229 
L 139.146361 379.216931 
L 138.105436 376.459744 
L 138.622119 376.429698 
L 138.332733 374.065197 
L 143.895849 372.520306 
L 143.389964 373.637225 
L 146.893637 372.85884 
L 148.308172 376.400002 
L 151.177733 376.328732 
L 154.252726 375.705116 
L 153.017708 375.182117 
L 152.698628 374.094893 
L 154.512958 373.364022 
L 154.113433 371.926386 
L 157.825776 369.882601 
L 155.330094 367.061131 
L 162.205164 365.303127 
L 166.232809 366.033649 
L 168.193721 365.730749 
L 170.161652 367.732261 
L 171.810772 368.058917 
L 173.445316 367.649112 
L 173.31709 366.983921 
L 175.156795 366.229642 
L 176.402881 364.23407 
L 175.82006 361.674274 
L 177.040501 361.270758 
L 177.249442 363.105622 
L 178.469883 362.185046 
L 178.231518 360.166066 
L 176.94143 360.463026 
L 177.201661 359.334927 
L 179.059722 358.580648 
L 179.246797 359.655295 
L 180.415678 359.619659 
L 180.540395 360.629324 
L 182.354454 360.439269 
L 183.571116 358.04647 
L 185.850838 358.070226 
L 185.506113 354.501814 
L 186.686332 353.908243 
L 186.598328 352.531047 
L 187.646541 353.640979 
L 189.156368 353.611283 
L 189.163657 352.287539 
L 193.953638 350.18052 
L 196.925781 351.15385 
L 196.757332 350.423678 
L 198.241514 349.705384 
L 201.583757 350.993492 
L 202.547746 352.845475 
L 205.017782 352.999894 
L 205.40624 354.122054 
L 206.388315 353.926061 
L 206.567832 351.872145 
L 207.876276 351.569245 
L 209.305658 353.118678 
L 210.918065 352.72704 
L 212.680835 353.166192 
L 213.842697 356.77583 
L 216.129438 356.894614 
L 216.49225 358.628162 
L 215.341456 359.358684 
L 215.90214 360.558053 
L 219.347234 359.726565 
L 219.666044 360.961919 
L 221.359167 359.435894 
" clip-path="url(#p9a2ca4414b)" style="fill: #ffe699; stroke: #000000; stroke-width: 0.7"/>
    <path d="M 203.280658 184.702812 
L 197.922703 183.264476 
L 194.913848 184.296151 
L 193.41131 185.610811 
L 193.260948 184.408297 
L 191.197725 183.824508 
L 190.109289 184.14278 
L 189.816124 182.887162 
L 188.012863 183.724241 
L 187.793124 183.028655 
L 185.715054 183.553401 
L 186.503036 186.206128 
L 185.275306 185.899736 
L 178.96443 186.819264 
L 178.975498 188.399441 
L 177.714835 188.882962 
L 176.787559 187.473974 
L 176.043578 189.001047 
L 177.484028 192.656801 
L 176.263587 192.75113 
L 176.358879 196.254211 
L 179.129369 195.228126 
L 182.090714 196.738081 
L 182.600108 201.238599 
L 185.73719 203.568863 
L 189.423888 207.740628 
L 188.302518 209.121318 
L 186.470102 209.145075 
L 185.89457 210.838796 
L 184.304298 210.555461 
L 183.71041 211.912743 
L 180.56226 211.924622 
L 177.538828 213.23474 
L 178.686112 216.764722 
L 177.132014 216.416406 
L 177.168727 217.307635 
L 175.3436 217.360739 
L 175.761481 219.834242 
L 175.193508 222.107559 
L 176.7252 221.876978 
L 177.223797 222.780436 
L 178.737403 222.296216 
L 179.517826 223.902246 
L 177.996932 224.522369 
L 178.191295 225.915985 
L 179.503249 225.319619 
L 179.921131 227.150291 
L 179.272442 227.197455 
L 179.829348 233.8008 
L 179.114792 234.633686 
L 179.76348 239.354304 
L 178.689622 239.490207 
L 178.290097 241.682471 
L 176.926853 241.629019 
L 176.736268 243.591052 
L 177.967777 244.442104 
L 178.117869 246.906524 
L 179.532674 246.888706 
L 179.481383 248.159696 
L 181.804837 249.046384 
L 181.863416 249.974297 
L 180.544174 250.589179 
L 180.496393 252.143852 
L 176.479816 252.196956 
L 175.680766 254.023785 
L 174.409035 254.981394 
L 175.457248 255.886249 
L 173.760347 257.086317 
L 174.247875 259.179711 
L 173.445316 259.972071 
L 178.546819 264.017366 
L 180.767692 266.193909 
L 184.857425 269.489118 
L 187.870059 272.340634 
L 191.128078 275.056597 
L 195.298526 279.039356 
L 198.281736 281.241053 
L 196.764621 283.194352 
L 199.128297 283.715255 
L 200.040996 285.461381 
L 200.121441 284.182705 
L 202.426808 284.052392 
L 208.044994 288.468713 
L 208.330871 290.27458 
L 205.552822 290.748319 
L 204.54861 290.185841 
L 202.514542 290.470224 
L 202.716194 291.660161 
L 204.992137 292.021404 
L 206.84291 294.431672 
L 207.275369 296.155089 
L 205.732338 297.007889 
L 205.527177 299.750054 
L 206.802418 299.61974 
L 207.231367 300.443193 
L 209.107785 300.093829 
L 210.064216 301.444473 
L 211.775695 301.379142 
L 213.3441 302.907613 
L 213.527396 305.212024 
L 214.337514 305.69799 
L 214.692767 307.475558 
L 213.520107 307.813045 
L 213.08036 309.30658 
L 214.696547 310.444112 
L 216.015789 313.217719 
L 216.851552 313.549616 
L 217.61011 315.268491 
L 219.918987 318.084022 
L 220.421093 319.24566 
L 221.6634 318.700302 
L 222.180083 319.554149 
L 220.842484 320.247639 
L 221.700113 322.050012 
L 221.744114 323.615166 
L 222.894639 326.900244 
L 224.129657 328.388538 
L 224.862839 333.477387 
L 225.672687 334.50941 
L 223.568972 336.567868 
L 221.370235 334.402505 
L 221.597532 335.731489 
L 219.944632 336.85854 
L 220.314733 334.254374 
L 218.346802 332.730095 
L 218.423737 333.98152 
L 216.964931 334.918866 
L 218.46018 338.543526 
L 217.324234 339.605246 
L 216.345667 341.646585 
L 214.696547 342.186354 
L 215.660266 345.717035 
L 218.856196 346.601277 
L 219.3143 347.901264 
L 219.229806 350.293015 
L 220.428381 352.13312 
L 222.521029 352.299418 
L 222.982642 351.070702 
L 224.298375 350.987553 
L 225.005642 349.088405 
L 228.454245 348.310719 
L 233.881847 348.916169 
L 237.077508 348.726114 
L 237.623615 347.901264 
L 238.986859 348.6786 
L 238.98335 350.785969 
L 239.811555 351.397358 
L 246.063852 352.139059 
L 245.920779 353.540012 
L 250.970991 353.33249 
L 251.678258 351.515792 
L 250.76205 350.447435 
L 250.703471 348.815202 
L 252.227875 349.586949 
L 253.085504 348.257266 
L 255.009703 349.230597 
L 256.614822 348.144422 
L 258.458306 347.978473 
L 259.473316 348.975561 
L 261.58432 348.108786 
L 261.082214 347.005143 
L 262.720267 346.536295 
L 265.062077 344.536181 
L 264.46117 343.56914 
L 264.94114 342.008527 
L 270.984496 340.584516 
L 270.401946 339.700273 
L 269.108078 340.145364 
L 268.173514 337.53491 
L 268.24694 336.425327 
L 267.462737 333.121384 
L 268.005065 332.973253 
L 267.462737 329.74058 
L 266.447458 330.078765 
L 264.296231 318.907824 
L 264.332944 317.71649 
L 265.886773 317.87056 
L 266.781115 316.744208 
L 268.639176 315.843196 
L 268.005065 314.106503 
L 269.606675 313.193962 
L 271.384021 315.179403 
L 274.022776 314.171834 
L 273.670762 312.784856 
L 275.06721 312.624847 
L 275.397089 311.658853 
L 279.97435 312.364221 
L 282.686261 311.184765 
L 284.218224 309.833771 
L 286.347584 306.639878 
L 285.614402 304.915762 
L 284.500321 304.607972 
L 283.902923 301.823534 
L 286.963069 300.727576 
L 287.051072 302.030707 
L 288.359517 301.693221 
L 288.483963 303.079501 
L 289.711693 302.795118 
L 290.462962 305.129224 
L 294.912267 304.305771 
L 297.836629 303.505726 
L 297.363947 301.947908 
L 298.214288 300.01068 
L 298.67968 295.76415 
L 304.085146 294.331055 
L 305.82605 292.211109 
L 304.818059 287.764394 
L 305.030779 286.935351 
L 311.546816 289.043069 
L 311.957139 290.27458 
L 314.079211 289.351209 
L 314.288152 288.622783 
L 316.501737 288.326871 
L 317.707331 287.136934 
L 319.550815 287.728758 
L 320.309373 286.805387 
L 320.21408 283.342133 
L 321.353807 282.069747 
L 323.04342 281.844756 
L 325.157933 283.075917 
L 325.084777 280.678576 
L 323.801977 279.832414 
L 321.665328 279.897396 
L 319.997851 279.128095 
L 318.93884 277.411665 
L 319.781622 275.737159 
L 322.075921 277.287641 
L 323.904558 277.080467 
L 325.033216 275.908698 
L 325.12122 274.139514 
L 324.388307 273.198674 
L 321.078998 271.606968 
L 318.993639 269.110407 
L 317.850404 268.483297 
L 315.732111 268.820434 
L 315.15307 271.257953 
L 312.228439 273.583325 
L 310.83577 273.748924 
L 309.498171 272.240017 
L 310.850347 270.110289 
L 310.868704 269.116346 
L 309.582395 267.022253 
L 306.441804 267.389086 
L 305.840627 265.79179 
L 305.752624 263.692108 
L 304.503028 264.165148 
L 302.967556 266.980679 
L 301.732538 267.891822 
L 300.955354 263.863646 
L 301.219364 262.722271 
L 302.424958 264.047062 
L 303.997143 262.846295 
L 304.488451 260.185183 
L 306.973065 260.498563 
L 306.639677 258.097728 
L 307.856339 256.707955 
L 307.145292 255.058254 
L 307.63633 254.608971 
L 309.549461 255.223853 
L 310.099078 254.502764 
L 309.7144 252.811838 
L 310.172504 251.304329 
L 312.547249 252.291634 
L 313.756622 249.992114 
L 313.44888 248.851089 
L 314.097568 246.983384 
L 312.976198 244.808588 
L 314.042498 243.472966 
L 314.255218 241.546569 
L 313.049355 241.977685 
L 311.20587 241.002957 
L 312.0635 238.970352 
L 310.176284 237.658487 
L 311.31601 236.051758 
L 309.523816 236.364789 
L 309.285721 235.147602 
L 307.680332 234.001685 
L 309.032778 231.851694 
L 308.49045 230.174044 
L 307.310231 229.583617 
L 305.774759 231.172179 
L 305.118782 229.713232 
L 303.136004 228.774488 
L 301.468527 229.016598 
L 299.833984 227.95942 
L 296.469605 228.171834 
L 294.061927 226.293998 
L 293.743117 224.19746 
L 292.691394 223.240899 
L 290.426519 223.252777 
L 291.80812 222.331851 
L 289.917124 221.918553 
L 289.770542 220.637082 
L 291.342727 220.501529 
L 291.492819 218.984237 
L 292.529964 219.273511 
L 293.094428 216.794069 
L 294.032502 217.750281 
L 295.117429 217.26641 
L 293.523108 215.017199 
L 294.703326 213.931373 
L 290.796619 212.951405 
L 289.066784 211.841822 
L 288.667259 210.862203 
L 287.06214 210.207144 
L 284.965713 210.64385 
L 283.785765 208.194803 
L 281.982773 210.201205 
L 280.509389 208.867679 
L 279.38802 208.932661 
L 277.430887 208.602162 
L 277.738899 206.902502 
L 276.738197 207.055873 
L 275.235659 206.082543 
L 274.198513 207.457293 
L 273.176215 205.917293 
L 271.941197 207.085569 
L 270.757199 206.572003 
L 269.767835 204.2358 
L 266.726045 205.096985 
L 266.084646 202.577715 
L 264.329165 203.864076 
L 260.774472 202.866989 
L 261.53303 204.070551 
L 259.136149 206.040968 
L 258.124649 205.899476 
L 258.974989 203.722234 
L 257.281867 204.571889 
L 256.559753 206.170932 
L 255.126861 205.982275 
L 252.601755 207.533804 
L 251.861554 210.64385 
L 250.252656 210.519826 
L 249.043283 209.682049 
L 246.045495 208.985765 
L 245.147644 208.153578 
L 245.173289 206.229975 
L 243.791688 204.80806 
L 241.578103 205.29193 
L 239.800487 203.085342 
L 239.873913 201.356685 
L 238.796545 201.274234 
L 239.096999 200.182819 
L 237.198445 199.463127 
L 235.219446 199.433431 
L 235.006996 198.395468 
L 232.712697 198.307079 
L 232.698119 197.186316 
L 229.993497 197.610795 
L 228.087924 196.956085 
L 227.14958 195.965286 
L 226.379955 196.702446 
L 225.65811 195.705708 
L 224.045433 196.242682 
L 222.737258 198.05344 
L 221.007423 197.198195 
L 220.00699 194.945141 
L 220.124148 193.506107 
L 218.486096 192.609637 
L 216.463095 192.291365 
L 215.31959 193.299632 
L 213.725269 191.27681 
L 212.021348 190.303829 
L 210.94749 190.53406 
L 211.086784 188.32293 
L 208.876708 186.247354 
L 207.630892 186.424482 
L 206.410451 185.210089 
L 205.699405 185.764182 
L 203.280658 184.702812 
" clip-path="url(#p9a2ca4414b)" style="fill: #ffe699; stroke: #000000; stroke-width: 0.7"/>
    <path d="M 276.100577 472.509573 
L 277.225725 472.563026 
L 279.611538 474.215522 
L 282.231936 477.574316 
L 284.474675 477.407319 
L 285.057496 478.487206 
L 284.196358 481.035124 
L 283.708829 481.13085 
L 282.140153 485.726046 
L 282.396875 488.889544 
L 281.957128 489.026845 
L 282.580171 494.507331 
L 280.590104 494.501043 
L 276.712552 490.960929 
L 274.671465 491.360951 
L 272.289162 493.754799 
L 271.92284 492.960693 
L 268.023422 494.590829 
L 269.705476 506.827333 
L 265.274798 507.628077 
L 259.231441 512.771776 
L 254.855562 516.721695 
L 252.777762 520.110185 
L 251.93471 524.00141 
L 243.853776 513.984771 
L 238.528755 519.046369 
L 231.818624 524.378026 
L 225.423524 529.268085 
L 222.216796 531.64202 
L 223.279586 533.041226 
L 222.968065 533.932106 
L 224.544029 534.434493 
L 223.330877 535.851866 
L 222.095858 536.186907 
L 218.310089 533.621171 
L 215.968278 532.801911 
L 203.727694 527.92897 
L 203.053361 529.411674 
L 200.583324 532.317691 
L 194.081864 540.421558 
L 189.856347 537.395011 
L 186.950072 541.103169 
L 189.123434 542.664481 
L 186.53597 545.901346 
L 191.505467 549.616841 
L 192.125001 550.400816 
L 186.118358 554.697654 
L 178.224229 559.893059 
L 177.542607 559.031176 
L 175.699123 558.636044 
L 175.435382 561.563372 
L 170.212942 564.910287 
L 170.832206 565.036059 
L 170.868919 567.634634 
L 172.092869 566.928219 
L 173.350024 567.880238 
L 173.382957 569.257434 
L 175.952065 570.101849 
L 177.091792 568.454943 
L 181.566472 567.790451 
L 181.636119 568.496867 
L 177.165218 569.0838 
L 176.443103 574.144699 
L 176.776491 577.421042 
L 176.684978 580.092985 
L 175.563608 582.819079 
L 174.16716 582.333811 
L 173.881284 583.687949 
L 174.295656 585.767369 
L 173.621323 585.833399 
L 173.800839 587.751062 
L 175.365735 587.559261 
L 175.376533 589.351153 
L 176.696046 589.884633 
L 177.329887 591.400877 
L 177.20895 593.211285 
L 176.252519 593.816735 
L 177.667054 594.098323 
L 177.84684 597.443491 
L 176.073003 602.91175 
L 176.388034 604.70469 
L 176.069223 606.941673 
L 174.636332 608.15921 
L 178.473392 608.327254 
L 178.953632 609.065113 
L 181.515182 607.979287 
L 183.472315 607.997454 
L 184.077001 608.573207 
L 184.945428 606.887871 
L 187.895705 606.702009 
L 188.855915 605.112748 
L 188.702043 603.979059 
L 190.607616 603.853288 
L 191.33324 600.483315 
L 192.39603 599.355914 
L 194.609615 599.026114 
L 196.02064 599.78179 
L 195.841124 601.892303 
L 194.595038 603.595457 
L 197.713763 603.445579 
L 196.115932 605.964151 
L 197.310728 605.982318 
L 197.88599 607.637608 
L 200.39274 607.829409 
L 202.939712 609.526973 
L 203.742272 611.440445 
L 203.903701 613.281947 
L 202.712685 613.491915 
L 203.130297 614.925708 
L 200.07393 615.987777 
L 198.039862 619.497846 
L 198.186444 620.973913 
L 204.380162 618.987773 
L 204.662259 620.032025 
L 199.253014 621.77815 
L 198.4761 621.78409 
L 200.000504 625.901354 
L 200.381672 625.925111 
L 202.188443 629.658773 
L 204.984849 627.527997 
L 205.483175 629.466623 
L 209.140719 628.29625 
L 212.724836 627.479785 
L 212.556388 624.244666 
L 214.806416 624.316635 
L 215.927786 626.711531 
L 216.345667 629.508896 
L 217.064002 629.869091 
L 218.984422 629.130534 
L 221.55353 626.711531 
L 227.358521 626.603578 
L 228.454245 627.792117 
L 228.53496 626.291245 
L 230.495602 624.640846 
L 229.60504 621.075927 
L 233.416455 620.476068 
L 233.463966 626.663668 
L 240.823055 623.236399 
L 244.308371 619.53977 
L 242.146077 618.537791 
L 244.531889 616.467805 
L 246.01985 617.6256 
L 250.575245 613.888095 
L 261.126216 610.420649 
L 262.353946 611.242355 
L 263.82355 610.318634 
L 263.127081 608.327254 
L 267.572606 608.927114 
L 269.602896 608.09318 
L 270.262652 609.460943 
L 271.948486 609.478761 
L 273.253151 610.732631 
L 275.246727 610.288589 
L 275.085567 612.130091 
L 276.078711 612.040304 
L 275.349307 613.911851 
L 276.683397 614.079896 
L 280.003774 613.102024 
L 279.22686 610.948539 
L 280.227292 610.228498 
L 281.473379 608.111347 
L 283.536601 608.405163 
L 284.419876 609.526973 
L 290.990713 607.865394 
L 306.346512 605.016673 
L 307.21143 599.236082 
L 309.098646 595.309221 
L 311.121646 593.217225 
L 330.651402 586.378757 
L 333.27558 583.220499 
L 333.80684 579.404037 
L 333.946134 560.569778 
L 332.626892 557.971552 
L 330.655182 556.780567 
L 315.119866 554.260599 
L 310.51345 552.058203 
L 308.347377 548.372403 
L 308.252085 534.309071 
L 311.396455 531.839411 
L 319.89527 531.516248 
L 336.896411 527.881107 
L 341.345446 522.124273 
L 343.99149 520.343211 
L 355.726188 524.479691 
L 358.998784 525.172831 
L 362.59046 525.041469 
L 365.973196 519.428923 
L 366.288226 515.99851 
L 365.866835 513.387357 
L 370.202222 502.425336 
L 374.750329 500.782972 
L 376.549811 495.020548 
L 376.231001 492.554731 
L 364.741687 489.402761 
L 363.983129 487.52248 
L 363.492091 477.079266 
L 362.601528 470.857078 
L 360.343942 463.121791 
L 359.893126 454.685678 
L 360.714042 448.826829 
L 362.337518 443.714224 
L 365.73861 437.393166 
L 369.143211 431.776427 
L 383.732894 421.708082 
L 394.236083 414.273947 
L 396.574384 408.644631 
L 397.695754 402.654072 
L 412.655537 397.782878 
L 413.205424 398.234956 
L 413.799043 394.065985 
L 421.268002 393.828417 
L 421.502588 392.353748 
L 421.2788 385.190022 
L 420.974837 384.874895 
L 413.732905 382.010103 
L 412.809409 379.728052 
L 413.322582 378.640479 
L 411.464521 377.588542 
L 412.347795 374.897035 
L 411.460742 373.144271 
L 410.467598 372.437157 
L 409.789755 374.350279 
L 408.338507 375.342475 
L 405.520236 373.459049 
L 402.632318 373.708496 
L 402.496803 372.051109 
L 401.668329 370.957946 
L 399.407233 371.361812 
L 399.114068 370.256771 
L 397.750824 369.561884 
L 396.372732 366.312791 
L 396.306865 364.780477 
L 394.62454 364.055894 
L 390.739969 364.412246 
L 389.585396 363.580758 
L 387.452526 363.646089 
L 385.817982 363.141257 
L 379.580533 362.974959 
L 378.345514 364.156861 
L 377.502732 362.642364 
L 374.680682 361.733666 
L 374.911489 360.231397 
L 373.705895 358.651919 
L 371.001272 358.681615 
L 367.959483 359.364623 
L 366.361653 357.850476 
L 364.734398 358.616284 
L 364.851556 359.584024 
L 363.202435 360.231397 
L 362.454946 359.83941 
L 361.985774 360.795622 
L 363.481023 362.006869 
L 363.268303 364.370672 
L 362.183646 364.626058 
L 361.729322 361.525794 
L 360.369587 363.770813 
L 361.362731 365.611965 
L 359.970062 366.39594 
L 359.7649 367.678808 
L 363.49938 369.656912 
L 364.016063 370.536263 
L 357.177436 383.573162 
L 356.818403 383.65631 
L 351.445601 380.732127 
L 353.509094 376.952698 
L 352.255719 377.065543 
L 346.751182 374.053319 
L 347.08079 373.435292 
L 347.018702 370.090473 
L 347.45467 369.389647 
L 345.637101 368.302424 
L 342.793184 369.098627 
L 340.561243 370.137987 
L 339.289512 371.492474 
L 331.46503 373.126454 
L 328.661606 372.995791 
L 328.375729 375.930805 
L 325.311804 375.67542 
L 325.22758 380.981922 
L 325.623326 381.112585 
L 327.078353 384.845199 
L 327.664683 384.732354 
L 328.621113 387.228915 
L 329.673106 386.836579 
L 329.683904 388.637904 
L 334.481174 391.497455 
L 328.511244 401.993773 
L 327.09293 406.627748 
L 328.115498 406.996677 
L 327.877133 414.071665 
L 318.143569 414.036029 
L 317.403098 414.607241 
L 317.432522 408.644631 
L 313.782267 408.65057 
L 310.000277 402.981078 
L 308.160572 400.750732 
L 307.596108 399.465768 
L 305.301808 400.322411 
L 305.29101 401.05992 
L 303.473171 402.112906 
L 300.508317 402.969199 
L 300.618187 409.370611 
L 301.387812 409.180207 
L 302.084282 410.649985 
L 300.22973 413.690857 
L 299.925767 416.535386 
L 293.603823 415.142817 
L 287.388239 412.589659 
L 286.919067 413.994106 
L 286.677192 418.09495 
L 283.86648 418.993517 
L 283.148144 420.826983 
L 283.023428 423.16668 
L 279.827767 424.738123 
L 273.700187 421.678386 
L 272.684907 422.148631 
L 271.431533 426.566 
L 269.68712 436.904754 
L 273.531469 437.315607 
L 278.398385 437.381287 
L 278.58546 439.674868 
L 283.221301 439.769895 
L 283.089565 447.009433 
L 286.032283 447.17608 
L 284.423385 451.633976 
L 284.888778 455.418994 
L 279.091075 454.959929 
L 276.950917 454.387669 
L 276.13729 458.471395 
L 275.217302 458.274353 
L 273.89806 461.363088 
L 274.370741 461.738655 
L 273.509603 465.280516 
L 274.75191 466.300312 
L 275.671897 465.38812 
L 275.928349 467.177218 
L 275.532603 469.336293 
L 276.100577 472.509573 
" clip-path="url(#p9a2ca4414b)" style="fill: #ffe699; stroke: #000000; stroke-width: 0.7"/>
    <path d="M 351.229372 344.186118 
L 350.712689 348.120665 
L 351.628897 349.901377 
L 354.242006 350.809377 
L 355.473245 350.192398 
L 358.764468 350.121128 
L 359.797834 352.038442 
L 364.169934 348.577634 
L 362.784554 346.346241 
L 363.858412 345.473877 
L 364.580527 346.542234 
L 364.173713 347.794358 
L 366.178357 347.153274 
L 366.790332 348.037865 
L 364.199358 351.747421 
L 363.290439 354.994768 
L 362.260582 354.822531 
L 361.120856 357.07244 
L 362.75162 358.533135 
L 362.454946 359.83941 
L 361.985774 360.795622 
L 363.481023 362.006869 
L 363.268303 364.370672 
L 362.183646 364.626058 
L 361.729322 361.525794 
L 360.369587 363.770813 
L 361.362731 365.611965 
L 359.970062 366.39594 
L 359.7649 367.678808 
L 363.49938 369.656912 
L 364.016063 370.536263 
L 357.177436 383.573162 
L 356.818403 383.65631 
L 351.445601 380.732127 
L 353.509094 376.952698 
L 352.255719 377.065543 
L 346.751182 374.053319 
L 347.08079 373.435292 
L 347.018702 370.090473 
L 347.45467 369.389647 
L 345.637101 368.302424 
L 342.793184 369.098627 
L 340.561243 370.137987 
L 339.289512 371.492474 
L 331.46503 373.126454 
L 328.661606 372.995791 
L 328.375729 375.930805 
L 325.311804 375.67542 
L 325.22758 380.981922 
L 325.623326 381.112585 
L 327.078353 384.845199 
L 327.664683 384.732354 
L 328.621113 387.228915 
L 329.673106 386.836579 
L 329.683904 388.637904 
L 334.481174 391.497455 
L 328.511244 401.993773 
L 327.09293 406.627748 
L 328.115498 406.996677 
L 327.877133 414.071665 
L 318.143569 414.036029 
L 317.403098 414.607241 
L 317.432522 408.644631 
L 313.782267 408.65057 
L 310.000277 402.981078 
L 308.160572 400.750732 
L 307.596108 399.465768 
L 305.301808 400.322411 
L 305.29101 401.05992 
L 303.473171 402.112906 
L 300.508317 402.969199 
L 300.618187 409.370611 
L 301.387812 409.180207 
L 302.084282 410.649985 
L 300.22973 413.690857 
L 299.925767 416.535386 
L 293.603823 415.142817 
L 287.388239 412.589659 
L 282.268649 411.310285 
L 281.619961 411.607944 
L 278.849201 410.804754 
L 273.604895 407.740475 
L 272.50917 407.371546 
L 272.523748 403.064576 
L 271.490381 402.112906 
L 271.702832 403.83772 
L 269.423379 404.855071 
L 269.569962 406.342317 
L 266.484171 405.235878 
L 269.309731 404.254163 
L 269.797259 401.654889 
L 266.927697 403.040819 
L 265.227017 403.070515 
L 264.223075 402.362702 
L 265.381158 400.869516 
L 265.57903 397.586535 
L 261.474451 394.47055 
L 259.575897 394.601212 
L 257.157151 393.774615 
L 255.66568 392.002986 
L 254.712759 393.584561 
L 253.166219 394.042229 
L 248.867276 393.780554 
L 248.665894 394.767859 
L 246.547601 396.468567 
L 244.029783 395.659788 
L 244.590468 391.937305 
L 242.670048 390.647101 
L 241.797842 388.52471 
L 240.178146 387.942318 
L 240.200012 384.720476 
L 241.929847 384.066465 
L 243.740128 378.71175 
L 243.293092 375.889231 
L 242.230301 374.11865 
L 241.075998 375.366232 
L 237.517255 376.762643 
L 233.463966 372.728178 
L 232.272949 374.207738 
L 229.997276 372.169893 
L 231.67933 371.183636 
L 228.90884 368.837302 
L 226.471737 366.164311 
L 225.009422 367.696625 
L 223.598396 366.425636 
L 225.166802 365.05368 
L 225.375743 363.176892 
L 224.195794 361.608943 
L 223.451814 362.517641 
L 221.359167 359.435894 
L 222.389023 355.849663 
L 220.974489 352.774205 
L 222.521029 352.299418 
L 222.982642 351.070702 
L 224.298375 350.987553 
L 225.005642 349.088405 
L 228.454245 348.310719 
L 233.881847 348.916169 
L 237.077508 348.726114 
L 237.623615 347.901264 
L 238.986859 348.6786 
L 238.98335 350.785969 
L 239.811555 351.397358 
L 246.063852 352.139059 
L 245.920779 353.540012 
L 250.970991 353.33249 
L 251.678258 351.515792 
L 250.76205 350.447435 
L 250.703471 348.815202 
L 252.227875 349.586949 
L 253.085504 348.257266 
L 255.009703 349.230597 
L 256.614822 348.144422 
L 258.458306 347.978473 
L 259.473316 348.975561 
L 261.58432 348.108786 
L 261.082214 347.005143 
L 262.720267 346.536295 
L 265.062077 344.536181 
L 264.46117 343.56914 
L 264.94114 342.008527 
L 270.984496 340.584516 
L 270.401946 339.700273 
L 269.108078 340.145364 
L 268.173514 337.53491 
L 268.24694 336.425327 
L 267.462737 333.121384 
L 268.005065 332.973253 
L 267.462737 329.74058 
L 266.447458 330.078765 
L 264.296231 318.907824 
L 264.332944 317.71649 
L 265.886773 317.87056 
L 266.781115 316.744208 
L 268.639176 315.843196 
L 268.005065 314.106503 
L 269.606675 313.193962 
L 271.384021 315.179403 
L 274.022776 314.171834 
L 273.670762 312.784856 
L 275.06721 312.624847 
L 275.397089 311.658853 
L 279.97435 312.364221 
L 282.686261 311.184765 
L 284.218224 309.833771 
L 286.347584 306.639878 
L 285.614402 304.915762 
L 284.500321 304.607972 
L 283.902923 301.823534 
L 286.963069 300.727576 
L 287.051072 302.030707 
L 288.359517 301.693221 
L 288.483963 303.079501 
L 289.711693 302.795118 
L 290.462962 305.129224 
L 294.912267 304.305771 
L 297.836629 303.505726 
L 297.363947 301.947908 
L 298.214288 300.01068 
L 298.67968 295.76415 
L 304.085146 294.331055 
L 305.82605 292.211109 
L 304.818059 287.764394 
L 305.030779 286.935351 
L 311.546816 289.043069 
L 311.957139 290.27458 
L 314.079211 289.351209 
L 314.288152 288.622783 
L 316.501737 288.326871 
L 317.707331 287.136934 
L 319.550815 287.728758 
L 320.309373 286.805387 
L 320.21408 283.342133 
L 321.353807 282.069747 
L 323.04342 281.844756 
L 325.157933 283.075917 
L 324.74761 284.757061 
L 325.194646 286.615682 
L 327.111286 289.410251 
L 329.148864 287.651898 
L 331.699616 287.308473 
L 333.073928 285.798867 
L 334.920921 282.933726 
L 332.546177 278.672173 
L 332.465732 276.293348 
L 332.993213 274.050775 
L 335.811484 273.920462 
L 337.149353 273.364273 
L 337.695191 271.577272 
L 335.731039 268.684531 
L 341.085215 265.330629 
L 343.166794 265.289054 
L 346.923409 265.963328 
L 348.161937 264.61478 
L 350.328011 264.366382 
L 354.49117 266.560742 
L 356.972274 268.193324 
L 360.424656 268.607671 
L 362.502457 268.081178 
L 363.675117 268.737635 
L 364.24336 267.672771 
L 365.280505 267.767448 
L 368.230512 266.087702 
L 372.50381 268.436133 
L 374.794331 267.950865 
L 376.747684 268.648896 
L 380.804483 270.944223 
L 384.912842 272.618729 
L 385.972124 274.01514 
L 385.198719 276.103992 
L 383.48724 277.802255 
L 381.636467 280.838585 
L 381.416728 283.040282 
L 380.386871 285.195165 
L 379.445018 285.260146 
L 379.445018 286.651317 
L 378.250222 287.657837 
L 378.224577 289.398373 
L 379.606178 290.138677 
L 379.345947 291.826109 
L 380.221932 292.4361 
L 380.112063 294.277603 
L 379.239857 295.728515 
L 376.414027 296.53415 
L 375.996415 303.659796 
L 374.74304 304.447963 
L 375.857121 304.909823 
L 376.722039 307.996811 
L 376.307937 309.525631 
L 373.643537 310.693209 
L 373.101208 311.52854 
L 370.876556 311.380409 
L 369.799188 315.671308 
L 368.787688 315.65943 
L 369.198011 330.820118 
L 362.509745 332.035907 
L 362.795622 334.177164 
L 365.830122 333.708666 
L 366.673174 335.849923 
L 366.130576 340.216635 
L 367.537822 342.447329 
L 365.46731 344.120787 
L 363.946416 341.575314 
L 363.110923 342.180414 
L 360.321806 342.791803 
L 355.469736 342.922116 
L 351.229372 344.186118 
M 340.502664 334.628194 
L 332.872276 331.170181 
L 322.735407 332.202205 
L 323.435386 338.727292 
L 315.570682 339.516507 
L 314.925773 333.014828 
L 314.463889 330.660108 
L 313.01993 330.529446 
L 310.660033 331.454913 
L 311.007998 332.23784 
L 307.548597 332.812895 
L 307.108579 334.800082 
L 305.481594 335.381425 
L 305.287231 333.293621 
L 304.359955 333.352663 
L 304.17315 331.875898 
L 299.625043 332.374092 
L 299.672824 330.992005 
L 298.862976 330.310045 
L 298.804127 328.880793 
L 296.183729 328.050702 
L 296.293868 329.123951 
L 295.040493 329.604328 
L 293.285013 332.949496 
L 289.202299 333.388299 
L 288.018571 333.246107 
L 288.113863 334.746629 
L 287.359084 335.820577 
L 285.101498 336.081552 
L 285.262658 337.291752 
L 283.309304 337.451761 
L 284.441742 339.890328 
L 283.089565 340.946458 
L 280.688906 341.409017 
L 281.000427 342.560174 
L 279.325661 342.779924 
L 278.354384 343.937021 
L 278.874846 347.545261 
L 278.039353 347.990352 
L 276.760333 346.506599 
L 275.884347 346.87448 
L 276.521967 348.364172 
L 274.451456 349.800411 
L 276.72011 353.231523 
L 277.89628 352.691405 
L 278.596258 356.502626 
L 287.644961 354.90568 
L 294.538387 352.632013 
L 295.139295 354.044845 
L 297.686537 353.385942 
L 298.302021 354.715625 
L 300.310445 354.276124 
L 300.489961 356.490748 
L 305.342301 354.495875 
L 307.178226 354.293942 
L 307.193073 356.075004 
L 305.946987 357.22686 
L 307.299163 358.735068 
L 308.354665 361.85245 
L 309.527595 362.066261 
L 309.527595 364.483517 
L 313.042066 363.901475 
L 314.522738 361.359846 
L 314.962486 349.586949 
L 319.444455 349.105874 
L 320.701609 349.545375 
L 324.48009 351.794935 
L 334.847765 350.720638 
L 345.637101 342.89242 
L 345.039703 336.733816 
L 340.502664 334.628194 
" clip-path="url(#p9a2ca4414b)" style="fill: #ffe699; stroke: #000000; stroke-width: 0.7"/>
    <path d="M 203.727694 527.92897 
L 201.004715 526.404342 
L 186.202582 511.337983 
L 182.16387 505.919683 
L 179.213863 500.735109 
L 176.692267 496.901528 
L 170.813849 487.319499 
L 166.91821 483.326957 
L 163.172933 480.957565 
L 155.062574 476.709288 
L 150.866212 472.849505 
L 149.4919 474.29902 
L 149.268382 476.047242 
L 143.375387 475.516207 
L 143.983853 470.946515 
L 144.779124 470.153457 
L 142.840348 469.157068 
L 144.156081 467.195035 
L 138.105436 464.016514 
L 131.200941 461.804336 
L 125.828139 461.035034 
L 125.307947 458.709662 
L 123.200452 458.29252 
L 123.687981 456.867461 
L 120.06715 455.639444 
L 119.150942 454.673799 
L 117.894058 457.100138 
L 116.215513 455.585991 
L 112.693483 453.6009 
L 109.186301 453.231272 
L 108.196937 454.542787 
L 107.119299 453.177819 
L 103.875858 455.365192 
L 103.27495 453.851394 
L 106.085933 452.677179 
L 106.356962 451.312211 
L 101.845569 449.547918 
L 100.856204 449.243971 
L 98.715776 450.17957 
L 99.752921 453.451721 
L 98.726844 453.773835 
L 99.192236 455.502493 
L 96.13209 455.901817 
L 96.168804 456.939081 
L 91.22873 457.350283 
L 88.348101 457.30277 
L 85.786281 458.268414 
L 84.976433 456.808069 
L 80.574909 456.819947 
L 79.061573 455.59193 
L 76.558333 456.199825 
L 75.356248 457.070093 
L 75.807064 455.144743 
L 78.80863 454.924294 
L 79.090728 453.553386 
L 76.430107 452.969248 
L 76.290813 453.875151 
L 74.883567 454.179099 
L 74.824988 455.931513 
L 74.139586 457.338405 
L 73.058439 456.986944 
L 72.567401 458.22684 
L 69.254313 456.939081 
L 68.140232 457.028518 
L 66.824499 460.993111 
L 66.81721 462.549531 
L 68.880703 463.55116 
L 68.807277 467.200975 
L 67.693196 467.922762 
L 68.063296 470.033974 
L 67.597904 473.475917 
L 67.000506 473.392418 
L 66.494891 476.69741 
L 65.127867 477.604361 
L 63.753555 481.297846 
L 62.39382 481.375405 
L 62.276662 482.336159 
L 60.57976 483.213414 
L 59.703775 486.322761 
L 59.077222 486.275247 
L 58.963574 489.790906 
L 57.81278 494.525149 
L 57.237517 495.928198 
L 55.606483 495.904441 
L 55.555193 498.382486 
L 55.053087 498.412182 
L 55.023933 510.579162 
L 58.886638 510.567284 
L 59.099088 526.123452 
L 65.281738 526.500068 
L 64.486467 532.275767 
L 64.669763 533.447886 
L 66.677916 533.549552 
L 66.106434 535.941653 
L 65.340317 535.869684 
L 65.072797 538.626871 
L 63.244161 542.012566 
L 64.73941 542.616618 
L 63.859915 544.746346 
L 65.300095 544.967843 
L 65.212091 545.961087 
L 64.039431 545.799331 
L 62.936148 549.89808 
L 64.402243 550.059486 
L 64.281306 551.172563 
L 66.707341 551.39406 
L 65.549258 557.445059 
L 65.355165 560.461825 
L 68.767054 560.240327 
L 69.811488 561.754824 
L 70.767919 564.76041 
L 73.10973 564.461004 
L 74.146875 565.221571 
L 75.671549 565.257556 
L 75.543323 566.017774 
L 77.481829 565.419312 
L 77.481829 563.670741 
L 78.9185 563.101975 
L 83.338381 563.928223 
L 95.809771 564.981907 
L 96.143158 563.700786 
L 98.059799 563.383563 
L 98.785423 568.969907 
L 97.799838 573.473918 
L 99.514826 573.773324 
L 100.141648 575.000992 
L 99.261883 578.757014 
L 100.233161 581.80068 
L 100.258806 585.461674 
L 100.71691 586.15691 
L 105.785479 586.300849 
L 107.735054 585.731384 
L 109.644405 584.455154 
L 112.576325 583.981765 
L 111.630693 586.534574 
L 114.221667 586.378757 
L 114.082643 583.801842 
L 115.167299 584.389124 
L 119.154721 584.347201 
L 119.590689 583.040925 
L 120.660769 583.052804 
L 132.344447 580.908053 
L 131.908208 582.112314 
L 134.634697 582.759337 
L 137.746133 582.927032 
L 138.090859 579.272327 
L 145.262873 577.145743 
L 146.061653 577.397286 
L 145.083357 578.853089 
L 144.445466 581.357336 
L 144.386887 583.442346 
L 146.091078 582.016238 
L 145.878627 584.227368 
L 148.114078 584.053385 
L 148.513603 584.910377 
L 150.950706 585.365948 
L 150.917772 586.246697 
L 152.240524 586.174728 
L 150.573047 588.362101 
L 148.971707 595.417175 
L 149.044863 598.636572 
L 147.802557 599.152235 
L 148.846991 600.633192 
L 150.243439 600.686995 
L 150.173792 601.874486 
L 151.188801 601.874486 
L 152.760986 608.495299 
L 153.156732 611.770245 
L 157.147933 612.124152 
L 157.389808 614.397818 
L 159.99185 614.206017 
L 160.046649 615.915808 
L 158.947146 616.293821 
L 160.153009 617.595904 
L 160.350882 618.927683 
L 163.495252 619.635845 
L 163.396451 618.153839 
L 166.111872 617.961689 
L 166.683624 615.153844 
L 167.478895 614.373712 
L 170.671046 614.793998 
L 171.165863 612.975903 
L 173.679902 612.034365 
L 174.559397 611.092477 
L 174.636332 608.15921 
L 176.069223 606.941673 
L 176.388034 604.70469 
L 176.073003 602.91175 
L 177.84684 597.443491 
L 177.667054 594.098323 
L 176.252519 593.816735 
L 177.20895 593.211285 
L 177.329887 591.400877 
L 176.696046 589.884633 
L 175.376533 589.351153 
L 175.365735 587.559261 
L 173.800839 587.751062 
L 173.621323 585.833399 
L 174.295656 585.767369 
L 173.881284 583.687949 
L 174.16716 582.333811 
L 175.563608 582.819079 
L 176.684978 580.092985 
L 176.776491 577.421042 
L 176.443103 574.144699 
L 177.165218 569.0838 
L 181.636119 568.496867 
L 181.566472 567.790451 
L 177.091792 568.454943 
L 175.952065 570.101849 
L 173.382957 569.257434 
L 173.350024 567.880238 
L 172.092869 566.928219 
L 170.868919 567.634634 
L 170.832206 565.036059 
L 170.212942 564.910287 
L 175.435382 561.563372 
L 175.699123 558.636044 
L 177.542607 559.031176 
L 178.224229 559.893059 
L 186.118358 554.697654 
L 192.125001 550.400816 
L 191.505467 549.616841 
L 186.53597 545.901346 
L 189.123434 542.664481 
L 186.950072 541.103169 
L 189.856347 537.395011 
L 194.081864 540.421558 
L 200.583324 532.317691 
L 203.053361 529.411674 
L 203.727694 527.92897 
" clip-path="url(#p9a2ca4414b)" style="fill: #ffe699; stroke: #000000; stroke-width: 0.7"/>
    <path d="M 279.38802 208.932661 
L 281.267947 207.805261 
L 282.415232 208.05331 
L 283.620826 205.096985 
L 281.271726 203.445188 
L 281.942281 201.740287 
L 283.155433 200.524847 
L 283.628114 199.050178 
L 283.569535 196.726203 
L 285.119854 196.855817 
L 287.238147 195.375558 
L 285.401952 195.098512 
L 284.588324 191.088153 
L 282.00113 186.701528 
L 279.846124 187.450217 
L 278.878625 182.828469 
L 280.784198 183.576809 
L 280.45081 181.778977 
L 281.802987 181.166191 
L 281.923924 179.203459 
L 281.165366 178.331095 
L 280.890558 179.53326 
L 278.85298 176.651349 
L 278.032064 176.958092 
L 276.862914 173.805074 
L 274.495458 170.175872 
L 273.89428 163.21862 
L 273.359241 161.864133 
L 271.537893 162.335426 
L 270.757199 158.71915 
L 269.877704 158.472149 
L 270.823337 157.011804 
L 272.692466 157.788792 
L 272.256228 156.499286 
L 272.494323 154.350343 
L 270.075577 154.691672 
L 269.756767 153.53772 
L 272.699755 152.684222 
L 274.744621 152.966509 
L 274.770266 151.512452 
L 275.701051 149.828863 
L 272.183072 148.410442 
L 271.823769 145.826539 
L 272.853626 143.866603 
L 274.11051 143.254515 
L 275.382241 143.878481 
L 276.181291 141.883258 
L 277.702186 141.836094 
L 278.109 138.658621 
L 278.611106 138.676438 
L 279.329441 135.45215 
L 281.594316 133.328711 
L 281.311949 131.72862 
L 278.995783 128.740502 
L 278.937204 126.153106 
L 280.776909 127.176396 
L 281.52089 125.61194 
L 285.830631 126.752965 
L 285.588756 127.729091 
L 286.809197 128.387644 
L 287.875767 126.946863 
L 289.275725 126.488147 
L 290.118507 127.388111 
L 291.665046 127.287843 
L 292.907623 126.335474 
L 293.794407 127.099885 
L 295.714827 127.423397 
L 296.631035 129.51714 
L 298.760125 131.311129 
L 299.951412 131.340475 
L 300.028347 132.651991 
L 298.89591 133.875816 
L 301.212075 135.487436 
L 304.418804 136.170095 
L 306.082502 134.940331 
L 311.334366 134.964087 
L 312.877127 134.058184 
L 315.984784 134.040367 
L 317.971341 132.275725 
L 318.93506 132.40499 
L 319.832912 130.822717 
L 321.643462 130.216918 
L 324.611825 130.122939 
L 325.846844 130.534491 
L 328.05314 132.263847 
L 329.273581 132.240439 
L 330.28859 134.869759 
L 331.963626 135.328824 
L 334.041426 134.552186 
L 336.874275 137.087876 
L 338.043425 137.405449 
L 339.960066 134.769841 
L 341.451806 135.987726 
L 342.28379 135.652336 
L 344.914986 136.993548 
L 346.351657 134.505022 
L 346.201295 131.781723 
L 347.509739 127.423397 
L 348.847339 126.400107 
L 347.898197 123.271545 
L 349.008498 121.695909 
L 347.575607 120.884335 
L 347.626897 119.796762 
L 345.999913 118.979598 
L 345.523452 119.890741 
L 345.061569 117.021757 
L 341.796261 117.010228 
L 340.989923 118.6208 
L 339.179642 118.02129 
L 338.431883 118.903087 
L 338.585754 120.702316 
L 337.878486 121.60752 
L 334.723048 118.797229 
L 334.895276 115.481757 
L 334.613179 114.312083 
L 335.470808 113.207042 
L 335.738328 108.658312 
L 338.541752 109.745535 
L 340.924055 108.470354 
L 342.503529 107.148008 
L 343.361158 104.650748 
L 341.499317 103.687199 
L 341.11086 102.153837 
L 338.516107 102.195062 
L 337.464384 101.249332 
L 337.219 99.62199 
L 338.585754 99.633868 
L 337.808839 97.448591 
L 336.746049 96.59125 
L 334.836697 97.771754 
L 331.948779 98.200425 
L 331.047418 97.096082 
L 328.74583 97.325266 
L 325.978849 95.246195 
L 324.934415 92.397824 
L 323.871624 93.014453 
L 321.852403 92.075011 
L 320.357154 92.333191 
L 319.635039 96.291495 
L 317.223581 95.310828 
L 316.032565 96.544086 
L 315.933493 93.043799 
L 314.196369 89.978472 
L 313.005353 91.546422 
L 312.224659 91.199852 
L 311.414811 92.838373 
L 309.197717 93.349144 
L 307.925986 91.628522 
L 308.853262 90.788999 
L 309.377234 88.469565 
L 311.348944 87.101453 
L 310.157927 86.543866 
L 308.908062 81.078403 
L 309.351588 80.456184 
L 305.532885 79.08877 
L 305.785827 77.427889 
L 304.539741 76.054536 
L 304.044924 73.590117 
L 301.622398 74.035906 
L 300.794194 72.369436 
L 300.830907 70.175075 
L 299.357523 70.116382 
L 298.503673 69.312843 
L 296.132438 65.423364 
L 292.742684 66.438269 
L 291.522243 65.229816 
L 290.323938 63.0655 
L 289.440664 62.842606 
L 288.568457 58.848667 
L 289.209587 58.1978 
L 288.319024 57.142369 
L 288.476675 55.254401 
L 287.512955 53.911792 
L 286.090862 53.536574 
L 286.219088 51.519691 
L 287.49082 50.511424 
L 288.157864 48.641623 
L 287.575314 46.472766 
L 286.164288 45.218547 
L 283.522024 44.996001 
L 282.558035 45.570357 
L 281.403732 43.864758 
L 276.141069 45.241954 
L 275.298017 45.013469 
L 272.681398 45.681804 
L 270.16736 45.857535 
L 268.598684 44.550561 
L 265.842771 43.999613 
L 264.51624 43.032571 
L 263.71341 40.788251 
L 261.826195 41.005207 
L 261.485249 40.278528 
L 258.406746 38.473709 
L 257.63739 38.532402 
L 255.394381 37.032579 
L 252.30859 36.850909 
L 251.047927 38.55581 
L 249.91171 39.106758 
L 249.039503 38.567688 
L 246.18101 38.274571 
L 245.235377 40.16149 
L 245.96856 42.487562 
L 244.942212 42.927063 
L 243.267446 44.820271 
L 242.633605 43.689027 
L 241.160222 43.079386 
L 239.126153 45.593764 
L 240.126856 47.797558 
L 235.772842 48.864169 
L 236.00014 51.765993 
L 237.957273 52.610059 
L 239.972714 54.181502 
L 237.352586 54.544841 
L 237.055642 53.770998 
L 236.304373 55.741066 
L 236.839412 57.183594 
L 237.605259 57.019392 
L 237.528323 59.61692 
L 238.675338 59.470536 
L 241.204223 57.8404 
L 243.897778 59.734307 
L 243.102507 61.223998 
L 242.153365 61.089144 
L 239.558612 63.188826 
L 239.983782 64.133159 
L 236.58296 63.435128 
L 236.751409 64.989453 
L 235.618971 63.640206 
L 234.270304 63.564044 
L 233.409166 64.801844 
L 232.10801 63.51129 
L 231.800268 65.094961 
L 229.33374 64.561131 
L 228.626473 65.265102 
L 230.305018 67.852148 
L 231.191802 70.39797 
L 228.787903 72.639495 
L 229.747843 73.325997 
L 228.465313 74.646246 
L 230.184081 74.564146 
L 230.037498 76.007721 
L 228.699899 76.353942 
L 228.073077 77.545276 
L 223.089002 78.531184 
L 223.177006 77.809396 
L 221.110003 76.077944 
L 219.838272 76.846896 
L 218.540895 76.342063 
L 216.880707 77.386664 
L 215.634621 81.242954 
L 214.033281 82.874487 
L 214.044079 83.714011 
L 210.888911 82.85108 
L 208.191577 85.598485 
L 208.524964 87.048699 
L 207.905701 88.275668 
L 206.707125 87.788304 
L 205.871632 86.050563 
L 204.134508 85.357773 
L 202.822554 85.663118 
L 201.129432 84.541656 
L 200.077439 85.680586 
L 198.150001 86.197296 
L 197.548824 87.371512 
L 195.665117 89.091784 
L 195.555248 90.213245 
L 194.415521 90.806467 
L 194.426319 92.180519 
L 190.871626 91.487728 
L 190.809268 93.525224 
L 191.912281 95.510315 
L 190.472101 96.5088 
L 191.348087 97.495756 
L 191.912281 99.498664 
L 193.158367 100.391641 
L 194.015996 101.95435 
L 192.656262 102.741469 
L 190.343875 102.253755 
L 188.514968 102.541632 
L 185.770123 102.083265 
L 185.678611 103.757771 
L 183.530894 103.375915 
L 182.91163 104.621401 
L 183.351377 106.713398 
L 184.784268 108.546515 
L 184.271095 110.609165 
L 184.677908 113.865246 
L 184.538614 116.204942 
L 186.235516 117.703717 
L 186.00093 119.379271 
L 187.203015 121.536948 
L 186.682552 123.859526 
L 187.323952 127.776255 
L 185.374378 129.963978 
L 185.440245 131.587476 
L 184.623109 132.646401 
L 182.061289 133.175689 
L 182.343386 137.258366 
L 181.335665 139.523648 
L 180.382744 138.140862 
L 178.348946 138.117455 
L 178.763048 140.829923 
L 178.253654 141.983526 
L 176.666621 142.436652 
L 174.614466 144.502097 
L 173.511183 143.660477 
L 176.186651 146.885814 
L 175.695614 148.245542 
L 174.529972 147.58629 
L 173.361092 148.598749 
L 174.299166 151.706699 
L 170.938566 152.613301 
L 170.747982 153.314127 
L 172.312878 153.608292 
L 172.921344 156.1342 
L 176.717912 156.958701 
L 176.380745 158.572068 
L 174.48624 159.455262 
L 174.097513 161.47529 
L 176.604263 163.907917 
L 174.91492 168.048939 
L 175.325243 168.691071 
L 176.428526 167.601402 
L 177.802838 168.355332 
L 178.286587 169.674883 
L 179.235729 169.598372 
L 179.87335 168.03147 
L 180.767692 169.586493 
L 178.880206 171.02413 
L 179.308886 171.813694 
L 181.240373 171.760591 
L 181.852348 170.346711 
L 182.713757 170.929801 
L 182.460814 172.308744 
L 183.981709 171.902084 
L 185.773633 173.410292 
L 187.595251 173.345659 
L 190.966918 174.317941 
L 191.391819 175.455124 
L 193.242592 175.354856 
L 195.335239 176.675106 
L 196.159934 175.231181 
L 197.790698 175.620024 
L 198.574901 173.993731 
L 200.641903 173.781666 
L 204.01735 179.951799 
L 202.829843 180.205438 
L 201.931991 183.022716 
L 203.280658 184.702812 
L 205.699405 185.764182 
L 206.410451 185.210089 
L 207.630892 186.424482 
L 208.876708 186.247354 
L 211.086784 188.32293 
L 210.94749 190.53406 
L 212.021348 190.303829 
L 213.725269 191.27681 
L 215.31959 193.299632 
L 216.463095 192.291365 
L 218.486096 192.609637 
L 220.124148 193.506107 
L 220.00699 194.945141 
L 221.007423 197.198195 
L 222.737258 198.05344 
L 224.045433 196.242682 
L 225.65811 195.705708 
L 226.379955 196.702446 
L 227.14958 195.965286 
L 228.087924 196.956085 
L 229.993497 197.610795 
L 232.698119 197.186316 
L 232.712697 198.307079 
L 235.006996 198.395468 
L 235.219446 199.433431 
L 237.198445 199.463127 
L 239.096999 200.182819 
L 238.796545 201.274234 
L 239.873913 201.356685 
L 239.800487 203.085342 
L 241.578103 205.29193 
L 243.791688 204.80806 
L 245.173289 206.229975 
L 245.147644 208.153578 
L 246.045495 208.985765 
L 249.043283 209.682049 
L 250.252656 210.519826 
L 251.861554 210.64385 
L 252.601755 207.533804 
L 255.126861 205.982275 
L 256.559753 206.170932 
L 257.281867 204.571889 
L 258.974989 203.722234 
L 258.124649 205.899476 
L 259.136149 206.040968 
L 261.53303 204.070551 
L 260.774472 202.866989 
L 264.329165 203.864076 
L 266.084646 202.577715 
L 266.726045 205.096985 
L 269.767835 204.2358 
L 270.757199 206.572003 
L 271.941197 207.085569 
L 273.176215 205.917293 
L 274.198513 207.457293 
L 275.235659 206.082543 
L 276.738197 207.055873 
L 277.738899 206.902502 
L 277.430887 208.602162 
L 279.38802 208.932661 
" clip-path="url(#p9a2ca4414b)" style="fill: #ffe699; stroke: #000000; stroke-width: 0.7"/>
   </g>
   <g id="matplotlib.axis_1">
    <g id="xtick_1">
     <g id="line2d_1">
      <defs>
       <path id="md13ed10a5c" d="M 0 0 
L 0 3.5 
" style="stroke: #000000; stroke-width: 0.8"/>
      </defs>
      <g>
       <use xlink:href="#md13ed10a5c" x="79.851715" y="659.52" style="stroke: #000000; stroke-width: 0.8"/>
      </g>
     </g>
     <g id="text_1">
      <!-- 116.8 -->
      <g transform="translate(68.789215 673.46375)scale(0.1 -0.1)">
       <defs>
        <path id="TimesNewRomanPSMT-31" d="M 750 3822 
L 1781 4325 
L 1884 4325 
L 1884 747 
Q 1884 391 1914 303 
Q 1944 216 2037 169 
Q 2131 122 2419 116 
L 2419 0 
L 825 0 
L 825 116 
Q 1125 122 1212 167 
Q 1300 213 1334 289 
Q 1369 366 1369 747 
L 1369 3034 
Q 1369 3497 1338 3628 
Q 1316 3728 1258 3775 
Q 1200 3822 1119 3822 
Q 1003 3822 797 3725 
L 750 3822 
z
" transform="scale(0.015625)"/>
        <path id="TimesNewRomanPSMT-36" d="M 2869 4325 
L 2869 4209 
Q 2456 4169 2195 4045 
Q 1934 3922 1679 3669 
Q 1425 3416 1258 3105 
Q 1091 2794 978 2366 
Q 1428 2675 1881 2675 
Q 2316 2675 2634 2325 
Q 2953 1975 2953 1425 
Q 2953 894 2631 456 
Q 2244 -75 1606 -75 
Q 1172 -75 869 213 
Q 275 772 275 1663 
Q 275 2231 503 2743 
Q 731 3256 1154 3653 
Q 1578 4050 1965 4187 
Q 2353 4325 2688 4325 
L 2869 4325 
z
M 925 2138 
Q 869 1716 869 1456 
Q 869 1156 980 804 
Q 1091 453 1309 247 
Q 1469 100 1697 100 
Q 1969 100 2183 356 
Q 2397 613 2397 1088 
Q 2397 1622 2184 2012 
Q 1972 2403 1581 2403 
Q 1463 2403 1327 2353 
Q 1191 2303 925 2138 
z
" transform="scale(0.015625)"/>
        <path id="TimesNewRomanPSMT-2e" d="M 800 606 
Q 947 606 1047 504 
Q 1147 403 1147 259 
Q 1147 116 1045 14 
Q 944 -88 800 -88 
Q 656 -88 554 14 
Q 453 116 453 259 
Q 453 406 554 506 
Q 656 606 800 606 
z
" transform="scale(0.015625)"/>
        <path id="TimesNewRomanPSMT-38" d="M 1228 2134 
Q 725 2547 579 2797 
Q 434 3047 434 3316 
Q 434 3728 753 4026 
Q 1072 4325 1600 4325 
Q 2113 4325 2425 4047 
Q 2738 3769 2738 3413 
Q 2738 3175 2569 2928 
Q 2400 2681 1866 2347 
Q 2416 1922 2594 1678 
Q 2831 1359 2831 1006 
Q 2831 559 2490 242 
Q 2150 -75 1597 -75 
Q 994 -75 656 303 
Q 388 606 388 966 
Q 388 1247 577 1523 
Q 766 1800 1228 2134 
z
M 1719 2469 
Q 2094 2806 2194 3001 
Q 2294 3197 2294 3444 
Q 2294 3772 2109 3958 
Q 1925 4144 1606 4144 
Q 1288 4144 1088 3959 
Q 888 3775 888 3528 
Q 888 3366 970 3203 
Q 1053 3041 1206 2894 
L 1719 2469 
z
M 1375 2016 
Q 1116 1797 991 1539 
Q 866 1281 866 981 
Q 866 578 1086 336 
Q 1306 94 1647 94 
Q 1984 94 2187 284 
Q 2391 475 2391 747 
Q 2391 972 2272 1150 
Q 2050 1481 1375 2016 
z
" transform="scale(0.015625)"/>
       </defs>
       <use xlink:href="#TimesNewRomanPSMT-31"/>
       <use xlink:href="#TimesNewRomanPSMT-31" x="46.25"/>
       <use xlink:href="#TimesNewRomanPSMT-36" x="96.25"/>
       <use xlink:href="#TimesNewRomanPSMT-2e" x="146.25"/>
       <use xlink:href="#TimesNewRomanPSMT-38" x="171.25"/>
      </g>
     </g>
    </g>
    <g id="xtick_2">
     <g id="line2d_2">
      <g>
       <use xlink:href="#md13ed10a5c" x="133.841586" y="659.52" style="stroke: #000000; stroke-width: 0.8"/>
      </g>
     </g>
     <g id="text_2">
      <!-- 117.0 -->
      <g transform="translate(122.779086 673.46375)scale(0.1 -0.1)">
       <defs>
        <path id="TimesNewRomanPSMT-37" d="M 644 4238 
L 2916 4238 
L 2916 4119 
L 1503 -88 
L 1153 -88 
L 2419 3728 
L 1253 3728 
Q 900 3728 750 3644 
Q 488 3500 328 3200 
L 238 3234 
L 644 4238 
z
" transform="scale(0.015625)"/>
        <path id="TimesNewRomanPSMT-30" d="M 231 2094 
Q 231 2819 450 3342 
Q 669 3866 1031 4122 
Q 1313 4325 1613 4325 
Q 2100 4325 2488 3828 
Q 2972 3213 2972 2159 
Q 2972 1422 2759 906 
Q 2547 391 2217 158 
Q 1888 -75 1581 -75 
Q 975 -75 572 641 
Q 231 1244 231 2094 
z
M 844 2016 
Q 844 1141 1059 588 
Q 1238 122 1591 122 
Q 1759 122 1940 273 
Q 2122 425 2216 781 
Q 2359 1319 2359 2297 
Q 2359 3022 2209 3506 
Q 2097 3866 1919 4016 
Q 1791 4119 1609 4119 
Q 1397 4119 1231 3928 
Q 1006 3669 925 3112 
Q 844 2556 844 2016 
z
" transform="scale(0.015625)"/>
       </defs>
       <use xlink:href="#TimesNewRomanPSMT-31"/>
       <use xlink:href="#TimesNewRomanPSMT-31" x="46.25"/>
       <use xlink:href="#TimesNewRomanPSMT-37" x="96.25"/>
       <use xlink:href="#TimesNewRomanPSMT-2e" x="146.25"/>
       <use xlink:href="#TimesNewRomanPSMT-30" x="171.25"/>
      </g>
     </g>
    </g>
    <g id="xtick_3">
     <g id="line2d_3">
      <g>
       <use xlink:href="#md13ed10a5c" x="187.831457" y="659.52" style="stroke: #000000; stroke-width: 0.8"/>
      </g>
     </g>
     <g id="text_3">
      <!-- 117.2 -->
      <g transform="translate(176.768957 673.46375)scale(0.1 -0.1)">
       <defs>
        <path id="TimesNewRomanPSMT-32" d="M 2934 816 
L 2638 0 
L 138 0 
L 138 116 
Q 1241 1122 1691 1759 
Q 2141 2397 2141 2925 
Q 2141 3328 1894 3587 
Q 1647 3847 1303 3847 
Q 991 3847 742 3664 
Q 494 3481 375 3128 
L 259 3128 
Q 338 3706 661 4015 
Q 984 4325 1469 4325 
Q 1984 4325 2329 3994 
Q 2675 3663 2675 3213 
Q 2675 2891 2525 2569 
Q 2294 2063 1775 1497 
Q 997 647 803 472 
L 1909 472 
Q 2247 472 2383 497 
Q 2519 522 2628 598 
Q 2738 675 2819 816 
L 2934 816 
z
" transform="scale(0.015625)"/>
       </defs>
       <use xlink:href="#TimesNewRomanPSMT-31"/>
       <use xlink:href="#TimesNewRomanPSMT-31" x="46.25"/>
       <use xlink:href="#TimesNewRomanPSMT-37" x="96.25"/>
       <use xlink:href="#TimesNewRomanPSMT-2e" x="146.25"/>
       <use xlink:href="#TimesNewRomanPSMT-32" x="171.25"/>
      </g>
     </g>
    </g>
    <g id="xtick_4">
     <g id="line2d_4">
      <g>
       <use xlink:href="#md13ed10a5c" x="241.821328" y="659.52" style="stroke: #000000; stroke-width: 0.8"/>
      </g>
     </g>
     <g id="text_4">
      <!-- 117.4 -->
      <g transform="translate(230.758828 673.46375)scale(0.1 -0.1)">
       <defs>
        <path id="TimesNewRomanPSMT-34" d="M 2978 1563 
L 2978 1119 
L 2409 1119 
L 2409 0 
L 1894 0 
L 1894 1119 
L 100 1119 
L 100 1519 
L 2066 4325 
L 2409 4325 
L 2409 1563 
L 2978 1563 
z
M 1894 1563 
L 1894 3666 
L 406 1563 
L 1894 1563 
z
" transform="scale(0.015625)"/>
       </defs>
       <use xlink:href="#TimesNewRomanPSMT-31"/>
       <use xlink:href="#TimesNewRomanPSMT-31" x="46.25"/>
       <use xlink:href="#TimesNewRomanPSMT-37" x="96.25"/>
       <use xlink:href="#TimesNewRomanPSMT-2e" x="146.25"/>
       <use xlink:href="#TimesNewRomanPSMT-34" x="171.25"/>
      </g>
     </g>
    </g>
    <g id="xtick_5">
     <g id="line2d_5">
      <g>
       <use xlink:href="#md13ed10a5c" x="295.811199" y="659.52" style="stroke: #000000; stroke-width: 0.8"/>
      </g>
     </g>
     <g id="text_5">
      <!-- 117.6 -->
      <g transform="translate(284.748699 673.46375)scale(0.1 -0.1)">
       <use xlink:href="#TimesNewRomanPSMT-31"/>
       <use xlink:href="#TimesNewRomanPSMT-31" x="46.25"/>
       <use xlink:href="#TimesNewRomanPSMT-37" x="96.25"/>
       <use xlink:href="#TimesNewRomanPSMT-2e" x="146.25"/>
       <use xlink:href="#TimesNewRomanPSMT-36" x="171.25"/>
      </g>
     </g>
    </g>
    <g id="xtick_6">
     <g id="line2d_6">
      <g>
       <use xlink:href="#md13ed10a5c" x="349.80107" y="659.52" style="stroke: #000000; stroke-width: 0.8"/>
      </g>
     </g>
     <g id="text_6">
      <!-- 117.8 -->
      <g transform="translate(338.73857 673.46375)scale(0.1 -0.1)">
       <use xlink:href="#TimesNewRomanPSMT-31"/>
       <use xlink:href="#TimesNewRomanPSMT-31" x="46.25"/>
       <use xlink:href="#TimesNewRomanPSMT-37" x="96.25"/>
       <use xlink:href="#TimesNewRomanPSMT-2e" x="146.25"/>
       <use xlink:href="#TimesNewRomanPSMT-38" x="171.25"/>
      </g>
     </g>
    </g>
    <g id="xtick_7">
     <g id="line2d_7">
      <g>
       <use xlink:href="#md13ed10a5c" x="403.790941" y="659.52" style="stroke: #000000; stroke-width: 0.8"/>
      </g>
     </g>
     <g id="text_7">
      <!-- 118.0 -->
      <g transform="translate(392.728441 673.46375)scale(0.1 -0.1)">
       <use xlink:href="#TimesNewRomanPSMT-31"/>
       <use xlink:href="#TimesNewRomanPSMT-31" x="46.25"/>
       <use xlink:href="#TimesNewRomanPSMT-38" x="96.25"/>
       <use xlink:href="#TimesNewRomanPSMT-2e" x="146.25"/>
       <use xlink:href="#TimesNewRomanPSMT-30" x="171.25"/>
      </g>
     </g>
    </g>
   </g>
   <g id="matplotlib.axis_2">
    <g id="ytick_1">
     <g id="line2d_8">
      <defs>
       <path id="mfa8ac354a8" d="M 0 0 
L -3.5 0 
" style="stroke: #000000; stroke-width: 0.8"/>
      </defs>
      <g>
       <use xlink:href="#mfa8ac354a8" x="36.7" y="649.28609" style="stroke: #000000; stroke-width: 0.8"/>
      </g>
     </g>
     <g id="text_8">
      <!-- 38.50 -->
      <g transform="translate(7.2 652.757965)scale(0.1 -0.1)">
       <defs>
        <path id="TimesNewRomanPSMT-33" d="M 325 3431 
Q 506 3859 782 4092 
Q 1059 4325 1472 4325 
Q 1981 4325 2253 3994 
Q 2459 3747 2459 3466 
Q 2459 3003 1878 2509 
Q 2269 2356 2469 2072 
Q 2669 1788 2669 1403 
Q 2669 853 2319 450 
Q 1863 -75 997 -75 
Q 569 -75 414 31 
Q 259 138 259 259 
Q 259 350 332 419 
Q 406 488 509 488 
Q 588 488 669 463 
Q 722 447 909 348 
Q 1097 250 1169 231 
Q 1284 197 1416 197 
Q 1734 197 1970 444 
Q 2206 691 2206 1028 
Q 2206 1275 2097 1509 
Q 2016 1684 1919 1775 
Q 1784 1900 1550 2001 
Q 1316 2103 1072 2103 
L 972 2103 
L 972 2197 
Q 1219 2228 1467 2375 
Q 1716 2522 1828 2728 
Q 1941 2934 1941 3181 
Q 1941 3503 1739 3701 
Q 1538 3900 1238 3900 
Q 753 3900 428 3381 
L 325 3431 
z
" transform="scale(0.015625)"/>
        <path id="TimesNewRomanPSMT-35" d="M 2778 4238 
L 2534 3706 
L 1259 3706 
L 981 3138 
Q 1809 3016 2294 2522 
Q 2709 2097 2709 1522 
Q 2709 1188 2573 903 
Q 2438 619 2231 419 
Q 2025 219 1772 97 
Q 1413 -75 1034 -75 
Q 653 -75 479 54 
Q 306 184 306 341 
Q 306 428 378 495 
Q 450 563 559 563 
Q 641 563 702 538 
Q 763 513 909 409 
Q 1144 247 1384 247 
Q 1750 247 2026 523 
Q 2303 800 2303 1197 
Q 2303 1581 2056 1914 
Q 1809 2247 1375 2428 
Q 1034 2569 447 2591 
L 1259 4238 
L 2778 4238 
z
" transform="scale(0.015625)"/>
       </defs>
       <use xlink:href="#TimesNewRomanPSMT-33"/>
       <use xlink:href="#TimesNewRomanPSMT-38" x="50"/>
       <use xlink:href="#TimesNewRomanPSMT-2e" x="100"/>
       <use xlink:href="#TimesNewRomanPSMT-35" x="125"/>
       <use xlink:href="#TimesNewRomanPSMT-30" x="175"/>
      </g>
     </g>
    </g>
    <g id="ytick_2">
     <g id="line2d_9">
      <g>
       <use xlink:href="#mfa8ac354a8" x="36.7" y="561.944878" style="stroke: #000000; stroke-width: 0.8"/>
      </g>
     </g>
     <g id="text_9">
      <!-- 38.75 -->
      <g transform="translate(7.2 565.416753)scale(0.1 -0.1)">
       <use xlink:href="#TimesNewRomanPSMT-33"/>
       <use xlink:href="#TimesNewRomanPSMT-38" x="50"/>
       <use xlink:href="#TimesNewRomanPSMT-2e" x="100"/>
       <use xlink:href="#TimesNewRomanPSMT-37" x="125"/>
       <use xlink:href="#TimesNewRomanPSMT-35" x="175"/>
      </g>
     </g>
    </g>
    <g id="ytick_3">
     <g id="line2d_10">
      <g>
       <use xlink:href="#mfa8ac354a8" x="36.7" y="474.603666" style="stroke: #000000; stroke-width: 0.8"/>
      </g>
     </g>
     <g id="text_10">
      <!-- 39.00 -->
      <g transform="translate(7.2 478.075541)scale(0.1 -0.1)">
       <defs>
        <path id="TimesNewRomanPSMT-39" d="M 338 -88 
L 338 28 
Q 744 34 1094 217 
Q 1444 400 1770 856 
Q 2097 1313 2225 1859 
Q 1734 1544 1338 1544 
Q 891 1544 572 1889 
Q 253 2234 253 2806 
Q 253 3363 572 3797 
Q 956 4325 1575 4325 
Q 2097 4325 2469 3894 
Q 2925 3359 2925 2575 
Q 2925 1869 2578 1258 
Q 2231 647 1613 244 
Q 1109 -88 516 -88 
L 338 -88 
z
M 2275 2091 
Q 2331 2497 2331 2741 
Q 2331 3044 2228 3395 
Q 2125 3747 1936 3934 
Q 1747 4122 1506 4122 
Q 1228 4122 1018 3872 
Q 809 3622 809 3128 
Q 809 2469 1088 2097 
Q 1291 1828 1588 1828 
Q 1731 1828 1928 1897 
Q 2125 1966 2275 2091 
z
" transform="scale(0.015625)"/>
       </defs>
       <use xlink:href="#TimesNewRomanPSMT-33"/>
       <use xlink:href="#TimesNewRomanPSMT-39" x="50"/>
       <use xlink:href="#TimesNewRomanPSMT-2e" x="100"/>
       <use xlink:href="#TimesNewRomanPSMT-30" x="125"/>
       <use xlink:href="#TimesNewRomanPSMT-30" x="175"/>
      </g>
     </g>
    </g>
    <g id="ytick_4">
     <g id="line2d_11">
      <g>
       <use xlink:href="#mfa8ac354a8" x="36.7" y="387.262454" style="stroke: #000000; stroke-width: 0.8"/>
      </g>
     </g>
     <g id="text_11">
      <!-- 39.25 -->
      <g transform="translate(7.2 390.734329)scale(0.1 -0.1)">
       <use xlink:href="#TimesNewRomanPSMT-33"/>
       <use xlink:href="#TimesNewRomanPSMT-39" x="50"/>
       <use xlink:href="#TimesNewRomanPSMT-2e" x="100"/>
       <use xlink:href="#TimesNewRomanPSMT-32" x="125"/>
       <use xlink:href="#TimesNewRomanPSMT-35" x="175"/>
      </g>
     </g>
    </g>
    <g id="ytick_5">
     <g id="line2d_12">
      <g>
       <use xlink:href="#mfa8ac354a8" x="36.7" y="299.921242" style="stroke: #000000; stroke-width: 0.8"/>
      </g>
     </g>
     <g id="text_12">
      <!-- 39.50 -->
      <g transform="translate(7.2 303.393117)scale(0.1 -0.1)">
       <use xlink:href="#TimesNewRomanPSMT-33"/>
       <use xlink:href="#TimesNewRomanPSMT-39" x="50"/>
       <use xlink:href="#TimesNewRomanPSMT-2e" x="100"/>
       <use xlink:href="#TimesNewRomanPSMT-35" x="125"/>
       <use xlink:href="#TimesNewRomanPSMT-30" x="175"/>
      </g>
     </g>
    </g>
    <g id="ytick_6">
     <g id="line2d_13">
      <g>
       <use xlink:href="#mfa8ac354a8" x="36.7" y="212.58003" style="stroke: #000000; stroke-width: 0.8"/>
      </g>
     </g>
     <g id="text_13">
      <!-- 39.75 -->
      <g transform="translate(7.2 216.051905)scale(0.1 -0.1)">
       <use xlink:href="#TimesNewRomanPSMT-33"/>
       <use xlink:href="#TimesNewRomanPSMT-39" x="50"/>
       <use xlink:href="#TimesNewRomanPSMT-2e" x="100"/>
       <use xlink:href="#TimesNewRomanPSMT-37" x="125"/>
       <use xlink:href="#TimesNewRomanPSMT-35" x="175"/>
      </g>
     </g>
    </g>
    <g id="ytick_7">
     <g id="line2d_14">
      <g>
       <use xlink:href="#mfa8ac354a8" x="36.7" y="125.238818" style="stroke: #000000; stroke-width: 0.8"/>
      </g>
     </g>
     <g id="text_14">
      <!-- 40.00 -->
      <g transform="translate(7.2 128.710693)scale(0.1 -0.1)">
       <use xlink:href="#TimesNewRomanPSMT-34"/>
       <use xlink:href="#TimesNewRomanPSMT-30" x="50"/>
       <use xlink:href="#TimesNewRomanPSMT-2e" x="100"/>
       <use xlink:href="#TimesNewRomanPSMT-30" x="125"/>
       <use xlink:href="#TimesNewRomanPSMT-30" x="175"/>
      </g>
     </g>
    </g>
    <g id="ytick_8">
     <g id="line2d_15">
      <g>
       <use xlink:href="#mfa8ac354a8" x="36.7" y="37.897606" style="stroke: #000000; stroke-width: 0.8"/>
      </g>
     </g>
     <g id="text_15">
      <!-- 40.25 -->
      <g transform="translate(7.2 41.369481)scale(0.1 -0.1)">
       <use xlink:href="#TimesNewRomanPSMT-34"/>
       <use xlink:href="#TimesNewRomanPSMT-30" x="50"/>
       <use xlink:href="#TimesNewRomanPSMT-2e" x="100"/>
       <use xlink:href="#TimesNewRomanPSMT-32" x="125"/>
       <use xlink:href="#TimesNewRomanPSMT-35" x="175"/>
      </g>
     </g>
    </g>
   </g>
   <g id="PathCollection_1">
    <defs>
     <path id="mfbb1e1c2db" d="M 0 3.535534 
C 0.937635 3.535534 1.836992 3.163008 2.5 2.5 
C 3.163008 1.836992 3.535534 0.937635 3.535534 0 
C 3.535534 -0.937635 3.163008 -1.836992 2.5 -2.5 
C 1.836992 -3.163008 0.937635 -3.535534 0 -3.535534 
C -0.937635 -3.535534 -1.836992 -3.163008 -2.5 -2.5 
C -3.163008 -1.836992 -3.535534 -0.937635 -3.535534 0 
C -3.535534 0.937635 -3.163008 1.836992 -2.5 2.5 
C -1.836992 3.163008 -0.937635 3.535534 0 3.535534 
z
" style="stroke: #000000; stroke-width: 0.5"/>
    </defs>
    <g clip-path="url(#p9a2ca4414b)">
     <use xlink:href="#mfbb1e1c2db" x="183.939327" y="395.46065" style="fill: #c55a11; stroke: #000000; stroke-width: 0.5"/>
    </g>
   </g>
   <g id="PathCollection_2">
    <g clip-path="url(#p9a2ca4414b)">
     <use xlink:href="#mfbb1e1c2db" x="158.197766" y="447.152323" style="fill: #c55a11; stroke: #000000; stroke-width: 0.5"/>
    </g>
   </g>
   <g id="PathCollection_3">
    <g clip-path="url(#p9a2ca4414b)">
     <use xlink:href="#mfbb1e1c2db" x="174.642811" y="440.714228" style="fill: #c55a11; stroke: #000000; stroke-width: 0.5"/>
    </g>
   </g>
   <g id="PathCollection_4">
    <g clip-path="url(#p9a2ca4414b)">
     <use xlink:href="#mfbb1e1c2db" x="199.973239" y="435.934917" style="fill: #c55a11; stroke: #000000; stroke-width: 0.5"/>
    </g>
   </g>
   <g id="PathCollection_5">
    <g clip-path="url(#p9a2ca4414b)">
     <use xlink:href="#mfbb1e1c2db" x="184.791017" y="432.684077" style="fill: #c55a11; stroke: #000000; stroke-width: 0.5"/>
    </g>
   </g>
   <g id="PathCollection_6">
    <g clip-path="url(#p9a2ca4414b)">
     <use xlink:href="#mfbb1e1c2db" x="206.367799" y="427.630514" style="fill: #c55a11; stroke: #000000; stroke-width: 0.5"/>
    </g>
   </g>
   <g id="PathCollection_7">
    <g clip-path="url(#p9a2ca4414b)">
     <use xlink:href="#mfbb1e1c2db" x="134.900327" y="426.304325" style="fill: #c55a11; stroke: #000000; stroke-width: 0.5"/>
    </g>
   </g>
   <g id="PathCollection_8">
    <g clip-path="url(#p9a2ca4414b)">
     <use xlink:href="#mfbb1e1c2db" x="172.7834" y="416.665699" style="fill: #c55a11; stroke: #000000; stroke-width: 0.5"/>
    </g>
   </g>
   <g id="PathCollection_9">
    <g clip-path="url(#p9a2ca4414b)">
     <use xlink:href="#mfbb1e1c2db" x="188.283892" y="442.217894" style="fill: #c55a11; stroke: #000000; stroke-width: 0.5"/>
    </g>
   </g>
   <g id="PathCollection_10">
    <g clip-path="url(#p9a2ca4414b)">
     <use xlink:href="#mfbb1e1c2db" x="185.051518" y="414.469242" style="fill: #c55a11; stroke: #000000; stroke-width: 0.5"/>
    </g>
   </g>
   <g id="PathCollection_11">
    <g clip-path="url(#p9a2ca4414b)">
     <use xlink:href="#mfbb1e1c2db" x="234.797515" y="479.995763" style="fill: #c55a11; stroke: #000000; stroke-width: 0.5"/>
    </g>
   </g>
   <g id="PathCollection_12">
    <g clip-path="url(#p9a2ca4414b)">
     <use xlink:href="#mfbb1e1c2db" x="235.006186" y="421.699697" style="fill: #c55a11; stroke: #000000; stroke-width: 0.5"/>
    </g>
   </g>
   <g id="PathCollection_13">
    <g clip-path="url(#p9a2ca4414b)">
     <use xlink:href="#mfbb1e1c2db" x="218.647795" y="444.010136" style="fill: #c55a11; stroke: #000000; stroke-width: 0.5"/>
    </g>
   </g>
   <g id="PathCollection_14">
    <g clip-path="url(#p9a2ca4414b)">
     <use xlink:href="#mfbb1e1c2db" x="254.028707" y="108.795612" style="fill: #c55a11; stroke: #000000; stroke-width: 0.5"/>
    </g>
   </g>
   <g id="PathCollection_15">
    <g clip-path="url(#p9a2ca4414b)">
     <use xlink:href="#mfbb1e1c2db" x="216.956833" y="223.57035" style="fill: #c55a11; stroke: #000000; stroke-width: 0.5"/>
    </g>
   </g>
   <g id="PathCollection_16">
    <g clip-path="url(#p9a2ca4414b)">
     <use xlink:href="#mfbb1e1c2db" x="228.263661" y="292.402561" style="fill: #c55a11; stroke: #000000; stroke-width: 0.5"/>
    </g>
   </g>
   <g id="PathCollection_17">
    <g clip-path="url(#p9a2ca4414b)">
     <use xlink:href="#mfbb1e1c2db" x="347.588835" y="388.05132" style="fill: #c55a11; stroke: #000000; stroke-width: 0.5"/>
    </g>
   </g>
   <g id="PathCollection_18">
    <g clip-path="url(#p9a2ca4414b)">
     <use xlink:href="#mfbb1e1c2db" x="340.359861" y="417.444433" style="fill: #c55a11; stroke: #000000; stroke-width: 0.5"/>
    </g>
   </g>
   <g id="PathCollection_19">
    <g clip-path="url(#p9a2ca4414b)">
     <use xlink:href="#mfbb1e1c2db" x="74.345828" y="528.689537" style="fill: #c55a11; stroke: #000000; stroke-width: 0.5"/>
    </g>
   </g>
   <g id="PathCollection_20">
    <g clip-path="url(#p9a2ca4414b)">
     <use xlink:href="#mfbb1e1c2db" x="324.975177" y="462.334322" style="fill: #c55a11; stroke: #000000; stroke-width: 0.5"/>
    </g>
   </g>
   <g id="PathCollection_21">
    <g clip-path="url(#p9a2ca4414b)">
     <use xlink:href="#mfbb1e1c2db" x="309.5554" y="467.191192" style="fill: #c55a11; stroke: #000000; stroke-width: 0.5"/>
    </g>
   </g>
   <g id="PathCollection_22">
    <g clip-path="url(#p9a2ca4414b)">
     <use xlink:href="#mfbb1e1c2db" x="257.133395" y="529.8103" style="fill: #c55a11; stroke: #000000; stroke-width: 0.5"/>
    </g>
   </g>
   <g id="PathCollection_23">
    <g clip-path="url(#p9a2ca4414b)">
     <use xlink:href="#mfbb1e1c2db" x="110.849729" y="494.428375" style="fill: #c55a11; stroke: #000000; stroke-width: 0.5"/>
    </g>
   </g>
   <g id="PathCollection_24">
    <g clip-path="url(#p9a2ca4414b)">
     <use xlink:href="#mfbb1e1c2db" x="176.131042" y="502.452587" style="fill: #c55a11; stroke: #000000; stroke-width: 0.5"/>
    </g>
   </g>
   <g id="PathCollection_25">
    <g clip-path="url(#p9a2ca4414b)">
     <use xlink:href="#mfbb1e1c2db" x="145.871339" y="343.390265" style="fill: #c55a11; stroke: #000000; stroke-width: 0.5"/>
    </g>
   </g>
   <g id="PathCollection_26">
    <g clip-path="url(#p9a2ca4414b)">
     <use xlink:href="#mfbb1e1c2db" x="174.603938" y="440.715276" style="fill: #c55a11; stroke: #000000; stroke-width: 0.5"/>
    </g>
   </g>
   <g id="PathCollection_27">
    <g clip-path="url(#p9a2ca4414b)">
     <use xlink:href="#mfbb1e1c2db" x="145.352226" y="340.428699" style="fill: #c55a11; stroke: #000000; stroke-width: 0.5"/>
    </g>
   </g>
   <g id="patch_3">
    <path d="M 36.7 659.52 
L 36.7 7.2 
" style="fill: none; stroke: #000000; stroke-width: 0.8; stroke-linejoin: miter; stroke-linecap: square"/>
   </g>
   <g id="patch_4">
    <path d="M 439.82652 659.52 
L 439.82652 7.2 
" style="fill: none; stroke: #000000; stroke-width: 0.8; stroke-linejoin: miter; stroke-linecap: square"/>
   </g>
   <g id="patch_5">
    <path d="M 36.7 659.52 
L 439.82652 659.52 
" style="fill: none; stroke: #000000; stroke-width: 0.8; stroke-linejoin: miter; stroke-linecap: square"/>
   </g>
   <g id="patch_6">
    <path d="M 36.7 7.2 
L 439.82652 7.2 
" style="fill: none; stroke: #000000; stroke-width: 0.8; stroke-linejoin: miter; stroke-linecap: square"/>
   </g>
  </g>
 </g>
 <defs>
  <clipPath id="p9a2ca4414b">
   <rect x="36.7" y="7.2" width="403.12652" height="652.32"/>
  </clipPath>
 </defs>
</svg>
