<?xml version="1.0" encoding="utf-8" standalone="no"?>
<!DOCTYPE svg PUBLIC "-//W3C//DTD SVG 1.1//EN"
  "http://www.w3.org/Graphics/SVG/1.1/DTD/svg11.dtd">
<svg xmlns:xlink="http://www.w3.org/1999/xlink" width="1246.713156pt" height="321.699781pt" viewBox="0 0 1246.713156 321.699781" xmlns="http://www.w3.org/2000/svg" version="1.1">
 <metadata>
  <rdf:RDF xmlns:dc="http://purl.org/dc/elements/1.1/" xmlns:cc="http://creativecommons.org/ns#" xmlns:rdf="http://www.w3.org/1999/02/22-rdf-syntax-ns#">
   <cc:Work>
    <dc:type rdf:resource="http://purl.org/dc/dcmitype/StillImage"/>
    <dc:date>2022-09-22T16:33:38.697503</dc:date>
    <dc:format>image/svg+xml</dc:format>
    <dc:creator>
     <cc:Agent>
      <dc:title>Matplotlib v3.5.1, https://matplotlib.org/</dc:title>
     </cc:Agent>
    </dc:creator>
   </cc:Work>
  </rdf:RDF>
 </metadata>
 <defs>
  <style type="text/css">*{stroke-linejoin: round; stroke-linecap: butt}</style>
 </defs>
 <g id="figure_1">
  <g id="patch_1">
   <path d="M 0 321.699781 
L 1246.713156 321.699781 
L 1246.713156 0 
L 0 0 
z
" style="fill: #ffffff; stroke: #ffffff; stroke-linejoin: miter"/>
  </g>
  <g id="axes_1">
   <g id="patch_2">
    <path d="M 43.558781 284.4 
L 1159.558781 284.4 
L 1159.558781 7.2 
L 43.558781 7.2 
z
" style="fill: #ebebeb"/>
   </g>
   <g id="matplotlib.axis_1">
    <g id="xtick_1">
     <g id="line2d_1">
      <path d="M 94.286054 284.4 
L 94.286054 7.2 
" clip-path="url(#pf241ac9220)" style="fill: none; stroke: #ffffff"/>
     </g>
     <g id="line2d_2">
      <path d="M 94.286054 284.4 
" style="fill: none; stroke: #000000; stroke-width: 1.5"/>
      <defs>
       <path id="m33b94fdeb1" d="M 0 0 
L 0 2.75 
" style="stroke: #333333"/>
      </defs>
      <g>
       <use xlink:href="#m33b94fdeb1" x="94.286054" y="284.4" style="stroke: #333333"/>
      </g>
     </g>
     <g id="text_1">
      <!-- 0 -->
      <g style="fill: #4d4d4d" transform="translate(91.705866 296.3845)scale(0.088 -0.088)">
       <defs>
        <path id="MicrosoftYaHei-30" d="M 284 2325 
Q 284 3606 709 4264 
Q 1134 4922 1941 4922 
Q 3478 4922 3478 2441 
Q 3478 1216 3045 567 
Q 2613 -81 1831 -81 
Q 1094 -81 689 534 
Q 284 1150 284 2325 
z
M 909 2353 
Q 909 425 1888 425 
Q 2850 425 2850 2384 
Q 2850 4413 1906 4413 
Q 909 4413 909 2353 
z
" transform="scale(0.015625)"/>
       </defs>
       <use xlink:href="#MicrosoftYaHei-30"/>
      </g>
     </g>
    </g>
    <g id="xtick_2">
     <g id="line2d_3">
      <path d="M 338.460652 284.4 
L 338.460652 7.2 
" clip-path="url(#pf241ac9220)" style="fill: none; stroke: #ffffff"/>
     </g>
     <g id="line2d_4">
      <path d="M 338.460652 284.4 
" style="fill: none; stroke: #000000; stroke-width: 1.5"/>
      <g>
       <use xlink:href="#m33b94fdeb1" x="338.460652" y="284.4" style="stroke: #333333"/>
      </g>
     </g>
     <g id="text_2">
      <!-- 200 -->
      <g style="fill: #4d4d4d" transform="translate(330.720089 296.3845)scale(0.088 -0.088)">
       <defs>
        <path id="MicrosoftYaHei-32" d="M 2666 3572 
Q 2666 3963 2419 4186 
Q 2172 4409 1747 4409 
Q 1447 4409 1140 4256 
Q 834 4103 569 3819 
L 569 4413 
Q 806 4659 1107 4790 
Q 1409 4922 1816 4922 
Q 2472 4922 2872 4570 
Q 3272 4219 3272 3619 
Q 3272 3084 3026 2693 
Q 2781 2303 2188 1894 
Q 1581 1475 1376 1294 
Q 1172 1113 1090 947 
Q 1009 781 1009 544 
L 3416 544 
L 3416 0 
L 372 0 
L 372 241 
Q 372 659 486 951 
Q 600 1244 862 1520 
Q 1125 1797 1681 2184 
Q 2250 2584 2458 2886 
Q 2666 3188 2666 3572 
z
" transform="scale(0.015625)"/>
       </defs>
       <use xlink:href="#MicrosoftYaHei-32"/>
       <use xlink:href="#MicrosoftYaHei-30" x="58.642578"/>
       <use xlink:href="#MicrosoftYaHei-30" x="117.285156"/>
      </g>
     </g>
    </g>
    <g id="xtick_3">
     <g id="line2d_5">
      <path d="M 582.63525 284.4 
L 582.63525 7.2 
" clip-path="url(#pf241ac9220)" style="fill: none; stroke: #ffffff"/>
     </g>
     <g id="line2d_6">
      <path d="M 582.63525 284.4 
" style="fill: none; stroke: #000000; stroke-width: 1.5"/>
      <g>
       <use xlink:href="#m33b94fdeb1" x="582.63525" y="284.4" style="stroke: #333333"/>
      </g>
     </g>
     <g id="text_3">
      <!-- 400 -->
      <g style="fill: #4d4d4d" transform="translate(574.894687 296.3845)scale(0.088 -0.088)">
       <defs>
        <path id="MicrosoftYaHei-34" d="M 2906 4841 
L 2906 1644 
L 3631 1644 
L 3631 1138 
L 2906 1138 
L 2906 0 
L 2313 0 
L 2313 1138 
L 53 1138 
L 53 1616 
Q 656 2294 1265 3178 
Q 1875 4063 2272 4841 
L 2906 4841 
z
M 741 1644 
L 2313 1644 
L 2313 3950 
Q 1988 3366 1616 2817 
Q 1244 2269 741 1644 
z
" transform="scale(0.015625)"/>
       </defs>
       <use xlink:href="#MicrosoftYaHei-34"/>
       <use xlink:href="#MicrosoftYaHei-30" x="58.642578"/>
       <use xlink:href="#MicrosoftYaHei-30" x="117.285156"/>
      </g>
     </g>
    </g>
    <g id="xtick_4">
     <g id="line2d_7">
      <path d="M 826.809848 284.4 
L 826.809848 7.2 
" clip-path="url(#pf241ac9220)" style="fill: none; stroke: #ffffff"/>
     </g>
     <g id="line2d_8">
      <path d="M 826.809848 284.4 
" style="fill: none; stroke: #000000; stroke-width: 1.5"/>
      <g>
       <use xlink:href="#m33b94fdeb1" x="826.809848" y="284.4" style="stroke: #333333"/>
      </g>
     </g>
     <g id="text_4">
      <!-- 600 -->
      <g style="fill: #4d4d4d" transform="translate(819.069285 296.3845)scale(0.088 -0.088)">
       <defs>
        <path id="MicrosoftYaHei-36" d="M 3181 4219 
Q 2803 4413 2391 4413 
Q 1763 4413 1381 3866 
Q 1000 3319 994 2372 
L 1009 2372 
Q 1353 3038 2106 3038 
Q 2734 3038 3109 2628 
Q 3484 2219 3484 1541 
Q 3484 831 3051 375 
Q 2619 -81 1947 -81 
Q 1209 -81 789 495 
Q 369 1072 369 2131 
Q 369 3413 920 4167 
Q 1472 4922 2372 4922 
Q 2888 4922 3181 4781 
L 3181 4219 
z
M 1031 1584 
Q 1031 1106 1286 765 
Q 1541 425 1963 425 
Q 2363 425 2613 719 
Q 2863 1013 2863 1475 
Q 2863 1975 2627 2253 
Q 2391 2531 1956 2531 
Q 1544 2531 1287 2250 
Q 1031 1969 1031 1584 
z
" transform="scale(0.015625)"/>
       </defs>
       <use xlink:href="#MicrosoftYaHei-36"/>
       <use xlink:href="#MicrosoftYaHei-30" x="58.642578"/>
       <use xlink:href="#MicrosoftYaHei-30" x="117.285156"/>
      </g>
     </g>
    </g>
    <g id="xtick_5">
     <g id="line2d_9">
      <path d="M 1070.984446 284.4 
L 1070.984446 7.2 
" clip-path="url(#pf241ac9220)" style="fill: none; stroke: #ffffff"/>
     </g>
     <g id="line2d_10">
      <path d="M 1070.984446 284.4 
" style="fill: none; stroke: #000000; stroke-width: 1.5"/>
      <g>
       <use xlink:href="#m33b94fdeb1" x="1070.984446" y="284.4" style="stroke: #333333"/>
      </g>
     </g>
     <g id="text_5">
      <!-- 800 -->
      <g style="fill: #4d4d4d" transform="translate(1063.243883 296.3845)scale(0.088 -0.088)">
       <defs>
        <path id="MicrosoftYaHei-38" d="M 306 1350 
Q 306 1769 556 2122 
Q 806 2475 1200 2625 
Q 884 2803 700 3081 
Q 516 3359 516 3684 
Q 516 4028 692 4312 
Q 869 4597 1183 4759 
Q 1497 4922 1875 4922 
Q 2256 4922 2572 4761 
Q 2888 4600 3063 4315 
Q 3238 4031 3238 3684 
Q 3238 3366 3058 3086 
Q 2878 2806 2559 2625 
Q 2953 2472 3200 2119 
Q 3447 1766 3447 1350 
Q 3447 938 3250 611 
Q 3053 284 2690 103 
Q 2328 -78 1875 -78 
Q 1425 -78 1065 103 
Q 706 284 506 612 
Q 306 941 306 1350 
z
M 906 1378 
Q 906 947 1172 687 
Q 1438 428 1878 428 
Q 2309 428 2582 692 
Q 2856 956 2856 1378 
Q 2856 1778 2579 2051 
Q 2303 2325 1878 2325 
Q 1456 2325 1181 2058 
Q 906 1791 906 1378 
z
M 1081 3634 
Q 1081 3309 1312 3076 
Q 1544 2844 1878 2844 
Q 2206 2844 2445 3078 
Q 2684 3313 2684 3634 
Q 2684 3963 2454 4191 
Q 2225 4419 1878 4419 
Q 1534 4419 1307 4195 
Q 1081 3972 1081 3634 
z
" transform="scale(0.015625)"/>
       </defs>
       <use xlink:href="#MicrosoftYaHei-38"/>
       <use xlink:href="#MicrosoftYaHei-30" x="58.642578"/>
       <use xlink:href="#MicrosoftYaHei-30" x="117.285156"/>
      </g>
     </g>
    </g>
    <g id="xtick_6">
     <g id="line2d_11">
      <path d="M 216.373353 284.4 
L 216.373353 7.2 
" clip-path="url(#pf241ac9220)" style="fill: none; stroke: #ffffff; stroke-width: 0.5"/>
     </g>
    </g>
    <g id="xtick_7">
     <g id="line2d_12">
      <path d="M 460.547951 284.4 
L 460.547951 7.2 
" clip-path="url(#pf241ac9220)" style="fill: none; stroke: #ffffff; stroke-width: 0.5"/>
     </g>
    </g>
    <g id="xtick_8">
     <g id="line2d_13">
      <path d="M 704.722549 284.4 
L 704.722549 7.2 
" clip-path="url(#pf241ac9220)" style="fill: none; stroke: #ffffff; stroke-width: 0.5"/>
     </g>
    </g>
    <g id="xtick_9">
     <g id="line2d_14">
      <path d="M 948.897147 284.4 
L 948.897147 7.2 
" clip-path="url(#pf241ac9220)" style="fill: none; stroke: #ffffff; stroke-width: 0.5"/>
     </g>
    </g>
    <g id="text_6">
     <!-- TimeIndex -->
     <g transform="translate(556.235813 311.76525)scale(0.11 -0.11)">
      <defs>
       <path id="MicrosoftYaHei-54" d="M 3550 4284 
L 2153 4284 
L 2153 0 
L 1525 0 
L 1525 4284 
L 134 4284 
L 134 4841 
L 3550 4841 
L 3550 4284 
z
" transform="scale(0.015625)"/>
       <path id="MicrosoftYaHei-69" d="M 472 4675 
Q 472 4838 583 4948 
Q 694 5059 856 5059 
Q 1022 5059 1136 4950 
Q 1250 4841 1250 4675 
Q 1250 4513 1136 4405 
Q 1022 4297 856 4297 
Q 691 4297 581 4405 
Q 472 4513 472 4675 
z
M 544 0 
L 544 3456 
L 1156 3456 
L 1156 0 
L 544 0 
z
" transform="scale(0.015625)"/>
       <path id="MicrosoftYaHei-6d" d="M 5522 0 
L 4909 0 
L 4909 1984 
Q 4909 2547 4734 2789 
Q 4559 3031 4159 3031 
Q 3822 3031 3581 2715 
Q 3341 2400 3341 1969 
L 3341 0 
L 2728 0 
L 2728 2047 
Q 2728 3031 1969 3031 
Q 1619 3031 1389 2731 
Q 1159 2431 1159 1966 
L 1159 0 
L 547 0 
L 547 3456 
L 1159 3456 
L 1159 2909 
L 1172 2909 
Q 1541 3538 2250 3538 
Q 2597 3538 2862 3347 
Q 3128 3156 3231 2831 
Q 3616 3538 4381 3538 
Q 5522 3538 5522 2131 
L 5522 0 
z
" transform="scale(0.015625)"/>
       <path id="MicrosoftYaHei-65" d="M 3363 1572 
L 944 1572 
Q 959 1019 1246 717 
Q 1534 416 2050 416 
Q 2631 416 3116 788 
L 3116 241 
Q 2659 -81 1906 -81 
Q 1156 -81 736 394 
Q 316 869 316 1713 
Q 316 2506 777 3022 
Q 1238 3538 1922 3538 
Q 2600 3538 2981 3102 
Q 3363 2666 3363 1881 
L 3363 1572 
z
M 2750 2063 
Q 2747 2531 2528 2787 
Q 2309 3044 1913 3044 
Q 1547 3044 1280 2772 
Q 1013 2500 944 2063 
L 2750 2063 
z
" transform="scale(0.015625)"/>
       <path id="MicrosoftYaHei-49" d="M 1250 4841 
L 1250 0 
L 625 0 
L 625 4841 
L 1250 4841 
z
" transform="scale(0.015625)"/>
       <path id="MicrosoftYaHei-6e" d="M 3469 0 
L 2859 0 
L 2859 1966 
Q 2859 3031 2081 3031 
Q 1678 3031 1418 2731 
Q 1159 2431 1159 1972 
L 1159 0 
L 547 0 
L 547 3456 
L 1159 3456 
L 1159 2884 
L 1172 2884 
Q 1563 3538 2306 3538 
Q 2875 3538 3172 3173 
Q 3469 2809 3469 2113 
L 3469 0 
z
" transform="scale(0.015625)"/>
       <path id="MicrosoftYaHei-64" d="M 3547 0 
L 2934 0 
L 2934 575 
L 2922 575 
Q 2544 -81 1747 -81 
Q 1091 -81 703 386 
Q 316 853 316 1647 
Q 316 2503 753 3020 
Q 1191 3538 1897 3538 
Q 2603 3538 2922 2988 
L 2934 2988 
L 2934 5116 
L 3547 5116 
L 3547 0 
z
M 2938 2056 
Q 2938 2472 2664 2751 
Q 2391 3031 1991 3031 
Q 1503 3031 1222 2667 
Q 941 2303 941 1675 
Q 941 1097 1211 761 
Q 1481 425 1931 425 
Q 2375 425 2656 754 
Q 2938 1084 2938 1575 
L 2938 2056 
z
" transform="scale(0.015625)"/>
       <path id="MicrosoftYaHei-78" d="M 3163 3456 
L 2006 1716 
L 3147 0 
L 2434 0 
L 1775 1100 
Q 1722 1188 1625 1369 
L 1613 1369 
Q 1609 1350 1456 1100 
L 784 0 
L 81 0 
L 1256 1697 
L 134 3456 
L 847 3456 
L 1494 2300 
Q 1553 2194 1638 2025 
L 1650 2025 
L 2491 3456 
L 3163 3456 
z
" transform="scale(0.015625)"/>
      </defs>
      <use xlink:href="#MicrosoftYaHei-54"/>
      <use xlink:href="#MicrosoftYaHei-69" x="57.324219"/>
      <use xlink:href="#MicrosoftYaHei-6d" x="83.935547"/>
      <use xlink:href="#MicrosoftYaHei-65" x="177.636719"/>
      <use xlink:href="#MicrosoftYaHei-49" x="234.375"/>
      <use xlink:href="#MicrosoftYaHei-6e" x="263.769531"/>
      <use xlink:href="#MicrosoftYaHei-64" x="325.390625"/>
      <use xlink:href="#MicrosoftYaHei-65" x="389.355469"/>
      <use xlink:href="#MicrosoftYaHei-78" x="446.09375"/>
     </g>
    </g>
   </g>
   <g id="matplotlib.axis_2">
    <g id="ytick_1">
     <g id="line2d_15">
      <path d="M 43.558781 276 
L 1159.558781 276 
" clip-path="url(#pf241ac9220)" style="fill: none; stroke: #ffffff"/>
     </g>
     <g id="line2d_16">
      <path d="M 43.558781 276 
" style="fill: none; stroke: #000000; stroke-width: 1.5"/>
      <defs>
       <path id="m22acc93565" d="M 0 0 
L -2.75 0 
" style="stroke: #333333"/>
      </defs>
      <g>
       <use xlink:href="#m22acc93565" x="43.558781" y="276" style="stroke: #333333"/>
      </g>
     </g>
     <g id="text_7">
      <!-- 0 -->
      <g style="fill: #4d4d4d" transform="translate(33.448406 278.423437)scale(0.088 -0.088)">
       <use xlink:href="#MicrosoftYaHei-30"/>
      </g>
     </g>
    </g>
    <g id="ytick_2">
     <g id="line2d_17">
      <path d="M 43.558781 223.5 
L 1159.558781 223.5 
" clip-path="url(#pf241ac9220)" style="fill: none; stroke: #ffffff"/>
     </g>
     <g id="line2d_18">
      <path d="M 43.558781 223.5 
" style="fill: none; stroke: #000000; stroke-width: 1.5"/>
      <g>
       <use xlink:href="#m22acc93565" x="43.558781" y="223.5" style="stroke: #333333"/>
      </g>
     </g>
     <g id="text_8">
      <!-- 50 -->
      <g style="fill: #4d4d4d" transform="translate(28.288031 225.923438)scale(0.088 -0.088)">
       <defs>
        <path id="MicrosoftYaHei-35" d="M 3294 1494 
Q 3294 784 2823 350 
Q 2353 -84 1559 -84 
Q 878 -84 544 119 
L 544 744 
Q 1034 425 1544 425 
Q 2050 425 2361 704 
Q 2672 984 2672 1447 
Q 2672 1909 2348 2167 
Q 2025 2425 1434 2425 
Q 978 2425 613 2384 
L 791 4841 
L 3053 4841 
L 3053 4303 
L 1306 4303 
L 1206 2931 
L 1647 2950 
Q 2416 2950 2855 2567 
Q 3294 2184 3294 1494 
z
" transform="scale(0.015625)"/>
       </defs>
       <use xlink:href="#MicrosoftYaHei-35"/>
       <use xlink:href="#MicrosoftYaHei-30" x="58.642578"/>
      </g>
     </g>
    </g>
    <g id="ytick_3">
     <g id="line2d_19">
      <path d="M 43.558781 171 
L 1159.558781 171 
" clip-path="url(#pf241ac9220)" style="fill: none; stroke: #ffffff"/>
     </g>
     <g id="line2d_20">
      <path d="M 43.558781 171 
" style="fill: none; stroke: #000000; stroke-width: 1.5"/>
      <g>
       <use xlink:href="#m22acc93565" x="43.558781" y="171" style="stroke: #333333"/>
      </g>
     </g>
     <g id="text_9">
      <!-- 100 -->
      <g style="fill: #4d4d4d" transform="translate(23.127656 173.423438)scale(0.088 -0.088)">
       <defs>
        <path id="MicrosoftYaHei-31" d="M 1781 0 
L 1781 4141 
Q 1638 3997 1295 3819 
Q 953 3641 663 3569 
L 663 4169 
Q 1047 4275 1484 4508 
Q 1922 4741 2156 4947 
L 2388 4947 
L 2388 0 
L 1781 0 
z
" transform="scale(0.015625)"/>
       </defs>
       <use xlink:href="#MicrosoftYaHei-31"/>
       <use xlink:href="#MicrosoftYaHei-30" x="58.642578"/>
       <use xlink:href="#MicrosoftYaHei-30" x="117.285156"/>
      </g>
     </g>
    </g>
    <g id="ytick_4">
     <g id="line2d_21">
      <path d="M 43.558781 118.5 
L 1159.558781 118.5 
" clip-path="url(#pf241ac9220)" style="fill: none; stroke: #ffffff"/>
     </g>
     <g id="line2d_22">
      <path d="M 43.558781 118.5 
" style="fill: none; stroke: #000000; stroke-width: 1.5"/>
      <g>
       <use xlink:href="#m22acc93565" x="43.558781" y="118.5" style="stroke: #333333"/>
      </g>
     </g>
     <g id="text_10">
      <!-- 150 -->
      <g style="fill: #4d4d4d" transform="translate(23.127656 120.923438)scale(0.088 -0.088)">
       <use xlink:href="#MicrosoftYaHei-31"/>
       <use xlink:href="#MicrosoftYaHei-35" x="58.642578"/>
       <use xlink:href="#MicrosoftYaHei-30" x="117.285156"/>
      </g>
     </g>
    </g>
    <g id="ytick_5">
     <g id="line2d_23">
      <path d="M 43.558781 66 
L 1159.558781 66 
" clip-path="url(#pf241ac9220)" style="fill: none; stroke: #ffffff"/>
     </g>
     <g id="line2d_24">
      <path d="M 43.558781 66 
" style="fill: none; stroke: #000000; stroke-width: 1.5"/>
      <g>
       <use xlink:href="#m22acc93565" x="43.558781" y="66" style="stroke: #333333"/>
      </g>
     </g>
     <g id="text_11">
      <!-- 200 -->
      <g style="fill: #4d4d4d" transform="translate(23.127656 68.423438)scale(0.088 -0.088)">
       <use xlink:href="#MicrosoftYaHei-32"/>
       <use xlink:href="#MicrosoftYaHei-30" x="58.642578"/>
       <use xlink:href="#MicrosoftYaHei-30" x="117.285156"/>
      </g>
     </g>
    </g>
    <g id="ytick_6">
     <g id="line2d_25">
      <path d="M 43.558781 13.5 
L 1159.558781 13.5 
" clip-path="url(#pf241ac9220)" style="fill: none; stroke: #ffffff"/>
     </g>
     <g id="line2d_26">
      <path d="M 43.558781 13.5 
" style="fill: none; stroke: #000000; stroke-width: 1.5"/>
      <g>
       <use xlink:href="#m22acc93565" x="43.558781" y="13.5" style="stroke: #333333"/>
      </g>
     </g>
     <g id="text_12">
      <!-- 250 -->
      <g style="fill: #4d4d4d" transform="translate(23.127656 15.923437)scale(0.088 -0.088)">
       <use xlink:href="#MicrosoftYaHei-32"/>
       <use xlink:href="#MicrosoftYaHei-35" x="58.642578"/>
       <use xlink:href="#MicrosoftYaHei-30" x="117.285156"/>
      </g>
     </g>
    </g>
    <g id="ytick_7">
     <g id="line2d_27">
      <path d="M 43.558781 249.75 
L 1159.558781 249.75 
" clip-path="url(#pf241ac9220)" style="fill: none; stroke: #ffffff; stroke-width: 0.5"/>
     </g>
    </g>
    <g id="ytick_8">
     <g id="line2d_28">
      <path d="M 43.558781 197.25 
L 1159.558781 197.25 
" clip-path="url(#pf241ac9220)" style="fill: none; stroke: #ffffff; stroke-width: 0.5"/>
     </g>
    </g>
    <g id="ytick_9">
     <g id="line2d_29">
      <path d="M 43.558781 144.75 
L 1159.558781 144.75 
" clip-path="url(#pf241ac9220)" style="fill: none; stroke: #ffffff; stroke-width: 0.5"/>
     </g>
    </g>
    <g id="ytick_10">
     <g id="line2d_30">
      <path d="M 43.558781 92.25 
L 1159.558781 92.25 
" clip-path="url(#pf241ac9220)" style="fill: none; stroke: #ffffff; stroke-width: 0.5"/>
     </g>
    </g>
    <g id="ytick_11">
     <g id="line2d_31">
      <path d="M 43.558781 39.75 
L 1159.558781 39.75 
" clip-path="url(#pf241ac9220)" style="fill: none; stroke: #ffffff; stroke-width: 0.5"/>
     </g>
    </g>
    <g id="text_13">
     <!-- PM2.5 -->
     <g transform="translate(15.993125 160.51375)rotate(-90)scale(0.11 -0.11)">
      <defs>
       <path id="MicrosoftYaHei-50" d="M 1250 1809 
L 1250 0 
L 625 0 
L 625 4841 
L 2000 4841 
Q 2784 4841 3217 4462 
Q 3650 4084 3650 3381 
Q 3650 2669 3144 2226 
Q 2638 1784 1878 1809 
L 1250 1809 
z
M 1250 4291 
L 1250 2359 
L 1828 2359 
Q 2400 2359 2697 2617 
Q 2994 2875 2994 3356 
Q 2994 4291 1888 4291 
L 1250 4291 
z
" transform="scale(0.015625)"/>
       <path id="MicrosoftYaHei-4d" d="M 5003 0 
L 5003 3206 
Q 5003 3603 5050 4159 
L 5034 4159 
Q 4953 3809 4891 3672 
L 3294 0 
L 2947 0 
L 1353 3644 
Q 1297 3769 1209 4159 
L 1191 4159 
Q 1222 3822 1222 3178 
L 1222 0 
L 625 0 
L 625 4841 
L 1472 4841 
L 2900 1522 
Q 3063 1141 3116 928 
L 3138 928 
Q 3300 1375 3366 1534 
L 4819 4841 
L 5625 4841 
L 5625 0 
L 5003 0 
z
" transform="scale(0.015625)"/>
       <path id="MicrosoftYaHei-2e" d="M 372 322 
Q 372 491 487 606 
Q 603 722 775 722 
Q 950 722 1065 605 
Q 1181 488 1181 322 
Q 1181 159 1065 42 
Q 950 -75 772 -75 
Q 600 -75 486 42 
Q 372 159 372 322 
z
" transform="scale(0.015625)"/>
      </defs>
      <use xlink:href="#MicrosoftYaHei-50"/>
      <use xlink:href="#MicrosoftYaHei-4d" x="61.181641"/>
      <use xlink:href="#MicrosoftYaHei-32" x="158.886719"/>
      <use xlink:href="#MicrosoftYaHei-2e" x="217.529297"/>
      <use xlink:href="#MicrosoftYaHei-35" x="241.601562"/>
     </g>
    </g>
   </g>
   <g id="line2d_32">
    <path d="M 94.286054 202.5 
L 95.506927 256.05 
L 96.7278 199.35 
L 97.948673 195.15 
L 99.169546 195.15 
L 100.390419 183.6 
L 101.611292 183.6 
L 102.832165 190.95 
L 104.053038 193.05 
L 105.273911 192 
L 106.494784 196.2 
L 107.715657 193.05 
L 108.93653 200.4 
L 110.157403 209.85 
L 111.378276 223.5 
L 112.599149 227.7 
L 113.820022 228.75 
L 115.040895 225.6 
L 117.482641 229.8 
L 118.703514 229.8 
L 119.924387 220.35 
L 121.14526 225.6 
L 123.587006 264.45 
L 124.807879 226.65 
L 126.028752 224.55 
L 127.249625 221.4 
L 128.470498 217.2 
L 130.912244 215.1 
L 132.133117 213 
L 133.35399 202.5 
L 135.795736 219.3 
L 137.016609 221.4 
L 138.237482 224.55 
L 139.458355 221.4 
L 140.679228 213 
L 141.900101 211.95 
L 143.120974 208.8 
L 144.341847 213 
L 145.56272 211.95 
L 146.783593 223.5 
L 148.004466 221.4 
L 149.225339 208.8 
L 150.446212 205.65 
L 151.667084 206.7 
L 152.887957 210.9 
L 154.10883 200.4 
L 155.329703 210.9 
L 156.550576 204.6 
L 157.771449 201.45 
L 158.992322 195.15 
L 160.213195 193.05 
L 161.434068 198.3 
L 162.654941 189.9 
L 163.875814 180.45 
L 165.096687 167.85 
L 166.31756 188.85 
L 167.538433 221.4 
L 168.759306 210.9 
L 169.980179 176.25 
L 171.201052 160.5 
L 172.421925 184.65 
L 173.642798 171 
L 174.863671 183.6 
L 176.084544 188.85 
L 177.305417 190.95 
L 178.52629 243.45 
L 179.747163 140.55 
L 180.968036 116.4 
L 182.188909 104.85 
L 184.630655 113.25 
L 185.851528 123.75 
L 187.072401 166.8 
L 188.293274 184.65 
L 189.514147 174.15 
L 190.73502 181.5 
L 191.955893 186.75 
L 193.176766 190.95 
L 194.397639 184.65 
L 195.618512 196.2 
L 196.839385 216.15 
L 198.060258 202.5 
L 199.281131 197.25 
L 200.502004 193.05 
L 201.722877 182.55 
L 202.94375 205.65 
L 204.164623 178.35 
L 205.385496 178.35 
L 206.606369 177.3 
L 207.827242 180.45 
L 209.048115 177.3 
L 210.268988 172.05 
L 211.489861 198.3 
L 212.710734 197.25 
L 213.931607 201.45 
L 215.15248 207.75 
L 216.373353 187.8 
L 217.594226 202.5 
L 218.815099 200.4 
L 220.035972 190.95 
L 221.256845 171 
L 222.477718 177.3 
L 223.698591 178.35 
L 224.919464 174.15 
L 226.140337 173.1 
L 227.36121 174.15 
L 228.582083 186.75 
L 229.802956 192 
L 231.023829 192 
L 232.244702 197.25 
L 234.686448 190.95 
L 235.907321 179.4 
L 237.128194 142.65 
L 238.349067 139.5 
L 239.56994 163.65 
L 240.790813 171 
L 242.011686 175.2 
L 243.232559 173.1 
L 244.453432 174.15 
L 245.674305 200.4 
L 246.895178 193.05 
L 248.116051 188.85 
L 249.336924 187.8 
L 250.557797 179.4 
L 251.77867 180.45 
L 252.999543 206.7 
L 254.220416 204.6 
L 255.441289 193.05 
L 256.662162 189.9 
L 257.883035 189.9 
L 259.103908 218.25 
L 260.324781 222.45 
L 261.545654 230.85 
L 262.766527 223.5 
L 263.9874 224.55 
L 265.208273 224.55 
L 266.429146 227.7 
L 267.650019 219.3 
L 268.870892 224.55 
L 270.091765 215.1 
L 271.312638 209.85 
L 272.53351 211.95 
L 273.754383 217.2 
L 274.975256 215.1 
L 276.196129 219.3 
L 277.417002 220.35 
L 278.637875 194.1 
L 279.858748 202.5 
L 281.079621 224.55 
L 282.300494 227.7 
L 283.521367 232.95 
L 284.74224 223.5 
L 285.963113 223.5 
L 287.183986 221.4 
L 288.404859 241.35 
L 289.625732 223.5 
L 290.846605 224.55 
L 292.067478 237.15 
L 293.288351 232.95 
L 294.509224 229.8 
L 295.730097 234 
L 296.95097 232.95 
L 298.171843 230.85 
L 299.392716 236.1 
L 300.613589 223.5 
L 301.834462 221.4 
L 303.055335 231.9 
L 304.276208 230.85 
L 305.497081 227.7 
L 306.717954 220.35 
L 307.938827 214.05 
L 309.1597 210.9 
L 310.380573 204.6 
L 311.601446 210.9 
L 312.822319 223.5 
L 314.043192 229.8 
L 315.264065 227.7 
L 316.484938 235.05 
L 317.705811 231.9 
L 318.926684 227.7 
L 320.147557 229.8 
L 321.36843 237.15 
L 322.589303 237.15 
L 323.810176 227.7 
L 325.031049 209.85 
L 326.251922 204.6 
L 327.472795 206.7 
L 328.693668 183.6 
L 329.914541 175.2 
L 331.135414 195.15 
L 332.356287 205.65 
L 333.57716 215.1 
L 334.798033 204.6 
L 336.018906 205.65 
L 337.239779 208.8 
L 338.460652 215.1 
L 339.681525 220.35 
L 340.902398 226.65 
L 342.123271 234 
L 343.344144 240.3 
L 344.565017 247.65 
L 345.78589 253.95 
L 347.006763 245.55 
L 348.227636 240.3 
L 349.448509 250.8 
L 350.669382 251.85 
L 351.890255 257.1 
L 353.111128 249.75 
L 354.332001 241.35 
L 355.552874 248.7 
L 356.773747 262.35 
L 357.99462 242.4 
L 359.215493 258.15 
L 360.436366 217.2 
L 361.657239 204.6 
L 362.878112 189.9 
L 364.098985 188.85 
L 365.319858 167.85 
L 366.540731 168.9 
L 368.982477 164.7 
L 370.20335 165.75 
L 371.424223 144.75 
L 372.645096 120.6 
L 373.865969 129 
L 375.086842 123.75 
L 376.307715 135.3 
L 377.528588 135.3 
L 378.749461 140.55 
L 379.970334 139.5 
L 381.191207 140.55 
L 382.41208 91.2 
L 383.632953 48.15 
L 384.853826 112.2 
L 386.074699 167.85 
L 387.295572 244.5 
L 388.516445 163.65 
L 389.737318 145.8 
L 390.958191 137.4 
L 392.179063 125.85 
L 393.399936 117.45 
L 394.620809 105.9 
L 395.841682 88.05 
L 397.062555 72.3 
L 398.283428 94.35 
L 399.504301 132.15 
L 400.725174 190.95 
L 401.946047 223.5 
L 403.16692 247.65 
L 404.387793 249.75 
L 405.608666 250.8 
L 406.829539 252.9 
L 408.050412 248.7 
L 409.271285 252.9 
L 410.492158 260.25 
L 411.713031 256.05 
L 412.933904 263.4 
L 414.154777 265.5 
L 415.37565 264.45 
L 416.596523 250.8 
L 417.817396 264.45 
L 419.038269 267.6 
L 420.259142 260.25 
L 421.480015 261.3 
L 422.700888 258.15 
L 423.921761 259.2 
L 425.142634 256.05 
L 426.363507 258.15 
L 427.58438 255 
L 428.805253 255 
L 430.026126 262.35 
L 431.246999 264.45 
L 432.467872 269.7 
L 433.688745 253.95 
L 434.909618 263.4 
L 436.130491 223.5 
L 437.351364 226.65 
L 438.572237 235.05 
L 439.79311 240.3 
L 441.013983 230.85 
L 442.234856 241.35 
L 443.455729 232.95 
L 444.676602 227.7 
L 445.897475 220.35 
L 447.118348 223.5 
L 448.339221 224.55 
L 449.560094 220.35 
L 450.780967 214.05 
L 452.00184 213 
L 453.222713 180.45 
L 454.443586 94.35 
L 455.664459 151.05 
L 456.885332 184.65 
L 458.106205 195.15 
L 459.327078 221.4 
L 460.547951 244.5 
L 461.768824 248.7 
L 462.989697 242.4 
L 464.21057 241.35 
L 465.431443 231.9 
L 466.652316 235.05 
L 467.873189 236.1 
L 469.094062 213 
L 470.314935 207.75 
L 471.535808 206.7 
L 472.756681 210.9 
L 473.977554 175.2 
L 475.198427 145.8 
L 476.4193 141.6 
L 477.640173 160.5 
L 478.861046 165.75 
L 480.081919 162.6 
L 481.302792 162.6 
L 482.523665 158.4 
L 483.744538 141.6 
L 484.965411 150 
L 486.186284 168.9 
L 487.407157 171 
L 488.62803 169.95 
L 489.848903 180.45 
L 492.290649 197.25 
L 493.511522 194.1 
L 494.732395 210.9 
L 498.395014 204.6 
L 499.615887 203.55 
L 504.499379 195.15 
L 505.720252 194.1 
L 513.045489 181.5 
L 514.266362 180.45 
L 516.708108 176.25 
L 517.928981 176.25 
L 519.149854 166.8 
L 520.370727 167.85 
L 521.5916 138.45 
L 522.812473 134.25 
L 524.033346 141.6 
L 525.254219 137.4 
L 526.475092 139.5 
L 527.695965 132.15 
L 528.916838 136.35 
L 530.137711 146.85 
L 531.358584 129 
L 532.579457 129 
L 533.80033 124.8 
L 535.021203 125.85 
L 536.242076 123.75 
L 537.462949 115.35 
L 538.683822 111.15 
L 539.904695 101.7 
L 541.125568 99.6 
L 542.346441 92.25 
L 543.567314 74.4 
L 544.788187 69.15 
L 546.00906 89.1 
L 547.229933 26.1 
L 548.450806 19.8 
L 549.671679 64.95 
L 550.892552 76.5 
L 552.113425 53.4 
L 553.334298 97.5 
L 556.996917 88.05 
L 558.21779 83.85 
L 564.322155 68.1 
L 565.543028 63.9 
L 572.868266 45 
L 574.089139 40.8 
L 577.751758 31.35 
L 578.972631 55.5 
L 580.193504 52.35 
L 581.414377 48.15 
L 582.63525 129 
L 583.856123 74.4 
L 585.076996 80.7 
L 586.297869 70.2 
L 587.518742 113.25 
L 588.739615 140.55 
L 589.960488 172.05 
L 591.181361 140.55 
L 593.623107 188.85 
L 594.84398 186.75 
L 596.064853 260.25 
L 597.285726 262.35 
L 598.506599 247.65 
L 599.727472 249.75 
L 600.948345 244.5 
L 602.169218 253.95 
L 603.390091 253.95 
L 604.610964 252.9 
L 605.831837 257.1 
L 607.05271 257.1 
L 608.273583 263.4 
L 609.494456 253.95 
L 610.715329 256.05 
L 611.936202 243.45 
L 613.157075 249.75 
L 614.377948 251.85 
L 615.598821 258.15 
L 616.819694 250.8 
L 618.040567 252.9 
L 619.26144 245.55 
L 620.482313 248.7 
L 621.703186 252.9 
L 622.924059 251.85 
L 624.144932 256.05 
L 626.586678 258.15 
L 627.807551 253.95 
L 629.028424 243.45 
L 630.249297 247.65 
L 631.47017 255 
L 632.691042 249.75 
L 633.911915 249.75 
L 635.132788 232.95 
L 636.353661 236.1 
L 637.574534 240.3 
L 638.795407 231.9 
L 640.01628 222.45 
L 641.237153 230.85 
L 642.458026 211.95 
L 643.678899 216.15 
L 644.899772 214.05 
L 646.120645 199.35 
L 648.562391 177.3 
L 649.783264 166.8 
L 651.004137 142.65 
L 652.22501 184.65 
L 653.445883 140.55 
L 654.666756 148.95 
L 655.887629 139.5 
L 657.108502 135.3 
L 658.329375 159.45 
L 659.550248 142.65 
L 660.771121 105.9 
L 661.991994 80.7 
L 663.212867 100.65 
L 664.43374 123.75 
L 665.654613 153.15 
L 666.875486 172.05 
L 668.096359 193.05 
L 669.317232 205.65 
L 670.538105 256.05 
L 671.758978 203.55 
L 672.979851 189.9 
L 674.200724 209.85 
L 675.421597 209.85 
L 676.64247 198.3 
L 677.863343 217.2 
L 679.084216 183.6 
L 680.305089 186.75 
L 681.525962 192 
L 683.967708 208.8 
L 685.188581 206.7 
L 686.409454 207.75 
L 687.630327 206.7 
L 688.8512 196.2 
L 690.072073 196.2 
L 691.292946 182.55 
L 692.513819 166.8 
L 694.955565 158.4 
L 696.176438 156.3 
L 697.397311 157.35 
L 698.618184 156.3 
L 699.839057 160.5 
L 701.05993 180.45 
L 702.280803 198.3 
L 703.501676 190.95 
L 704.722549 162.6 
L 705.943422 101.7 
L 707.164295 173.1 
L 708.385168 211.95 
L 709.606041 205.65 
L 710.826914 253.95 
L 712.047787 206.7 
L 713.26866 199.35 
L 715.710406 249.75 
L 716.931279 262.35 
L 718.152152 258.15 
L 719.373025 252.9 
L 720.593898 265.5 
L 721.814771 261.3 
L 723.035644 262.35 
L 724.256517 267.6 
L 726.698263 271.8 
L 727.919136 261.3 
L 729.140009 256.05 
L 730.360882 252.9 
L 731.581755 255 
L 732.802628 258.15 
L 734.023501 258.15 
L 741.348739 239.25 
L 742.569612 235.05 
L 748.673977 219.3 
L 749.89485 228.75 
L 751.115723 220.35 
L 752.336595 215.1 
L 753.557468 213 
L 754.778341 202.5 
L 757.220087 187.8 
L 758.44096 210.9 
L 759.661833 188.85 
L 760.882706 202.5 
L 762.103579 202.5 
L 763.324452 196.2 
L 764.545325 200.4 
L 766.987071 178.35 
L 768.207944 177.3 
L 769.428817 192 
L 770.64969 178.35 
L 771.870563 172.05 
L 773.091436 173.1 
L 774.312309 162.6 
L 775.533182 141.6 
L 776.754055 145.8 
L 777.974928 152.1 
L 779.195801 144.75 
L 781.637547 188.85 
L 782.85842 186.75 
L 784.079293 187.8 
L 785.300166 193.05 
L 786.521039 189.9 
L 787.741912 197.25 
L 788.962785 205.65 
L 790.183658 228.75 
L 791.404531 229.8 
L 792.625404 231.9 
L 795.06715 231.9 
L 796.288023 232.95 
L 797.508896 229.8 
L 798.729769 223.5 
L 799.950642 224.55 
L 801.171515 221.4 
L 802.392388 222.45 
L 803.613261 220.35 
L 804.834134 221.4 
L 806.055007 221.4 
L 807.27588 219.3 
L 808.496753 201.45 
L 809.717626 202.5 
L 810.938499 214.05 
L 812.159372 220.35 
L 813.380245 215.1 
L 814.601118 220.35 
L 815.821991 217.2 
L 817.042864 215.1 
L 818.263737 219.3 
L 819.48461 230.85 
L 820.705483 232.95 
L 821.926356 227.7 
L 823.147229 238.2 
L 824.368102 229.8 
L 826.809848 221.4 
L 828.030721 218.25 
L 834.135086 197.25 
L 835.355959 194.1 
L 837.797705 185.7 
L 839.018578 171 
L 840.239451 158.4 
L 841.460324 148.95 
L 842.681197 147.9 
L 845.122943 220.35 
L 846.343816 198.3 
L 847.564689 192 
L 848.785562 221.4 
L 850.006435 217.2 
L 851.227308 197.25 
L 852.448181 203.55 
L 853.669054 214.05 
L 854.889927 213 
L 856.1108 214.05 
L 857.331673 221.4 
L 858.552546 221.4 
L 860.994292 215.1 
L 862.215165 218.25 
L 863.436038 217.2 
L 865.877784 206.7 
L 867.098657 196.2 
L 869.540403 155.25 
L 870.761276 153.15 
L 871.982148 155.25 
L 873.203021 165.75 
L 874.423894 167.85 
L 875.644767 231.9 
L 876.86564 198.3 
L 879.307386 238.2 
L 880.528259 219.3 
L 881.749132 221.4 
L 882.970005 215.1 
L 884.190878 211.95 
L 885.411751 219.3 
L 886.632624 217.2 
L 887.853497 201.45 
L 889.07437 205.65 
L 890.295243 190.95 
L 891.516116 182.55 
L 892.736989 182.55 
L 893.957862 178.35 
L 895.178735 166.8 
L 896.399608 157.35 
L 897.620481 158.4 
L 898.841354 179.4 
L 900.062227 190.95 
L 901.2831 228.75 
L 902.503973 208.8 
L 904.945719 219.3 
L 906.166592 229.8 
L 907.387465 239.25 
L 908.608338 240.3 
L 909.829211 240.3 
L 911.050084 175.2 
L 912.270957 230.85 
L 913.49183 229.8 
L 914.712703 157.35 
L 915.933576 204.6 
L 917.154449 211.95 
L 918.375322 211.95 
L 919.596195 206.7 
L 920.817068 207.75 
L 922.037941 206.7 
L 923.258814 208.8 
L 924.479687 219.3 
L 925.70056 198.3 
L 926.921433 186.75 
L 928.142306 185.7 
L 929.363179 182.55 
L 930.584052 180.45 
L 931.804925 177.3 
L 933.025798 127.95 
L 934.246671 164.7 
L 935.467544 171 
L 936.688417 185.7 
L 937.90929 217.2 
L 939.130163 198.3 
L 940.351036 196.2 
L 941.571909 216.15 
L 942.792782 226.65 
L 944.013655 231.9 
L 945.234528 231.9 
L 946.455401 236.1 
L 947.676274 224.55 
L 948.897147 219.3 
L 950.11802 225.6 
L 951.338893 222.45 
L 952.559766 211.95 
L 953.780639 183.6 
L 955.001512 167.85 
L 956.222385 197.25 
L 957.443258 214.05 
L 958.664131 213 
L 959.885004 221.4 
L 961.105877 208.8 
L 962.32675 200.4 
L 963.547623 227.7 
L 964.768496 204.6 
L 965.989369 232.95 
L 967.210242 208.8 
L 968.431115 231.9 
L 969.651988 219.3 
L 970.872861 208.8 
L 972.093734 202.5 
L 973.314607 200.4 
L 974.53548 194.1 
L 975.756353 202.5 
L 976.977226 198.3 
L 978.198099 197.25 
L 979.418972 185.7 
L 980.639845 185.7 
L 981.860718 179.4 
L 983.081591 168.9 
L 984.302464 157.35 
L 985.523337 159.45 
L 986.74421 172.05 
L 987.965083 187.8 
L 989.185956 201.45 
L 990.406829 242.4 
L 991.627701 192 
L 992.848574 166.8 
L 994.069447 182.55 
L 995.29032 189.9 
L 996.511193 206.7 
L 997.732066 205.65 
L 998.952939 201.45 
L 1000.173812 217.2 
L 1001.394685 225.6 
L 1002.615558 224.55 
L 1003.836431 227.7 
L 1005.057304 220.35 
L 1006.278177 223.5 
L 1007.49905 221.4 
L 1008.719923 220.35 
L 1009.940796 216.15 
L 1011.161669 216.15 
L 1012.382542 215.1 
L 1013.603415 207.75 
L 1014.824288 204.6 
L 1016.045161 200.4 
L 1017.266034 200.4 
L 1018.486907 205.65 
L 1019.70778 182.55 
L 1020.928653 174.15 
L 1022.149526 188.85 
L 1023.370399 193.05 
L 1024.591272 221.4 
L 1025.812145 207.75 
L 1027.033018 224.55 
L 1028.253891 228.75 
L 1029.474764 229.8 
L 1030.695637 231.9 
L 1031.91651 224.55 
L 1033.137383 221.4 
L 1034.358256 213 
L 1035.579129 210.9 
L 1036.800002 211.95 
L 1038.020875 208.8 
L 1039.241748 206.7 
L 1040.462621 201.45 
L 1041.683494 195.15 
L 1042.904367 197.25 
L 1044.12524 187.8 
L 1045.346113 175.2 
L 1046.566986 168.9 
L 1047.787859 168.9 
L 1049.008732 135.3 
L 1050.229605 145.8 
L 1052.671351 185.7 
L 1053.892224 189.9 
L 1055.113097 178.35 
L 1056.33397 194.1 
L 1057.554843 196.2 
L 1058.775716 208.8 
L 1059.996589 227.7 
L 1061.217462 239.25 
L 1062.438335 234 
L 1063.659208 235.05 
L 1064.880081 230.85 
L 1066.100954 217.2 
L 1067.321827 219.3 
L 1068.5427 224.55 
L 1069.763573 224.55 
L 1070.984446 226.65 
L 1072.205319 221.4 
L 1073.426192 225.6 
L 1074.647065 223.5 
L 1075.867938 225.6 
L 1077.088811 221.4 
L 1078.309684 215.1 
L 1079.530557 213 
L 1080.75143 214.05 
L 1081.972303 220.35 
L 1083.193176 215.1 
L 1084.414049 203.55 
L 1085.634922 213 
L 1086.855795 201.45 
L 1088.076668 206.7 
L 1089.297541 215.1 
L 1090.518414 214.05 
L 1091.739287 218.25 
L 1092.96016 210.9 
L 1094.181033 219.3 
L 1095.401906 198.3 
L 1096.622779 187.8 
L 1097.843652 188.85 
L 1099.064525 185.7 
L 1100.285398 190.95 
L 1101.506271 192 
L 1102.727144 198.3 
L 1103.948017 190.95 
L 1105.16889 196.2 
L 1106.389763 182.55 
L 1108.831509 160.5 
L 1108.831509 160.5 
" clip-path="url(#pf241ac9220)" style="fill: none; stroke: #db5f57; stroke-width: 1.417963"/>
   </g>
   <g id="line2d_33">
    <path d="M 94.286054 214.089013 
L 95.506927 214.2297 
L 96.7278 217.966455 
L 97.948673 193.791205 
L 99.169546 183.004865 
L 100.390419 180.923354 
L 101.611292 174.288123 
L 102.832165 174.620798 
L 104.053038 180.205845 
L 105.273911 185.239872 
L 106.494784 190.957738 
L 107.715657 198.697483 
L 110.157403 210.795675 
L 111.378276 220.863048 
L 112.599149 232.294615 
L 113.820022 235.761597 
L 115.040895 237.079564 
L 116.261768 233.653033 
L 118.703514 225.386843 
L 119.924387 223.916389 
L 121.14526 217.304241 
L 122.366133 227.055802 
L 123.587006 244.492842 
L 124.807879 251.331749 
L 126.028752 230.993439 
L 127.249625 218.648092 
L 128.470498 209.155542 
L 129.691371 201.22169 
L 130.912244 202.617968 
L 132.133117 196.550299 
L 133.35399 196.903835 
L 134.574863 193.841169 
L 135.795736 208.891404 
L 137.016609 222.059486 
L 138.237482 229.872038 
L 139.458355 230.445852 
L 140.679228 227.896082 
L 141.900101 225.061574 
L 143.120974 216.376876 
L 144.341847 212.260028 
L 145.56272 213.892234 
L 146.783593 216.926333 
L 148.004466 220.470668 
L 149.225339 216.305907 
L 150.446212 205.351828 
L 151.667084 201.213351 
L 152.887957 198.310703 
L 154.10883 200.196364 
L 155.329703 197.241573 
L 156.550576 198.751236 
L 157.771449 194.714137 
L 158.992322 196.103485 
L 160.213195 192.55871 
L 161.434068 188.567457 
L 162.654941 190.995822 
L 163.875814 179.346175 
L 165.096687 170.161935 
L 166.31756 154.536609 
L 167.538433 174.679254 
L 168.759306 226.422736 
L 169.980179 224.742205 
L 171.201052 182.045924 
L 172.421925 145.946879 
L 173.642798 167.514313 
L 174.863671 161.160255 
L 177.305417 187.077708 
L 178.52629 197.034988 
L 179.747163 204.013276 
L 180.968036 141.066637 
L 182.188909 117.322099 
L 183.409782 107.754515 
L 184.630655 121.768401 
L 185.851528 128.334746 
L 187.072401 131.19299 
L 188.293274 164.604414 
L 189.514147 179.415141 
L 190.73502 174.236525 
L 191.955893 175.554208 
L 193.176766 172.833382 
L 194.397639 171.641726 
L 195.618512 173.042947 
L 198.060258 209.227668 
L 199.281131 207.615698 
L 200.502004 195.680672 
L 201.722877 190.725311 
L 202.94375 180.210003 
L 204.164623 199.65994 
L 205.385496 172.31117 
L 206.606369 167.701006 
L 207.827242 174.349126 
L 209.048115 176.408311 
L 210.268988 174.210762 
L 211.489861 168.097255 
L 212.710734 188.358902 
L 213.931607 196.240062 
L 215.15248 197.427977 
L 216.373353 201.675874 
L 217.594226 187.314309 
L 218.815099 189.891172 
L 220.035972 178.808205 
L 221.256845 172.011251 
L 222.477718 163.647204 
L 223.698591 173.077514 
L 224.919464 176.848299 
L 226.140337 174.181563 
L 227.36121 166.153844 
L 228.582083 171.5544 
L 229.802956 186.026323 
L 231.023829 191.005467 
L 232.244702 193.807027 
L 233.465575 193.65305 
L 234.686448 181.053282 
L 235.907321 178.637975 
L 237.128194 174.989531 
L 238.349067 146.630855 
L 239.56994 142.663234 
L 240.790813 157.436694 
L 243.232559 171.964412 
L 244.453432 168.743876 
L 245.674305 170.630283 
L 246.895178 186.175813 
L 248.116051 187.064875 
L 249.336924 180.972973 
L 250.557797 176.396935 
L 251.77867 165.660022 
L 252.999543 171.942542 
L 254.220416 201.331063 
L 255.441289 219.660873 
L 256.662162 207.60872 
L 257.883035 192.610596 
L 259.103908 191.260814 
L 260.324781 213.576205 
L 261.545654 232.687576 
L 262.766527 235.921073 
L 263.9874 236.049107 
L 265.208273 229.613299 
L 266.429146 229.153543 
L 267.650019 230.319881 
L 268.870892 229.154428 
L 270.091765 226.644921 
L 271.312638 219.233173 
L 272.53351 214.277533 
L 273.754383 210.283712 
L 274.975256 211.96627 
L 276.196129 207.911227 
L 277.417002 214.12209 
L 278.637875 210.189977 
L 279.858748 200.333974 
L 281.079621 203.280995 
L 282.300494 220.731133 
L 283.521367 231.976584 
L 284.74224 238.229897 
L 285.963113 236.918242 
L 287.183986 230.798927 
L 288.404859 236.979777 
L 289.625732 242.541119 
L 290.846605 238.915855 
L 292.067478 236.447015 
L 293.288351 238.225366 
L 294.509224 237.723394 
L 295.730097 238.417207 
L 296.95097 240.639424 
L 298.171843 241.992788 
L 299.392716 241.389542 
L 300.613589 241.618857 
L 301.834462 235.62818 
L 303.055335 234.757095 
L 304.276208 236.853438 
L 305.497081 234.427175 
L 306.717954 232.807094 
L 309.1597 208.407428 
L 310.380573 201.853155 
L 311.601446 201.140076 
L 312.822319 212.206195 
L 314.043192 225.852014 
L 315.264065 231.059756 
L 316.484938 232.309135 
L 318.926684 239.603996 
L 320.147557 239.375114 
L 321.36843 237.939719 
L 322.589303 240.634253 
L 323.810176 237.130874 
L 325.031049 228.230576 
L 326.251922 211.720421 
L 327.472795 200.699254 
L 328.693668 195.396655 
L 329.914541 185.228713 
L 331.135414 177.647728 
L 332.356287 188.059929 
L 333.57716 202.181536 
L 334.798033 209.862946 
L 336.018906 209.715962 
L 337.239779 205.536326 
L 338.460652 207.27683 
L 339.681525 210.996227 
L 340.902398 226.429653 
L 342.123271 234.263798 
L 343.344144 240.935758 
L 344.565017 244.46875 
L 345.78589 249.922646 
L 347.006763 256.370006 
L 348.227636 252.29075 
L 350.669382 250.199986 
L 351.890255 254.568054 
L 353.111128 253.360525 
L 354.332001 251.246377 
L 355.552874 247.795557 
L 356.773747 251.40017 
L 357.99462 256.088172 
L 359.215493 246.940498 
L 360.436366 241.427846 
L 361.657239 213.138776 
L 362.878112 198.419722 
L 364.098985 181.567043 
L 365.319858 176.518388 
L 366.540731 165.616154 
L 367.761604 164.428432 
L 368.982477 159.401518 
L 370.20335 159.427914 
L 371.424223 164.076554 
L 372.645096 148.034542 
L 373.865969 126.238687 
L 375.086842 121.86703 
L 376.307715 120.431548 
L 377.528588 129.896272 
L 378.749461 132.289597 
L 379.970334 135.608835 
L 382.41208 141.271426 
L 383.632953 100.523252 
L 384.853826 70.325322 
L 386.074699 121.867383 
L 388.516445 206.317561 
L 389.737318 154.342593 
L 390.958191 138.729483 
L 392.179063 126.779388 
L 393.399936 117.433337 
L 394.620809 113.147813 
L 395.841682 106.612807 
L 397.062555 91.871086 
L 398.283428 82.563247 
L 399.504301 97.576584 
L 400.725174 132.302174 
L 401.946047 210.891605 
L 403.16692 241.06958 
L 404.387793 255.815951 
L 405.608666 254.006228 
L 406.829539 250.542659 
L 408.050412 251.492455 
L 409.271285 244.515625 
L 410.492158 249.622163 
L 411.713031 251.865096 
L 412.933904 252.205122 
L 414.154777 255.512559 
L 415.37565 256.644358 
L 416.596523 258.563681 
L 417.817396 257.250296 
L 419.038269 258.796445 
L 420.259142 261.274301 
L 421.480015 260.106109 
L 423.921761 260.204242 
L 425.142634 258.135228 
L 426.363507 256.517626 
L 428.805253 257.164736 
L 430.026126 256.983374 
L 431.246999 257.762819 
L 432.467872 258.352354 
L 433.688745 261.124105 
L 434.909618 259.802225 
L 436.130491 257.050649 
L 437.351364 244.252276 
L 438.572237 238.834268 
L 439.79311 237.42247 
L 441.013983 236.202279 
L 442.234856 238.017877 
L 443.455729 240.452691 
L 444.676602 238.868547 
L 445.897475 236.001094 
L 447.118348 228.037281 
L 448.339221 225.889789 
L 449.560094 224.313295 
L 452.00184 209.058963 
L 453.222713 207.567993 
L 454.443586 184.516539 
L 455.664459 138.246588 
L 456.885332 156.368188 
L 458.106205 180.71512 
L 459.327078 198.230618 
L 460.547951 228.746043 
L 461.768824 241.398141 
L 462.989697 248.114366 
L 464.21057 248.277283 
L 465.431443 243.845516 
L 466.652316 240.090384 
L 467.873189 233.301064 
L 469.094062 230.336508 
L 470.314935 222.179561 
L 471.535808 218.368601 
L 472.756681 216.464106 
L 473.977554 208.25563 
L 475.198427 171.196651 
L 476.4193 149.825587 
L 477.640173 147.504151 
L 478.861046 157.006398 
L 480.081919 162.477914 
L 481.302792 158.558567 
L 483.744538 152.396626 
L 484.965411 142.12351 
L 486.186284 146.346125 
L 487.407157 163.620328 
L 488.62803 172.901691 
L 489.848903 178.310955 
L 491.069776 186.744497 
L 492.290649 211.951482 
L 493.511522 203.335012 
L 494.732395 214.132183 
L 495.953268 222.523147 
L 497.174141 215.786195 
L 499.615887 208.096854 
L 500.83676 208.024508 
L 502.057633 207.594645 
L 503.278506 205.004981 
L 504.499379 204.0133 
L 505.720252 204.231084 
L 509.382871 200.652743 
L 510.603744 194.941653 
L 511.824616 193.884892 
L 513.045489 187.206083 
L 514.266362 187.265099 
L 515.487235 184.889565 
L 516.708108 184.182037 
L 519.149854 191.637012 
L 520.370727 179.984008 
L 521.5916 154.456484 
L 522.812473 148.201593 
L 524.033346 144.238843 
L 525.254219 150.114291 
L 526.475092 129.95153 
L 527.695965 129.135992 
L 528.916838 125.792049 
L 530.137711 128.610031 
L 531.358584 137.996217 
L 532.579457 121.767535 
L 533.80033 114.650459 
L 535.021203 112.885618 
L 536.242076 117.887393 
L 537.462949 116.136202 
L 538.683822 108.822347 
L 539.904695 111.801732 
L 541.125568 98.216171 
L 542.346441 95.096132 
L 543.567314 88.210986 
L 544.788187 70.949721 
L 546.00906 69.67673 
L 547.229933 82.064859 
L 548.450806 70.350989 
L 549.671679 66.657019 
L 550.892552 58.628787 
L 552.113425 68.979577 
L 553.334298 113.288821 
L 554.555171 138.888098 
L 555.776044 122.432181 
L 556.996917 108.357156 
L 558.21779 103.70137 
L 559.438663 100.68371 
L 560.659536 97.276689 
L 563.101282 82.517921 
L 564.322155 77.37775 
L 565.543028 76.082281 
L 566.763901 70.738971 
L 567.984774 68.768218 
L 569.205647 65.92066 
L 570.42652 64.205294 
L 571.647393 57.938795 
L 572.868266 55.397461 
L 574.089139 47.540117 
L 575.310012 50.431366 
L 576.530885 51.09505 
L 577.751758 51.058424 
L 578.972631 50.738182 
L 580.193504 61.899767 
L 581.414377 61.130997 
L 582.63525 43.665935 
L 583.856123 103.488698 
L 585.076996 86.226855 
L 586.297869 95.71526 
L 587.518742 86.217323 
L 588.739615 106.125073 
L 591.181361 160.315894 
L 592.402234 154.48759 
L 593.623107 174.330549 
L 594.84398 180.987024 
L 596.064853 204.052385 
L 597.285726 247.79186 
L 598.506599 258.311427 
L 599.727472 257.674075 
L 600.948345 253.016302 
L 602.169218 250.095352 
L 603.390091 251.08147 
L 604.610964 254.081386 
L 605.831837 254.365227 
L 607.05271 259.126468 
L 608.273583 259.404638 
L 609.494456 258.961372 
L 610.715329 257.696257 
L 611.936202 255.154201 
L 613.157075 253.751367 
L 614.377948 251.810478 
L 615.598821 254.23167 
L 616.819694 254.851551 
L 618.040567 252.174108 
L 619.26144 254.270727 
L 620.482313 252.267214 
L 621.703186 251.528676 
L 622.924059 254.799296 
L 624.144932 254.696825 
L 625.365805 255.285123 
L 626.586678 256.697438 
L 627.807551 254.390005 
L 629.028424 252.592535 
L 630.249297 248.761676 
L 631.47017 248.847116 
L 632.691042 249.671377 
L 633.911915 248.751786 
L 635.132788 249.062724 
L 636.353661 244.004652 
L 637.574534 241.318734 
L 638.795407 241.677548 
L 640.01628 234.484974 
L 641.237153 216.755229 
L 642.458026 231.078498 
L 643.678899 221.235217 
L 644.899772 218.32491 
L 646.120645 208.647265 
L 648.562391 178.478062 
L 649.783264 167.924725 
L 651.004137 160.188794 
L 652.22501 147.041444 
L 653.445883 170.01013 
L 654.666756 144.240341 
L 655.887629 144.881562 
L 657.108502 132.777058 
L 658.329375 125.715994 
L 659.550248 140.163908 
L 660.771121 124.332358 
L 661.991994 94.137936 
L 663.212867 75.93956 
L 664.43374 86.538494 
L 665.654613 113.508463 
L 666.875486 145.285302 
L 668.096359 165.951249 
L 669.317232 198.022351 
L 670.538105 218.338969 
L 671.758978 233.072346 
L 672.979851 221.289418 
L 674.200724 203.484623 
L 675.421597 203.459958 
L 676.64247 204.993622 
L 677.863343 193.50545 
L 679.084216 191.646897 
L 680.305089 172.534225 
L 681.525962 174.704496 
L 682.746835 187.910213 
L 683.967708 204.95972 
L 685.188581 201.015034 
L 686.409454 190.779497 
L 687.630327 193.009064 
L 688.8512 191.688177 
L 690.072073 182.295519 
L 691.292946 176.984108 
L 692.513819 174.210346 
L 693.734692 163.54376 
L 694.955565 170.829665 
L 696.176438 169.658717 
L 697.397311 163.520633 
L 698.618184 162.087273 
L 699.839057 159.857128 
L 701.05993 169.986473 
L 702.280803 191.038736 
L 703.501676 198.687854 
L 704.722549 184.713438 
L 705.943422 159.480321 
L 707.164295 106.97038 
L 709.606041 219.988434 
L 710.826914 218.947017 
L 712.047787 227.217602 
L 713.26866 208.206587 
L 714.489533 205.836557 
L 715.710406 222.053418 
L 716.931279 243.001648 
L 718.152152 253.701147 
L 719.373025 256.72097 
L 720.593898 254.881647 
L 721.814771 258.910343 
L 724.256517 264.083591 
L 725.47739 265.366531 
L 726.698263 265.465633 
L 727.919136 266.091338 
L 730.360882 262.809992 
L 731.581755 259.830639 
L 732.802628 259.24901 
L 734.023501 257.973857 
L 735.244374 255.503315 
L 736.465247 253.284257 
L 737.68612 250.317065 
L 738.906993 247.831538 
L 740.127866 247.077484 
L 741.348739 244.348623 
L 743.790485 237.539825 
L 745.011358 231.973788 
L 746.232231 231.685541 
L 747.453104 226.854642 
L 748.673977 220.996104 
L 749.89485 215.726317 
L 751.115723 224.826687 
L 752.336595 222.127182 
L 754.778341 213.33213 
L 755.999214 202.129906 
L 757.220087 198.642921 
L 758.44096 192.869715 
L 759.661833 209.885897 
L 760.882706 198.755426 
L 762.103579 201.697319 
L 763.324452 194.707392 
L 764.545325 192.357485 
L 765.766198 191.30557 
L 766.987071 187.0063 
L 768.207944 175.23532 
L 769.428817 168.053244 
L 770.64969 174.691542 
L 771.870563 167.070799 
L 773.091436 163.102321 
L 774.312309 160.641696 
L 775.533182 154.324425 
L 776.754055 137.407466 
L 777.974928 141.920483 
L 779.195801 142.502143 
L 780.416674 143.464697 
L 781.637547 167.058134 
L 782.85842 196.588503 
L 784.079293 193.176708 
L 785.300166 195.302102 
L 786.521039 199.129966 
L 787.741912 199.471284 
L 788.962785 207.380811 
L 791.404531 233.039409 
L 792.625404 232.971429 
L 793.846277 235.178226 
L 795.06715 235.626089 
L 797.508896 237.03319 
L 798.729769 235.708645 
L 799.950642 228.623685 
L 801.171515 229.349717 
L 802.392388 225.74271 
L 803.613261 224.095632 
L 804.834134 224.895693 
L 806.055007 223.484459 
L 807.27588 221.050069 
L 808.496753 218.885314 
L 809.717626 203.234692 
L 810.938499 200.993437 
L 812.159372 217.810099 
L 813.380245 226.116456 
L 814.601118 225.325099 
L 815.821991 230.796548 
L 817.042864 229.192688 
L 818.263737 230.433908 
L 819.48461 230.788633 
L 820.705483 236.283409 
L 823.147229 237.311311 
L 824.368102 238.030258 
L 825.588975 233.930209 
L 826.809848 225.655299 
L 828.030721 220.84665 
L 829.251594 215.434794 
L 830.472467 205.656601 
L 831.69334 201.90408 
L 832.914213 192.826329 
L 834.135086 186.009996 
L 835.355959 180.612124 
L 836.576832 176.468368 
L 837.797705 171.873409 
L 839.018578 174.399667 
L 840.239451 169.599661 
L 841.460324 164.168015 
L 842.681197 154.780435 
L 843.90207 167.833586 
L 846.343816 223.977307 
L 847.564689 206.517769 
L 848.785562 198.386958 
L 850.006435 220.732975 
L 851.227308 218.113387 
L 852.448181 207.640916 
L 853.669054 205.932231 
L 854.889927 211.805648 
L 856.1108 211.766355 
L 857.331673 210.42955 
L 858.552546 218.57605 
L 859.773419 219.64824 
L 860.994292 220.023033 
L 862.215165 214.894718 
L 863.436038 214.968598 
L 864.656911 208.132863 
L 865.877784 203.99981 
L 868.31953 190.772007 
L 869.540403 169.881251 
L 870.761276 156.757805 
L 871.982148 158.88517 
L 873.203021 162.953568 
L 875.644767 195.401189 
L 876.86564 236.737833 
L 878.086513 231.617617 
L 879.307386 241.070521 
L 880.528259 239.60428 
L 881.749132 231.304104 
L 882.970005 224.083868 
L 884.190878 218.351121 
L 885.411751 218.052861 
L 886.632624 220.942596 
L 887.853497 222.719405 
L 889.07437 215.572305 
L 890.295243 206.884955 
L 891.516116 190.39113 
L 892.736989 182.201039 
L 893.957862 180.691976 
L 895.178735 177.502787 
L 896.399608 161.54287 
L 897.620481 150.158936 
L 898.841354 156.14922 
L 900.062227 190.087078 
L 901.2831 207.991047 
L 902.503973 232.69648 
L 903.724846 235.741197 
L 904.945719 237.050705 
L 906.166592 240.25121 
L 907.387465 241.650776 
L 908.608338 244.922445 
L 909.829211 246.944275 
L 911.050084 244.234448 
L 912.270957 212.71088 
L 913.49183 230.463223 
L 914.712703 230.439483 
L 915.933576 183.670239 
L 917.154449 199.656127 
L 918.375322 203.36825 
L 919.596195 203.78709 
L 920.817068 196.164544 
L 922.037941 197.521032 
L 923.258814 193.531589 
L 924.479687 199.71701 
L 925.70056 208.286415 
L 926.921433 199.563658 
L 928.142306 183.703252 
L 929.363179 179.200874 
L 930.584052 180.599242 
L 933.025798 187.296261 
L 934.246671 159.057684 
L 935.467544 184.06781 
L 936.688417 184.915144 
L 937.90929 186.482926 
L 939.130163 197.956662 
L 940.351036 190.263661 
L 941.571909 192.835349 
L 942.792782 214.617698 
L 945.234528 230.557131 
L 946.455401 234.585662 
L 947.676274 234.082524 
L 948.897147 229.987046 
L 950.11802 221.204239 
L 951.338893 222.25113 
L 952.559766 216.561238 
L 953.780639 207.141863 
L 955.001512 185.820876 
L 956.222385 180.578582 
L 957.443258 208.384765 
L 958.664131 221.732907 
L 959.885004 220.31911 
L 961.105877 227.453366 
L 962.32675 224.806712 
L 963.547623 215.269606 
L 964.768496 227.156511 
L 965.989369 219.53878 
L 967.210242 233.695271 
L 968.431115 224.835291 
L 969.651988 233.401833 
L 970.872861 225.184276 
L 972.093734 214.787833 
L 973.314607 197.804728 
L 974.53548 192.583007 
L 975.756353 188.487813 
L 976.977226 192.208098 
L 978.198099 189.883442 
L 979.418972 178.314424 
L 980.639845 168.673765 
L 981.860718 165.402417 
L 983.081591 156.7952 
L 984.302464 147.089805 
L 985.523337 150.085925 
L 986.74421 160.436882 
L 987.965083 173.636848 
L 989.185956 189.414365 
L 990.406829 207.035783 
L 991.627701 217.161211 
L 992.848574 189.7969 
L 994.069447 174.371044 
L 995.29032 192.289 
L 996.511193 198.643097 
L 997.732066 200.776014 
L 998.952939 195.439745 
L 1000.173812 197.551865 
L 1001.394685 214.891734 
L 1002.615558 221.474421 
L 1003.836431 223.041891 
L 1005.057304 224.034104 
L 1006.278177 222.657389 
L 1007.49905 225.610606 
L 1008.719923 222.439978 
L 1009.940796 220.289967 
L 1011.161669 209.351676 
L 1012.382542 204.811887 
L 1013.603415 204.590195 
L 1014.824288 201.558339 
L 1016.045161 197.688947 
L 1017.266034 197.860444 
L 1018.486907 201.669241 
L 1019.70778 210.530579 
L 1022.149526 185.459642 
L 1023.370399 192.711693 
L 1024.591272 203.084737 
L 1025.812145 223.862023 
L 1027.033018 219.02578 
L 1028.253891 225.535336 
L 1029.474764 226.904016 
L 1030.695637 224.838884 
L 1031.91651 220.151879 
L 1033.137383 216.87242 
L 1034.358256 212.023624 
L 1035.579129 201.995572 
L 1036.800002 198.227333 
L 1038.020875 195.713052 
L 1039.241748 193.768871 
L 1040.462621 188.21002 
L 1042.904367 176.137656 
L 1044.12524 184.433851 
L 1045.346113 183.247049 
L 1046.566986 178.22934 
L 1047.787859 167.817764 
L 1049.008732 171.137474 
L 1050.229605 154.797178 
L 1051.450478 153.197793 
L 1052.671351 178.687273 
L 1053.892224 190.745346 
L 1055.113097 189.955828 
L 1056.33397 173.86116 
L 1058.775716 204.274086 
L 1061.217462 227.385365 
L 1062.438335 232.326763 
L 1063.659208 234.708156 
L 1064.880081 229.777469 
L 1066.100954 223.654369 
L 1067.321827 215.261779 
L 1068.5427 217.685246 
L 1069.763573 216.31383 
L 1070.984446 221.535396 
L 1072.205319 225.482969 
L 1073.426192 227.823407 
L 1074.647065 231.36352 
L 1075.867938 231.447807 
L 1077.088811 232.220338 
L 1078.309684 230.831899 
L 1079.530557 229.644629 
L 1080.75143 225.900992 
L 1081.972303 225.826832 
L 1084.414049 211.090819 
L 1085.634922 199.975849 
L 1086.855795 206.793222 
L 1088.076668 201.516658 
L 1089.297541 209.854342 
L 1090.518414 212.310909 
L 1091.739287 211.770172 
L 1092.96016 212.168272 
L 1094.181033 209.887555 
L 1095.401906 210.006244 
L 1096.622779 195.724075 
L 1097.843652 183.740575 
L 1099.064525 178.560053 
L 1100.285398 174.131992 
L 1101.506271 174.190639 
L 1103.948017 185.588921 
L 1105.16889 185.757358 
L 1106.389763 190.369156 
L 1107.610636 188.765477 
L 1108.831509 184.878878 
L 1108.831509 184.878878 
" clip-path="url(#pf241ac9220)" style="fill: none; stroke: #57d3db; stroke-width: 1.417963"/>
   </g>
   <g id="patch_3">
    <path d="M 1166.758781 181.003828 
L 1239.513156 181.003828 
L 1239.513156 106.996172 
L 1166.758781 106.996172 
z
" style="fill: #ffffff"/>
   </g>
   <g id="text_14">
    <!-- variable -->
    <g transform="translate(1178.958781 131.018594)scale(0.11 -0.11)">
     <defs>
      <path id="MicrosoftYaHei-76" d="M 3331 3456 
L 1963 0 
L 1344 0 
L 44 3456 
L 713 3456 
L 1556 988 
Q 1659 691 1678 491 
L 1694 491 
Q 1725 753 1803 975 
L 2688 3456 
L 3331 3456 
z
" transform="scale(0.015625)"/>
      <path id="MicrosoftYaHei-61" d="M 628 3216 
Q 1144 3538 1819 3538 
Q 3069 3538 3069 2225 
L 3069 0 
L 2463 0 
L 2463 534 
L 2447 534 
Q 2088 -81 1388 -81 
Q 884 -81 587 191 
Q 291 463 291 925 
Q 291 1894 1438 2053 
L 2463 2197 
Q 2463 3044 1763 3044 
Q 1141 3044 628 2625 
L 628 3216 
z
M 1653 1625 
Q 1228 1569 1067 1412 
Q 906 1256 906 975 
Q 906 728 1081 572 
Q 1256 416 1544 416 
Q 1944 416 2203 697 
Q 2463 978 2463 1403 
L 2463 1734 
L 1653 1625 
z
" transform="scale(0.015625)"/>
      <path id="MicrosoftYaHei-72" d="M 2400 2850 
Q 2247 2959 1978 2959 
Q 1622 2959 1390 2626 
Q 1159 2294 1159 1750 
L 1159 0 
L 547 0 
L 547 3456 
L 1159 3456 
L 1159 2753 
L 1172 2753 
Q 1434 3516 2078 3516 
Q 2288 3516 2400 3469 
L 2400 2850 
z
" transform="scale(0.015625)"/>
      <path id="MicrosoftYaHei-62" d="M 1159 488 
L 1159 0 
L 547 0 
L 547 5116 
L 1159 5116 
L 1159 2859 
L 1172 2859 
Q 1578 3538 2359 3538 
Q 3009 3538 3392 3080 
Q 3775 2622 3775 1828 
Q 3775 953 3345 436 
Q 2916 -81 2200 -81 
Q 1525 -81 1172 488 
L 1159 488 
z
M 1156 1422 
Q 1156 1003 1428 714 
Q 1700 425 2109 425 
Q 2597 425 2872 800 
Q 3147 1175 3147 1838 
Q 3147 2384 2890 2707 
Q 2634 3031 2191 3031 
Q 1741 3031 1448 2709 
Q 1156 2388 1156 1891 
L 1156 1422 
z
" transform="scale(0.015625)"/>
      <path id="MicrosoftYaHei-6c" d="M 544 0 
L 544 5116 
L 1156 5116 
L 1156 0 
L 544 0 
z
" transform="scale(0.015625)"/>
     </defs>
     <use xlink:href="#MicrosoftYaHei-76"/>
     <use xlink:href="#MicrosoftYaHei-61" x="50.490234"/>
     <use xlink:href="#MicrosoftYaHei-72" x="105.763672"/>
     <use xlink:href="#MicrosoftYaHei-69" x="143.947266"/>
     <use xlink:href="#MicrosoftYaHei-61" x="170.558594"/>
     <use xlink:href="#MicrosoftYaHei-62" x="225.832031"/>
     <use xlink:href="#MicrosoftYaHei-6c" x="289.699219"/>
     <use xlink:href="#MicrosoftYaHei-65" x="316.310547"/>
    </g>
   </g>
   <g id="patch_4">
    <path d="M 1178.958781 150.963828 
L 1194.798781 150.963828 
L 1194.798781 135.123828 
L 1178.958781 135.123828 
z
" clip-path="url(#p257a968e7e)" style="fill: #f2f2f2"/>
   </g>
   <g id="line2d_34">
    <path d="M 1178.958781 143.043828 
L 1194.798781 143.043828 
" clip-path="url(#p257a968e7e)" style="fill: none; stroke: #db5f57; stroke-width: 1.417963"/>
   </g>
   <g id="line2d_35">
    <path d="M 1178.958781 143.043828 
L 1194.798781 143.043828 
" clip-path="url(#p257a968e7e)" style="fill: none; stroke: #db5f57; stroke-width: 1.417963"/>
   </g>
   <g id="text_15">
    <!-- true -->
    <g transform="translate(1197.798781 145.467266)scale(0.088 -0.088)">
     <defs>
      <path id="MicrosoftYaHei-74" d="M 2206 34 
Q 2006 -75 1666 -75 
Q 738 -75 738 953 
L 738 2950 
L 144 2950 
L 144 3456 
L 738 3456 
L 738 4288 
L 1347 4481 
L 1347 3456 
L 2206 3456 
L 2206 2950 
L 1347 2950 
L 1347 1063 
Q 1347 722 1462 575 
Q 1578 428 1847 428 
Q 2053 428 2206 544 
L 2206 34 
z
" transform="scale(0.015625)"/>
      <path id="MicrosoftYaHei-75" d="M 3400 0 
L 2784 0 
L 2784 544 
L 2772 544 
Q 2425 -81 1706 -81 
Q 478 -81 478 1388 
L 478 3456 
L 1084 3456 
L 1084 1478 
Q 1084 425 1891 425 
Q 2291 425 2537 720 
Q 2784 1016 2784 1466 
L 2784 3456 
L 3400 3456 
L 3400 0 
z
" transform="scale(0.015625)"/>
     </defs>
     <use xlink:href="#MicrosoftYaHei-74"/>
     <use xlink:href="#MicrosoftYaHei-72" x="37.255859"/>
     <use xlink:href="#MicrosoftYaHei-75" x="75.439453"/>
     <use xlink:href="#MicrosoftYaHei-65" x="137.060547"/>
    </g>
   </g>
   <g id="patch_5">
    <path d="M 1178.958781 168.803828 
L 1194.798781 168.803828 
L 1194.798781 152.963828 
L 1178.958781 152.963828 
z
" clip-path="url(#pc525e49ec2)" style="fill: #f2f2f2"/>
   </g>
   <g id="line2d_36">
    <path d="M 1178.958781 160.883828 
L 1194.798781 160.883828 
" clip-path="url(#pc525e49ec2)" style="fill: none; stroke: #57d3db; stroke-width: 1.417963"/>
   </g>
   <g id="line2d_37">
    <path d="M 1178.958781 160.883828 
L 1194.798781 160.883828 
" clip-path="url(#pc525e49ec2)" style="fill: none; stroke: #57d3db; stroke-width: 1.417963"/>
   </g>
   <g id="text_16">
    <!-- predict -->
    <g transform="translate(1197.798781 163.307266)scale(0.088 -0.088)">
     <defs>
      <path id="MicrosoftYaHei-70" d="M 1159 488 
L 1159 -1591 
L 547 -1591 
L 547 3456 
L 1159 3456 
L 1159 2859 
L 1172 2859 
Q 1578 3538 2359 3538 
Q 3022 3538 3398 3073 
Q 3775 2609 3775 1828 
Q 3775 966 3348 442 
Q 2922 -81 2200 -81 
Q 1534 -81 1172 488 
L 1159 488 
z
M 1156 1425 
Q 1156 1003 1428 714 
Q 1700 425 2109 425 
Q 2597 425 2872 800 
Q 3147 1175 3147 1838 
Q 3147 2397 2890 2714 
Q 2634 3031 2191 3031 
Q 1738 3031 1447 2709 
Q 1156 2388 1156 1884 
L 1156 1425 
z
" transform="scale(0.015625)"/>
      <path id="MicrosoftYaHei-63" d="M 2934 156 
Q 2538 -81 1978 -81 
Q 1228 -81 772 400 
Q 316 881 316 1647 
Q 316 2497 808 3017 
Q 1300 3538 2125 3538 
Q 2600 3538 2938 3369 
L 2938 2763 
Q 2572 3031 2125 3031 
Q 1600 3031 1270 2667 
Q 941 2303 941 1697 
Q 941 1100 1252 762 
Q 1563 425 2091 425 
Q 2538 425 2934 719 
L 2934 156 
z
" transform="scale(0.015625)"/>
     </defs>
     <use xlink:href="#MicrosoftYaHei-70"/>
     <use xlink:href="#MicrosoftYaHei-72" x="63.867188"/>
     <use xlink:href="#MicrosoftYaHei-65" x="100.675781"/>
     <use xlink:href="#MicrosoftYaHei-64" x="157.414062"/>
     <use xlink:href="#MicrosoftYaHei-69" x="221.378906"/>
     <use xlink:href="#MicrosoftYaHei-63" x="247.990234"/>
     <use xlink:href="#MicrosoftYaHei-74" x="298.136719"/>
    </g>
   </g>
  </g>
 </g>
 <defs>
  <clipPath id="pf241ac9220">
   <rect x="43.558781" y="7.2" width="1116" height="277.2"/>
  </clipPath>
  <clipPath id="p257a968e7e">
   <path d="M 1178.958781 150.963828 
L 1178.958781 135.123828 
L 1194.798781 135.123828 
L 1194.798781 150.963828 
"/>
  </clipPath>
  <clipPath id="pc525e49ec2">
   <path d="M 1178.958781 168.803828 
L 1178.958781 152.963828 
L 1194.798781 152.963828 
L 1194.798781 168.803828 
"/>
  </clipPath>
 </defs>
</svg>
