<?xml version="1.0" encoding="utf-8" standalone="no"?>
<!DOCTYPE svg PUBLIC "-//W3C//DTD SVG 1.1//EN"
  "http://www.w3.org/Graphics/SVG/1.1/DTD/svg11.dtd">
<svg xmlns:xlink="http://www.w3.org/1999/xlink" width="1174.565625pt" height="398.742813pt" viewBox="0 0 1174.565625 398.742813" xmlns="http://www.w3.org/2000/svg" version="1.1">
 <metadata>
  <rdf:RDF xmlns:dc="http://purl.org/dc/elements/1.1/" xmlns:cc="http://creativecommons.org/ns#" xmlns:rdf="http://www.w3.org/1999/02/22-rdf-syntax-ns#">
   <cc:Work>
    <dc:type rdf:resource="http://purl.org/dc/dcmitype/StillImage"/>
    <dc:date>2022-10-20T21:03:12.651747</dc:date>
    <dc:format>image/svg+xml</dc:format>
    <dc:creator>
     <cc:Agent>
      <dc:title>Matplotlib v3.5.1, https://matplotlib.org/</dc:title>
     </cc:Agent>
    </dc:creator>
   </cc:Work>
  </rdf:RDF>
 </metadata>
 <defs>
  <style type="text/css">*{stroke-linejoin: round; stroke-linecap: butt}</style>
 </defs>
 <g id="figure_1">
  <g id="patch_1">
   <path d="M 0 398.742813 
L 1174.565625 398.742813 
L 1174.565625 0 
L 0 0 
z
" style="fill: #ffffff"/>
  </g>
  <g id="axes_1">
   <g id="patch_2">
    <path d="M 51.365625 353.256875 
L 1167.365625 353.256875 
L 1167.365625 27.096875 
L 51.365625 27.096875 
z
" style="fill: #e5e5e5"/>
   </g>
   <g id="matplotlib.axis_1">
    <g id="xtick_1">
     <g id="line2d_1">
      <path d="M 102.092898 353.256875 
L 102.092898 27.096875 
" clip-path="url(#pfebfbd347b)" style="fill: none; stroke: #ffffff; stroke-width: 0.8; stroke-linecap: square"/>
     </g>
     <g id="line2d_2">
      <defs>
       <path id="m84fc1e78f1" d="M 0 0 
L 0 3.5 
" style="stroke: #555555; stroke-width: 0.8"/>
      </defs>
      <g>
       <use xlink:href="#m84fc1e78f1" x="102.092898" y="353.256875" style="fill: #555555; stroke: #555555; stroke-width: 0.8"/>
      </g>
     </g>
     <g id="text_1">
      <!-- 0 -->
      <g style="fill: #555555" transform="translate(99.592898 367.200625)scale(0.1 -0.1)">
       <defs>
        <path id="TimesNewRomanPSMT-30" d="M 231 2094 
Q 231 2819 450 3342 
Q 669 3866 1031 4122 
Q 1313 4325 1613 4325 
Q 2100 4325 2488 3828 
Q 2972 3213 2972 2159 
Q 2972 1422 2759 906 
Q 2547 391 2217 158 
Q 1888 -75 1581 -75 
Q 975 -75 572 641 
Q 231 1244 231 2094 
z
M 844 2016 
Q 844 1141 1059 588 
Q 1238 122 1591 122 
Q 1759 122 1940 273 
Q 2122 425 2216 781 
Q 2359 1319 2359 2297 
Q 2359 3022 2209 3506 
Q 2097 3866 1919 4016 
Q 1791 4119 1609 4119 
Q 1397 4119 1231 3928 
Q 1006 3669 925 3112 
Q 844 2556 844 2016 
z
" transform="scale(0.015625)"/>
       </defs>
       <use xlink:href="#TimesNewRomanPSMT-30"/>
      </g>
     </g>
    </g>
    <g id="xtick_2">
     <g id="line2d_3">
      <path d="M 346.267496 353.256875 
L 346.267496 27.096875 
" clip-path="url(#pfebfbd347b)" style="fill: none; stroke: #ffffff; stroke-width: 0.8; stroke-linecap: square"/>
     </g>
     <g id="line2d_4">
      <g>
       <use xlink:href="#m84fc1e78f1" x="346.267496" y="353.256875" style="fill: #555555; stroke: #555555; stroke-width: 0.8"/>
      </g>
     </g>
     <g id="text_2">
      <!-- 200 -->
      <g style="fill: #555555" transform="translate(338.767496 367.200625)scale(0.1 -0.1)">
       <defs>
        <path id="TimesNewRomanPSMT-32" d="M 2934 816 
L 2638 0 
L 138 0 
L 138 116 
Q 1241 1122 1691 1759 
Q 2141 2397 2141 2925 
Q 2141 3328 1894 3587 
Q 1647 3847 1303 3847 
Q 991 3847 742 3664 
Q 494 3481 375 3128 
L 259 3128 
Q 338 3706 661 4015 
Q 984 4325 1469 4325 
Q 1984 4325 2329 3994 
Q 2675 3663 2675 3213 
Q 2675 2891 2525 2569 
Q 2294 2063 1775 1497 
Q 997 647 803 472 
L 1909 472 
Q 2247 472 2383 497 
Q 2519 522 2628 598 
Q 2738 675 2819 816 
L 2934 816 
z
" transform="scale(0.015625)"/>
       </defs>
       <use xlink:href="#TimesNewRomanPSMT-32"/>
       <use xlink:href="#TimesNewRomanPSMT-30" x="50"/>
       <use xlink:href="#TimesNewRomanPSMT-30" x="100"/>
      </g>
     </g>
    </g>
    <g id="xtick_3">
     <g id="line2d_5">
      <path d="M 590.442094 353.256875 
L 590.442094 27.096875 
" clip-path="url(#pfebfbd347b)" style="fill: none; stroke: #ffffff; stroke-width: 0.8; stroke-linecap: square"/>
     </g>
     <g id="line2d_6">
      <g>
       <use xlink:href="#m84fc1e78f1" x="590.442094" y="353.256875" style="fill: #555555; stroke: #555555; stroke-width: 0.8"/>
      </g>
     </g>
     <g id="text_3">
      <!-- 400 -->
      <g style="fill: #555555" transform="translate(582.942094 367.200625)scale(0.1 -0.1)">
       <defs>
        <path id="TimesNewRomanPSMT-34" d="M 2978 1563 
L 2978 1119 
L 2409 1119 
L 2409 0 
L 1894 0 
L 1894 1119 
L 100 1119 
L 100 1519 
L 2066 4325 
L 2409 4325 
L 2409 1563 
L 2978 1563 
z
M 1894 1563 
L 1894 3666 
L 406 1563 
L 1894 1563 
z
" transform="scale(0.015625)"/>
       </defs>
       <use xlink:href="#TimesNewRomanPSMT-34"/>
       <use xlink:href="#TimesNewRomanPSMT-30" x="50"/>
       <use xlink:href="#TimesNewRomanPSMT-30" x="100"/>
      </g>
     </g>
    </g>
    <g id="xtick_4">
     <g id="line2d_7">
      <path d="M 834.616692 353.256875 
L 834.616692 27.096875 
" clip-path="url(#pfebfbd347b)" style="fill: none; stroke: #ffffff; stroke-width: 0.8; stroke-linecap: square"/>
     </g>
     <g id="line2d_8">
      <g>
       <use xlink:href="#m84fc1e78f1" x="834.616692" y="353.256875" style="fill: #555555; stroke: #555555; stroke-width: 0.8"/>
      </g>
     </g>
     <g id="text_4">
      <!-- 600 -->
      <g style="fill: #555555" transform="translate(827.116692 367.200625)scale(0.1 -0.1)">
       <defs>
        <path id="TimesNewRomanPSMT-36" d="M 2869 4325 
L 2869 4209 
Q 2456 4169 2195 4045 
Q 1934 3922 1679 3669 
Q 1425 3416 1258 3105 
Q 1091 2794 978 2366 
Q 1428 2675 1881 2675 
Q 2316 2675 2634 2325 
Q 2953 1975 2953 1425 
Q 2953 894 2631 456 
Q 2244 -75 1606 -75 
Q 1172 -75 869 213 
Q 275 772 275 1663 
Q 275 2231 503 2743 
Q 731 3256 1154 3653 
Q 1578 4050 1965 4187 
Q 2353 4325 2688 4325 
L 2869 4325 
z
M 925 2138 
Q 869 1716 869 1456 
Q 869 1156 980 804 
Q 1091 453 1309 247 
Q 1469 100 1697 100 
Q 1969 100 2183 356 
Q 2397 613 2397 1088 
Q 2397 1622 2184 2012 
Q 1972 2403 1581 2403 
Q 1463 2403 1327 2353 
Q 1191 2303 925 2138 
z
" transform="scale(0.015625)"/>
       </defs>
       <use xlink:href="#TimesNewRomanPSMT-36"/>
       <use xlink:href="#TimesNewRomanPSMT-30" x="50"/>
       <use xlink:href="#TimesNewRomanPSMT-30" x="100"/>
      </g>
     </g>
    </g>
    <g id="xtick_5">
     <g id="line2d_9">
      <path d="M 1078.79129 353.256875 
L 1078.79129 27.096875 
" clip-path="url(#pfebfbd347b)" style="fill: none; stroke: #ffffff; stroke-width: 0.8; stroke-linecap: square"/>
     </g>
     <g id="line2d_10">
      <g>
       <use xlink:href="#m84fc1e78f1" x="1078.79129" y="353.256875" style="fill: #555555; stroke: #555555; stroke-width: 0.8"/>
      </g>
     </g>
     <g id="text_5">
      <!-- 800 -->
      <g style="fill: #555555" transform="translate(1071.29129 367.200625)scale(0.1 -0.1)">
       <defs>
        <path id="TimesNewRomanPSMT-38" d="M 1228 2134 
Q 725 2547 579 2797 
Q 434 3047 434 3316 
Q 434 3728 753 4026 
Q 1072 4325 1600 4325 
Q 2113 4325 2425 4047 
Q 2738 3769 2738 3413 
Q 2738 3175 2569 2928 
Q 2400 2681 1866 2347 
Q 2416 1922 2594 1678 
Q 2831 1359 2831 1006 
Q 2831 559 2490 242 
Q 2150 -75 1597 -75 
Q 994 -75 656 303 
Q 388 606 388 966 
Q 388 1247 577 1523 
Q 766 1800 1228 2134 
z
M 1719 2469 
Q 2094 2806 2194 3001 
Q 2294 3197 2294 3444 
Q 2294 3772 2109 3958 
Q 1925 4144 1606 4144 
Q 1288 4144 1088 3959 
Q 888 3775 888 3528 
Q 888 3366 970 3203 
Q 1053 3041 1206 2894 
L 1719 2469 
z
M 1375 2016 
Q 1116 1797 991 1539 
Q 866 1281 866 981 
Q 866 578 1086 336 
Q 1306 94 1647 94 
Q 1984 94 2187 284 
Q 2391 475 2391 747 
Q 2391 972 2272 1150 
Q 2050 1481 1375 2016 
z
" transform="scale(0.015625)"/>
       </defs>
       <use xlink:href="#TimesNewRomanPSMT-38"/>
       <use xlink:href="#TimesNewRomanPSMT-30" x="50"/>
       <use xlink:href="#TimesNewRomanPSMT-30" x="100"/>
      </g>
     </g>
    </g>
    <g id="text_6">
     <!-- Time(hourly) -->
     <g style="fill: #555555" transform="translate(555.845312 387.227188)scale(0.2 -0.2)">
      <defs>
       <path id="TimesNewRomanPSMT-54" d="M 3703 4238 
L 3750 3244 
L 3631 3244 
Q 3597 3506 3538 3619 
Q 3441 3800 3280 3886 
Q 3119 3972 2856 3972 
L 2259 3972 
L 2259 734 
Q 2259 344 2344 247 
Q 2463 116 2709 116 
L 2856 116 
L 2856 0 
L 1059 0 
L 1059 116 
L 1209 116 
Q 1478 116 1591 278 
Q 1659 378 1659 734 
L 1659 3972 
L 1150 3972 
Q 853 3972 728 3928 
Q 566 3869 450 3700 
Q 334 3531 313 3244 
L 194 3244 
L 244 4238 
L 3703 4238 
z
" transform="scale(0.015625)"/>
       <path id="TimesNewRomanPSMT-69" d="M 928 4444 
Q 1059 4444 1151 4351 
Q 1244 4259 1244 4128 
Q 1244 3997 1151 3903 
Q 1059 3809 928 3809 
Q 797 3809 703 3903 
Q 609 3997 609 4128 
Q 609 4259 701 4351 
Q 794 4444 928 4444 
z
M 1188 2947 
L 1188 647 
Q 1188 378 1227 289 
Q 1266 200 1342 156 
Q 1419 113 1622 113 
L 1622 0 
L 231 0 
L 231 113 
Q 441 113 512 153 
Q 584 194 626 287 
Q 669 381 669 647 
L 669 1750 
Q 669 2216 641 2353 
Q 619 2453 572 2492 
Q 525 2531 444 2531 
Q 356 2531 231 2484 
L 188 2597 
L 1050 2947 
L 1188 2947 
z
" transform="scale(0.015625)"/>
       <path id="TimesNewRomanPSMT-6d" d="M 1050 2338 
Q 1363 2650 1419 2697 
Q 1559 2816 1721 2881 
Q 1884 2947 2044 2947 
Q 2313 2947 2506 2790 
Q 2700 2634 2766 2338 
Q 3088 2713 3309 2830 
Q 3531 2947 3766 2947 
Q 3994 2947 4170 2830 
Q 4347 2713 4450 2447 
Q 4519 2266 4519 1878 
L 4519 647 
Q 4519 378 4559 278 
Q 4591 209 4675 161 
Q 4759 113 4950 113 
L 4950 0 
L 3538 0 
L 3538 113 
L 3597 113 
Q 3781 113 3884 184 
Q 3956 234 3988 344 
Q 4000 397 4000 647 
L 4000 1878 
Q 4000 2228 3916 2372 
Q 3794 2572 3525 2572 
Q 3359 2572 3192 2489 
Q 3025 2406 2788 2181 
L 2781 2147 
L 2788 2013 
L 2788 647 
Q 2788 353 2820 281 
Q 2853 209 2943 161 
Q 3034 113 3253 113 
L 3253 0 
L 1806 0 
L 1806 113 
Q 2044 113 2133 169 
Q 2222 225 2256 338 
Q 2272 391 2272 647 
L 2272 1878 
Q 2272 2228 2169 2381 
Q 2031 2581 1784 2581 
Q 1616 2581 1450 2491 
Q 1191 2353 1050 2181 
L 1050 647 
Q 1050 366 1089 281 
Q 1128 197 1204 155 
Q 1281 113 1516 113 
L 1516 0 
L 100 0 
L 100 113 
Q 297 113 375 155 
Q 453 197 493 289 
Q 534 381 534 647 
L 534 1741 
Q 534 2213 506 2350 
Q 484 2453 437 2492 
Q 391 2531 309 2531 
Q 222 2531 100 2484 
L 53 2597 
L 916 2947 
L 1050 2947 
L 1050 2338 
z
" transform="scale(0.015625)"/>
       <path id="TimesNewRomanPSMT-65" d="M 681 1784 
Q 678 1147 991 784 
Q 1303 422 1725 422 
Q 2006 422 2214 576 
Q 2422 731 2563 1106 
L 2659 1044 
Q 2594 616 2278 264 
Q 1963 -88 1488 -88 
Q 972 -88 605 314 
Q 238 716 238 1394 
Q 238 2128 614 2539 
Q 991 2950 1559 2950 
Q 2041 2950 2350 2633 
Q 2659 2316 2659 1784 
L 681 1784 
z
M 681 1966 
L 2006 1966 
Q 1991 2241 1941 2353 
Q 1863 2528 1708 2628 
Q 1553 2728 1384 2728 
Q 1125 2728 920 2526 
Q 716 2325 681 1966 
z
" transform="scale(0.015625)"/>
       <path id="TimesNewRomanPSMT-28" d="M 1988 -1253 
L 1988 -1369 
Q 1516 -1131 1200 -813 
Q 750 -359 506 256 
Q 263 872 263 1534 
Q 263 2503 741 3301 
Q 1219 4100 1988 4444 
L 1988 4313 
Q 1603 4100 1356 3731 
Q 1109 3363 987 2797 
Q 866 2231 866 1616 
Q 866 947 969 400 
Q 1050 -31 1165 -292 
Q 1281 -553 1476 -793 
Q 1672 -1034 1988 -1253 
z
" transform="scale(0.015625)"/>
       <path id="TimesNewRomanPSMT-68" d="M 1041 4444 
L 1041 2350 
Q 1388 2731 1591 2839 
Q 1794 2947 1997 2947 
Q 2241 2947 2416 2812 
Q 2591 2678 2675 2391 
Q 2734 2191 2734 1659 
L 2734 647 
Q 2734 375 2778 275 
Q 2809 200 2884 156 
Q 2959 113 3159 113 
L 3159 0 
L 1753 0 
L 1753 113 
L 1819 113 
Q 2019 113 2097 173 
Q 2175 234 2206 353 
Q 2216 403 2216 647 
L 2216 1659 
Q 2216 2128 2167 2275 
Q 2119 2422 2012 2495 
Q 1906 2569 1756 2569 
Q 1603 2569 1437 2487 
Q 1272 2406 1041 2159 
L 1041 647 
Q 1041 353 1073 281 
Q 1106 209 1195 161 
Q 1284 113 1503 113 
L 1503 0 
L 84 0 
L 84 113 
Q 275 113 384 172 
Q 447 203 484 290 
Q 522 378 522 647 
L 522 3238 
Q 522 3728 498 3840 
Q 475 3953 426 3993 
Q 378 4034 297 4034 
Q 231 4034 84 3984 
L 41 4094 
L 897 4444 
L 1041 4444 
z
" transform="scale(0.015625)"/>
       <path id="TimesNewRomanPSMT-6f" d="M 1600 2947 
Q 2250 2947 2644 2453 
Q 2978 2031 2978 1484 
Q 2978 1100 2793 706 
Q 2609 313 2286 112 
Q 1963 -88 1566 -88 
Q 919 -88 538 428 
Q 216 863 216 1403 
Q 216 1797 411 2186 
Q 606 2575 925 2761 
Q 1244 2947 1600 2947 
z
M 1503 2744 
Q 1338 2744 1170 2645 
Q 1003 2547 900 2300 
Q 797 2053 797 1666 
Q 797 1041 1045 587 
Q 1294 134 1700 134 
Q 2003 134 2200 384 
Q 2397 634 2397 1244 
Q 2397 2006 2069 2444 
Q 1847 2744 1503 2744 
z
" transform="scale(0.015625)"/>
       <path id="TimesNewRomanPSMT-75" d="M 2709 2863 
L 2709 1128 
Q 2709 631 2732 520 
Q 2756 409 2807 365 
Q 2859 322 2928 322 
Q 3025 322 3147 375 
L 3191 266 
L 2334 -88 
L 2194 -88 
L 2194 519 
Q 1825 119 1631 15 
Q 1438 -88 1222 -88 
Q 981 -88 804 51 
Q 628 191 559 409 
Q 491 628 491 1028 
L 491 2306 
Q 491 2509 447 2587 
Q 403 2666 317 2708 
Q 231 2750 6 2747 
L 6 2863 
L 1009 2863 
L 1009 947 
Q 1009 547 1148 422 
Q 1288 297 1484 297 
Q 1619 297 1789 381 
Q 1959 466 2194 703 
L 2194 2325 
Q 2194 2569 2105 2655 
Q 2016 2741 1734 2747 
L 1734 2863 
L 2709 2863 
z
" transform="scale(0.015625)"/>
       <path id="TimesNewRomanPSMT-72" d="M 1038 2947 
L 1038 2303 
Q 1397 2947 1775 2947 
Q 1947 2947 2059 2842 
Q 2172 2738 2172 2600 
Q 2172 2478 2090 2393 
Q 2009 2309 1897 2309 
Q 1788 2309 1652 2417 
Q 1516 2525 1450 2525 
Q 1394 2525 1328 2463 
Q 1188 2334 1038 2041 
L 1038 669 
Q 1038 431 1097 309 
Q 1138 225 1241 169 
Q 1344 113 1538 113 
L 1538 0 
L 72 0 
L 72 113 
Q 291 113 397 181 
Q 475 231 506 341 
Q 522 394 522 644 
L 522 1753 
Q 522 2253 501 2348 
Q 481 2444 426 2487 
Q 372 2531 291 2531 
Q 194 2531 72 2484 
L 41 2597 
L 906 2947 
L 1038 2947 
z
" transform="scale(0.015625)"/>
       <path id="TimesNewRomanPSMT-6c" d="M 1184 4444 
L 1184 647 
Q 1184 378 1223 290 
Q 1263 203 1344 158 
Q 1425 113 1647 113 
L 1647 0 
L 244 0 
L 244 113 
Q 441 113 512 153 
Q 584 194 625 287 
Q 666 381 666 647 
L 666 3247 
Q 666 3731 644 3842 
Q 622 3953 573 3993 
Q 525 4034 450 4034 
Q 369 4034 244 3984 
L 191 4094 
L 1044 4444 
L 1184 4444 
z
" transform="scale(0.015625)"/>
       <path id="TimesNewRomanPSMT-79" d="M 38 2863 
L 1372 2863 
L 1372 2747 
L 1306 2747 
Q 1166 2747 1095 2686 
Q 1025 2625 1025 2534 
Q 1025 2413 1128 2197 
L 1825 753 
L 2466 2334 
Q 2519 2463 2519 2588 
Q 2519 2644 2497 2672 
Q 2472 2706 2419 2726 
Q 2366 2747 2231 2747 
L 2231 2863 
L 3163 2863 
L 3163 2747 
Q 3047 2734 2984 2696 
Q 2922 2659 2847 2556 
Q 2819 2513 2741 2316 
L 1575 -541 
Q 1406 -956 1132 -1168 
Q 859 -1381 606 -1381 
Q 422 -1381 303 -1275 
Q 184 -1169 184 -1031 
Q 184 -900 270 -820 
Q 356 -741 506 -741 
Q 609 -741 788 -809 
Q 913 -856 944 -856 
Q 1038 -856 1148 -759 
Q 1259 -663 1372 -384 
L 1575 113 
L 547 2272 
Q 500 2369 397 2513 
Q 319 2622 269 2659 
Q 197 2709 38 2747 
L 38 2863 
z
" transform="scale(0.015625)"/>
       <path id="TimesNewRomanPSMT-29" d="M 144 4313 
L 144 4444 
Q 619 4209 934 3891 
Q 1381 3434 1625 2820 
Q 1869 2206 1869 1541 
Q 1869 572 1392 -226 
Q 916 -1025 144 -1369 
L 144 -1253 
Q 528 -1038 776 -670 
Q 1025 -303 1145 264 
Q 1266 831 1266 1447 
Q 1266 2113 1163 2663 
Q 1084 3094 967 3353 
Q 850 3613 656 3853 
Q 463 4094 144 4313 
z
" transform="scale(0.015625)"/>
      </defs>
      <use xlink:href="#TimesNewRomanPSMT-54"/>
      <use xlink:href="#TimesNewRomanPSMT-69" x="57.583984"/>
      <use xlink:href="#TimesNewRomanPSMT-6d" x="85.367188"/>
      <use xlink:href="#TimesNewRomanPSMT-65" x="163.150391"/>
      <use xlink:href="#TimesNewRomanPSMT-28" x="207.535156"/>
      <use xlink:href="#TimesNewRomanPSMT-68" x="240.835938"/>
      <use xlink:href="#TimesNewRomanPSMT-6f" x="290.835938"/>
      <use xlink:href="#TimesNewRomanPSMT-75" x="340.835938"/>
      <use xlink:href="#TimesNewRomanPSMT-72" x="390.835938"/>
      <use xlink:href="#TimesNewRomanPSMT-6c" x="424.136719"/>
      <use xlink:href="#TimesNewRomanPSMT-79" x="451.919922"/>
      <use xlink:href="#TimesNewRomanPSMT-29" x="501.919922"/>
     </g>
    </g>
   </g>
   <g id="matplotlib.axis_2">
    <g id="ytick_1">
     <g id="line2d_11">
      <path d="M 51.365625 343.373239 
L 1167.365625 343.373239 
" clip-path="url(#pfebfbd347b)" style="fill: none; stroke: #ffffff; stroke-width: 0.8; stroke-linecap: square"/>
     </g>
     <g id="line2d_12">
      <defs>
       <path id="m717a467778" d="M 0 0 
L -3.5 0 
" style="stroke: #555555; stroke-width: 0.8"/>
      </defs>
      <g>
       <use xlink:href="#m717a467778" x="51.365625" y="343.373239" style="fill: #555555; stroke: #555555; stroke-width: 0.8"/>
      </g>
     </g>
     <g id="text_7">
      <!-- 0 -->
      <g style="fill: #555555" transform="translate(39.365625 346.845114)scale(0.1 -0.1)">
       <use xlink:href="#TimesNewRomanPSMT-30"/>
      </g>
     </g>
    </g>
    <g id="ytick_2">
     <g id="line2d_13">
      <path d="M 51.365625 281.600511 
L 1167.365625 281.600511 
" clip-path="url(#pfebfbd347b)" style="fill: none; stroke: #ffffff; stroke-width: 0.8; stroke-linecap: square"/>
     </g>
     <g id="line2d_14">
      <g>
       <use xlink:href="#m717a467778" x="51.365625" y="281.600511" style="fill: #555555; stroke: #555555; stroke-width: 0.8"/>
      </g>
     </g>
     <g id="text_8">
      <!-- 50 -->
      <g style="fill: #555555" transform="translate(34.365625 285.072386)scale(0.1 -0.1)">
       <defs>
        <path id="TimesNewRomanPSMT-35" d="M 2778 4238 
L 2534 3706 
L 1259 3706 
L 981 3138 
Q 1809 3016 2294 2522 
Q 2709 2097 2709 1522 
Q 2709 1188 2573 903 
Q 2438 619 2231 419 
Q 2025 219 1772 97 
Q 1413 -75 1034 -75 
Q 653 -75 479 54 
Q 306 184 306 341 
Q 306 428 378 495 
Q 450 563 559 563 
Q 641 563 702 538 
Q 763 513 909 409 
Q 1144 247 1384 247 
Q 1750 247 2026 523 
Q 2303 800 2303 1197 
Q 2303 1581 2056 1914 
Q 1809 2247 1375 2428 
Q 1034 2569 447 2591 
L 1259 4238 
L 2778 4238 
z
" transform="scale(0.015625)"/>
       </defs>
       <use xlink:href="#TimesNewRomanPSMT-35"/>
       <use xlink:href="#TimesNewRomanPSMT-30" x="50"/>
      </g>
     </g>
    </g>
    <g id="ytick_3">
     <g id="line2d_15">
      <path d="M 51.365625 219.827784 
L 1167.365625 219.827784 
" clip-path="url(#pfebfbd347b)" style="fill: none; stroke: #ffffff; stroke-width: 0.8; stroke-linecap: square"/>
     </g>
     <g id="line2d_16">
      <g>
       <use xlink:href="#m717a467778" x="51.365625" y="219.827784" style="fill: #555555; stroke: #555555; stroke-width: 0.8"/>
      </g>
     </g>
     <g id="text_9">
      <!-- 100 -->
      <g style="fill: #555555" transform="translate(29.365625 223.299659)scale(0.1 -0.1)">
       <defs>
        <path id="TimesNewRomanPSMT-31" d="M 750 3822 
L 1781 4325 
L 1884 4325 
L 1884 747 
Q 1884 391 1914 303 
Q 1944 216 2037 169 
Q 2131 122 2419 116 
L 2419 0 
L 825 0 
L 825 116 
Q 1125 122 1212 167 
Q 1300 213 1334 289 
Q 1369 366 1369 747 
L 1369 3034 
Q 1369 3497 1338 3628 
Q 1316 3728 1258 3775 
Q 1200 3822 1119 3822 
Q 1003 3822 797 3725 
L 750 3822 
z
" transform="scale(0.015625)"/>
       </defs>
       <use xlink:href="#TimesNewRomanPSMT-31"/>
       <use xlink:href="#TimesNewRomanPSMT-30" x="50"/>
       <use xlink:href="#TimesNewRomanPSMT-30" x="100"/>
      </g>
     </g>
    </g>
    <g id="ytick_4">
     <g id="line2d_17">
      <path d="M 51.365625 158.055057 
L 1167.365625 158.055057 
" clip-path="url(#pfebfbd347b)" style="fill: none; stroke: #ffffff; stroke-width: 0.8; stroke-linecap: square"/>
     </g>
     <g id="line2d_18">
      <g>
       <use xlink:href="#m717a467778" x="51.365625" y="158.055057" style="fill: #555555; stroke: #555555; stroke-width: 0.8"/>
      </g>
     </g>
     <g id="text_10">
      <!-- 150 -->
      <g style="fill: #555555" transform="translate(29.365625 161.526932)scale(0.1 -0.1)">
       <use xlink:href="#TimesNewRomanPSMT-31"/>
       <use xlink:href="#TimesNewRomanPSMT-35" x="50"/>
       <use xlink:href="#TimesNewRomanPSMT-30" x="100"/>
      </g>
     </g>
    </g>
    <g id="ytick_5">
     <g id="line2d_19">
      <path d="M 51.365625 96.28233 
L 1167.365625 96.28233 
" clip-path="url(#pfebfbd347b)" style="fill: none; stroke: #ffffff; stroke-width: 0.8; stroke-linecap: square"/>
     </g>
     <g id="line2d_20">
      <g>
       <use xlink:href="#m717a467778" x="51.365625" y="96.28233" style="fill: #555555; stroke: #555555; stroke-width: 0.8"/>
      </g>
     </g>
     <g id="text_11">
      <!-- 200 -->
      <g style="fill: #555555" transform="translate(29.365625 99.754205)scale(0.1 -0.1)">
       <use xlink:href="#TimesNewRomanPSMT-32"/>
       <use xlink:href="#TimesNewRomanPSMT-30" x="50"/>
       <use xlink:href="#TimesNewRomanPSMT-30" x="100"/>
      </g>
     </g>
    </g>
    <g id="ytick_6">
     <g id="line2d_21">
      <path d="M 51.365625 34.509602 
L 1167.365625 34.509602 
" clip-path="url(#pfebfbd347b)" style="fill: none; stroke: #ffffff; stroke-width: 0.8; stroke-linecap: square"/>
     </g>
     <g id="line2d_22">
      <g>
       <use xlink:href="#m717a467778" x="51.365625" y="34.509602" style="fill: #555555; stroke: #555555; stroke-width: 0.8"/>
      </g>
     </g>
     <g id="text_12">
      <!-- 250 -->
      <g style="fill: #555555" transform="translate(29.365625 37.981477)scale(0.1 -0.1)">
       <use xlink:href="#TimesNewRomanPSMT-32"/>
       <use xlink:href="#TimesNewRomanPSMT-35" x="50"/>
       <use xlink:href="#TimesNewRomanPSMT-30" x="100"/>
      </g>
     </g>
    </g>
    <g id="text_13">
     <!-- PM2.5 value -->
     <g style="fill: #555555" transform="translate(21.0875 241.28625)rotate(-90)scale(0.2 -0.2)">
      <defs>
       <path id="TimesNewRomanPSMT-50" d="M 1313 1984 
L 1313 750 
Q 1313 350 1400 253 
Q 1519 116 1759 116 
L 1922 116 
L 1922 0 
L 106 0 
L 106 116 
L 266 116 
Q 534 116 650 291 
Q 713 388 713 750 
L 713 3488 
Q 713 3888 628 3984 
Q 506 4122 266 4122 
L 106 4122 
L 106 4238 
L 1659 4238 
Q 2228 4238 2556 4120 
Q 2884 4003 3109 3725 
Q 3334 3447 3334 3066 
Q 3334 2547 2992 2222 
Q 2650 1897 2025 1897 
Q 1872 1897 1694 1919 
Q 1516 1941 1313 1984 
z
M 1313 2163 
Q 1478 2131 1606 2115 
Q 1734 2100 1825 2100 
Q 2150 2100 2386 2351 
Q 2622 2603 2622 3003 
Q 2622 3278 2509 3514 
Q 2397 3750 2190 3867 
Q 1984 3984 1722 3984 
Q 1563 3984 1313 3925 
L 1313 2163 
z
" transform="scale(0.015625)"/>
       <path id="TimesNewRomanPSMT-4d" d="M 2619 0 
L 981 3566 
L 981 734 
Q 981 344 1066 247 
Q 1181 116 1431 116 
L 1581 116 
L 1581 0 
L 106 0 
L 106 116 
L 256 116 
Q 525 116 638 278 
Q 706 378 706 734 
L 706 3503 
Q 706 3784 644 3909 
Q 600 4000 483 4061 
Q 366 4122 106 4122 
L 106 4238 
L 1306 4238 
L 2844 922 
L 4356 4238 
L 5556 4238 
L 5556 4122 
L 5409 4122 
Q 5138 4122 5025 3959 
Q 4956 3859 4956 3503 
L 4956 734 
Q 4956 344 5044 247 
Q 5159 116 5409 116 
L 5556 116 
L 5556 0 
L 3756 0 
L 3756 116 
L 3906 116 
Q 4178 116 4288 278 
Q 4356 378 4356 734 
L 4356 3566 
L 2722 0 
L 2619 0 
z
" transform="scale(0.015625)"/>
       <path id="TimesNewRomanPSMT-2e" d="M 800 606 
Q 947 606 1047 504 
Q 1147 403 1147 259 
Q 1147 116 1045 14 
Q 944 -88 800 -88 
Q 656 -88 554 14 
Q 453 116 453 259 
Q 453 406 554 506 
Q 656 606 800 606 
z
" transform="scale(0.015625)"/>
       <path id="TimesNewRomanPSMT-20" transform="scale(0.015625)"/>
       <path id="TimesNewRomanPSMT-76" d="M 53 2863 
L 1400 2863 
L 1400 2747 
L 1313 2747 
Q 1191 2747 1127 2687 
Q 1063 2628 1063 2528 
Q 1063 2419 1128 2269 
L 1794 688 
L 2463 2328 
Q 2534 2503 2534 2594 
Q 2534 2638 2509 2666 
Q 2475 2713 2422 2730 
Q 2369 2747 2206 2747 
L 2206 2863 
L 3141 2863 
L 3141 2747 
Q 2978 2734 2916 2681 
Q 2806 2588 2719 2369 
L 1703 -88 
L 1575 -88 
L 553 2328 
Q 484 2497 421 2570 
Q 359 2644 263 2694 
Q 209 2722 53 2747 
L 53 2863 
z
" transform="scale(0.015625)"/>
       <path id="TimesNewRomanPSMT-61" d="M 1822 413 
Q 1381 72 1269 19 
Q 1100 -59 909 -59 
Q 613 -59 420 144 
Q 228 347 228 678 
Q 228 888 322 1041 
Q 450 1253 767 1440 
Q 1084 1628 1822 1897 
L 1822 2009 
Q 1822 2438 1686 2597 
Q 1550 2756 1291 2756 
Q 1094 2756 978 2650 
Q 859 2544 859 2406 
L 866 2225 
Q 866 2081 792 2003 
Q 719 1925 600 1925 
Q 484 1925 411 2006 
Q 338 2088 338 2228 
Q 338 2497 613 2722 
Q 888 2947 1384 2947 
Q 1766 2947 2009 2819 
Q 2194 2722 2281 2516 
Q 2338 2381 2338 1966 
L 2338 994 
Q 2338 584 2353 492 
Q 2369 400 2405 369 
Q 2441 338 2488 338 
Q 2538 338 2575 359 
Q 2641 400 2828 588 
L 2828 413 
Q 2478 -56 2159 -56 
Q 2006 -56 1915 50 
Q 1825 156 1822 413 
z
M 1822 616 
L 1822 1706 
Q 1350 1519 1213 1441 
Q 966 1303 859 1153 
Q 753 1003 753 825 
Q 753 600 887 451 
Q 1022 303 1197 303 
Q 1434 303 1822 616 
z
" transform="scale(0.015625)"/>
      </defs>
      <use xlink:href="#TimesNewRomanPSMT-50"/>
      <use xlink:href="#TimesNewRomanPSMT-4d" x="55.615234"/>
      <use xlink:href="#TimesNewRomanPSMT-32" x="144.53125"/>
      <use xlink:href="#TimesNewRomanPSMT-2e" x="194.53125"/>
      <use xlink:href="#TimesNewRomanPSMT-35" x="219.53125"/>
      <use xlink:href="#TimesNewRomanPSMT-20" x="269.53125"/>
      <use xlink:href="#TimesNewRomanPSMT-76" x="294.53125"/>
      <use xlink:href="#TimesNewRomanPSMT-61" x="344.53125"/>
      <use xlink:href="#TimesNewRomanPSMT-6c" x="388.916016"/>
      <use xlink:href="#TimesNewRomanPSMT-75" x="416.699219"/>
      <use xlink:href="#TimesNewRomanPSMT-65" x="466.699219"/>
     </g>
    </g>
   </g>
   <g id="line2d_23">
    <path d="M 102.092898 256.89142 
L 103.313771 319.899602 
L 104.534644 253.185057 
L 105.755517 248.243239 
L 106.97639 248.243239 
L 108.197263 234.653239 
L 109.418136 234.653239 
L 110.639009 243.30142 
L 111.859882 245.77233 
L 113.080755 244.536875 
L 114.301628 249.478693 
L 115.522501 245.77233 
L 116.743374 254.420511 
L 117.964247 265.539602 
L 119.18512 281.600511 
L 120.405993 286.54233 
L 121.626866 287.777784 
L 122.847739 284.07142 
L 125.289485 289.013239 
L 126.510358 289.013239 
L 127.731231 277.894148 
L 128.952104 284.07142 
L 131.393849 329.783239 
L 132.614722 285.306875 
L 133.835595 282.835966 
L 135.056468 279.129602 
L 136.277341 274.187784 
L 138.719087 271.716875 
L 139.93996 269.245966 
L 141.160833 256.89142 
L 143.602579 276.658693 
L 144.823452 279.129602 
L 146.044325 282.835966 
L 147.265198 279.129602 
L 148.486071 269.245966 
L 149.706944 268.010511 
L 150.927817 264.304148 
L 152.14869 269.245966 
L 153.369563 268.010511 
L 154.590436 281.600511 
L 155.811309 279.129602 
L 157.032182 264.304148 
L 158.253055 260.597784 
L 159.473928 261.833239 
L 160.694801 266.775057 
L 161.915674 254.420511 
L 163.136547 266.775057 
L 164.35742 259.36233 
L 165.578293 255.655966 
L 166.799166 248.243239 
L 168.020039 245.77233 
L 169.240912 251.949602 
L 170.461785 242.065966 
L 171.682658 230.946875 
L 172.903531 216.12142 
L 174.124404 240.830511 
L 175.345277 279.129602 
L 176.56615 266.775057 
L 177.787023 226.005057 
L 179.007896 207.473239 
L 180.228769 235.888693 
L 181.449642 219.827784 
L 182.670515 234.653239 
L 183.891388 240.830511 
L 185.112261 243.30142 
L 186.333134 305.074148 
L 187.554007 183.999602 
L 188.77488 155.584148 
L 189.995753 141.994148 
L 192.437499 151.877784 
L 193.658372 164.23233 
L 194.879245 214.885966 
L 196.100118 235.888693 
L 197.320991 223.534148 
L 198.541864 232.18233 
L 199.762737 238.359602 
L 200.98361 243.30142 
L 202.204483 235.888693 
L 203.425356 249.478693 
L 204.646229 272.95233 
L 205.867102 256.89142 
L 207.087975 250.714148 
L 208.308848 245.77233 
L 209.529721 233.417784 
L 210.750594 260.597784 
L 211.971467 228.475966 
L 213.19234 228.475966 
L 214.413213 227.240511 
L 215.634086 230.946875 
L 216.854959 227.240511 
L 218.075832 221.063239 
L 219.296705 251.949602 
L 220.517578 250.714148 
L 221.738451 255.655966 
L 222.959324 263.068693 
L 224.180197 239.595057 
L 225.40107 256.89142 
L 226.621943 254.420511 
L 227.842816 243.30142 
L 229.063689 219.827784 
L 230.284562 227.240511 
L 231.505435 228.475966 
L 232.726308 223.534148 
L 233.947181 222.298693 
L 235.168054 223.534148 
L 236.388927 238.359602 
L 237.6098 244.536875 
L 238.830673 244.536875 
L 240.051546 250.714148 
L 242.493292 243.30142 
L 243.714165 229.71142 
L 244.935038 186.470511 
L 246.155911 182.764148 
L 247.376784 211.179602 
L 248.597657 219.827784 
L 249.818529 224.769602 
L 251.039402 222.298693 
L 252.260275 223.534148 
L 253.481148 254.420511 
L 254.702021 245.77233 
L 255.922894 240.830511 
L 257.143767 239.595057 
L 258.36464 229.71142 
L 259.585513 230.946875 
L 260.806386 261.833239 
L 262.027259 259.36233 
L 263.248132 245.77233 
L 264.469005 242.065966 
L 265.689878 242.065966 
L 266.910751 275.423239 
L 268.131624 280.365057 
L 269.352497 290.248693 
L 270.57337 281.600511 
L 271.794243 282.835966 
L 273.015116 282.835966 
L 274.235989 286.54233 
L 275.456862 276.658693 
L 276.677735 282.835966 
L 277.898608 271.716875 
L 279.119481 265.539602 
L 280.340354 268.010511 
L 281.561227 274.187784 
L 282.7821 271.716875 
L 284.002973 276.658693 
L 285.223846 277.894148 
L 286.444719 247.007784 
L 287.665592 256.89142 
L 288.886465 282.835966 
L 290.107338 286.54233 
L 291.328211 292.719602 
L 292.549084 281.600511 
L 293.769957 281.600511 
L 294.99083 279.129602 
L 296.211703 302.603239 
L 297.432576 281.600511 
L 298.653449 282.835966 
L 299.874322 297.66142 
L 301.095195 292.719602 
L 302.316068 289.013239 
L 303.536941 293.955057 
L 304.757814 292.719602 
L 305.978687 290.248693 
L 307.19956 296.425966 
L 308.420433 281.600511 
L 309.641306 279.129602 
L 310.862179 291.484148 
L 312.083052 290.248693 
L 313.303925 286.54233 
L 314.524798 277.894148 
L 315.745671 270.48142 
L 316.966544 266.775057 
L 318.187417 259.36233 
L 319.40829 266.775057 
L 320.629163 281.600511 
L 321.850036 289.013239 
L 323.070909 286.54233 
L 324.291782 295.190511 
L 325.512655 291.484148 
L 326.733528 286.54233 
L 327.954401 289.013239 
L 329.175274 297.66142 
L 330.396147 297.66142 
L 331.61702 286.54233 
L 332.837893 265.539602 
L 334.058766 259.36233 
L 335.279639 261.833239 
L 336.500512 234.653239 
L 337.721385 224.769602 
L 338.942258 248.243239 
L 340.163131 260.597784 
L 341.384004 271.716875 
L 342.604877 259.36233 
L 343.82575 260.597784 
L 345.046623 264.304148 
L 346.267496 271.716875 
L 347.488369 277.894148 
L 348.709242 285.306875 
L 349.930115 293.955057 
L 351.150988 301.367784 
L 352.371861 310.015966 
L 353.592734 317.428693 
L 354.813607 307.545057 
L 356.03448 301.367784 
L 357.255353 313.72233 
L 358.476226 314.957784 
L 359.697099 321.135057 
L 360.917972 312.486875 
L 362.138845 302.603239 
L 363.359718 311.25142 
L 364.580591 327.31233 
L 365.801464 303.838693 
L 367.022337 322.370511 
L 368.24321 274.187784 
L 369.464082 259.36233 
L 370.684955 242.065966 
L 371.905828 240.830511 
L 373.126701 216.12142 
L 374.347574 217.356875 
L 376.78932 212.415057 
L 378.010193 213.650511 
L 379.231066 188.94142 
L 380.451939 160.525966 
L 381.672812 170.409602 
L 382.893685 164.23233 
L 384.114558 177.82233 
L 385.335431 177.82233 
L 386.556304 183.999602 
L 387.777177 182.764148 
L 388.99805 183.999602 
L 390.218923 125.933239 
L 391.439796 75.279602 
L 392.660669 150.64233 
L 393.881542 216.12142 
L 395.102415 306.309602 
L 396.323288 211.179602 
L 397.544161 190.176875 
L 398.765034 180.293239 
L 399.985907 166.703239 
L 401.20678 156.819602 
L 402.427653 143.229602 
L 403.648526 122.226875 
L 404.869399 103.695057 
L 406.090272 129.639602 
L 407.311145 174.115966 
L 408.532018 243.30142 
L 409.752891 281.600511 
L 410.973764 310.015966 
L 412.194637 312.486875 
L 413.41551 313.72233 
L 414.636383 316.193239 
L 415.857256 311.25142 
L 417.078129 316.193239 
L 418.299002 324.84142 
L 419.519875 319.899602 
L 420.740748 328.547784 
L 421.961621 331.018693 
L 423.182494 329.783239 
L 424.403367 313.72233 
L 425.62424 329.783239 
L 426.845113 333.489602 
L 428.065986 324.84142 
L 429.286859 326.076875 
L 430.507732 322.370511 
L 431.728605 323.605966 
L 432.949478 319.899602 
L 434.170351 322.370511 
L 435.391224 318.664148 
L 436.612097 318.664148 
L 437.83297 327.31233 
L 439.053843 329.783239 
L 440.274716 335.960511 
L 441.495589 317.428693 
L 442.716462 328.547784 
L 443.937335 281.600511 
L 445.158208 285.306875 
L 446.379081 295.190511 
L 447.599954 301.367784 
L 448.820827 290.248693 
L 450.0417 302.603239 
L 451.262573 292.719602 
L 452.483446 286.54233 
L 453.704319 277.894148 
L 454.925192 281.600511 
L 456.146065 282.835966 
L 457.366938 277.894148 
L 458.587811 270.48142 
L 459.808684 269.245966 
L 461.029557 230.946875 
L 462.25043 129.639602 
L 463.471303 196.354148 
L 464.692176 235.888693 
L 465.913049 248.243239 
L 467.133922 279.129602 
L 468.354795 306.309602 
L 469.575668 311.25142 
L 470.796541 303.838693 
L 472.017414 302.603239 
L 473.238287 291.484148 
L 474.45916 295.190511 
L 475.680033 296.425966 
L 476.900906 269.245966 
L 478.121779 263.068693 
L 479.342652 261.833239 
L 480.563525 266.775057 
L 481.784398 224.769602 
L 483.005271 190.176875 
L 484.226144 185.235057 
L 485.447017 207.473239 
L 486.66789 213.650511 
L 487.888763 209.944148 
L 489.109636 209.944148 
L 490.330508 205.00233 
L 491.551381 185.235057 
L 492.772254 195.118693 
L 493.993127 217.356875 
L 495.214 219.827784 
L 496.434873 218.59233 
L 497.655746 230.946875 
L 500.097492 250.714148 
L 501.318365 247.007784 
L 502.539238 266.775057 
L 506.201857 259.36233 
L 507.42273 258.126875 
L 512.306222 248.243239 
L 513.527095 247.007784 
L 520.852333 232.18233 
L 522.073206 230.946875 
L 524.514952 226.005057 
L 525.735825 226.005057 
L 526.956698 214.885966 
L 528.177571 216.12142 
L 529.398444 181.528693 
L 530.619317 176.586875 
L 531.84019 185.235057 
L 533.061063 180.293239 
L 534.281936 182.764148 
L 535.502809 174.115966 
L 536.723682 179.057784 
L 537.944555 191.41233 
L 539.165428 170.409602 
L 540.386301 170.409602 
L 541.607174 165.467784 
L 542.828047 166.703239 
L 544.04892 164.23233 
L 545.269793 154.348693 
L 546.490666 149.406875 
L 547.711539 138.287784 
L 548.932412 135.816875 
L 550.153285 127.168693 
L 551.374158 106.165966 
L 552.595031 99.988693 
L 553.815904 123.46233 
L 555.036777 49.335057 
L 556.25765 41.92233 
L 557.478523 95.046875 
L 558.699396 108.636875 
L 559.920269 81.456875 
L 561.141142 133.345966 
L 564.803761 122.226875 
L 566.024634 117.285057 
L 572.128999 98.753239 
L 573.349872 93.81142 
L 580.67511 71.573239 
L 581.895983 66.63142 
L 585.558602 55.51233 
L 586.779475 83.927784 
L 588.000348 80.22142 
L 589.221221 75.279602 
L 590.442094 170.409602 
L 591.662967 106.165966 
L 592.88384 113.578693 
L 594.104713 101.224148 
L 595.325586 151.877784 
L 596.546459 183.999602 
L 597.767332 221.063239 
L 598.988205 183.999602 
L 601.429951 240.830511 
L 602.650824 238.359602 
L 603.871697 324.84142 
L 605.09257 327.31233 
L 606.313443 310.015966 
L 607.534316 312.486875 
L 608.755189 306.309602 
L 609.976061 317.428693 
L 611.196934 317.428693 
L 612.417807 316.193239 
L 613.63868 321.135057 
L 614.859553 321.135057 
L 616.080426 328.547784 
L 617.301299 317.428693 
L 618.522172 319.899602 
L 619.743045 305.074148 
L 620.963918 312.486875 
L 622.184791 314.957784 
L 623.405664 322.370511 
L 624.626537 313.72233 
L 625.84741 316.193239 
L 627.068283 307.545057 
L 628.289156 311.25142 
L 629.510029 316.193239 
L 630.730902 314.957784 
L 631.951775 319.899602 
L 634.393521 322.370511 
L 635.614394 317.428693 
L 636.835267 305.074148 
L 638.05614 310.015966 
L 639.277013 318.664148 
L 640.497886 312.486875 
L 641.718759 312.486875 
L 642.939632 292.719602 
L 644.160505 296.425966 
L 645.381378 301.367784 
L 646.602251 291.484148 
L 647.823124 280.365057 
L 649.043997 290.248693 
L 650.26487 268.010511 
L 651.485743 272.95233 
L 652.706616 270.48142 
L 653.927489 253.185057 
L 656.369235 227.240511 
L 657.590108 214.885966 
L 658.810981 186.470511 
L 660.031854 235.888693 
L 661.252727 183.999602 
L 662.4736 193.883239 
L 663.694473 182.764148 
L 664.915346 177.82233 
L 666.136219 206.237784 
L 667.357092 186.470511 
L 668.577965 143.229602 
L 669.798838 113.578693 
L 671.019711 137.05233 
L 672.240584 164.23233 
L 673.461457 198.825057 
L 674.68233 221.063239 
L 675.903203 245.77233 
L 677.124076 260.597784 
L 678.344949 319.899602 
L 679.565822 258.126875 
L 680.786695 242.065966 
L 682.007568 265.539602 
L 683.228441 265.539602 
L 684.449314 251.949602 
L 685.670187 274.187784 
L 686.89106 234.653239 
L 688.111933 238.359602 
L 689.332806 244.536875 
L 691.774552 264.304148 
L 692.995425 261.833239 
L 694.216298 263.068693 
L 695.437171 261.833239 
L 696.658044 249.478693 
L 697.878917 249.478693 
L 699.09979 233.417784 
L 700.320663 214.885966 
L 702.762409 205.00233 
L 703.983282 202.53142 
L 705.204155 203.766875 
L 706.425028 202.53142 
L 707.645901 207.473239 
L 708.866774 230.946875 
L 710.087647 251.949602 
L 711.30852 243.30142 
L 712.529393 209.944148 
L 713.750266 138.287784 
L 714.971139 222.298693 
L 716.192012 268.010511 
L 717.412885 260.597784 
L 718.633758 317.428693 
L 719.854631 261.833239 
L 721.075504 253.185057 
L 723.51725 312.486875 
L 724.738123 327.31233 
L 725.958996 322.370511 
L 727.179869 316.193239 
L 728.400742 331.018693 
L 729.621614 326.076875 
L 730.842487 327.31233 
L 732.06336 333.489602 
L 734.505106 338.43142 
L 735.725979 326.076875 
L 736.946852 319.899602 
L 738.167725 316.193239 
L 739.388598 318.664148 
L 740.609471 322.370511 
L 741.830344 322.370511 
L 749.155582 300.13233 
L 750.376455 295.190511 
L 756.48082 276.658693 
L 757.701693 287.777784 
L 758.922566 277.894148 
L 760.143439 271.716875 
L 761.364312 269.245966 
L 762.585185 256.89142 
L 765.026931 239.595057 
L 766.247804 266.775057 
L 767.468677 240.830511 
L 768.68955 256.89142 
L 769.910423 256.89142 
L 771.131296 249.478693 
L 772.352169 254.420511 
L 774.793915 228.475966 
L 776.014788 227.240511 
L 777.235661 244.536875 
L 778.456534 228.475966 
L 779.677407 221.063239 
L 780.89828 222.298693 
L 782.119153 209.944148 
L 783.340026 185.235057 
L 784.560899 190.176875 
L 785.781772 197.589602 
L 787.002645 188.94142 
L 789.444391 240.830511 
L 790.665264 238.359602 
L 791.886137 239.595057 
L 793.10701 245.77233 
L 794.327883 242.065966 
L 795.548756 250.714148 
L 796.769629 260.597784 
L 797.990502 287.777784 
L 799.211375 289.013239 
L 800.432248 291.484148 
L 802.873994 291.484148 
L 804.094867 292.719602 
L 805.31574 289.013239 
L 806.536613 281.600511 
L 807.757486 282.835966 
L 808.978359 279.129602 
L 810.199232 280.365057 
L 811.420105 277.894148 
L 812.640978 279.129602 
L 813.861851 279.129602 
L 815.082724 276.658693 
L 816.303597 255.655966 
L 817.52447 256.89142 
L 818.745343 270.48142 
L 819.966216 277.894148 
L 821.187089 271.716875 
L 822.407962 277.894148 
L 823.628835 274.187784 
L 824.849708 271.716875 
L 826.070581 276.658693 
L 827.291454 290.248693 
L 828.512327 292.719602 
L 829.7332 286.54233 
L 830.954073 298.896875 
L 832.174946 289.013239 
L 834.616692 279.129602 
L 835.837565 275.423239 
L 841.94193 250.714148 
L 843.162803 247.007784 
L 845.604549 237.124148 
L 846.825422 219.827784 
L 848.046295 205.00233 
L 849.267168 193.883239 
L 850.48804 192.647784 
L 852.929786 277.894148 
L 854.150659 251.949602 
L 855.371532 244.536875 
L 856.592405 279.129602 
L 857.813278 274.187784 
L 859.034151 250.714148 
L 860.255024 258.126875 
L 861.475897 270.48142 
L 862.69677 269.245966 
L 863.917643 270.48142 
L 865.138516 279.129602 
L 866.359389 279.129602 
L 868.801135 271.716875 
L 870.022008 275.423239 
L 871.242881 274.187784 
L 873.684627 261.833239 
L 874.9055 249.478693 
L 877.347246 201.295966 
L 878.568119 198.825057 
L 879.788992 201.295966 
L 881.009865 213.650511 
L 882.230738 216.12142 
L 883.451611 291.484148 
L 884.672484 251.949602 
L 887.11423 298.896875 
L 888.335103 276.658693 
L 889.555976 279.129602 
L 890.776849 271.716875 
L 891.997722 268.010511 
L 893.218595 276.658693 
L 894.439468 274.187784 
L 895.660341 255.655966 
L 896.881214 260.597784 
L 898.102087 243.30142 
L 899.32296 233.417784 
L 900.543833 233.417784 
L 901.764706 228.475966 
L 902.985579 214.885966 
L 904.206452 203.766875 
L 905.427325 205.00233 
L 906.648198 229.71142 
L 907.869071 243.30142 
L 909.089944 287.777784 
L 910.310817 264.304148 
L 912.752563 276.658693 
L 913.973436 289.013239 
L 915.194309 300.13233 
L 916.415182 301.367784 
L 917.636055 301.367784 
L 918.856928 224.769602 
L 920.077801 290.248693 
L 921.298674 289.013239 
L 922.519547 203.766875 
L 923.74042 259.36233 
L 924.961293 268.010511 
L 926.182166 268.010511 
L 927.403039 261.833239 
L 928.623912 263.068693 
L 929.844785 261.833239 
L 931.065658 264.304148 
L 932.286531 276.658693 
L 933.507404 251.949602 
L 934.728277 238.359602 
L 935.94915 237.124148 
L 937.170023 233.417784 
L 938.390896 230.946875 
L 939.611769 227.240511 
L 940.832642 169.174148 
L 942.053515 212.415057 
L 943.274388 219.827784 
L 944.495261 237.124148 
L 945.716134 274.187784 
L 946.937007 251.949602 
L 948.15788 249.478693 
L 949.378753 272.95233 
L 950.599626 285.306875 
L 951.820499 291.484148 
L 953.041372 291.484148 
L 954.262245 296.425966 
L 955.483118 282.835966 
L 956.703991 276.658693 
L 957.924864 284.07142 
L 959.145737 280.365057 
L 960.36661 268.010511 
L 961.587483 234.653239 
L 962.808356 216.12142 
L 964.029229 250.714148 
L 965.250102 270.48142 
L 966.470975 269.245966 
L 967.691848 279.129602 
L 968.912721 264.304148 
L 970.133593 254.420511 
L 971.354466 286.54233 
L 972.575339 259.36233 
L 973.796212 292.719602 
L 975.017085 264.304148 
L 976.237958 291.484148 
L 977.458831 276.658693 
L 978.679704 264.304148 
L 979.900577 256.89142 
L 981.12145 254.420511 
L 982.342323 247.007784 
L 983.563196 256.89142 
L 984.784069 251.949602 
L 986.004942 250.714148 
L 987.225815 237.124148 
L 988.446688 237.124148 
L 989.667561 229.71142 
L 990.888434 217.356875 
L 992.109307 203.766875 
L 993.33018 206.237784 
L 994.551053 221.063239 
L 995.771926 239.595057 
L 996.992799 255.655966 
L 998.213672 303.838693 
L 999.434545 244.536875 
L 1000.655418 214.885966 
L 1001.876291 233.417784 
L 1003.097164 242.065966 
L 1004.318037 261.833239 
L 1005.53891 260.597784 
L 1006.759783 255.655966 
L 1007.980656 274.187784 
L 1009.201529 284.07142 
L 1010.422402 282.835966 
L 1011.643275 286.54233 
L 1012.864148 277.894148 
L 1014.085021 281.600511 
L 1015.305894 279.129602 
L 1016.526767 277.894148 
L 1017.74764 272.95233 
L 1018.968513 272.95233 
L 1020.189386 271.716875 
L 1021.410259 263.068693 
L 1022.631132 259.36233 
L 1023.852005 254.420511 
L 1025.072878 254.420511 
L 1026.293751 260.597784 
L 1027.514624 233.417784 
L 1028.735497 223.534148 
L 1029.95637 240.830511 
L 1031.177243 245.77233 
L 1032.398116 279.129602 
L 1033.618989 263.068693 
L 1034.839862 282.835966 
L 1036.060735 287.777784 
L 1037.281608 289.013239 
L 1038.502481 291.484148 
L 1039.723354 282.835966 
L 1040.944227 279.129602 
L 1042.1651 269.245966 
L 1043.385973 266.775057 
L 1044.606846 268.010511 
L 1045.827719 264.304148 
L 1047.048592 261.833239 
L 1048.269465 255.655966 
L 1049.490338 248.243239 
L 1050.711211 250.714148 
L 1051.932084 239.595057 
L 1053.152957 224.769602 
L 1054.37383 217.356875 
L 1055.594703 217.356875 
L 1056.815576 177.82233 
L 1058.036449 190.176875 
L 1060.478195 237.124148 
L 1061.699068 242.065966 
L 1062.919941 228.475966 
L 1064.140814 247.007784 
L 1065.361687 249.478693 
L 1066.58256 264.304148 
L 1067.803433 286.54233 
L 1069.024306 300.13233 
L 1070.245179 293.955057 
L 1071.466052 295.190511 
L 1072.686925 290.248693 
L 1073.907798 274.187784 
L 1075.128671 276.658693 
L 1076.349544 282.835966 
L 1077.570417 282.835966 
L 1078.79129 285.306875 
L 1080.012163 279.129602 
L 1081.233036 284.07142 
L 1082.453909 281.600511 
L 1083.674782 284.07142 
L 1084.895655 279.129602 
L 1086.116528 271.716875 
L 1087.337401 269.245966 
L 1088.558274 270.48142 
L 1089.779146 277.894148 
L 1091.000019 271.716875 
L 1092.220892 258.126875 
L 1093.441765 269.245966 
L 1094.662638 255.655966 
L 1095.883511 261.833239 
L 1097.104384 271.716875 
L 1098.325257 270.48142 
L 1099.54613 275.423239 
L 1100.767003 266.775057 
L 1101.987876 276.658693 
L 1103.208749 251.949602 
L 1104.429622 239.595057 
L 1105.650495 240.830511 
L 1106.871368 237.124148 
L 1108.092241 243.30142 
L 1109.313114 244.536875 
L 1110.533987 251.949602 
L 1111.75486 243.30142 
L 1112.975733 249.478693 
L 1114.196606 233.417784 
L 1116.638352 207.473239 
L 1116.638352 207.473239 
" clip-path="url(#pfebfbd347b)" style="fill: none; stroke: #e24a33; stroke-width: 1.5; stroke-linecap: square"/>
   </g>
   <g id="line2d_24">
    <path d="M 102.092898 270.527324 
L 103.313771 270.692859 
L 104.534644 275.089614 
L 105.755517 246.644449 
L 106.97639 233.952989 
L 108.197263 231.503834 
L 109.418136 223.696667 
L 110.639009 224.0881 
L 111.859882 230.659596 
L 113.080755 236.58275 
L 114.301628 243.310526 
L 115.522501 252.41729 
L 117.964247 266.652305 
L 119.18512 278.497812 
L 120.405993 291.948461 
L 121.626866 296.027793 
L 122.847739 297.578544 
L 124.068612 293.546808 
L 126.510358 283.820615 
L 127.731231 282.090444 
L 128.952104 274.310437 
L 130.172976 285.784352 
L 131.393849 306.30118 
L 132.614722 314.347998 
L 133.835595 290.417466 
L 135.056468 275.891643 
L 136.277341 264.722487 
L 137.498214 255.387331 
L 138.719087 257.030224 
L 139.93996 249.890863 
L 141.160833 250.306841 
L 142.381706 246.703237 
L 143.602579 264.411696 
L 144.823452 279.905569 
L 146.044325 289.098 
L 147.265198 289.773163 
L 148.486071 286.773044 
L 149.706944 283.437896 
L 150.927817 273.219277 
L 152.14869 268.375298 
L 153.369563 270.295789 
L 154.590436 273.865781 
L 155.811309 278.036128 
L 157.032182 273.135774 
L 158.253055 260.246948 
L 159.473928 255.377519 
L 160.694801 251.962195 
L 161.915674 254.180908 
L 163.136547 250.704232 
L 164.35742 252.480537 
L 165.578293 247.730392 
L 166.799166 249.365132 
L 168.020039 245.194266 
L 169.240912 240.498064 
L 170.461785 243.355336 
L 171.682658 229.648089 
L 172.903531 218.841698 
L 174.124404 200.456573 
L 175.345277 224.15688 
L 176.56615 285.039471 
L 177.787023 283.062118 
L 179.007896 232.824677 
L 180.228769 190.349696 
L 181.449642 215.726443 
L 182.670515 208.250111 
L 185.112261 238.745192 
L 186.333134 250.46116 
L 187.554007 258.671977 
L 188.77488 184.607489 
L 189.995753 156.66911 
L 191.216626 145.411668 
L 192.437499 161.900733 
L 193.658372 169.626849 
L 194.879245 172.989926 
L 196.100118 212.302589 
L 197.320991 229.729235 
L 198.541864 223.635955 
L 199.762737 225.186372 
L 200.98361 221.984985 
L 202.204483 220.582854 
L 203.425356 222.231563 
L 205.867102 264.807352 
L 207.087975 262.91067 
L 208.308848 248.867639 
L 209.529721 243.037046 
L 210.750594 230.664488 
L 211.971467 253.54974 
L 213.19234 221.370538 
L 214.413213 215.946111 
L 215.634086 223.768444 
L 216.854959 226.191329 
L 218.075832 223.605642 
L 219.296705 216.412347 
L 220.517578 240.252674 
L 221.738451 249.525831 
L 222.959324 250.92356 
L 224.180197 255.921735 
L 225.40107 239.023582 
L 226.621943 242.055579 
L 227.842816 229.015101 
L 229.063689 221.017646 
L 230.284562 211.176313 
L 231.505435 222.272235 
L 232.726308 226.70903 
L 233.947181 223.571285 
L 235.168054 214.125683 
L 236.388927 220.480104 
L 237.6098 237.508106 
L 238.830673 243.366684 
L 240.051546 246.663065 
L 241.272419 246.481892 
L 242.493292 231.656711 
L 243.714165 228.814803 
L 244.935038 224.521959 
L 246.155911 191.154478 
L 247.376784 186.486083 
L 248.597657 203.868881 
L 251.039402 220.962534 
L 252.260275 217.173176 
L 253.481148 219.392766 
L 254.702021 237.684001 
L 255.922894 238.730092 
L 257.143767 231.562218 
L 258.36464 226.177944 
L 259.585513 213.544641 
L 260.806386 220.936801 
L 262.027259 255.516021 
L 263.248132 277.083305 
L 264.469005 262.90246 
L 265.689878 245.255317 
L 266.910751 243.667131 
L 268.131624 269.923943 
L 269.352497 292.410828 
L 270.57337 296.215437 
L 271.794243 296.366084 
L 273.015116 288.793562 
L 274.235989 288.252603 
L 275.456862 289.624943 
L 276.677735 288.253644 
L 277.898608 285.300899 
L 279.119481 276.580063 
L 280.340354 270.749141 
L 281.561227 266.049918 
L 282.7821 268.029655 
L 284.002973 263.258396 
L 285.223846 270.566243 
L 286.444719 265.939627 
L 287.665592 254.342824 
L 288.886465 257.810358 
L 290.107338 278.342598 
L 291.328211 291.574258 
L 292.549084 298.932052 
L 293.769957 297.388728 
L 294.99083 290.188599 
L 296.211703 297.461132 
L 297.432576 304.004738 
L 298.653449 299.739167 
L 299.874322 296.834271 
L 301.095195 298.926722 
L 302.316068 298.336089 
L 303.536941 299.152445 
L 304.757814 301.767159 
L 305.978687 303.359558 
L 307.19956 302.649764 
L 308.420433 302.919582 
L 309.641306 295.870812 
L 310.862179 294.845872 
L 312.083052 297.312478 
L 313.303925 294.457681 
L 314.524798 292.551456 
L 316.966544 263.842238 
L 318.187417 256.130327 
L 319.40829 255.291302 
L 320.629163 268.311957 
L 321.850036 284.367946 
L 323.070909 290.495498 
L 324.291782 291.965545 
L 326.733528 300.54885 
L 327.954401 300.279541 
L 329.175274 298.590622 
L 330.396147 301.761074 
L 331.61702 297.638916 
L 332.837893 287.166617 
L 334.058766 267.740383 
L 335.279639 254.77262 
L 336.500512 248.533458 
L 337.721385 236.56962 
L 338.942258 227.649656 
L 340.163131 239.900895 
L 341.384004 256.516708 
L 342.604877 265.554834 
L 343.82575 265.38189 
L 345.046623 260.464032 
L 346.267496 262.511951 
L 347.488369 266.888279 
L 348.709242 285.04761 
L 349.930115 294.265447 
L 351.150988 302.115832 
L 352.371861 306.272832 
L 353.592734 312.690014 
L 354.813607 320.276129 
L 356.03448 315.476381 
L 358.476226 313.016339 
L 359.697099 318.15591 
L 360.917972 316.735103 
L 362.138845 314.247548 
L 363.359718 310.187232 
L 364.580591 314.428504 
L 365.801464 319.944516 
L 367.022337 309.181149 
L 368.24321 302.694834 
L 369.464082 269.409253 
L 370.684955 252.09047 
L 371.905828 232.261214 
L 373.126701 226.320848 
L 374.347574 213.493026 
L 375.568447 212.095523 
L 376.78932 206.180739 
L 378.010193 206.211797 
L 379.231066 211.681496 
L 380.451939 192.80609 
L 381.672812 167.160577 
L 382.893685 162.016783 
L 384.114558 160.327761 
L 385.335431 171.464176 
L 386.556304 174.280219 
L 387.777177 178.185712 
L 390.218923 184.848449 
L 391.439796 136.903195 
L 392.660669 101.371604 
L 393.881542 162.017198 
L 396.323288 261.383252 
L 397.544161 200.22829 
L 398.765034 181.857539 
L 399.985907 167.796779 
L 401.20678 156.799997 
L 402.427653 151.757549 
L 403.648526 144.068307 
L 404.869399 126.722854 
L 406.090272 115.771033 
L 407.311145 133.436076 
L 408.532018 174.295018 
L 409.752891 266.765179 
L 410.973764 302.27329 
L 412.194637 319.624214 
L 413.41551 317.494853 
L 414.636383 313.419536 
L 415.857256 314.537088 
L 417.078129 306.327987 
L 418.299002 312.336459 
L 419.519875 314.975547 
L 420.740748 315.375628 
L 421.961621 319.267237 
L 423.182494 320.598938 
L 424.403367 322.857258 
L 425.62424 321.311898 
L 426.845113 323.131133 
L 428.065986 326.046637 
L 429.286859 324.672115 
L 431.728605 324.78758 
L 432.949478 322.35313 
L 434.170351 320.449822 
L 435.391224 320.766806 
L 436.612097 321.211226 
L 437.83297 320.997832 
L 439.053843 321.914945 
L 440.274716 322.608606 
L 441.495589 325.869913 
L 442.716462 324.314558 
L 443.937335 321.076989 
L 445.158208 306.018124 
L 446.379081 299.64317 
L 447.599954 297.982014 
L 448.820827 296.546309 
L 450.0417 298.682585 
L 451.262573 301.547444 
L 452.483446 299.683503 
L 453.704319 296.309591 
L 454.925192 286.939183 
L 456.146065 284.412393 
L 457.366938 282.557453 
L 459.808684 264.60885 
L 461.029557 262.85454 
L 462.25043 235.73166 
L 463.471303 181.289354 
L 464.692176 202.611653 
L 465.913049 231.258821 
L 467.133922 251.867966 
L 468.354795 287.773128 
L 469.575668 302.659883 
L 470.796541 310.56235 
L 472.017414 310.754041 
L 473.238287 305.539522 
L 474.45916 301.121145 
L 475.680033 293.132673 
L 476.900906 289.644506 
L 478.121779 280.046852 
L 479.342652 275.562787 
L 480.563525 273.321914 
L 481.784398 263.663629 
L 483.005271 220.059168 
L 484.226144 194.913475 
L 485.447017 192.182019 
L 486.66789 203.362585 
L 487.888763 209.800499 
L 489.109636 205.188903 
L 491.551381 197.93862 
L 492.772254 185.851031 
L 493.993127 190.819458 
L 495.214 211.144689 
L 496.434873 222.065358 
L 497.655746 228.430025 
L 498.876619 238.353127 
L 500.097492 268.012255 
L 501.318365 257.873916 
L 502.539238 270.578119 
L 503.760111 280.451124 
L 504.980984 272.524268 
L 507.42273 263.47681 
L 508.643603 263.391686 
L 509.864476 262.885899 
L 511.085349 259.83884 
L 512.306222 258.672005 
L 513.527095 258.928254 
L 517.189714 254.717894 
L 518.410587 247.998093 
L 519.63146 246.754683 
L 520.852333 238.89624 
L 522.073206 238.965679 
L 523.294079 236.170571 
L 524.514952 235.338077 
L 526.956698 244.109775 
L 528.177571 230.398578 
L 529.398444 200.362296 
L 530.619317 193.002645 
L 531.84019 188.339981 
L 533.061063 195.253171 
L 534.281936 171.529195 
L 535.502809 170.569614 
L 536.723682 166.635053 
L 537.944555 169.950756 
L 539.165428 180.994761 
L 540.386301 161.899715 
L 541.607174 153.525597 
L 542.828047 151.449044 
L 544.04892 157.334249 
L 545.269793 155.273757 
L 546.490666 146.668104 
L 547.711539 150.173718 
L 548.932412 134.18863 
L 550.153285 130.517519 
L 551.374158 122.416295 
L 552.595031 102.106287 
L 553.815904 100.608456 
L 555.036777 115.184618 
L 556.25765 101.401805 
L 557.478523 97.055394 
L 558.699396 87.609188 
L 559.920269 99.788169 
L 561.141142 151.923461 
L 562.362015 182.04417 
L 563.582888 162.681753 
L 564.803761 146.12075 
L 566.024634 140.642643 
L 567.245507 137.091993 
L 568.46638 133.083213 
L 570.908126 115.717702 
L 572.128999 109.669657 
L 573.349872 108.145378 
L 574.570745 101.858314 
L 575.791618 99.53948 
L 577.012491 96.188977 
L 578.233364 94.170637 
L 579.454237 86.797328 
L 580.67511 83.807134 
L 581.895983 74.562 
L 583.116856 77.963911 
L 584.337729 78.744817 
L 585.558602 78.701722 
L 586.779475 78.324918 
L 588.000348 91.4579 
L 589.221221 90.553346 
L 590.442094 70.003546 
L 591.662967 140.392408 
L 592.88384 120.081721 
L 594.104713 131.245999 
L 595.325586 120.070504 
L 596.546459 143.494429 
L 598.988205 207.256616 
L 600.209078 200.398897 
L 601.429951 223.746586 
L 602.650824 231.57875 
L 603.871697 258.717993 
L 605.09257 310.182882 
L 606.313443 322.56045 
L 607.534316 321.810526 
L 608.755189 316.330082 
L 609.976061 312.893225 
L 611.196934 314.053513 
L 612.417807 317.583285 
L 613.63868 317.917259 
L 614.859553 323.519447 
L 616.080426 323.846747 
L 617.301299 323.325191 
L 618.522172 321.836626 
L 619.743045 318.845584 
L 620.963918 317.194976 
L 622.184791 314.911282 
L 623.405664 317.760113 
L 624.626537 318.489479 
L 625.84741 315.339137 
L 627.068283 317.806068 
L 628.289156 315.448688 
L 629.510029 314.579707 
L 630.730902 318.427994 
L 631.951775 318.307425 
L 633.172648 318.99963 
L 634.393521 320.661393 
L 635.614394 317.946413 
L 636.835267 315.831468 
L 638.05614 311.323989 
L 639.277013 311.42452 
L 640.497886 312.394366 
L 641.718759 311.312353 
L 642.939632 311.67821 
L 644.160505 305.726764 
L 645.381378 302.56645 
L 646.602251 302.98864 
L 647.823124 294.525688 
L 649.043997 273.664456 
L 650.26487 290.517549 
L 651.485743 278.935714 
L 652.706616 275.511379 
L 653.927489 264.124436 
L 656.369235 228.626646 
L 657.590108 216.209344 
L 658.810981 207.107066 
L 660.031854 191.637587 
L 661.252727 218.663079 
L 662.4736 188.341744 
L 663.694473 189.09622 
L 664.915346 174.853777 
L 666.136219 166.545564 
L 667.357092 183.545318 
L 668.577965 164.917545 
L 669.798838 129.390083 
L 671.019711 107.977448 
L 672.240584 120.448402 
L 673.461457 152.181897 
L 674.68233 189.571269 
L 675.903203 213.887306 
L 677.124076 251.622915 
L 678.344949 275.527921 
L 679.565822 292.863557 
L 680.786695 278.999489 
L 682.007568 258.049951 
L 683.228441 258.020929 
L 684.449314 259.825474 
L 685.670187 246.308222 
L 686.89106 244.121406 
L 688.111933 221.632989 
L 689.332806 224.186581 
L 690.553679 239.724737 
L 691.774552 259.785584 
L 692.995425 255.144175 
L 694.216298 243.100802 
L 695.437171 245.724164 
L 696.658044 244.169977 
L 697.878917 233.118356 
L 699.09979 226.868825 
L 700.320663 223.605152 
L 701.541536 211.054598 
L 702.762409 219.627364 
L 703.983282 218.249599 
L 705.204155 211.027386 
L 706.425028 209.340861 
L 707.645901 206.716821 
L 708.866774 218.635245 
L 710.087647 243.40583 
L 711.30852 252.40596 
L 712.529393 235.963336 
L 713.750266 206.273461 
L 714.971139 144.489036 
L 717.412885 277.46872 
L 718.633758 276.243365 
L 719.854631 285.974729 
L 721.075504 263.605924 
L 722.296377 260.817291 
L 723.51725 279.898429 
L 724.738123 304.546606 
L 725.958996 317.135886 
L 727.179869 320.689081 
L 728.400742 318.524891 
L 729.621614 323.265149 
L 732.06336 329.352113 
L 733.284233 330.86165 
L 734.505106 330.978257 
L 735.725979 331.714475 
L 738.167725 327.853567 
L 739.388598 324.347991 
L 740.609471 323.663633 
L 741.830344 322.163258 
L 743.051217 319.256359 
L 744.27209 316.645365 
L 745.492963 313.154097 
L 746.713836 310.229568 
L 747.934709 309.34233 
L 749.155582 306.131488 
L 751.597328 298.120097 
L 752.818201 291.570968 
L 754.039074 291.23181 
L 755.259947 285.547661 
L 756.48082 278.654369 
L 757.701693 272.453815 
L 758.922566 283.161523 
L 760.143439 279.985222 
L 762.585185 269.636758 
L 763.806058 256.455959 
L 765.026931 252.353091 
L 766.247804 245.560203 
L 767.468677 265.581839 
L 768.68955 252.485467 
L 769.910423 255.946968 
L 771.131296 247.722455 
L 772.352169 244.9575 
L 773.573042 243.719793 
L 774.793915 238.66117 
L 776.014788 224.81116 
L 777.235661 216.360562 
L 778.456534 224.171339 
L 779.677407 215.204595 
L 780.89828 210.535191 
L 782.119153 207.639962 
L 783.340026 200.206912 
L 784.560899 180.302023 
L 785.781772 185.612144 
L 787.002645 186.29654 
L 788.223518 187.429103 
L 789.444391 215.189693 
L 790.665264 249.935815 
L 791.886137 245.921417 
L 793.10701 248.422206 
L 794.327883 252.926159 
L 795.548756 253.327763 
L 796.769629 262.634297 
L 799.211375 292.824803 
L 800.432248 292.744816 
L 801.653121 295.341385 
L 802.873994 295.868351 
L 805.31574 297.523979 
L 806.536613 295.965489 
L 807.757486 287.629159 
L 808.978359 288.483426 
L 810.199232 284.239336 
L 811.420105 282.301346 
L 812.640978 283.242716 
L 813.861851 281.582225 
L 815.082724 278.717866 
L 816.303597 276.170763 
L 817.52447 257.755877 
L 818.745343 255.118763 
L 819.966216 274.905641 
L 821.187089 284.679095 
L 822.407962 283.747966 
L 823.628835 290.1858 
L 824.849708 288.298662 
L 826.070581 289.759109 
L 827.291454 290.176487 
L 828.512327 296.641769 
L 830.954073 297.851222 
L 832.174946 298.697152 
L 833.395819 293.87294 
L 834.616692 284.136487 
L 835.837565 278.478517 
L 837.058438 272.110801 
L 838.279311 260.605551 
L 839.500184 256.190247 
L 840.721057 245.509153 
L 841.94193 237.488897 
L 843.162803 231.137634 
L 844.383676 226.261994 
L 845.604549 220.855457 
L 846.825422 223.827911 
L 848.046295 218.180112 
L 849.267168 211.78911 
L 850.48804 200.743465 
L 851.708913 216.102107 
L 854.150659 282.162122 
L 855.371532 261.618821 
L 856.592405 252.051919 
L 857.813278 278.344766 
L 859.034151 275.262496 
L 860.255024 262.940342 
L 861.475897 260.929863 
L 862.69677 267.840664 
L 863.917643 267.79443 
L 865.138516 266.221514 
L 866.359389 275.806877 
L 867.580262 277.068441 
L 868.801135 277.50943 
L 870.022008 271.475335 
L 871.242881 271.562264 
L 872.463754 263.519179 
L 873.684627 258.656132 
L 876.126373 243.091989 
L 877.347246 218.511438 
L 878.568119 203.070084 
L 879.788992 205.573192 
L 881.009865 210.360164 
L 883.451611 248.538793 
L 884.672484 297.176455 
L 885.893357 291.151889 
L 887.11423 302.274397 
L 888.335103 300.549184 
L 889.555976 290.783002 
L 890.776849 282.287504 
L 891.997722 275.54222 
L 893.218595 275.19128 
L 894.439468 278.59141 
L 895.660341 280.682045 
L 896.881214 272.2726 
L 898.102087 262.050861 
L 899.32296 242.643841 
L 900.543833 233.007188 
L 901.764706 231.23159 
L 902.985579 227.479115 
L 904.206452 208.700304 
L 905.427325 195.3057 
L 906.648198 202.354009 
L 907.869071 242.286086 
L 909.089944 263.352315 
L 910.310817 292.421305 
L 911.53169 296.00379 
L 912.752563 297.544588 
L 913.973436 301.310376 
L 915.194309 302.957139 
L 916.415182 306.806661 
L 917.636055 309.185593 
L 918.856928 305.997147 
L 920.077801 268.90578 
L 921.298674 289.793603 
L 922.519547 289.76567 
L 923.74042 234.735884 
L 924.961293 253.545253 
L 926.182166 257.913023 
L 927.403039 258.40584 
L 928.623912 249.436975 
L 929.844785 251.03305 
L 931.065658 246.338979 
L 932.286531 253.616889 
L 933.507404 263.699852 
L 934.728277 253.436452 
L 935.94915 234.774727 
L 937.170023 229.477124 
L 938.390896 231.122477 
L 940.832642 239.002346 
L 942.053515 205.776176 
L 943.274388 235.203675 
L 944.495261 236.200667 
L 945.716134 238.045357 
L 946.937007 251.545623 
L 948.15788 242.493858 
L 949.378753 245.519766 
L 950.599626 271.149387 
L 953.041372 289.904096 
L 954.262245 294.644161 
L 955.483118 294.052156 
L 956.703991 289.233321 
L 957.924864 278.899265 
L 959.145737 280.131062 
L 960.36661 273.436201 
L 961.587483 262.353145 
L 962.808356 237.266373 
L 964.029229 231.098168 
L 965.250102 263.815572 
L 966.470975 279.521309 
L 967.691848 277.857802 
L 968.912721 286.252134 
L 970.133593 283.138019 
L 971.354466 271.916437 
L 972.575339 285.902848 
L 973.796212 276.939647 
L 975.017085 293.596505 
L 976.237958 283.171646 
L 977.458831 293.251239 
L 978.679704 283.58227 
L 979.900577 271.349572 
L 981.12145 251.366854 
L 982.342323 245.222854 
L 983.563196 240.404353 
L 984.784069 244.781728 
L 986.004942 242.046483 
L 987.225815 228.434106 
L 988.446688 217.090682 
L 989.667561 213.241537 
L 990.888434 203.114084 
L 992.109307 191.69449 
L 993.33018 195.219794 
L 994.551053 207.398973 
L 995.771926 222.930361 
L 996.992799 241.494557 
L 998.213672 262.228329 
L 999.434545 274.142145 
L 1000.655418 241.944656 
L 1001.876291 223.794233 
L 1003.097164 244.876919 
L 1004.318037 252.353299 
L 1005.53891 254.862938 
L 1006.759783 248.584159 
L 1007.980656 251.06933 
L 1009.201529 271.471824 
L 1010.422402 279.217168 
L 1011.643275 281.061489 
L 1012.864148 282.228951 
L 1014.085021 280.609076 
L 1015.305894 284.0839 
L 1016.526767 280.353265 
L 1017.74764 277.823511 
L 1018.968513 264.953263 
L 1020.189386 259.611641 
L 1021.410259 259.350792 
L 1022.631132 255.78344 
L 1023.852005 251.230623 
L 1025.072878 251.43241 
L 1026.293751 255.91393 
L 1027.514624 266.340387 
L 1029.95637 236.841337 
L 1031.177243 245.37427 
L 1032.398116 257.579436 
L 1033.618989 282.026476 
L 1034.839862 276.33604 
L 1036.060735 283.995336 
L 1037.281608 285.605757 
L 1038.502481 283.175873 
L 1039.723354 277.661034 
L 1040.944227 273.802345 
L 1042.1651 268.097139 
L 1043.385973 256.297899 
L 1044.606846 251.864101 
L 1045.827719 248.905738 
L 1047.048592 246.61817 
L 1048.269465 240.077496 
L 1050.711211 225.87287 
L 1051.932084 235.634367 
L 1053.152957 234.237949 
L 1054.37383 228.333995 
L 1055.594703 216.083491 
L 1056.815576 219.98954 
L 1058.036449 200.763165 
L 1059.257322 198.881291 
L 1060.478195 228.87281 
L 1061.699068 243.06062 
L 1062.919941 242.131654 
L 1064.140814 223.194292 
L 1066.58256 258.978852 
L 1069.024306 286.172123 
L 1070.245179 291.986287 
L 1071.466052 294.78829 
L 1072.686925 288.986729 
L 1073.907798 281.782146 
L 1075.128671 271.907228 
L 1076.349544 274.758736 
L 1077.570417 273.145096 
L 1078.79129 279.288912 
L 1080.012163 283.933719 
L 1081.233036 286.687534 
L 1082.453909 290.852913 
L 1083.674782 290.952087 
L 1084.895655 291.861065 
L 1086.116528 290.227396 
L 1087.337401 288.830426 
L 1088.558274 284.425575 
L 1089.779146 284.338316 
L 1092.220892 266.999579 
L 1093.441765 253.921445 
L 1094.662638 261.942926 
L 1095.883511 255.734398 
L 1097.104384 265.544711 
L 1098.325257 268.435166 
L 1099.54613 267.798922 
L 1100.767003 268.267335 
L 1101.987876 265.58379 
L 1103.208749 265.723442 
L 1104.429622 248.918708 
L 1105.650495 234.818642 
L 1106.871368 228.723119 
L 1108.092241 223.512959 
L 1109.313114 223.581965 
L 1111.75486 236.99345 
L 1112.975733 237.191636 
L 1114.196606 242.617986 
L 1115.417479 240.73106 
L 1116.638352 236.157997 
L 1116.638352 236.157997 
" clip-path="url(#pfebfbd347b)" style="fill: none; stroke-dasharray: 5.55,2.4; stroke-dashoffset: 0; stroke: #348abd; stroke-width: 1.5"/>
   </g>
   <g id="patch_3">
    <path d="M 51.365625 353.256875 
L 51.365625 27.096875 
" style="fill: none; stroke: #ffffff; stroke-linejoin: miter; stroke-linecap: square"/>
   </g>
   <g id="patch_4">
    <path d="M 1167.365625 353.256875 
L 1167.365625 27.096875 
" style="fill: none; stroke: #ffffff; stroke-linejoin: miter; stroke-linecap: square"/>
   </g>
   <g id="patch_5">
    <path d="M 51.365625 353.256875 
L 1167.365625 353.256875 
" style="fill: none; stroke: #ffffff; stroke-linejoin: miter; stroke-linecap: square"/>
   </g>
   <g id="patch_6">
    <path d="M 51.365625 27.096875 
L 1167.365625 27.096875 
" style="fill: none; stroke: #ffffff; stroke-linejoin: miter; stroke-linecap: square"/>
   </g>
   <g id="text_14">
    <!-- Tianjin test set -->
    <g transform="translate(550.8375 21.096875)scale(0.2 -0.2)">
     <defs>
      <path id="TimesNewRomanPSMT-6e" d="M 1034 2341 
Q 1538 2947 1994 2947 
Q 2228 2947 2397 2830 
Q 2566 2713 2666 2444 
Q 2734 2256 2734 1869 
L 2734 647 
Q 2734 375 2778 278 
Q 2813 200 2889 156 
Q 2966 113 3172 113 
L 3172 0 
L 1756 0 
L 1756 113 
L 1816 113 
Q 2016 113 2095 173 
Q 2175 234 2206 353 
Q 2219 400 2219 647 
L 2219 1819 
Q 2219 2209 2117 2386 
Q 2016 2563 1775 2563 
Q 1403 2563 1034 2156 
L 1034 647 
Q 1034 356 1069 288 
Q 1113 197 1189 155 
Q 1266 113 1500 113 
L 1500 0 
L 84 0 
L 84 113 
L 147 113 
Q 366 113 442 223 
Q 519 334 519 647 
L 519 1709 
Q 519 2225 495 2337 
Q 472 2450 423 2490 
Q 375 2531 294 2531 
Q 206 2531 84 2484 
L 38 2597 
L 900 2947 
L 1034 2947 
L 1034 2341 
z
" transform="scale(0.015625)"/>
      <path id="TimesNewRomanPSMT-6a" d="M 925 4447 
Q 1059 4447 1153 4353 
Q 1247 4259 1247 4125 
Q 1247 3994 1153 3900 
Q 1059 3806 925 3806 
Q 794 3806 700 3900 
Q 606 3994 606 4125 
Q 606 4259 700 4353 
Q 794 4447 925 4447 
z
M 1194 2947 
L 1194 66 
Q 1194 -669 881 -1025 
Q 569 -1381 69 -1381 
Q -216 -1381 -353 -1278 
Q -491 -1175 -491 -1066 
Q -491 -956 -414 -878 
Q -338 -800 -234 -800 
Q -153 -800 -69 -841 
Q -16 -863 136 -998 
Q 288 -1134 391 -1134 
Q 466 -1134 537 -1076 
Q 609 -1019 643 -883 
Q 678 -747 678 -294 
L 678 1744 
Q 678 2216 650 2350 
Q 628 2453 581 2492 
Q 534 2531 453 2531 
Q 366 2531 241 2484 
L 197 2597 
L 1059 2947 
L 1194 2947 
z
" transform="scale(0.015625)"/>
      <path id="TimesNewRomanPSMT-74" d="M 1031 3803 
L 1031 2863 
L 1700 2863 
L 1700 2644 
L 1031 2644 
L 1031 788 
Q 1031 509 1111 412 
Q 1191 316 1316 316 
Q 1419 316 1516 380 
Q 1613 444 1666 569 
L 1788 569 
Q 1678 263 1478 108 
Q 1278 -47 1066 -47 
Q 922 -47 784 33 
Q 647 113 581 261 
Q 516 409 516 719 
L 516 2644 
L 63 2644 
L 63 2747 
Q 234 2816 414 2980 
Q 594 3144 734 3369 
Q 806 3488 934 3803 
L 1031 3803 
z
" transform="scale(0.015625)"/>
      <path id="TimesNewRomanPSMT-73" d="M 2050 2947 
L 2050 1972 
L 1947 1972 
Q 1828 2431 1642 2597 
Q 1456 2763 1169 2763 
Q 950 2763 815 2647 
Q 681 2531 681 2391 
Q 681 2216 781 2091 
Q 878 1963 1175 1819 
L 1631 1597 
Q 2266 1288 2266 781 
Q 2266 391 1970 151 
Q 1675 -88 1309 -88 
Q 1047 -88 709 6 
Q 606 38 541 38 
Q 469 38 428 -44 
L 325 -44 
L 325 978 
L 428 978 
Q 516 541 762 319 
Q 1009 97 1316 97 
Q 1531 97 1667 223 
Q 1803 350 1803 528 
Q 1803 744 1651 891 
Q 1500 1038 1047 1263 
Q 594 1488 453 1669 
Q 313 1847 313 2119 
Q 313 2472 555 2709 
Q 797 2947 1181 2947 
Q 1350 2947 1591 2875 
Q 1750 2828 1803 2828 
Q 1853 2828 1881 2850 
Q 1909 2872 1947 2947 
L 2050 2947 
z
" transform="scale(0.015625)"/>
     </defs>
     <use xlink:href="#TimesNewRomanPSMT-54"/>
     <use xlink:href="#TimesNewRomanPSMT-69" x="57.583984"/>
     <use xlink:href="#TimesNewRomanPSMT-61" x="85.367188"/>
     <use xlink:href="#TimesNewRomanPSMT-6e" x="129.751953"/>
     <use xlink:href="#TimesNewRomanPSMT-6a" x="179.751953"/>
     <use xlink:href="#TimesNewRomanPSMT-69" x="207.535156"/>
     <use xlink:href="#TimesNewRomanPSMT-6e" x="235.318359"/>
     <use xlink:href="#TimesNewRomanPSMT-20" x="285.318359"/>
     <use xlink:href="#TimesNewRomanPSMT-74" x="310.318359"/>
     <use xlink:href="#TimesNewRomanPSMT-65" x="338.101562"/>
     <use xlink:href="#TimesNewRomanPSMT-73" x="382.486328"/>
     <use xlink:href="#TimesNewRomanPSMT-74" x="421.402344"/>
     <use xlink:href="#TimesNewRomanPSMT-20" x="449.185547"/>
     <use xlink:href="#TimesNewRomanPSMT-73" x="474.185547"/>
     <use xlink:href="#TimesNewRomanPSMT-65" x="513.101562"/>
     <use xlink:href="#TimesNewRomanPSMT-74" x="557.486328"/>
    </g>
   </g>
   <g id="legend_1">
    <g id="patch_7">
     <path d="M 62.565625 85.171875 
L 193.310625 85.171875 
Q 196.510625 85.171875 196.510625 81.971875 
L 196.510625 38.296875 
Q 196.510625 35.096875 193.310625 35.096875 
L 62.565625 35.096875 
Q 59.365625 35.096875 59.365625 38.296875 
L 59.365625 81.971875 
Q 59.365625 85.171875 62.565625 85.171875 
z
" style="fill: #e5e5e5; opacity: 0.8; stroke: #cccccc; stroke-width: 0.5; stroke-linejoin: miter"/>
    </g>
    <g id="line2d_25">
     <path d="M 65.765625 47.096875 
L 81.765625 47.096875 
L 97.765625 47.096875 
" style="fill: none; stroke: #e24a33; stroke-width: 1.5; stroke-linecap: square"/>
    </g>
    <g id="text_15">
     <!-- ground truth -->
     <g transform="translate(110.565625 52.696875)scale(0.16 -0.16)">
      <defs>
       <path id="TimesNewRomanPSMT-67" d="M 966 1044 
Q 703 1172 562 1401 
Q 422 1631 422 1909 
Q 422 2334 742 2640 
Q 1063 2947 1563 2947 
Q 1972 2947 2272 2747 
L 2878 2747 
Q 3013 2747 3034 2739 
Q 3056 2731 3066 2713 
Q 3084 2684 3084 2613 
Q 3084 2531 3069 2500 
Q 3059 2484 3036 2475 
Q 3013 2466 2878 2466 
L 2506 2466 
Q 2681 2241 2681 1891 
Q 2681 1491 2375 1206 
Q 2069 922 1553 922 
Q 1341 922 1119 984 
Q 981 866 932 777 
Q 884 688 884 625 
Q 884 572 936 522 
Q 988 472 1138 450 
Q 1225 438 1575 428 
Q 2219 413 2409 384 
Q 2700 344 2873 169 
Q 3047 -6 3047 -263 
Q 3047 -616 2716 -925 
Q 2228 -1381 1444 -1381 
Q 841 -1381 425 -1109 
Q 191 -953 191 -784 
Q 191 -709 225 -634 
Q 278 -519 444 -313 
Q 466 -284 763 25 
Q 600 122 533 198 
Q 466 275 466 372 
Q 466 481 555 628 
Q 644 775 966 1044 
z
M 1509 2797 
Q 1278 2797 1122 2612 
Q 966 2428 966 2047 
Q 966 1553 1178 1281 
Q 1341 1075 1591 1075 
Q 1828 1075 1981 1253 
Q 2134 1431 2134 1813 
Q 2134 2309 1919 2591 
Q 1759 2797 1509 2797 
z
M 934 0 
Q 788 -159 713 -296 
Q 638 -434 638 -550 
Q 638 -700 819 -813 
Q 1131 -1006 1722 -1006 
Q 2284 -1006 2551 -807 
Q 2819 -609 2819 -384 
Q 2819 -222 2659 -153 
Q 2497 -84 2016 -72 
Q 1313 -53 934 0 
z
" transform="scale(0.015625)"/>
       <path id="TimesNewRomanPSMT-64" d="M 2222 322 
Q 2013 103 1813 7 
Q 1613 -88 1381 -88 
Q 913 -88 563 304 
Q 213 697 213 1313 
Q 213 1928 600 2439 
Q 988 2950 1597 2950 
Q 1975 2950 2222 2709 
L 2222 3238 
Q 2222 3728 2198 3840 
Q 2175 3953 2125 3993 
Q 2075 4034 2000 4034 
Q 1919 4034 1784 3984 
L 1744 4094 
L 2597 4444 
L 2738 4444 
L 2738 1134 
Q 2738 631 2761 520 
Q 2784 409 2836 365 
Q 2888 322 2956 322 
Q 3041 322 3181 375 
L 3216 266 
L 2366 -88 
L 2222 -88 
L 2222 322 
z
M 2222 541 
L 2222 2016 
Q 2203 2228 2109 2403 
Q 2016 2578 1861 2667 
Q 1706 2756 1559 2756 
Q 1284 2756 1069 2509 
Q 784 2184 784 1559 
Q 784 928 1059 592 
Q 1334 256 1672 256 
Q 1956 256 2222 541 
z
" transform="scale(0.015625)"/>
      </defs>
      <use xlink:href="#TimesNewRomanPSMT-67"/>
      <use xlink:href="#TimesNewRomanPSMT-72" x="50"/>
      <use xlink:href="#TimesNewRomanPSMT-6f" x="83.300781"/>
      <use xlink:href="#TimesNewRomanPSMT-75" x="133.300781"/>
      <use xlink:href="#TimesNewRomanPSMT-6e" x="183.300781"/>
      <use xlink:href="#TimesNewRomanPSMT-64" x="233.300781"/>
      <use xlink:href="#TimesNewRomanPSMT-20" x="283.300781"/>
      <use xlink:href="#TimesNewRomanPSMT-74" x="308.300781"/>
      <use xlink:href="#TimesNewRomanPSMT-72" x="336.083984"/>
      <use xlink:href="#TimesNewRomanPSMT-75" x="369.384766"/>
      <use xlink:href="#TimesNewRomanPSMT-74" x="419.384766"/>
      <use xlink:href="#TimesNewRomanPSMT-68" x="447.167969"/>
     </g>
    </g>
    <g id="line2d_26">
     <path d="M 65.765625 69.749375 
L 81.765625 69.749375 
L 97.765625 69.749375 
" style="fill: none; stroke-dasharray: 5.55,2.4; stroke-dashoffset: 0; stroke: #348abd; stroke-width: 1.5"/>
    </g>
    <g id="text_16">
     <!-- predicted -->
     <g transform="translate(110.565625 75.349375)scale(0.16 -0.16)">
      <defs>
       <path id="TimesNewRomanPSMT-70" d="M -6 2578 
L 875 2934 
L 994 2934 
L 994 2266 
Q 1216 2644 1439 2795 
Q 1663 2947 1909 2947 
Q 2341 2947 2628 2609 
Q 2981 2197 2981 1534 
Q 2981 794 2556 309 
Q 2206 -88 1675 -88 
Q 1444 -88 1275 -22 
Q 1150 25 994 166 
L 994 -706 
Q 994 -1000 1030 -1079 
Q 1066 -1159 1155 -1206 
Q 1244 -1253 1478 -1253 
L 1478 -1369 
L -22 -1369 
L -22 -1253 
L 56 -1253 
Q 228 -1256 350 -1188 
Q 409 -1153 442 -1076 
Q 475 -1000 475 -688 
L 475 2019 
Q 475 2297 450 2372 
Q 425 2447 370 2484 
Q 316 2522 222 2522 
Q 147 2522 31 2478 
L -6 2578 
z
M 994 2081 
L 994 1013 
Q 994 666 1022 556 
Q 1066 375 1236 237 
Q 1406 100 1666 100 
Q 1978 100 2172 344 
Q 2425 663 2425 1241 
Q 2425 1897 2138 2250 
Q 1938 2494 1663 2494 
Q 1513 2494 1366 2419 
Q 1253 2363 994 2081 
z
" transform="scale(0.015625)"/>
       <path id="TimesNewRomanPSMT-63" d="M 2631 1088 
Q 2516 522 2178 217 
Q 1841 -88 1431 -88 
Q 944 -88 581 321 
Q 219 731 219 1428 
Q 219 2103 620 2525 
Q 1022 2947 1584 2947 
Q 2006 2947 2278 2723 
Q 2550 2500 2550 2259 
Q 2550 2141 2473 2067 
Q 2397 1994 2259 1994 
Q 2075 1994 1981 2113 
Q 1928 2178 1911 2362 
Q 1894 2547 1784 2644 
Q 1675 2738 1481 2738 
Q 1169 2738 978 2506 
Q 725 2200 725 1697 
Q 725 1184 976 792 
Q 1228 400 1656 400 
Q 1963 400 2206 609 
Q 2378 753 2541 1131 
L 2631 1088 
z
" transform="scale(0.015625)"/>
      </defs>
      <use xlink:href="#TimesNewRomanPSMT-70"/>
      <use xlink:href="#TimesNewRomanPSMT-72" x="50"/>
      <use xlink:href="#TimesNewRomanPSMT-65" x="83.300781"/>
      <use xlink:href="#TimesNewRomanPSMT-64" x="127.685547"/>
      <use xlink:href="#TimesNewRomanPSMT-69" x="177.685547"/>
      <use xlink:href="#TimesNewRomanPSMT-63" x="205.46875"/>
      <use xlink:href="#TimesNewRomanPSMT-74" x="249.853516"/>
      <use xlink:href="#TimesNewRomanPSMT-65" x="277.636719"/>
      <use xlink:href="#TimesNewRomanPSMT-64" x="322.021484"/>
     </g>
    </g>
   </g>
  </g>
 </g>
 <defs>
  <clipPath id="pfebfbd347b">
   <rect x="51.365625" y="27.096875" width="1116" height="326.16"/>
  </clipPath>
 </defs>
</svg>
